<svg width="310" height="54" viewBox="0 0 155 47" fill="none" xmlns="http://www.w3.org/2000/svg">
<g clip-path="url(#clip0_1047_9006)">
<path d="M0.00489807 69.3653C0.199478 67.7558 1.65643 72.1468 10.0139 65.7073C5.47176 66.6706 3.50255 65.1697 2.33667 64.3282C4.85139 65.0244 5.65305 64.036 5.65305 64.036C5.65305 64.036 0.733368 62.3164 1.13419 60.8906C1.53502 59.4648 1.71797 62.6102 7.11165 60.8906C12.5053 59.1709 12.7232 56.0973 12.7232 56.0973C12.7232 56.0973 11.8484 55.8418 11.7769 55.1456C9.46173 56.2258 6.54617 55.5847 5.52498 54.8902C8.05801 55.0571 9.3503 53.9569 9.3503 53.9569C9.3503 53.9569 7.89336 52.9685 7.30957 51.8349C8.42224 52.4393 12.1328 51.334 14.8238 46.9514C11.7619 46.8045 10.5711 45.4388 11.8833 44.5122C10.2318 44.7309 8.39064 43.4387 8.55696 43.0246C12.4804 43.9429 13.0026 42.3735 14.6558 40.3166C12.5769 41.0479 12.8513 39.9576 11.8367 39.9393C10.5844 40.1246 11.7819 38.4133 12.5286 38.2697C14.6359 37.5518 14.265 34.6067 15.356 34.2461C15.356 34.2461 15.2529 26.8132 16.8745 26.6479C18.4961 26.4826 17.4766 30.7083 18.8986 32.3544C20.3206 34.0006 20.5202 34.4047 21.904 34.4581C23.2877 34.5115 22.8337 36.0141 21.5397 36.2696C22.2233 36.6536 24.0179 36.343 24.0179 36.343C23.3892 37.1344 21.5497 37.4249 20.7847 37.313C20.7847 37.313 21.0208 38.5468 20.0911 38.9041C20.2009 39.5068 22.7339 40.5737 22.7339 40.5737C22.7339 40.5737 21.0474 39.3583 21.6412 38.8373C22.2349 38.3164 22.6524 38.8273 23.4541 38.9826C26.7272 39.4284 30.6057 37.0559 32.219 34.767L30.9517 34.7853L31.8448 33.852C31.6652 33.8921 25.7093 34.2294 26.2781 32.3878C26.496 31.73 27.0249 31.7484 27.7534 31.5831C28.4818 31.4178 28.7197 30.9153 29.4847 30.6198C30.2498 30.3243 30.7488 30.6682 31.3142 30.0471C31.8797 29.426 34.6306 28.0219 35.3974 26.5711C33.829 26.9618 32.214 26.0953 32.2989 25.4859C32.4435 24.601 33.9421 26.1136 34.4011 24.4374C33.4581 24.8481 30.807 24.6661 30.9384 22.8279C31.0348 22.6209 31.3991 22.681 32.1408 22.7545C34.4394 22.9632 33.6244 20.5306 35.5055 19.9012C35.3117 19.855 35.1368 19.7501 35.0044 19.6008C34.8721 19.4515 34.7886 19.2649 34.7653 19.0664C34.0469 20.1967 31.8415 19.4871 33.2834 17.8092C33.7924 17.3701 34.303 16.931 34.6672 15.6154C35.0314 14.2998 35.6152 13.7605 35.6152 12.859C35.6152 11.9574 36.3919 8.35115 37.1953 8.4196C37.9986 8.48805 37.7291 9.9556 37.7541 10.3212C37.779 10.6869 38.3362 11.4899 38.3844 12.6586C38.4327 13.8273 40.2555 16.6656 40.6696 17.487C41.0838 18.3084 43.5353 17.9995 43.6816 19.7075C43.828 21.4155 41.6409 19.7559 41.6409 20.4638C41.6409 21.1717 42.8052 21.7995 44.1922 22.0733C45.5793 22.3471 44.8974 22.6092 45.9901 22.9264C47.0829 23.2436 47.5685 24.2921 47.5935 24.7629C48.6745 24.596 49.245 24.1652 49.245 24.1652C49.1808 24.3943 49.0673 24.6063 48.9124 24.7863C49.7439 24.8731 49.9103 24.6411 49.9103 24.6411C49.9103 24.6411 49.6192 25.5426 48.0508 25.6161C46.4824 25.6896 45.9868 26.2839 44.7477 26.1403C45.719 26.5794 46.2662 27.3975 47.0063 27.476C47.7465 27.5545 49.5094 27.7698 50.3843 28.6964C51.2591 29.623 51.5618 29.0621 51.5485 29.7566C51.5352 30.4511 51.0861 30.1105 50.7169 30.2575C50.2396 30.6515 47.3639 31.2125 46.83 30.5914C46.83 30.5914 46.8666 31.6282 46.2346 31.8603C46.5373 32.695 46.9631 32.7869 47.4737 32.8102C48.8042 32.9104 48.6579 34.4364 47.0962 34.2978C46.2346 34.2978 44.643 33.9823 44.643 33.9823C44.643 33.9823 46.7868 37.1277 50.7053 38.3231L51.2641 38.066C51.2641 38.066 50.7369 37.5651 50.7551 37.0643C48.9506 36.919 47.7847 36.1861 47.966 35.5466C48.1473 34.9072 49.5161 35.9123 51.6649 33.7101C54.4773 31.0572 53.8503 30.1606 55.1459 29.411C54.4955 29.3322 53.8502 29.2151 53.2133 29.0604C52.3817 28.8417 52.2154 28.2006 52.5198 27.8166C52.8242 27.4326 53.067 27.4693 53.3946 27.4693C53.7223 27.4693 54.1514 27.0118 54.5705 26.9684C55.3522 27.0052 54.9497 25.7797 55.5085 25.7246C55.6083 25.7346 55.1759 25.0017 55.5917 24.7095C56.0075 24.4173 56.0274 24.3756 56.0191 24.2337C56.0108 24.0918 55.4453 23.6861 55.5734 23.247C55.7014 22.8079 55.427 22.8263 55.5085 22.3688C55.59 21.9113 55.6748 21.7561 55.6449 21.2001C55.615 20.6441 55.9193 20.4238 55.901 19.9379C55.8827 19.4521 55.7464 17.497 56.2204 17.4336C56.6944 17.3701 56.8756 18.0563 56.9023 18.7509C56.9156 20.0414 58.2461 21.6676 58.1247 22.7762C58.0598 23.05 58.4889 23.434 58.4424 23.7779C58.3958 24.1218 58.1779 24.1803 58.1779 24.5459C58.1779 24.9115 58.8615 25.4792 59.5633 25.6077C60.2652 25.7363 60.6211 25.4608 60.8939 25.763C61.5592 26.5811 59.6515 27.5394 59.0361 27.4459C60.3484 28.5345 61.7138 28.9736 62.3791 28.663C63.0444 28.3525 62.8781 28.7265 63.377 28.6163C63.876 28.5061 64.7708 28.2824 64.7708 28.2824C64.7708 28.2824 63.5683 29.6631 62.5471 29.9369C63.249 30.3677 65.0086 30.4228 65.0086 30.4228C65.0086 30.4228 63.7412 30.77 63.3853 31.0622C63.0294 31.3544 60.069 31.0706 60.069 31.0706C61.3429 32.5515 64.0606 33.4781 66.0564 34.034C66.9545 34.3279 67.2106 33.7903 67.5266 33.7418C67.8427 33.6934 67.9624 33.9088 68.2668 33.7051C68.5711 33.5014 69.6888 33.5599 70.2476 33.2293C69.4559 35.6568 65.1716 37.3114 63.1891 36.5467C63.1891 36.5467 62.424 37.3147 61.5608 37.2663C63.7662 39.2347 64.9321 39.9025 66.9545 40.1279C64.0523 35.6719 69.0318 41.9511 75.2821 39.1763C76.922 38.5185 79.6562 37.9875 80.3115 36.909C76.8338 38.0911 72.7307 37.2062 71.1274 36.1761C72.05 36.0396 72.9827 35.9838 73.9149 36.0091C74.7715 34.4714 76.759 34.1242 78.7997 33.1191C74.68 34.8554 72.6576 33.5766 72.6576 33.5766C72.6576 33.5766 74.5353 32.5565 74.9178 31.311C72.8771 31.3661 70.1611 28.8233 70.1611 28.8233C70.1611 28.8233 77.2679 27.7565 81.0583 24.3405C77.9614 24.4875 74.1345 23.2804 74.1345 21.2686C74.1345 19.2567 74.2792 20.9747 77.4143 20.5373C80.5494 20.0999 81.7152 19.4387 81.7152 19.4387C81.7152 19.4387 78.8363 19.3652 79.8192 17.6456C76.3265 18.4804 74.3158 18.0129 72.3848 16.2565C76.3565 16.6956 78.5386 15.5236 78.5386 15.5236C78.5386 15.5236 76.1702 15.4885 75.1856 14.1345C76.1436 13.7655 82.1111 13.7488 82.4753 12.7438C82.4753 12.7438 80.082 11.9507 80.2034 11.0007C80.3248 10.0508 81.8549 10.9006 84.195 8.41292C82.1776 9.61 81.1331 8.92715 81.1331 8.92715C81.7901 8.22927 84.3896 5.61975 84.6807 4.09711C84.9235 3.0002 84.4129 2.48765 84.8986 1.92667C85.3842 1.3657 84.8736 0 85.5539 0C86.2341 0 85.7967 0.634434 86.2341 1.68292C86.6715 2.7314 87.0358 3.24396 87.0108 4.34086C86.9859 5.43776 89.7334 8.70677 90.6565 11.3163C89.693 10.9692 88.8436 10.362 88.2016 9.56158C88.2016 9.56158 89.0648 11.707 89.4291 12.475C89.7933 13.243 90.4503 13.5485 90.8261 14.2798C91.202 15.011 91.543 14.9476 92.2116 15.2314C93.3592 15.7323 93.3658 16.8425 91.9321 16.9878C93.3292 17.7074 95.5396 18.6958 96.2814 19.1098C97.7782 20.3086 94.081 20.8578 92.9151 20.4755C92.2594 20.3353 91.6259 20.1055 91.0324 19.7927C91.5064 21.7177 97.073 24.1786 100.512 24.8414C98.4951 25.7196 91.9837 24.586 90.2706 23.3655C93.3775 28.7415 96.8868 28.1488 100.196 29.2808C100.597 29.7933 100.705 32.2443 95.0573 32.286C95.8889 33.6016 97.6452 33.1992 98.1192 33.9322C98.5932 34.6651 98.2273 35.8338 96.6223 36.0175C95.0173 36.2011 95.7475 37.0042 95.7475 37.0042C97.1628 39.2698 96.9915 39.2865 99.2568 38.1962C99.8655 38.0293 101.179 37.884 101.87 36.8272C100.424 36.8606 99.142 36.0859 99.3749 35.4749C99.6077 34.8638 101.183 34.8805 102.071 34.0891C102.959 33.2977 103.829 32.8353 104.323 31.7784C103.172 32.1257 101.856 31.1023 102.236 30.5079C102.615 29.9135 103.796 30.3276 105.259 28.8751C103.451 29.2207 102.334 28.067 102.547 27.5878C102.759 27.1087 105.208 27.3574 106.442 25.1469C105.544 25.4708 104.153 25.2621 104.142 24.9433C104.13 24.6244 105.314 24.4424 106.137 22.9849C106.961 21.5273 106.532 20.6475 107.157 19.993C107.31 19.5973 107.365 14.8341 107.573 14.8457C107.781 14.8574 108.23 17.1664 108.186 17.881C108.143 18.5956 107.967 19.2334 108.275 19.8177C108.873 21.1099 108.188 21.2702 109.151 22.4673C109.855 23.3021 111.223 23.1351 109.317 23.853C109.098 23.9849 110.814 25.0084 111.892 25.0969C112.97 25.1853 112.66 25.5259 113 25.5042C113.339 25.4825 113.427 25.3056 113.482 25.394C113.537 25.4825 113.558 26.142 112.902 26.1086C111.789 26.2539 112.364 26.8733 110.621 26.6362C111.307 27.9101 112.153 27.1788 112.66 27.7798C112.81 28.7816 110.719 28.6714 110.392 28.4293C110.392 28.4293 111.531 29.4628 112.396 29.5412C113.261 29.6197 114.545 29.573 114.774 29.8484C115.004 30.1239 114.829 30.5163 113.8 30.8168C112.77 31.1173 112.737 31.4763 112.737 31.4763C112.737 31.4763 113.81 31.5748 113.886 31.7851C114.106 32.7668 111.526 32.5214 111.391 32.2359C111.391 32.2359 112.556 32.9839 113.244 33.4998C113.933 34.0157 115.37 33.9288 115.764 34.2477C116.158 34.5666 116.928 34.4798 117.287 34.5115C117.647 34.5432 118.197 35.0408 117.454 35.6118C116.71 36.1827 114.941 36.2295 114.941 36.2295C114.941 36.2295 115.905 37.3297 114.721 37.7321C114.929 38.5802 117.329 39.6137 117.637 39.6688C117.944 39.7239 118.6 39.6471 118.951 39.8658C119.301 40.0845 119.449 40.8124 118.413 41.143C117.377 41.4736 116.672 42.4403 115.203 42.2967C115.86 42.881 118.217 43.8811 118.217 43.8811C120.712 42.7291 122.792 38.996 124.462 37.1711C121.302 37.9057 118.641 38.071 116.946 36.9925C116.946 36.7754 119.488 36.3798 119.86 36.2045C118.907 35.6752 119.06 35.004 119.06 35.004C121.954 36.0509 126.915 29.6932 127.772 26.8482C123.697 30.8552 120.417 32.9238 115.953 31.4512C117.715 30.8645 119.365 29.9834 120.835 28.845C120.835 28.845 117.993 27.6763 118.485 25.6278C122.144 25.5894 123.614 23.9098 125.75 22.5424C125.75 22.5424 123.318 21.0081 124.008 19.4237C124.156 19.1098 125.623 19.4404 126.719 18.7358C127.815 18.0313 128.023 18.068 128.495 17.482C127.519 17.7024 125.809 17.2299 126.041 16.2832C126.272 15.3366 127.641 15.2281 128.298 14.2263C128.045 13.8307 128.035 13.5452 128.199 13.3031C126.679 12.1344 127.847 10.4348 128.921 8.96221C129.602 8.14913 129.821 3.53947 130.139 3.56118C130.456 3.58288 130.139 4.6731 130.471 5.2658C130.804 5.85849 130.91 6.69661 130.97 7.45626C130.93 9.04068 132.135 9.80367 132.668 10.8204C132.735 11.1844 133.776 11.3046 133.786 11.7237C133.813 12.49 133.169 13.2062 132.549 13.1094C133.004 13.7257 133.607 14.2172 134.302 14.5385C135.965 15.2865 136.642 16.2415 134.992 16.8275C134.345 16.9594 134.29 17.3284 133.798 17.3668C133.305 17.4052 133.299 16.8659 132.931 16.8659C132.564 16.8659 132.308 16.8993 132.296 17.0212C134.222 18.1899 132.871 18.3802 135.112 18.9128C135.67 19.0798 136.47 18.9562 136.625 19.2467C136.78 19.5372 138.006 20.2368 138.039 20.6107C138.072 20.9847 136.833 20.973 136.542 21.2702C136.251 21.5674 134.45 22.0733 134.142 22.085C133.834 22.0967 133.836 22.1835 133.836 22.2386C135.804 21.9848 135.14 23.7094 136.564 23.449C137.485 23.2954 137.681 24.2304 139.073 24.4173C140.465 24.6043 146.099 24.0851 147.682 21.9731C146.943 23.5074 145.891 24.4474 145.645 25.0752C145.398 25.7029 144.356 25.5443 143.665 26.0986C142.975 26.6529 141.743 27.8817 141.184 27.7147C141.578 28.1438 144.257 28.6714 145.621 27.9785C144.981 28.9035 143.271 29.2006 142.81 29.5295C141.402 30.4945 138.5 29.5412 137.322 29.6297C137.247 29.7231 137.146 29.7917 137.032 29.8268C136.918 29.8619 136.796 29.8619 136.682 29.8267C138.551 31.5163 143.559 34.8354 146.724 34.9256C145.488 36.909 141.003 36.7621 139.572 36.525C139.572 36.525 139.524 37.5485 141.265 37.9608C139.902 38.7856 136.828 38.4717 136.828 38.4717C136.828 38.4717 137.848 38.7372 139.145 40.2214C140.442 41.7057 143.524 41.9544 144.224 42.679C146.035 44.2634 149.37 44.619 151.407 44.2801C151.906 43.9662 152.738 44.5773 151.472 45.9964C150.207 47.4156 149.615 47.6126 148.382 47.6126C147.15 47.6126 144.291 47.4456 144.291 47.4456C144.291 47.4456 148.217 49.773 148.334 50.1169C148.199 52.7164 141.375 50.2421 140.279 49.1603C140.279 51.3858 137.959 50.2171 136.253 48.6828C136.943 49.8515 139.847 53.4126 142.586 54.8601C145.325 56.3076 148.349 56.6432 148.573 57.3027C148.798 57.9622 148.683 58.9522 146.624 59.0841C144.565 59.216 143.095 59.3262 143.095 59.3262C143.095 59.3262 146.514 63.0877 148.726 64.3633C150.938 65.6388 153.483 65.8826 154.271 65.6839C155.06 65.4852 155.367 66.4753 154.403 67.0196C153.438 67.5638 152.76 67.6573 152.452 67.8777C152.144 68.0981 150.722 67.856 149.801 68.1415C148.879 68.427 145.769 67.4737 145.769 67.4737C145.854 67.6275 145.887 67.8047 145.864 67.9789C145.84 68.1532 145.761 68.315 145.638 68.4404C147.477 69.5623 147.697 71.0148 148.53 71.3671C149.363 71.7194 152.964 72.828 153.759 73.9783H5.64639C5.64639 73.9783 -0.189697 70.9748 0.00489807 69.3653ZM123.005 51.3591C123.434 50.9359 123.731 50.3971 123.86 49.808L121.625 50.9951C121.625 50.9951 122.38 51.1604 123.005 51.3591ZM119.817 48.4173L117.976 48.5492L118.797 49.4391L119.817 48.4173ZM115.839 57.5565C116.814 57.1306 117.663 56.4602 118.305 55.6098C116.496 56.3026 113.801 55.9437 113.801 55.9437L115.839 57.5565ZM73.1715 45.8478L73.5657 44.791L72.5794 43.7025L71.2971 45.0231L73.1715 45.8478ZM48.9107 47.1351L50.0949 45.9464H48.1223L48.9107 47.1351ZM47.1693 43.9095L48.9107 43.0179H46.0184L47.1693 43.9095ZM46.6421 40.6755L48.9107 39.7356C48.9107 39.7356 45.418 39.6705 44.3752 39.1429C44.934 39.809 46.6421 40.6672 46.6421 40.6672V40.6755ZM23.5672 44.5573C26.6324 45.195 29.044 46.6893 24.5301 48.2754C25.0291 49.0233 25.2985 50.3223 25.2985 50.3223L28.4586 47.8363H27.7667L30.7022 45.0648L28.9924 45.6575L31.2061 43.0179C31.2061 43.0179 28.5118 42.9745 27.7135 43.5455C26.9151 44.1165 27.5821 41.876 28.1525 41.4118C26.5077 41.8309 24.3821 41.4118 24.3821 41.4118C24.3821 41.4118 25.6311 42.4469 26.4212 43.0613C27.2112 43.6757 26.9035 44.2067 24.9093 43.9429C22.9152 43.6791 22.5643 43.5455 22.5643 43.5455C22.5643 43.5455 23.1281 44.3736 23.5672 44.5489V44.5573Z" fill="#012120"/>
<path d="M45 46L50 44.5C55.5 43.8333 66.6 42.5 67 42.5C67.4 42.5 70.8333 41.8333 72.5 41.5H79.5C79.9 41.5 86 42.8333 89 43.5C92.6667 44.3333 100.3 46.2 101.5 47C103 48 110.5 48 113 47.5C115.5 47 119.5 46 121 46C122.2 46 129.833 45.3333 133.5 45C141.5 45.3333 157.9 46 159.5 46C161.5 46 173 45 175.5 45C178 45 182.5 41.5 184 41.5C185.5 41.5 186.5 42.5 187 42.5C187.5 42.5 193.5 43.5 196.5 43.5C199.5 43.5 204 41.5 205.5 41.5H211.5C213 41.8333 216.5 42.5 218.5 42.5C221 42.5 222 41.5 223 41.5C223.8 41.5 226.667 40.8333 228 40.5H232.5C233.833 41.1667 236.7 42.5 237.5 42.5C238.3 42.5 239.167 44.1667 239.5 45L238.5 54L233.5 58.5L219.5 61.5L202.5 59.5H155L146.5 61.5C142.167 61 133.3 59.9 132.5 59.5C131.5 59 123 56.5 122.5 56.5C122.1 56.5 116 54.8333 113 54L60.5 50.5H45.5L45 46Z" fill="#012120"/>
</g>
<defs>
<clipPath id="clip0_1047_9006">
<rect width="155" height="74" fill="white" transform="matrix(-1 0 0 1 155 0)"/>
</clipPath>
</defs>
</svg>
