<svg width="364" height="318" viewBox="0 0 364 318" fill="none" xmlns="http://www.w3.org/2000/svg">
<path opacity="0.25" d="M96.5652 51.7445C59.1708 58.8789 47.7447 115.657 46.7059 143.154C45.5188 143.154 39.5832 148.951 25.3377 172.138C7.53085 201.121 37.3573 245.711 69.4097 235.901C101.462 226.091 114.372 274.695 123.275 296.544C132.179 318.393 220.768 302.34 269.292 281.829C317.815 261.318 244.362 229.659 295.557 195.324C346.752 160.99 313.809 68.6887 279.086 38.3675C244.362 8.04628 203.852 69.5805 178.922 73.5936C153.992 77.6067 143.308 42.8265 96.5652 51.7445Z" fill="#67AF79"/>
<path d="M208.929 62.5363C212.8 81.2722 199.844 98.0779 183.555 96.2566C178.99 95.7447 177.155 94.07 177.649 89.0586C178.704 78.2478 183.467 70.7529 193.995 67.4789C198.979 65.9119 203.919 64.1946 208.929 62.5363Z" fill="#318349"/>
<g clip-path="url(#clip0_1521_21997)">
<path d="M244.767 303.213L208.997 314.741C202.525 316.823 197.974 314.458 196.05 307.875C191.731 293.081 187.728 278.208 185.914 262.842C185.521 259.506 186.476 257.163 189.59 255.723C191.716 254.741 193.68 253.383 195.846 252.523C198.011 251.663 198.24 250.356 197.779 248.213C196.573 242.577 195.412 236.914 194.685 231.201C193.919 225.8 194.431 220.296 196.178 215.133C198.304 209 202.521 205.269 209.084 204.585C213.058 204.169 216.479 205.632 219.507 208.146C224.498 212.264 227.995 217.544 230.95 223.187C233.156 227.428 235.025 231.819 236.976 236.174C237.585 237.536 238.171 238.378 239.955 238.033C242.46 237.545 245.032 237.418 247.573 237.153C250.026 236.894 251.965 237.786 253.041 240.024C256.809 247.854 260.565 255.693 264.188 263.593C265.523 266.508 265.344 266.593 268.427 265.599C269.305 265.316 270.177 264.999 271.066 264.748C274.241 263.914 277.245 265.337 278.298 268.437C280.409 274.654 282.388 280.918 284.344 287.198C285.002 289.238 284.268 290.375 281.936 291.149C275.166 293.361 268.391 295.556 261.611 297.735L244.753 303.168L244.767 303.213ZM239.303 240.525C239.349 241.321 239.367 241.738 239.402 242.155C239.663 245.429 239.641 245.459 235.556 246.744C232.949 247.584 232.415 247.347 230.943 244.827C229.647 242.602 228.679 242.468 226.283 244.298C227.097 246.823 227.964 249.389 228.757 251.974C230.019 256.128 228.103 260.032 224.252 261.273C220.4 262.515 216.561 260.452 215.163 256.351C214.423 254.194 213.794 251.992 213.007 249.842C212.851 249.357 212.224 248.721 211.798 248.71C209.282 248.62 207.764 250.289 207.868 252.772C207.923 254.042 208.119 255.334 206.586 256.067C202.477 258.026 201.612 257.85 198.918 254.257C198.84 254.151 198.69 254.105 198.315 253.861C195.851 255.241 193.313 256.783 190.666 258.127C188.85 259.041 188.303 260.338 188.522 262.285C189.878 274.153 192.701 285.7 195.743 297.227C196.186 298.921 196.874 299.343 198.596 298.779C206.984 296.04 215.416 293.439 223.843 290.75C228.045 289.396 227.531 289.877 226.405 286.035C225.15 281.766 226.635 278.978 230.869 277.6C235.005 276.267 239.156 274.992 243.255 273.558C244.466 273.136 245.429 272.083 246.623 271.622C248.984 270.717 251.457 269.308 253.83 269.412C257.254 269.56 259.863 267.918 263.053 267.16C261.858 264.29 260.896 261.678 259.711 259.174C256.979 253.369 254.182 247.589 251.279 241.87C250.797 240.918 249.555 239.724 248.667 239.727C245.542 239.739 242.466 240.24 239.303 240.525ZM246.518 275.352C241.381 277.008 236.521 278.574 231.665 280.139C228.489 281.163 228.021 282.763 229.452 286.435C231.296 291.063 232.809 295.815 233.981 300.656C234.571 303.168 235.354 303.523 237.356 302.869C251.504 298.273 265.681 293.772 279.842 289.235C280.562 289.003 281.258 288.697 282.113 288.368C279.994 281.793 277.996 275.4 275.852 269.054C275.233 267.228 273.474 266.606 271.411 267.253C266.859 268.675 262.344 270.211 257.781 271.601C256.374 272.027 256.226 272.723 256.666 273.964C257.313 275.776 257.93 277.608 258.409 279.471C259.155 282.382 257.771 285.012 255.179 285.842C252.507 286.704 249.782 285.241 248.785 282.343C248.017 280.128 247.333 277.881 246.518 275.352ZM204.632 244.082C204.917 244.967 205.143 245.875 205.509 246.721C205.681 247.115 206.267 247.791 206.445 247.729C208.268 247.061 210.465 246.677 211.701 245.387C212.67 244.381 213.493 243.549 214.793 243.139C217.03 242.418 219.233 241.591 221.517 241.03C222.587 240.771 223.807 241.17 224.924 241.044C226.435 240.868 228.018 240.682 229.351 240.041C229.705 239.873 229.435 237.974 229.13 236.96C228.606 235.323 227.977 233.721 227.248 232.164C224.54 226.005 221.538 220.021 216.61 215.274C211.785 210.612 205.259 212.094 202.974 218.431C202.305 220.386 201.905 222.424 201.783 224.488C201.296 231.223 202.857 237.698 204.632 244.082ZM201.921 244.793C201.205 241.485 200.439 238.441 199.907 235.357C198.902 229.549 198.486 223.718 200.362 218.003C203.111 209.608 212.023 207.28 218.32 213.404C220.448 215.406 222.294 217.689 223.806 220.19C226.331 224.554 228.449 229.162 230.658 233.704C231.307 235.034 231.945 235.707 233.558 234.345C231.882 230.941 230.318 227.438 228.457 224.09C225.382 218.517 222.026 213.106 216.698 209.335C212.768 206.514 208.548 206.334 204.288 208.76C200.313 211.054 198.634 214.814 197.784 219.073C196.567 225.174 196.986 231.279 197.985 237.359C198.409 240.068 199.039 242.733 199.598 245.542L201.921 244.793ZM250.103 278.06C250.43 279.075 250.76 280.099 251.083 281.102C251.572 282.746 252.569 283.833 254.348 283.278C256.126 282.723 256.257 281.191 255.763 279.603C255.176 277.699 254.471 275.832 253.973 273.909C253.552 272.27 252.781 271.938 251.206 272.5C248.62 273.419 248.591 273.342 249.452 276.027L250.103 278.06Z" fill="#205C32"/>
<path d="M239.303 240.525C242.459 240.219 245.542 239.739 248.625 239.736C249.521 239.731 250.755 240.927 251.237 241.879C254.152 247.594 256.936 253.378 259.669 259.183C260.853 261.687 261.816 264.299 263.011 267.169C259.814 267.907 257.212 269.569 253.788 269.421C251.415 269.317 248.942 270.726 246.58 271.631C245.383 272.094 244.412 273.149 243.213 273.567C239.114 275.001 234.958 276.259 230.827 277.609C226.597 278.972 225.116 281.772 226.362 286.044C227.488 289.886 228.008 289.422 223.801 290.759C215.395 293.442 206.962 296.042 198.574 298.782C196.849 299.338 196.164 298.924 195.721 297.229C192.686 285.709 189.86 274.154 188.5 262.287C188.282 260.341 188.825 259.031 190.644 258.13C193.295 256.798 195.833 255.255 198.293 253.864C198.668 254.108 198.831 254.14 198.897 254.259C201.59 257.853 202.455 258.029 206.565 256.069C208.097 255.337 207.901 254.045 207.846 252.775C207.742 250.292 209.262 248.627 211.776 248.712C212.202 248.724 212.809 249.366 212.985 249.845C213.77 251.987 214.387 254.192 215.141 256.353C216.539 260.454 220.374 262.519 224.23 261.276C228.085 260.033 229.997 256.131 228.735 251.977C227.95 249.389 227.075 246.825 226.261 244.301C228.657 242.471 229.625 242.604 230.921 244.829C232.393 247.349 232.922 247.57 235.534 246.746C239.611 245.464 239.638 245.424 239.38 242.157C239.383 241.733 239.349 241.321 239.303 240.525ZM196.419 291.498L196.367 291.515C196.607 292.262 196.708 293.103 197.129 293.728C197.55 294.353 198.276 294.709 198.862 295.177C199.146 294.482 199.787 293.713 199.658 293.12C198.828 289.29 197.895 285.476 196.827 281.701C196.612 280.937 195.664 280.378 195.055 279.728C194.731 280.616 193.993 281.587 194.147 282.384C194.747 285.446 195.629 288.462 196.419 291.498ZM226.617 267.318C228.055 266.922 229.469 266.445 230.853 265.89C231.312 265.684 231.484 264.84 231.787 264.288C231.249 264.011 230.658 263.418 230.25 263.532C227.315 264.37 224.399 265.296 221.53 266.342C221.123 266.473 220.989 267.448 220.728 268.032C221.249 268.256 221.856 268.745 222.336 268.635C223.792 268.319 225.192 267.773 226.617 267.318ZM195.898 274.864C194.779 274.176 193.897 273.181 193.368 273.352C191.477 273.961 192.445 275.545 192.669 276.756C192.862 277.828 193.499 279.19 194.673 278.473C195.403 278.008 195.44 276.34 195.898 274.864Z" fill="#E8F3EB"/>
<path d="M246.518 275.352C247.333 277.881 248.017 280.128 248.774 282.351C249.77 285.249 252.494 286.707 255.168 285.85C257.759 285.015 259.145 282.394 258.398 279.479C257.919 277.616 257.301 275.78 256.655 273.972C256.215 272.731 256.363 272.035 257.77 271.609C262.333 270.219 266.848 268.683 271.4 267.261C273.458 266.598 275.221 267.236 275.841 269.062C277.985 275.408 279.983 281.801 282.102 288.376C281.247 288.705 280.551 289.011 279.831 289.243C265.67 293.78 251.492 298.281 237.345 302.877C235.352 303.519 234.558 303.172 233.97 300.664C232.798 295.823 231.284 291.071 229.441 286.443C228.002 282.774 228.483 281.187 231.654 280.147C236.515 278.554 241.381 277.008 246.518 275.352ZM255.973 287.973C255.081 288.189 254.21 288.486 253.372 288.86C252.918 289.11 252.691 289.782 252.362 290.266C252.913 290.584 253.554 291.264 253.999 291.166C255.785 290.743 257.536 290.179 259.233 289.479C259.631 289.32 259.792 288.511 260.063 288.001C259.504 287.73 258.914 287.223 258.384 287.249C257.557 287.3 256.758 287.72 255.953 287.979L255.973 287.973Z" fill="#E8F3EB"/>
<path d="M201.92 244.793L199.598 245.542C199.038 242.733 198.426 240.067 197.985 237.359C196.986 231.279 196.567 225.174 197.784 219.073C198.634 214.814 200.313 211.054 204.288 208.76C208.548 206.334 212.767 206.514 216.732 209.328C222.057 213.091 225.415 218.51 228.491 224.083C230.339 227.436 231.904 230.939 233.592 234.338C231.959 235.707 231.32 235.035 230.692 233.697C228.482 229.155 226.364 224.548 223.84 220.184C222.328 217.682 220.482 215.399 218.353 213.398C212.022 207.28 203.111 209.608 200.362 218.003C198.486 223.718 198.902 229.549 199.907 235.357C200.439 238.441 201.204 241.485 201.92 244.793Z" fill="#318349"/>
<path d="M250.102 278.06L249.445 276.02C248.578 273.329 248.605 273.414 251.199 272.493C252.774 271.931 253.545 272.263 253.966 273.902C254.464 275.826 255.186 277.687 255.756 279.596C256.266 281.179 256.156 282.704 254.341 283.271C252.526 283.838 251.568 282.747 251.076 281.096C250.776 280.08 250.435 279.092 250.102 278.06Z" fill="#205C32"/>
<path d="M196.358 292.018C195.474 288.579 194.467 285.162 193.78 281.679C193.733 281.365 193.766 281.045 193.875 280.748C193.957 280.49 194.107 280.26 194.309 280.08C194.511 279.901 194.757 279.78 195.022 279.73C195.287 279.68 195.561 279.702 195.815 279.794C196.069 279.887 196.293 280.046 196.464 280.255C196.621 280.447 196.74 280.667 196.812 280.904C198.024 285.178 199.079 289.497 200.017 293.828C200.04 293.946 200.043 294.067 200.024 294.186C199.854 295.384 198.315 295.763 197.467 294.902C197.352 294.788 197.249 294.663 197.158 294.529C196.679 293.823 196.565 292.869 196.292 292.021L196.358 292.018Z" fill="#205C32"/>
<path d="M226.691 267.56C224.983 268.111 223.299 268.766 221.559 269.147C221.408 269.177 221.251 269.17 221.103 269.127C220.891 269.06 220.696 268.949 220.529 268.801C220.363 268.653 220.23 268.472 220.138 268.269C220.046 268.066 219.998 267.846 219.997 267.624C219.996 267.401 220.042 267.181 220.132 266.977C220.201 266.725 220.365 266.511 220.59 266.379C224.033 265.121 227.534 264.006 231.059 263.005C231.256 262.974 231.457 263.013 231.629 263.114C231.817 263.212 231.984 263.347 232.119 263.51C232.255 263.674 232.356 263.863 232.417 264.066C232.478 264.27 232.497 264.483 232.474 264.694C232.451 264.905 232.386 265.11 232.282 265.295C232.179 265.525 232.004 265.714 231.782 265.834C230.155 266.579 228.395 267.011 226.691 267.56Z" fill="#205C32"/>
<path d="M195.898 274.864C196.533 276.262 195.658 277.908 194.665 278.476C194.438 278.629 194.164 278.697 193.891 278.667C193.204 278.541 192.805 277.567 192.661 276.758C192.507 275.876 191.954 274.802 192.384 274.047C192.492 273.87 192.635 273.716 192.804 273.597C192.973 273.477 193.165 273.394 193.368 273.352C194.376 273.108 195.474 273.938 195.898 274.864Z" fill="#205C32"/>
<path d="M255.875 287.64C256.908 287.307 257.928 286.766 258.978 286.711C259.277 286.71 259.57 286.79 259.828 286.941C260.086 287.092 260.299 287.31 260.444 287.571C260.59 287.833 260.663 288.129 260.656 288.428C260.65 288.727 260.563 289.018 260.405 289.272C260.321 289.405 260.198 289.509 260.053 289.571C257.88 290.469 255.638 291.191 253.35 291.731C253.154 291.763 252.953 291.726 252.782 291.626C252.532 291.514 252.315 291.342 252.148 291.124C251.982 290.907 251.873 290.651 251.83 290.381C251.788 290.11 251.813 289.833 251.905 289.576C251.996 289.318 252.151 289.087 252.354 288.905C252.406 288.862 252.461 288.825 252.52 288.793C253.556 288.22 254.744 288.004 255.875 287.64Z" fill="#205C32"/>
</g>
<path d="M282.874 42.762L272.597 30.8839L266.418 23.7399C264.017 20.9667 261.427 19.7535 259.829 20.6554L233.289 35.6324C231.689 36.5355 231.389 39.3797 232.524 42.8671L235.445 51.8499L240.563 67.5937" fill="#205C32"/>
<path d="M283.777 41.8652C280.088 37.6009 276.402 33.3366 272.717 29.0721L268.686 24.4149C267.394 22.9275 266.149 21.4196 264.486 20.3023C262.824 19.1851 260.899 18.6627 259.083 19.6082C258.327 20.0027 257.594 20.4488 256.851 20.8678L236.238 32.5002C234.261 33.6159 231.591 34.565 230.847 36.9284C230.147 39.1789 230.776 41.6339 231.48 43.8028L233.311 49.4344C235.23 55.3388 237.15 61.244 239.071 67.1499L239.318 67.9089C239.823 69.4674 242.302 68.8674 241.788 67.2932C240.072 62.0118 238.357 56.7289 236.643 51.4443C235.681 48.4929 234.692 45.5486 233.76 42.5867C233.275 41.0397 232.318 37.8891 233.971 36.7158C234.575 36.2898 235.301 35.9654 235.939 35.6051L259.316 22.4129C259.797 22.1415 260.37 21.6918 260.926 21.642C262.918 21.4486 264.773 23.7987 265.94 25.1366L269.658 29.436L281.451 43.0835L281.964 43.6753C283.04 44.9203 284.841 43.12 283.767 41.8794L283.777 41.8652Z" fill="#174124"/>
<path d="M321.163 111.258L325.772 125.442L325.787 125.469L328.709 134.452C329.844 137.939 329.544 140.783 327.943 141.686L301.399 156.666C299.801 157.568 297.211 156.355 294.811 153.581L288.629 146.433L288.614 146.406L278.356 134.552" fill="#205C32"/>
<path d="M319.929 111.567C321.566 116.605 323.204 121.644 324.842 126.684L326.616 132.142C327.115 133.678 327.731 135.247 327.992 136.844C328.214 138.216 328.327 139.937 327.023 140.735C326.219 141.23 325.372 141.666 324.55 142.131L301.594 155.085C300.896 155.479 300.449 155.805 299.584 155.588C297.636 155.093 296.247 153.299 294.981 151.838L291.184 147.445C287.209 142.849 283.233 138.254 279.255 133.66C278.178 132.415 276.377 134.216 277.452 135.456C281.085 139.658 284.72 143.856 288.358 148.051L292.263 152.568C293.41 153.89 294.509 155.279 295.875 156.378C297.619 157.766 299.901 158.853 302.055 157.761C302.692 157.44 303.308 157.054 303.93 156.703L327.611 143.339C328.355 142.919 329.092 142.556 329.629 141.857C332.218 138.505 329.628 133.19 328.48 129.654C326.544 123.7 324.608 117.746 322.674 111.791L322.4 110.954C321.895 109.395 319.416 109.995 319.93 111.569L319.929 111.567Z" fill="#174124"/>
<path d="M303.872 128.553C325.844 116.153 333.557 88.2051 321.099 66.1292C308.641 44.0534 280.73 36.2094 258.757 48.6092C236.784 61.0091 229.071 88.9571 241.53 111.033C253.988 133.109 281.899 140.953 303.872 128.553Z" fill="white"/>
<path d="M319.991 66.7546C329.015 82.8898 327.239 103.475 315.247 117.542C303.13 131.764 282.988 136.856 265.517 130.186C248.047 123.515 236.371 105.926 236.868 87.2687C237.359 68.6623 249.76 51.9249 267.429 46.1878C284.895 40.5176 304.541 46.4715 316.046 60.8775C317.511 62.7314 318.83 64.6964 319.991 66.7546C320.8 68.1887 323.018 66.9402 322.208 65.5038C312.465 48.3947 292.811 38.9104 273.441 42.0841C254.072 45.2578 238.376 60.8745 235.02 80.2403C231.64 99.7229 241.062 119.867 258.338 129.607C275.537 139.302 297.371 137.095 312.236 124.209C326.81 111.58 332.182 90.3714 325.341 72.2415C324.463 69.9189 323.415 67.6646 322.204 65.4972C321.399 64.072 319.182 65.3206 319.991 66.7546Z" fill="#174124"/>
<path d="M298.845 119.646C315.921 110.009 321.915 88.2889 312.234 71.1324C302.552 53.976 280.86 47.88 263.784 57.5166C246.707 67.1532 240.713 88.8733 250.395 106.03C260.077 123.186 281.769 129.282 298.845 119.646Z" fill="white"/>
<path d="M311.125 71.7578C318.078 84.2231 316.714 100.102 307.431 110.951C298.046 121.917 282.509 125.791 269.025 120.608C255.613 115.446 246.672 101.886 247.052 87.5432C247.433 73.2004 257.033 60.2606 270.678 55.8752C284.187 51.5342 299.314 56.1771 308.168 67.3348C309.265 68.7317 310.253 70.2104 311.125 71.7578C311.935 73.1919 314.152 71.9434 313.342 70.507C305.705 57.1301 290.372 49.7052 275.21 52.1576C260.048 54.61 247.69 66.8572 245.063 82.0246C242.426 97.2473 249.731 112.993 263.212 120.653C276.693 128.312 293.797 126.587 305.492 116.52C316.93 106.662 321.166 89.9907 315.8 75.7995C315.111 73.9776 314.29 72.2087 313.342 70.507C312.534 69.0752 310.316 70.3238 311.125 71.7578Z" fill="#174124"/>
<path d="M266.285 56.2521L262.295 58.5035L266.191 65.4068L270.18 63.1553L266.285 56.2521Z" fill="#174124"/>
<path d="M269.552 62.0419L265.563 64.2933L267.299 64.7813L263.403 57.8781L262.923 59.6169L266.913 57.3655L265.177 56.8775L269.072 63.7807C269.882 65.2148 272.099 63.9662 271.289 62.5299L267.393 55.6267C267.223 55.3349 266.946 55.1207 266.622 55.0295C266.298 54.9384 265.951 54.9775 265.656 55.1387L261.667 57.3901C261.377 57.5598 261.165 57.8361 261.075 58.1607C260.986 58.4852 261.026 58.8325 261.187 59.1289L265.083 66.0321C265.253 66.3239 265.529 66.5382 265.853 66.6293C266.178 66.7205 266.524 66.6813 266.819 66.5202L270.809 64.2687C272.234 63.4645 270.993 61.2289 269.552 62.0419Z" fill="#174124"/>
<path d="M296.301 110.218L292.312 112.469L296.207 119.373L300.197 117.121L296.301 110.218Z" fill="#174124"/>
<path d="M299.568 116.008L295.579 118.259L297.315 118.747L293.42 111.844L292.94 113.583L296.929 111.331L295.193 110.843L299.089 117.747C299.898 119.181 302.116 117.932 301.305 116.496L297.409 109.593C297.239 109.301 296.963 109.087 296.638 108.995C296.314 108.904 295.968 108.943 295.673 109.105L291.683 111.356C291.393 111.526 291.181 111.802 291.091 112.127C291.002 112.451 291.042 112.798 291.203 113.095L295.099 119.998C295.269 120.29 295.545 120.504 295.87 120.595C296.194 120.686 296.541 120.647 296.836 120.486L300.825 118.235C302.25 117.43 300.998 115.201 299.568 116.008Z" fill="#174124"/>
<path d="M248.447 76.0102L247.226 80.4365L254.839 82.576L256.06 78.1497L248.447 76.0102Z" fill="#174124"/>
<path d="M254.833 77.8058L253.616 82.2212L255.168 81.3456L247.555 79.2061L248.443 80.7805L249.665 76.3535L248.098 77.2378L255.711 79.3773C257.293 79.8236 257.973 77.3637 256.39 76.9186L248.777 74.7791C248.451 74.6931 248.106 74.7374 247.813 74.9024C247.521 75.0675 247.304 75.3404 247.21 75.6634L245.989 80.0984C245.904 80.4243 245.949 80.7711 246.115 81.0651C246.281 81.3591 246.555 81.5771 246.878 81.6728L254.509 83.8022C254.834 83.8882 255.18 83.8439 255.472 83.6789C255.764 83.5138 255.981 83.2409 256.076 82.9179L257.297 78.4909C257.725 76.9136 255.268 76.2213 254.833 77.8058Z" fill="#174124"/>
<path d="M307.654 93.0496L306.432 97.4759L314.046 99.6154L315.267 95.1891L307.654 93.0496Z" fill="#174124"/>
<path d="M314.039 94.8435L312.817 99.2706L314.385 98.3863L306.771 96.2468L307.659 97.8189L308.88 93.3919L307.313 94.2762L314.926 96.4157C316.51 96.8608 317.189 94.4021 315.605 93.957L307.992 91.8175C307.667 91.7316 307.321 91.7758 307.029 91.9409C306.736 92.1059 306.52 92.3788 306.425 92.7018L305.203 97.1289C305.119 97.4548 305.164 97.8013 305.33 98.0951C305.496 98.389 305.769 98.6071 306.092 98.7033L313.705 100.843C314.03 100.929 314.376 100.884 314.668 100.719C314.961 100.554 315.177 100.281 315.272 99.9584L316.493 95.5314C316.928 93.9503 314.488 93.2515 314.039 94.8435Z" fill="#174124"/>
<path d="M288.465 53.7393L286.361 61.3624L290.782 62.6047L292.886 54.9816L288.465 53.7393Z" fill="#174124"/>
<path d="M291.122 61.3754L286.701 60.1329L287.59 61.7073L289.696 54.083L288.126 54.9686L292.548 56.2111L291.659 54.6367L289.555 62.2597C289.12 63.8443 291.573 64.5356 292.011 62.9498L294.115 55.3268C294.2 55.0009 294.154 54.654 293.989 54.36C293.823 54.066 293.549 53.848 293.226 53.7524L288.807 52.5087C288.481 52.4228 288.135 52.4672 287.842 52.6324C287.55 52.7977 287.333 53.0709 287.238 53.3942L285.134 61.0172C285.05 61.3431 285.095 61.6896 285.261 61.9835C285.427 62.2773 285.7 62.4954 286.023 62.5916L290.444 63.8341C292.028 64.2792 292.706 61.8205 291.122 61.3754Z" fill="#174124"/>
<path d="M271.711 113.021L269.607 120.644L274.028 121.886L276.132 114.263L271.711 113.021Z" fill="#174124"/>
<path d="M274.367 120.658L269.945 119.416L270.834 120.99L272.944 113.364L271.371 114.252L275.798 115.505L274.91 113.931L272.797 121.544C272.361 123.126 274.818 123.819 275.255 122.233L277.365 114.621C277.45 114.295 277.404 113.949 277.238 113.655C277.073 113.361 276.799 113.143 276.477 113.047L272.056 111.789C271.73 111.703 271.385 111.746 271.092 111.912C270.799 112.077 270.583 112.35 270.489 112.673L268.383 120.298C268.298 120.624 268.343 120.97 268.509 121.264C268.675 121.559 268.948 121.776 269.271 121.872L273.69 123.116C275.268 123.561 275.947 121.103 274.367 120.658Z" fill="#174124"/>
<path d="M309.71 69.7674L302.839 73.6449L305.101 77.6532L311.972 73.7757L309.71 69.7674Z" fill="#174124"/>
<path d="M306.209 77.0278L303.947 73.0195L303.467 74.7583L310.338 70.8808L308.602 70.3928L310.864 74.4011L311.344 72.6623L304.473 76.5398C303.048 77.344 304.3 79.5734 305.729 78.7666L312.6 74.8891C312.891 74.7199 313.103 74.4436 313.193 74.1189C313.283 73.7941 313.242 73.4466 313.08 73.1503L310.818 69.142C310.648 68.8502 310.372 68.636 310.047 68.5448C309.723 68.4537 309.377 68.4929 309.082 68.654L302.211 72.5315C301.921 72.7011 301.709 72.9775 301.619 73.302C301.53 73.6266 301.57 73.9738 301.731 74.2703L303.993 78.2786C304.802 79.7127 307.02 78.4641 306.209 77.0278Z" fill="#174124"/>
<path d="M323.958 71.3509L318.645 61.9358L324.364 58.7087C327.121 61.1767 328.99 64.4874 329.677 68.1238L323.958 71.3509Z" fill="white"/>
<path d="M325.067 70.7255L319.753 61.3104L319.274 63.0492L324.992 59.8221L323.462 59.6078C326.032 61.9321 327.78 65.0293 328.441 68.4305L329.049 67.0104L323.33 70.2375C321.905 71.0417 323.159 73.2698 324.587 72.4643L330.305 69.2372C330.544 69.0961 330.731 68.8825 330.84 68.6273C330.949 68.3721 330.974 68.0884 330.912 67.8171C330.15 63.9646 328.17 60.4561 325.266 57.8119C325.066 57.6178 324.81 57.4923 324.535 57.4533C324.26 57.4144 323.98 57.4641 323.735 57.5953L318.017 60.8224C317.727 60.992 317.515 61.2684 317.425 61.5929C317.336 61.9175 317.376 62.2647 317.537 62.5612L322.85 71.9763C323.66 73.4104 325.877 72.1618 325.067 70.7255Z" fill="#174124"/>
<path d="M310.552 53.3526L302.144 46.5678L306.262 41.437C309.732 42.7076 312.689 45.0936 314.67 48.2219L310.552 53.3526Z" fill="white"/>
<path d="M311.453 52.4536L303.047 45.6675L303.044 47.4748L307.162 42.344L305.923 42.6646C309.062 43.8534 311.74 46.021 313.562 48.8472L313.769 47.3148L309.65 52.4434C308.637 53.7082 310.42 55.5321 311.452 54.2596L315.57 49.1288C315.914 48.7027 316.103 48.1 315.778 47.5964C313.596 44.2035 310.375 41.6095 306.601 40.2059C306.385 40.1406 306.155 40.1361 305.937 40.193C305.718 40.25 305.52 40.3661 305.363 40.5288L301.245 45.6596C300.854 46.1474 300.66 46.994 301.245 47.4656L309.652 54.2482C310.913 55.2716 312.734 53.4863 311.453 52.4536Z" fill="#174124"/>
<path d="M327.161 82.7848L328.623 93.4896L335.144 92.6166C335.849 88.9891 335.335 85.225 333.682 81.9118L327.161 82.7848Z" fill="white"/>
<path d="M325.932 83.1027L327.394 93.8075C327.496 94.5426 328.323 94.8218 328.94 94.7405L335.461 93.8674C335.681 93.8169 335.883 93.7067 336.044 93.5488C336.206 93.391 336.321 93.1915 336.376 92.9723C337.126 89.0172 336.571 84.9198 334.795 81.2988C334.528 80.7535 333.917 80.6194 333.375 80.6845L326.855 81.5575C325.224 81.7758 325.868 84.2518 327.476 84.0369L333.997 83.1639L332.578 82.5496C334.055 85.5695 334.526 88.9818 333.921 92.2822L334.836 91.3871L328.316 92.2623L329.865 93.1941L328.401 82.4905C328.173 80.8488 325.701 81.4714 325.932 83.1027Z" fill="#174124"/>
<path d="M256.959 99.5365L250.088 103.414L252.35 107.422L259.221 103.545L256.959 99.5365Z" fill="#174124"/>
<path d="M253.458 106.797L251.196 102.789L250.716 104.527L257.587 100.65L255.851 100.162L258.113 104.17L258.592 102.431L251.722 106.309C250.296 107.113 251.549 109.342 252.978 108.536L259.849 104.658C260.14 104.489 260.352 104.213 260.442 103.888C260.531 103.563 260.491 103.216 260.329 102.919L258.067 98.911C257.897 98.6193 257.621 98.405 257.296 98.3139C256.972 98.2227 256.625 98.2619 256.33 98.423L249.46 102.301C249.17 102.47 248.957 102.747 248.868 103.071C248.778 103.396 248.818 103.743 248.98 104.039L251.242 108.048C252.051 109.482 254.269 108.233 253.458 106.797Z" fill="#174124"/>
<path d="M240.695 67.6102L236.46 79.4457L231.699 62.8805C230.359 58.2169 231.096 54.2925 233.572 52.8954L235.44 51.841C237.193 57.1015 238.945 62.3579 240.695 67.6102Z" fill="white"/>
<path d="M239.467 67.2669L235.226 79.0934L237.69 79.13L235 69.7587L233.349 64.0109C232.851 62.2804 232.339 60.5552 232.311 58.7242C232.29 57.2475 232.521 55.4704 233.643 54.4085C234.313 53.778 235.267 53.3922 236.062 52.9432L234.2 52.1387C235.949 57.3918 237.699 62.6453 239.45 67.8991C239.966 69.4514 242.445 68.8513 241.919 67.2834C240.179 62.0451 238.435 56.8013 236.686 51.552C236.429 50.7752 235.585 50.315 234.822 50.7453C232.679 51.9548 230.91 53.0467 230.169 55.5759C229.402 58.1613 229.837 60.9723 230.562 63.5221C231.696 67.5037 232.848 71.481 233.991 75.4599L235.226 79.7546C235.586 81.0194 237.265 80.976 237.689 79.7912L241.925 67.9557C242.477 66.4078 240.019 65.7281 239.467 67.2669Z" fill="#174124"/>
<path d="M273.579 30.2623L275.447 29.2079C277.923 27.8108 281.663 29.2085 284.963 32.7664L296.678 45.3952L284.357 42.9032C280.765 38.6922 277.172 34.4786 273.579 30.2623Z" fill="white"/>
<path d="M274.207 31.3758C274.883 30.9446 275.581 30.5505 276.3 30.195C277.491 29.6811 278.88 30.019 280.006 30.549C281.872 31.422 283.315 32.8655 284.699 34.3599L293.103 43.4164L295.766 46.2856L297.008 44.1577L290.109 42.7661L286.66 42.0703C286.098 41.9556 285.413 41.9315 284.923 41.6177C284.497 41.3443 284.111 40.6664 283.781 40.2775L274.481 29.3655C273.416 28.1142 271.615 29.9146 272.678 31.1614C275.945 34.9939 279.212 38.8267 282.478 42.66C282.843 43.0849 283.224 43.7334 283.721 44.0136C284.092 44.221 284.601 44.2571 285.006 44.3393L288.949 45.1382L296.342 46.633C297.575 46.8822 298.486 45.4761 297.584 44.5051L290.277 36.6263C287.457 33.5873 284.598 29.7222 280.694 28.091C279.17 27.4624 277.441 27.1524 275.847 27.664C274.819 27.9916 273.885 28.6303 272.954 29.1556C271.525 29.9532 272.778 32.1826 274.207 31.3758Z" fill="#174124"/>
<path d="M250.571 120.743C250.494 120.59 250.378 120.461 250.235 120.369C250.109 120.262 249.962 120.184 249.804 120.139C249.646 120.095 249.48 120.085 249.318 120.111C249.147 120.115 248.98 120.165 248.835 120.255L248.563 120.461C248.407 120.617 248.294 120.812 248.235 121.025L248.188 121.345C248.185 121.571 248.242 121.794 248.354 121.991C248.531 122.277 248.803 122.492 249.122 122.597C249.279 122.645 249.445 122.653 249.605 122.618C249.776 122.615 249.942 122.564 250.086 122.473L250.36 122.268C250.516 122.112 250.628 121.918 250.687 121.705L250.735 121.384C250.737 121.157 250.68 120.934 250.567 120.736L250.571 120.743Z" fill="#174124"/>
<path d="M258.458 127.452C258.174 127.631 257.962 127.903 257.858 128.222C257.81 128.379 257.804 128.545 257.838 128.706C257.843 128.876 257.894 129.042 257.984 129.187L258.191 129.461C258.347 129.618 258.54 129.733 258.753 129.793L259.072 129.841C259.298 129.845 259.52 129.788 259.716 129.678C259.87 129.602 259.999 129.485 260.09 129.34C260.239 129.142 260.328 128.904 260.347 128.656C260.366 128.408 260.313 128.159 260.196 127.939L259.974 127.665C259.819 127.507 259.625 127.393 259.413 127.333L259.093 127.284C258.868 127.28 258.645 127.336 258.448 127.446L258.458 127.452Z" fill="#174124"/>
<path d="M237.915 98.3722C237.838 98.2198 237.722 98.0908 237.578 97.9984C237.453 97.8909 237.305 97.812 237.146 97.7673C236.987 97.7227 236.821 97.7132 236.658 97.7397C236.487 97.7436 236.32 97.7931 236.175 97.8832L235.903 98.0896C235.747 98.246 235.634 98.4401 235.575 98.6533L235.528 98.9735C235.525 99.1997 235.582 99.4227 235.694 99.6198C235.871 99.9059 236.143 100.12 236.462 100.225C236.619 100.274 236.785 100.281 236.945 100.247C237.116 100.243 237.282 100.193 237.426 100.101L237.7 99.8969C237.856 99.7405 237.969 99.5464 238.028 99.3332L238.075 99.013C238.077 98.786 238.02 98.5622 237.908 98.3645L237.915 98.3722Z" fill="#174124"/>
<path d="M320.857 111.786L325.72 99.7318L329.875 114.199C331.214 118.86 330.478 122.787 328.002 124.184L325.772 125.442L320.857 111.786Z" fill="white"/>
<path d="M322.087 112.128L326.951 100.076L324.488 100.04L327.085 109.085C328.059 112.478 329.775 116.519 329.143 120.07C328.706 122.516 327.099 123.226 325.144 124.329L327.008 125.136L322.092 111.468C321.537 109.931 319.063 110.535 319.618 112.083L324.537 125.749C324.813 126.518 325.621 126.992 326.399 126.553C328.124 125.58 329.923 124.771 330.869 122.91C332.273 120.142 331.914 116.771 331.107 113.876C330.15 110.435 329.136 107.008 328.15 103.578L326.956 99.4216C326.58 98.113 324.956 98.2429 324.493 99.385L319.63 111.436C319.017 112.959 321.48 113.637 322.087 112.128Z" fill="#174124"/>
<path d="M266.223 131.799L277.378 143.824C280.677 147.38 284.418 148.78 286.894 147.383L288.612 146.413L277.429 134.256L266.223 131.799Z" fill="white"/>
<path d="M265.322 132.698L272.351 140.275C275.13 143.273 277.911 147.02 281.804 148.57C283.243 149.146 284.864 149.409 286.377 148.972C287.404 148.686 288.322 148.044 289.24 147.527C289.408 147.429 289.552 147.293 289.661 147.131C289.769 146.969 289.839 146.784 289.865 146.59C289.892 146.397 289.874 146.199 289.813 146.013C289.752 145.827 289.65 145.657 289.514 145.516L281.18 136.444C280.249 135.431 279.325 134.053 278.205 133.243C277.708 132.881 276.964 132.836 276.38 132.708L272.914 131.951L266.578 130.562C264.978 130.214 264.289 132.67 265.897 133.022L271.004 134.139L274.759 134.956C275.329 135.081 276.398 135.546 276.982 135.442C277.332 135.38 276.472 134.89 276.604 135.212C276.738 135.408 276.898 135.583 277.082 135.733L278.935 137.749L284.238 143.52L287.717 147.303L287.99 145.29C287.325 145.666 286.669 146.13 285.964 146.413C284.842 146.864 283.556 146.562 282.485 146.095C280.575 145.258 279.097 143.788 277.702 142.279L269.742 133.721L267.126 130.902C266.007 129.695 264.203 131.491 265.322 132.698Z" fill="#174124"/>
<path d="M235.013 84.8157C234.73 84.9945 234.518 85.2668 234.413 85.5859C234.366 85.7426 234.359 85.9091 234.394 86.0695C234.399 86.2399 234.449 86.4061 234.54 86.5508L234.747 86.8245C234.902 86.9819 235.096 87.0963 235.308 87.1565L235.628 87.2051C235.854 87.2087 236.076 87.1522 236.272 87.0413C236.425 86.9653 236.554 86.8487 236.646 86.7042C236.794 86.5053 236.884 86.2679 236.902 86.0196C236.921 85.7714 236.869 85.5226 236.752 85.3025L236.546 85.0311C236.391 84.8737 236.197 84.7592 235.985 84.699L235.665 84.6504C235.439 84.6468 235.217 84.7025 235.02 84.812L235.013 84.8157Z" fill="#174124"/>
<path d="M271.831 75.1423L275.718 82.4177L277.72 86.1675C278.357 87.3583 278.908 88.8529 279.759 89.8995C280.561 90.8856 282.286 90.9921 283.464 91.2875L287.632 92.3558L295.972 94.4934C298.362 95.1032 299.379 91.4169 296.988 90.8049L281.784 86.9069L282.938 87.8119L275.165 73.2611C274.001 71.0847 270.676 72.9609 271.84 75.1373L271.831 75.1423Z" fill="#174124"/>
<path d="M244.838 43.1051L260.686 34.1618C262.113 33.3563 260.859 31.1282 259.429 31.935L243.582 40.8782C242.157 41.6825 243.409 43.9118 244.838 43.1051Z" fill="white"/>
<path d="M302.646 145.54L318.493 136.597C319.92 135.791 318.666 133.563 317.236 134.37L301.389 143.313C299.964 144.117 301.216 146.347 302.646 145.54Z" fill="white"/>
<path d="M296.422 176C302.047 192.461 298.557 202.68 285.064 210C273.768 197.658 278.647 182.623 296.422 176Z" fill="#318349"/>
<g clip-path="url(#clip1_1521_21997)">
<path d="M169.644 174.631C168.92 174.508 168.273 174.106 167.847 173.514C167.421 172.921 167.249 172.187 167.37 171.472L168.301 165.986C170.193 166.096 172.057 165.513 173.536 164.349C175.015 163.185 176.006 161.522 176.319 159.677C176.632 157.832 176.245 155.936 175.233 154.349C174.22 152.762 172.653 151.597 170.831 151.077L171.761 145.591C171.883 144.876 172.287 144.24 172.885 143.821C173.483 143.402 174.226 143.236 174.95 143.359L235.224 153.585C235.947 153.71 236.592 154.112 237.017 154.704C237.443 155.296 237.614 156.03 237.494 156.744L236.565 162.218C234.656 162.082 232.767 162.651 231.266 163.816C229.764 164.981 228.757 166.658 228.441 168.521C228.125 170.383 228.523 172.298 229.556 173.893C230.589 175.488 232.185 176.649 234.032 177.15L233.103 182.624C232.981 183.339 232.576 183.975 231.979 184.393C231.381 184.812 230.639 184.978 229.914 184.857L169.644 174.631Z" fill="white"/>
<path d="M234.949 155.203C235.239 155.252 235.498 155.413 235.668 155.65C235.839 155.887 235.907 156.181 235.859 156.467L235.159 160.593C233.108 160.781 231.179 161.632 229.673 163.014C228.166 164.396 227.165 166.233 226.824 168.239C226.484 170.245 226.823 172.309 227.79 174.111C228.756 175.913 230.296 177.352 232.17 178.206L231.468 182.347C231.419 182.633 231.258 182.887 231.019 183.055C230.779 183.222 230.482 183.289 230.192 183.24L169.919 173.013C169.629 172.964 169.37 172.803 169.2 172.566C169.029 172.329 168.961 172.036 169.009 171.75L169.715 167.591C171.749 167.386 173.656 166.529 175.146 165.15C176.635 163.772 177.624 161.947 177.962 159.956C178.3 157.965 177.968 155.916 177.017 154.123C176.065 152.331 174.547 150.892 172.695 150.028L173.4 145.869C173.449 145.583 173.61 145.329 173.85 145.161C174.089 144.994 174.386 144.927 174.676 144.976L234.949 155.203ZM235.498 151.968L175.225 141.741C174.066 141.545 172.877 141.811 171.92 142.481C170.963 143.15 170.317 144.169 170.123 145.313L168.915 152.43C169.184 152.438 169.453 152.464 169.719 152.508C171.299 152.776 172.709 153.652 173.639 154.945C174.57 156.237 174.943 157.839 174.679 159.399C174.414 160.959 173.533 162.348 172.228 163.261C170.924 164.174 169.303 164.537 167.723 164.269C167.458 164.223 167.196 164.158 166.939 164.076L165.732 171.194C165.538 172.337 165.812 173.513 166.494 174.461C167.176 175.409 168.211 176.052 169.37 176.248L229.644 186.475C230.803 186.671 231.991 186.405 232.948 185.736C233.905 185.066 234.551 184.047 234.745 182.903L235.956 175.768C235.647 175.765 235.338 175.739 235.033 175.689C233.453 175.421 232.042 174.544 231.112 173.252C230.182 171.959 229.808 170.357 230.073 168.797C230.337 167.238 231.219 165.849 232.523 164.935C233.828 164.022 235.448 163.66 237.028 163.928C237.333 163.981 237.633 164.058 237.926 164.158L239.136 157.023C239.33 155.879 239.056 154.703 238.374 153.755C237.692 152.807 236.657 152.164 235.498 151.968Z" fill="#205C32"/>
<path d="M192.368 145.918L191.88 148.794C191.832 149.08 191.9 149.374 192.071 149.611C192.241 149.848 192.5 150.009 192.79 150.058C193.079 150.107 193.377 150.04 193.616 149.873C193.855 149.706 194.017 149.451 194.065 149.165L194.553 146.289C194.602 146.003 194.533 145.709 194.362 145.472C194.192 145.235 193.933 145.075 193.644 145.026C193.354 144.976 193.057 145.043 192.817 145.21C192.578 145.378 192.417 145.632 192.368 145.918Z" fill="#205C32"/>
<path d="M187.435 174.991L186.948 177.866C186.899 178.152 186.968 178.446 187.138 178.683C187.309 178.92 187.567 179.081 187.857 179.13C188.147 179.179 188.444 179.112 188.683 178.945C188.922 178.778 189.084 178.523 189.133 178.237L189.62 175.361C189.669 175.075 189.6 174.781 189.43 174.544C189.259 174.307 189.001 174.147 188.711 174.098C188.421 174.048 188.124 174.115 187.885 174.282C187.646 174.45 187.484 174.705 187.435 174.991Z" fill="#205C32"/>
<path d="M190.957 154.236L190.006 159.84C189.957 160.126 190.026 160.42 190.197 160.657C190.367 160.894 190.626 161.054 190.915 161.104C191.205 161.153 191.502 161.086 191.742 160.919C191.981 160.751 192.142 160.497 192.191 160.211L193.142 154.607C193.19 154.321 193.122 154.027 192.951 153.79C192.781 153.553 192.522 153.392 192.232 153.343C191.942 153.294 191.645 153.36 191.406 153.528C191.167 153.695 191.005 153.95 190.957 154.236Z" fill="#205C32"/>
<path d="M189.313 163.927L188.362 169.531C188.313 169.817 188.382 170.11 188.552 170.347C188.723 170.584 188.982 170.745 189.271 170.794C189.561 170.843 189.858 170.777 190.098 170.609C190.337 170.442 190.498 170.187 190.547 169.901L191.498 164.298C191.546 164.012 191.478 163.718 191.307 163.481C191.136 163.244 190.878 163.083 190.588 163.034C190.298 162.985 190.001 163.051 189.762 163.219C189.523 163.386 189.361 163.641 189.313 163.927Z" fill="#205C32"/>
<path d="M203.819 160.928L201.284 160.921C202.478 157.948 204.595 157.259 206.5 157.58C207.731 157.786 208.874 158.416 209.647 158.959C210.556 158.701 211.84 158.486 213.073 158.695C214.967 159.016 216.749 160.369 216.894 163.569L214.499 162.74C214.583 163.642 214.83 165.244 213.872 166.438C212.834 165.132 210.285 162.994 209.159 161.834C207.714 162.557 204.602 163.735 203.191 164.625C202.68 163.183 203.443 161.752 203.819 160.928Z" fill="#205C32"/>
<path d="M209.159 161.835C208.578 163.38 207.472 167.268 207.695 170.461L209.159 161.835Z" fill="#205C32"/>
<path d="M209.159 161.835C208.578 163.38 207.472 167.268 207.695 170.461" stroke="#205C32" stroke-width="2" stroke-linecap="round" stroke-linejoin="round"/>
<path d="M202.348 172.09L212.207 173.763C210.56 171.545 209.749 170.812 207.695 170.461C205.642 170.111 203.307 171.146 202.348 172.09Z" fill="#205C32"/>
</g>
<path d="M24.2159 79.873L159.944 105.102L137.078 61.439L59.3011 47.1708C47.6077 58.063 35.9126 68.9637 24.2159 79.873Z" fill="white"/>
<path d="M21.7468 81.174L159.308 107.191C130.807 132.151 102.305 157.111 73.8028 182.071L21.7468 81.174Z" fill="#E9EFEB"/>
<path d="M161.364 102.718L21.3468 76.2363L22.5888 82.1288L56.195 53.8144L60.951 49.8254L58.4836 50.3179L136.261 64.5861L134.159 63.2162L158.054 107.736C158.895 109.306 161.251 109.499 162.608 108.598C164.213 107.54 164.292 105.619 163.464 104.074L150.502 79.9384L144.022 67.8661L140.779 61.8296C140.271 60.8759 139.853 59.6743 139.009 58.9401C138.166 58.2059 136.867 58.0928 135.759 57.8833L80.6316 47.7707L66.9536 45.2633C64.8073 44.8574 62.6667 44.4216 60.5426 44.0862C59.3076 43.8924 58.2516 43.7634 57.1603 44.5028C55.6303 45.5395 54.247 46.953 52.8345 48.1445L33.4499 64.4787L18.8882 76.7526C16.82 78.4963 17.134 82.0784 20.1345 82.6459L160.152 109.128C164.296 109.903 165.515 103.503 161.364 102.718Z" fill="#205C32"/>
<path d="M79.7652 50.0246L65.9953 76.0486C64.2517 79.3432 62.191 82.6221 60.7077 86.0455C59.9692 87.7401 60.6037 90.0745 60.7946 91.8389L68.1327 160.097L70.5341 182.545C70.9833 186.705 77.5162 186.204 77.0684 182.013L73.6249 149.935L68.153 99.0561L66.888 87.2674L66.5651 88.9744L83.2914 57.3569L85.6562 52.8936C87.6221 49.199 81.7249 46.3156 79.7652 50.0246Z" fill="#205C32"/>
<path d="M109.959 57.4989L113.089 92.81L113.544 97.8596L113.867 96.1526L104.151 117.476C102.416 121.294 108.3 124.175 110.04 120.358L115.522 108.324L118.819 101.094C119.379 99.8736 120.1 98.6443 120.062 97.2492C119.965 93.6948 119.427 90.0969 119.113 86.5591L117.497 68.3524L116.489 56.9702C116.117 52.7982 109.587 53.3091 109.959 57.5032L109.959 57.4989Z" fill="#205C32"/>
<path d="M18.0343 81.2674L36.0276 116.132L64.5627 171.426L71.0994 184.093C71.8452 185.533 74.4438 186.016 75.6539 184.954L105.137 159.069L151.895 118.015L162.606 108.611C163.939 107.44 164.529 105.682 163.461 104.087C162.574 102.761 160.234 102.062 158.907 103.226L129.42 129.106L82.6668 170.161L71.9558 179.565L76.5103 180.427L58.5169 145.562L29.981 90.2719L23.4443 77.6055C22.6275 76.0233 20.2184 75.855 18.8898 76.7441C17.2686 77.8165 17.2307 79.7099 18.0343 81.2674Z" fill="#205C32"/>
<path d="M76.7456 183.72L93.381 152.748L95.8026 148.242C97.7881 144.538 91.8955 141.678 89.914 145.361L73.2964 176.309L70.857 180.838C68.8715 184.542 74.7642 187.403 76.7456 183.72Z" fill="#205C32"/>
<path d="M98.9475 128.488L95.2445 135.301C93.2134 138.988 99.1318 141.853 101.129 138.182C102.366 135.905 103.601 133.635 104.836 131.369C106.841 127.678 100.944 124.817 98.9475 128.488Z" fill="#205C32"/>
<path d="M152.658 61.1181C152.862 61.9544 153.301 62.7147 153.923 63.309L155.39 61.7729L153.923 63.309L162.78 71.7623L150.881 74.6584C150.046 74.8618 149.285 75.3007 148.691 75.9229L140.234 84.779L137.341 72.8826L135.278 73.3843L137.341 72.8826C137.138 72.0462 136.699 71.2858 136.077 70.6913L127.221 62.2344L139.117 59.3418C139.954 59.1384 140.714 58.6991 141.309 58.0763L149.762 49.2202L152.658 61.1181L154.852 60.5842L152.658 61.1181Z" fill="white" stroke="#205C32" stroke-width="5"/>
<path d="M118.328 181.788C118.532 182.624 118.971 183.385 119.593 183.979L121.059 182.443L119.593 183.979L128.45 192.432L116.551 195.328C115.715 195.532 114.955 195.97 114.361 196.593L105.904 205.449L103.011 193.552L100.948 194.054L103.011 193.552C102.808 192.716 102.369 191.956 101.747 191.361L92.8907 182.904L104.787 180.012C105.624 179.808 106.384 179.369 106.979 178.746L115.432 169.89L118.328 181.788L120.522 181.254L118.328 181.788Z" fill="#E9EFEB" stroke="#205C32" stroke-width="5"/>
<path d="M39.5295 116.764C40.2046 117.298 41.0187 117.627 41.8751 117.712L42.0855 115.599L41.8751 117.712L54.0579 118.925L46.4617 128.53C45.928 129.205 45.5989 130.018 45.5135 130.874L44.2973 143.059L34.6963 135.463L33.3787 137.128L34.6963 135.463C34.0214 134.928 33.2074 134.599 32.3509 134.514L20.1662 133.297L27.763 123.697C28.2973 123.021 28.6266 122.207 28.712 121.35L29.925 109.168L39.5295 116.764L40.9299 114.993L39.5295 116.764Z" fill="#E9EFEB" stroke="#205C32" stroke-width="5"/>
<defs>
<clipPath id="clip0_1521_21997">
<rect width="90.4276" height="105.209" fill="white" transform="translate(167 217.738) rotate(-17.8633)"/>
</clipPath>
<clipPath id="clip1_1521_21997">
<rect width="70" height="35" fill="white" transform="translate(170.854 141) rotate(9.62941)"/>
</clipPath>
</defs>
</svg>
