<svg width="375" height="464" viewBox="0 0 375 464" fill="none" xmlns="http://www.w3.org/2000/svg">
<path opacity="0.25" d="M102.565 54.7445C65.1708 61.8789 53.7447 118.657 52.7059 146.154C51.5188 146.154 45.5832 151.951 31.3377 175.138C13.5308 204.121 43.3573 248.711 75.4097 238.901C107.462 229.091 120.372 277.695 129.275 299.544C138.179 321.393 226.768 305.34 275.292 284.829C323.815 264.318 250.362 232.659 301.557 198.324C352.752 163.99 319.809 71.6887 285.086 41.3675C250.362 11.0463 209.852 72.5805 184.922 76.5936C159.992 80.6067 149.308 45.8265 102.565 54.7445Z" fill="#67AF79"/>
<path d="M214.929 65.5363C218.8 84.2722 205.844 101.078 189.555 99.2566C184.99 98.7447 183.155 97.07 183.649 92.0586C184.704 81.2478 189.467 73.7529 199.995 70.4789C204.979 68.9119 209.919 67.1946 214.929 65.5363Z" fill="#318349"/>
<g clip-path="url(#clip0_2794_6013)">
<path d="M250.767 306.213L214.997 317.741C208.525 319.823 203.974 317.458 202.05 310.875C197.731 296.081 193.728 281.208 191.914 265.842C191.521 262.506 192.476 260.163 195.59 258.723C197.716 257.741 199.68 256.383 201.846 255.523C204.011 254.663 204.24 253.356 203.779 251.213C202.573 245.577 201.412 239.914 200.685 234.201C199.919 228.8 200.431 223.296 202.178 218.133C204.304 212 208.521 208.269 215.084 207.585C219.058 207.169 222.479 208.632 225.507 211.146C230.498 215.264 233.995 220.544 236.95 226.187C239.156 230.428 241.025 234.819 242.976 239.174C243.585 240.536 244.171 241.378 245.955 241.033C248.46 240.545 251.032 240.418 253.573 240.153C256.026 239.894 257.965 240.786 259.041 243.024C262.809 250.854 266.565 258.693 270.188 266.593C271.523 269.508 271.344 269.593 274.427 268.599C275.305 268.316 276.177 267.999 277.066 267.748C280.241 266.914 283.245 268.337 284.298 271.437C286.409 277.654 288.388 283.918 290.344 290.198C291.002 292.238 290.268 293.375 287.936 294.149C281.166 296.36 274.391 298.556 267.611 300.735L250.753 306.168L250.767 306.213ZM245.303 243.525C245.349 244.321 245.367 244.738 245.402 245.155C245.663 248.429 245.641 248.459 241.556 249.744C238.949 250.584 238.415 250.347 236.943 247.827C235.647 245.602 234.679 245.468 232.283 247.298C233.097 249.823 233.964 252.389 234.757 254.974C236.019 259.128 234.103 263.032 230.252 264.273C226.4 265.515 222.561 263.452 221.163 259.351C220.423 257.194 219.794 254.992 219.007 252.842C218.851 252.357 218.224 251.721 217.798 251.71C215.282 251.62 213.764 253.289 213.868 255.772C213.923 257.042 214.119 258.334 212.586 259.067C208.477 261.026 207.612 260.85 204.918 257.256C204.84 257.151 204.69 257.105 204.315 256.861C201.851 258.241 199.313 259.783 196.666 261.127C194.85 262.041 194.303 263.338 194.522 265.285C195.878 277.152 198.701 288.7 201.743 300.227C202.186 301.921 202.874 302.343 204.596 301.779C212.984 299.04 221.416 296.439 229.843 293.75C234.045 292.396 233.531 292.877 232.405 289.035C231.15 284.766 232.635 281.978 236.869 280.6C241.005 279.267 245.156 277.992 249.255 276.558C250.466 276.136 251.429 275.083 252.623 274.622C254.984 273.717 257.457 272.308 259.83 272.412C263.254 272.56 265.863 270.918 269.053 270.16C267.858 267.29 266.896 264.678 265.711 262.174C262.979 256.369 260.182 250.589 257.279 244.87C256.797 243.918 255.555 242.724 254.667 242.727C251.542 242.739 248.466 243.24 245.303 243.525ZM252.518 278.352C247.381 280.008 242.521 281.574 237.665 283.139C234.489 284.163 234.021 285.763 235.452 289.435C237.296 294.063 238.809 298.815 239.981 303.656C240.571 306.168 241.354 306.523 243.356 305.869C257.504 301.273 271.681 296.772 285.842 292.235C286.562 292.003 287.258 291.697 288.113 291.368C285.994 284.793 283.996 278.4 281.852 272.054C281.233 270.228 279.474 269.606 277.411 270.253C272.859 271.675 268.344 273.211 263.781 274.601C262.374 275.027 262.226 275.723 262.666 276.964C263.313 278.776 263.93 280.608 264.409 282.471C265.155 285.382 263.771 288.011 261.179 288.842C258.507 289.704 255.782 288.241 254.785 285.343C254.017 283.128 253.333 280.881 252.518 278.352ZM210.632 247.082C210.917 247.967 211.143 248.875 211.509 249.721C211.681 250.115 212.267 250.791 212.445 250.729C214.268 250.061 216.465 249.677 217.701 248.387C218.67 247.381 219.493 246.549 220.793 246.139C223.03 245.418 225.233 244.591 227.517 244.03C228.587 243.771 229.807 244.17 230.924 244.044C232.435 243.868 234.018 243.682 235.351 243.041C235.705 242.873 235.435 240.974 235.13 239.96C234.606 238.323 233.977 236.721 233.248 235.164C230.54 229.005 227.538 223.021 222.61 218.274C217.785 213.612 211.259 215.094 208.974 221.431C208.305 223.386 207.905 225.424 207.783 227.488C207.296 234.222 208.857 240.698 210.632 247.082ZM207.921 247.793C207.205 244.485 206.439 241.441 205.907 238.357C204.902 232.549 204.486 226.718 206.362 221.003C209.111 212.608 218.023 210.28 224.32 216.404C226.448 218.406 228.294 220.689 229.806 223.19C232.331 227.554 234.449 232.162 236.658 236.704C237.307 238.034 237.945 238.707 239.558 237.345C237.882 233.941 236.318 230.438 234.457 227.09C231.382 221.517 228.026 216.106 222.698 212.335C218.768 209.514 214.548 209.334 210.288 211.76C206.313 214.054 204.634 217.814 203.784 222.073C202.567 228.174 202.986 234.279 203.985 240.359C204.409 243.068 205.039 245.733 205.598 248.542L207.921 247.793ZM256.103 281.06C256.43 282.075 256.76 283.099 257.083 284.102C257.572 285.746 258.569 286.833 260.348 286.278C262.126 285.723 262.257 284.191 261.763 282.603C261.176 280.699 260.471 278.832 259.973 276.909C259.552 275.27 258.781 274.938 257.206 275.5C254.62 276.419 254.591 276.342 255.452 279.027L256.103 281.06Z" fill="#205C32"/>
<path d="M245.303 243.525C248.459 243.219 251.542 242.739 254.625 242.736C255.521 242.731 256.755 243.927 257.237 244.879C260.152 250.594 262.936 256.378 265.669 262.183C266.853 264.687 267.816 267.299 269.011 270.169C265.814 270.906 263.212 272.569 259.788 272.421C257.415 272.317 254.942 273.726 252.58 274.631C251.383 275.094 250.412 276.149 249.213 276.567C245.114 278.001 240.958 279.259 236.827 280.609C232.597 281.972 231.116 284.772 232.362 289.044C233.488 292.886 234.008 292.422 229.801 293.759C221.395 296.442 212.962 299.042 204.574 301.782C202.849 302.337 202.164 301.924 201.721 300.229C198.686 288.709 195.86 277.154 194.5 265.287C194.282 263.341 194.825 262.031 196.644 261.13C199.295 259.798 201.833 258.255 204.293 256.864C204.668 257.107 204.831 257.14 204.897 257.259C207.59 260.853 208.455 261.029 212.565 259.069C214.097 258.337 213.901 257.045 213.846 255.775C213.742 253.292 215.262 251.627 217.776 251.712C218.202 251.724 218.809 252.366 218.985 252.844C219.77 254.987 220.387 257.192 221.141 259.353C222.539 263.454 226.374 265.518 230.23 264.276C234.085 263.033 235.997 259.131 234.735 254.977C233.95 252.389 233.075 249.825 232.261 247.301C234.657 245.471 235.625 245.604 236.921 247.829C238.393 250.349 238.922 250.57 241.534 249.746C245.611 248.464 245.638 248.424 245.38 245.157C245.383 244.733 245.349 244.321 245.303 243.525ZM202.419 294.498L202.367 294.515C202.607 295.262 202.708 296.103 203.129 296.728C203.55 297.353 204.276 297.709 204.862 298.177C205.146 297.482 205.787 296.713 205.658 296.12C204.828 292.29 203.895 288.476 202.827 284.701C202.612 283.937 201.664 283.378 201.055 282.728C200.731 283.616 199.993 284.587 200.147 285.384C200.747 288.446 201.629 291.462 202.419 294.498ZM232.617 270.318C234.055 269.922 235.469 269.445 236.853 268.89C237.312 268.684 237.484 267.84 237.787 267.288C237.249 267.011 236.658 266.418 236.25 266.532C233.315 267.37 230.399 268.296 227.53 269.342C227.123 269.473 226.989 270.448 226.728 271.032C227.249 271.256 227.856 271.745 228.336 271.635C229.792 271.319 231.192 270.773 232.617 270.318ZM201.898 277.864C200.779 277.176 199.897 276.181 199.368 276.352C197.477 276.961 198.445 278.545 198.669 279.755C198.862 280.828 199.499 282.189 200.673 281.473C201.403 281.008 201.44 279.34 201.898 277.864Z" fill="#E8F3EB"/>
<path d="M252.518 278.352C253.333 280.881 254.017 283.128 254.774 285.351C255.771 288.249 258.495 289.708 261.168 288.85C263.759 288.015 265.145 285.394 264.399 282.479C263.92 280.616 263.301 278.78 262.655 276.972C262.215 275.731 262.363 275.035 263.77 274.609C268.333 273.219 272.848 271.683 277.4 270.261C279.458 269.598 281.222 270.236 281.842 272.062C283.986 278.408 285.983 284.801 288.102 291.376C287.248 291.705 286.551 292.011 285.831 292.243C271.67 296.78 257.493 301.281 243.346 305.877C241.353 306.519 240.558 306.172 239.97 303.664C238.798 298.823 237.285 294.071 235.441 289.443C234.002 285.774 234.483 284.187 237.654 283.147C242.515 281.554 247.382 280.008 252.518 278.352ZM261.973 290.973C261.081 291.189 260.211 291.486 259.372 291.86C258.919 292.11 258.691 292.782 258.362 293.266C258.913 293.584 259.555 294.264 259.999 294.166C261.786 293.743 263.536 293.179 265.233 292.479C265.631 292.32 265.792 291.511 266.063 291.001C265.505 290.73 264.915 290.223 264.384 290.249C263.557 290.3 262.758 290.72 261.953 290.979L261.973 290.973Z" fill="#E8F3EB"/>
<path d="M207.92 247.793L205.598 248.542C205.038 245.733 204.426 243.067 203.984 240.359C202.985 234.279 202.567 228.174 203.784 222.073C204.634 217.814 206.313 214.054 210.288 211.76C214.547 209.334 218.767 209.514 222.732 212.328C228.057 216.091 231.415 221.51 234.491 227.083C236.339 230.436 237.903 233.939 239.592 237.338C237.958 238.707 237.32 238.035 236.691 236.697C234.482 232.155 232.364 227.548 229.84 223.184C228.328 220.682 226.482 218.399 224.353 216.398C218.022 210.28 209.111 212.608 206.362 221.003C204.486 226.718 204.902 232.549 205.907 238.357C206.439 241.441 207.204 244.485 207.92 247.793Z" fill="#318349"/>
<path d="M256.103 281.06L255.445 279.021C254.578 276.329 254.605 276.414 257.2 275.493C258.774 274.931 259.546 275.263 259.966 276.902C260.465 278.826 261.186 280.687 261.756 282.596C262.266 284.179 262.156 285.704 260.341 286.271C258.526 286.838 257.568 285.747 257.077 284.096C256.776 283.08 256.435 282.092 256.103 281.06Z" fill="#205C32"/>
<path d="M202.358 295.018C201.474 291.579 200.467 288.162 199.78 284.679C199.733 284.365 199.766 284.045 199.875 283.748C199.957 283.49 200.107 283.26 200.309 283.08C200.511 282.901 200.757 282.78 201.022 282.73C201.287 282.679 201.561 282.702 201.815 282.794C202.069 282.887 202.293 283.046 202.464 283.255C202.621 283.447 202.74 283.667 202.812 283.904C204.024 288.178 205.079 292.497 206.017 296.828C206.04 296.946 206.043 297.067 206.024 297.186C205.854 298.384 204.315 298.763 203.467 297.902C203.352 297.788 203.249 297.663 203.158 297.529C202.679 296.823 202.565 295.869 202.292 295.021L202.358 295.018Z" fill="#205C32"/>
<path d="M232.691 270.56C230.982 271.111 229.299 271.766 227.558 272.147C227.407 272.177 227.251 272.17 227.103 272.127C226.891 272.06 226.696 271.949 226.529 271.801C226.363 271.653 226.229 271.472 226.138 271.269C226.046 271.066 225.998 270.846 225.997 270.624C225.996 270.401 226.042 270.181 226.132 269.977C226.201 269.725 226.365 269.511 226.59 269.379C230.032 268.121 233.534 267.006 237.059 266.005C237.256 265.974 237.457 266.013 237.628 266.114C237.817 266.212 237.984 266.347 238.119 266.51C238.255 266.674 238.356 266.863 238.417 267.066C238.478 267.27 238.497 267.483 238.474 267.694C238.451 267.905 238.385 268.11 238.282 268.295C238.179 268.525 238.003 268.714 237.782 268.834C236.154 269.579 234.395 270.011 232.691 270.56Z" fill="#205C32"/>
<path d="M201.898 277.864C202.533 279.262 201.658 280.908 200.665 281.476C200.438 281.629 200.164 281.696 199.891 281.667C199.204 281.541 198.805 280.567 198.661 279.758C198.507 278.876 197.954 277.802 198.384 277.047C198.492 276.87 198.635 276.716 198.804 276.597C198.973 276.477 199.165 276.394 199.368 276.352C200.376 276.108 201.474 276.938 201.898 277.864Z" fill="#205C32"/>
<path d="M261.875 290.64C262.908 290.307 263.928 289.766 264.979 289.711C265.277 289.71 265.571 289.79 265.828 289.941C266.086 290.092 266.299 290.31 266.445 290.571C266.59 290.833 266.664 291.129 266.657 291.428C266.65 291.727 266.563 292.018 266.406 292.272C266.321 292.405 266.198 292.509 266.053 292.571C263.88 293.469 261.639 294.191 259.35 294.731C259.155 294.763 258.954 294.726 258.782 294.626C258.533 294.514 258.315 294.342 258.149 294.124C257.982 293.907 257.873 293.651 257.83 293.381C257.788 293.11 257.814 292.833 257.905 292.576C257.996 292.318 258.151 292.087 258.354 291.905C258.406 291.862 258.461 291.825 258.52 291.793C259.557 291.22 260.744 291.004 261.875 290.64Z" fill="#205C32"/>
</g>
<path d="M288.874 45.762L278.597 33.8839L272.417 26.7399C270.017 23.9666 267.427 22.7535 265.829 23.6553L239.289 38.6324C237.689 39.5355 237.389 42.3797 238.524 45.8671L241.445 54.8498L246.563 70.5937" fill="#205C32"/>
<path d="M289.777 44.8652C286.088 40.6009 282.402 36.3366 278.717 32.0721L274.686 27.4149C273.394 25.9275 272.149 24.4196 270.486 23.3023C268.824 22.1851 266.899 21.6627 265.083 22.6082C264.327 23.0027 263.594 23.4487 262.851 23.8678L242.238 35.5002C240.261 36.6159 237.591 37.5649 236.847 39.9284C236.147 42.1788 236.776 44.6339 237.48 46.8028L239.311 52.4343C241.23 58.3388 243.15 64.244 245.071 70.1499L245.318 70.9089C245.823 72.4674 248.302 71.8674 247.788 70.2932C246.072 65.0118 244.357 59.7288 242.643 54.4443C241.681 51.4929 240.692 48.5486 239.76 45.5867C239.275 44.0397 238.318 40.8891 239.971 39.7158C240.575 39.2898 241.301 38.9653 241.939 38.6051L265.316 25.4129C265.797 25.1415 266.37 24.6918 266.926 24.642C268.918 24.4486 270.773 26.7987 271.94 28.1366L275.658 32.436L287.451 46.0835L287.964 46.6753C289.04 47.9203 290.841 46.12 289.767 44.8794L289.777 44.8652Z" fill="#174124"/>
<path d="M327.163 114.258L331.772 128.442L331.787 128.469L334.709 137.452C335.844 140.939 335.544 143.783 333.943 144.686L307.399 159.666C305.801 160.568 303.211 159.355 300.811 156.581L294.629 149.433L294.614 149.406L284.356 137.552" fill="#205C32"/>
<path d="M325.929 114.567C327.566 119.605 329.204 124.644 330.842 129.684L332.616 135.142C333.115 136.678 333.731 138.247 333.992 139.844C334.214 141.216 334.327 142.937 333.023 143.735C332.219 144.23 331.372 144.666 330.55 145.131L307.594 158.085C306.896 158.479 306.449 158.805 305.584 158.588C303.636 158.093 302.247 156.299 300.981 154.838L297.184 150.445C293.209 145.849 289.233 141.254 285.255 136.66C284.178 135.415 282.377 137.216 283.452 138.456C287.085 142.657 290.72 146.856 294.358 151.051L298.263 155.568C299.41 156.89 300.509 158.279 301.875 159.378C303.619 160.766 305.901 161.853 308.055 160.761C308.692 160.44 309.308 160.054 309.93 159.703L333.611 146.339C334.355 145.919 335.092 145.556 335.629 144.857C338.218 141.505 335.628 136.19 334.48 132.654C332.544 126.7 330.608 120.746 328.674 114.791L328.4 113.953C327.895 112.395 325.416 112.995 325.93 114.569L325.929 114.567Z" fill="#174124"/>
<path d="M309.872 131.553C331.844 119.153 339.557 91.2051 327.099 69.1292C314.641 47.0534 286.73 39.2094 264.757 51.6093C242.784 64.0091 235.071 91.9571 247.53 114.033C259.988 136.109 287.899 143.953 309.872 131.553Z" fill="white"/>
<path d="M325.991 69.7546C335.015 85.8898 333.239 106.475 321.247 120.542C309.13 134.764 288.988 139.856 271.518 133.186C254.048 126.515 242.371 108.926 242.868 90.2687C243.359 71.6623 255.76 54.9249 273.429 49.1878C290.895 43.5176 310.541 49.4715 322.046 63.8775C323.511 65.7314 324.83 67.6964 325.991 69.7546C326.801 71.1887 329.018 69.9402 328.208 68.5038C318.465 51.3947 298.811 41.9104 279.442 45.0841C260.072 48.2578 244.376 63.8745 241.021 83.2403C237.64 102.723 247.062 122.867 264.338 132.607C281.537 142.302 303.372 140.095 318.236 127.209C332.81 114.58 338.182 93.3714 331.341 75.2415C330.464 72.9189 329.415 70.6646 328.204 68.4972C327.4 67.072 325.182 68.3206 325.991 69.7546Z" fill="#174124"/>
<path d="M304.845 122.646C321.921 113.009 327.916 91.2889 318.234 74.1324C308.552 56.976 286.86 50.88 269.784 60.5166C252.708 70.1533 246.713 91.8733 256.395 109.03C266.077 126.186 287.769 132.282 304.845 122.646Z" fill="white"/>
<path d="M317.125 74.7578C324.078 87.2231 322.714 103.102 313.431 113.951C304.046 124.917 288.509 128.791 275.025 123.608C261.613 118.446 252.672 104.886 253.052 90.5432C253.433 76.2004 263.033 63.2606 276.678 58.8752C290.187 54.5342 305.314 59.1771 314.168 70.3348C315.265 71.7317 316.253 73.2104 317.125 74.7578C317.935 76.1919 320.152 74.9434 319.342 73.507C311.705 60.1301 296.372 52.7052 281.21 55.1576C266.048 57.61 253.69 69.8572 251.063 85.0246C248.426 100.247 255.731 115.993 269.212 123.653C282.693 131.312 299.797 129.587 311.492 119.52C322.93 109.662 327.166 92.9907 321.8 78.7995C321.111 76.9776 320.29 75.2087 319.342 73.507C318.534 72.0752 316.316 73.3238 317.125 74.7578Z" fill="#174124"/>
<path d="M272.284 59.2521L268.295 61.5035L272.191 68.4067L276.18 66.1553L272.284 59.2521Z" fill="#174124"/>
<path d="M275.552 65.0419L271.563 67.2933L273.299 67.7813L269.403 60.8781L268.923 62.6169L272.913 60.3655L271.177 59.8775L275.072 66.7807C275.882 68.2148 278.099 66.9662 277.289 65.5299L273.393 58.6267C273.223 58.3349 272.946 58.1207 272.622 58.0295C272.298 57.9384 271.951 57.9775 271.656 58.1387L267.667 60.3901C267.377 60.5598 267.165 60.8361 267.075 61.1607C266.986 61.4852 267.026 61.8325 267.187 62.1289L271.083 69.0321C271.253 69.3239 271.529 69.5382 271.853 69.6293C272.178 69.7205 272.524 69.6813 272.819 69.5202L276.809 67.2687C278.234 66.4645 276.993 64.2289 275.552 65.0419Z" fill="#174124"/>
<path d="M302.301 113.218L298.312 115.469L302.207 122.373L306.197 120.121L302.301 113.218Z" fill="#174124"/>
<path d="M305.568 119.008L301.579 121.259L303.315 121.747L299.419 114.844L298.94 116.583L302.929 114.331L301.193 113.843L305.088 120.747C305.898 122.181 308.115 120.932 307.305 119.496L303.409 112.593C303.239 112.301 302.963 112.087 302.638 111.995C302.314 111.904 301.967 111.943 301.672 112.105L297.683 114.356C297.393 114.526 297.181 114.802 297.091 115.127C297.002 115.451 297.042 115.798 297.203 116.095L301.099 122.998C301.269 123.29 301.545 123.504 301.87 123.595C302.194 123.686 302.54 123.647 302.835 123.486L306.825 121.235C308.25 120.43 306.998 118.201 305.568 119.008Z" fill="#174124"/>
<path d="M254.447 79.0102L253.226 83.4365L260.839 85.576L262.06 81.1497L254.447 79.0102Z" fill="#174124"/>
<path d="M260.833 80.8058L259.616 85.2211L261.168 84.3456L253.555 82.2061L254.443 83.7805L255.665 79.3534L254.098 80.2377L261.711 82.3772C263.293 82.8236 263.973 80.3636 262.39 79.9185L254.777 77.7791C254.451 77.6931 254.106 77.7373 253.813 77.9024C253.521 78.0674 253.304 78.3404 253.21 78.6634L251.989 83.0983C251.904 83.4242 251.949 83.7711 252.115 84.0651C252.281 84.3591 252.555 84.5771 252.878 84.6727L260.509 86.8022C260.834 86.8881 261.18 86.8439 261.472 86.6789C261.764 86.5138 261.981 86.2409 262.076 85.9179L263.297 81.4908C263.725 79.9135 261.268 79.2212 260.833 80.8058Z" fill="#174124"/>
<path d="M313.654 96.0496L312.432 100.476L320.045 102.615L321.267 98.1891L313.654 96.0496Z" fill="#174124"/>
<path d="M320.04 97.8436L318.818 102.271L320.385 101.386L312.772 99.2468L313.659 100.819L314.881 96.3919L313.314 97.2762L320.927 99.4157C322.51 99.8608 323.189 97.4021 321.605 96.957L313.992 94.8175C313.667 94.7316 313.321 94.7758 313.029 94.9409C312.736 95.1059 312.52 95.3788 312.425 95.7018L311.203 100.129C311.119 100.455 311.165 100.801 311.33 101.095C311.496 101.389 311.769 101.607 312.092 101.703L319.705 103.843C320.03 103.929 320.376 103.884 320.668 103.719C320.961 103.554 321.177 103.281 321.272 102.958L322.494 98.5314C322.928 96.9503 320.488 96.2515 320.04 97.8436Z" fill="#174124"/>
<path d="M294.465 56.7393L292.361 64.3624L296.782 65.6047L298.886 57.9816L294.465 56.7393Z" fill="#174124"/>
<path d="M297.123 64.3754L292.701 63.1329L293.59 64.7073L295.696 57.083L294.127 57.9686L298.548 59.2111L297.659 57.6367L295.556 65.2597C295.12 66.8443 297.573 67.5356 298.011 65.9498L300.115 58.3268C300.2 58.0009 300.155 57.654 299.989 57.36C299.823 57.066 299.549 56.848 299.226 56.7524L294.807 55.5086C294.481 55.4228 294.136 55.4671 293.843 55.6324C293.55 55.7976 293.333 56.0708 293.238 56.3942L291.134 64.0172C291.05 64.3431 291.095 64.6896 291.261 64.9835C291.427 65.2773 291.7 65.4954 292.023 65.5916L296.444 66.8341C298.028 67.2792 298.706 64.8205 297.123 64.3754Z" fill="#174124"/>
<path d="M277.711 116.021L275.607 123.644L280.027 124.886L282.131 117.263L277.711 116.021Z" fill="#174124"/>
<path d="M280.367 123.658L275.946 122.416L276.834 123.99L278.945 116.364L277.371 117.252L281.798 118.505L280.91 116.931L278.798 124.544C278.361 126.126 280.818 126.819 281.255 125.233L283.366 117.621C283.45 117.295 283.404 116.948 283.239 116.655C283.073 116.361 282.8 116.143 282.477 116.047L278.056 114.789C277.731 114.703 277.385 114.746 277.092 114.912C276.8 115.077 276.583 115.35 276.489 115.673L274.383 123.298C274.298 123.624 274.343 123.97 274.509 124.264C274.675 124.558 274.949 124.776 275.272 124.872L279.691 126.116C281.269 126.561 281.947 124.102 280.367 123.658Z" fill="#174124"/>
<path d="M315.71 72.7674L308.839 76.6449L311.101 80.6532L317.972 76.7757L315.71 72.7674Z" fill="#174124"/>
<path d="M312.209 80.0278L309.947 76.0195L309.467 77.7583L316.338 73.8808L314.602 73.3928L316.864 77.4011L317.344 75.6623L310.473 79.5398C309.048 80.3441 310.3 82.5734 311.729 81.7666L318.6 77.8892C318.891 77.72 319.103 77.4436 319.193 77.1189C319.283 76.7941 319.242 76.4466 319.08 76.1503L316.818 72.142C316.648 71.8502 316.372 71.636 316.047 71.5448C315.723 71.4537 315.377 71.4929 315.082 71.654L308.211 75.5315C307.921 75.7011 307.709 75.9775 307.619 76.302C307.53 76.6266 307.57 76.9738 307.731 77.2703L309.993 81.2786C310.802 82.7127 313.02 81.4641 312.209 80.0278Z" fill="#174124"/>
<path d="M329.958 74.3509L324.645 64.9358L330.363 61.7087C333.121 64.1767 334.989 67.4874 335.677 71.1238L329.958 74.3509Z" fill="white"/>
<path d="M331.067 73.7255L325.753 64.3104L325.274 66.0492L330.992 62.8221L329.462 62.6078C332.032 64.9321 333.78 68.0293 334.441 71.4305L335.049 70.0104L329.33 73.2374C327.905 74.0417 329.159 76.2698 330.587 75.4643L336.305 72.2372C336.544 72.0961 336.731 71.8825 336.84 71.6273C336.949 71.372 336.974 71.0883 336.912 70.8171C336.15 66.9646 334.17 63.4561 331.266 60.8119C331.066 60.6178 330.81 60.4922 330.535 60.4533C330.26 60.4144 329.98 60.4641 329.735 60.5953L324.017 63.8223C323.727 63.992 323.515 64.2684 323.425 64.5929C323.336 64.9175 323.376 65.2647 323.537 65.5612L328.85 74.9763C329.66 76.4103 331.877 75.1618 331.067 73.7255Z" fill="#174124"/>
<path d="M316.552 56.3526L308.144 49.5678L312.262 44.437C315.732 45.7076 318.689 48.0936 320.67 51.2218L316.552 56.3526Z" fill="white"/>
<path d="M317.453 55.4536L309.047 48.6675L309.044 50.4748L313.162 45.344L311.923 45.6646C315.062 46.8534 317.74 49.021 319.562 51.8472L319.77 50.3149L315.65 55.4434C314.637 56.7082 316.42 58.5321 317.453 57.2596L321.571 52.1288C321.915 51.7027 322.103 51.1 321.778 50.5964C319.596 47.2035 316.375 44.6096 312.602 43.2059C312.385 43.1406 312.155 43.1361 311.937 43.1931C311.718 43.25 311.52 43.3662 311.364 43.5288L307.246 48.6596C306.855 49.1474 306.66 49.994 307.245 50.4656L315.652 57.2482C316.913 58.2716 318.734 56.4863 317.453 55.4536Z" fill="#174124"/>
<path d="M333.161 85.7848L334.623 96.4896L341.144 95.6166C341.849 91.9891 341.335 88.225 339.682 84.9118L333.161 85.7848Z" fill="white"/>
<path d="M331.932 86.1027L333.394 96.8075C333.496 97.5426 334.323 97.8218 334.94 97.7405L341.461 96.8674C341.681 96.8169 341.883 96.7067 342.044 96.5488C342.206 96.3909 342.321 96.1915 342.376 95.9723C343.126 92.0172 342.571 87.9198 340.795 84.2987C340.528 83.7535 339.917 83.6194 339.375 83.6844L332.855 84.5575C331.224 84.7758 331.868 87.2518 333.476 87.0369L339.997 86.1638L338.578 85.5495C340.055 88.5695 340.526 91.9818 339.921 95.2822L340.836 94.387L334.316 95.2623L335.865 96.1941L334.401 85.4905C334.173 83.8488 331.701 84.4714 331.932 86.1027Z" fill="#174124"/>
<path d="M262.959 102.536L256.088 106.414L258.35 110.422L265.221 106.545L262.959 102.536Z" fill="#174124"/>
<path d="M259.458 109.797L257.196 105.789L256.716 107.527L263.587 103.65L261.851 103.162L264.113 107.17L264.593 105.431L257.722 109.309C256.297 110.113 257.549 112.342 258.978 111.536L265.849 107.658C266.14 107.489 266.352 107.213 266.442 106.888C266.532 106.563 266.491 106.216 266.329 105.919L264.067 101.911C263.897 101.619 263.621 101.405 263.296 101.314C262.972 101.223 262.626 101.262 262.331 101.423L255.46 105.301C255.17 105.47 254.958 105.747 254.868 106.071C254.779 106.396 254.819 106.743 254.98 107.039L257.242 111.048C258.051 112.482 260.269 111.233 259.458 109.797Z" fill="#174124"/>
<path d="M246.695 70.6102L242.46 82.4457L237.699 65.8805C236.359 61.2169 237.096 57.2925 239.572 55.8953L241.44 54.8409C243.193 60.1015 244.945 65.3579 246.695 70.6102Z" fill="white"/>
<path d="M245.467 70.2669L241.226 82.0935L243.69 82.13L240.999 72.7587L239.348 67.011C238.851 65.2804 238.339 63.5552 238.311 61.7242C238.29 60.2475 238.52 58.4704 239.642 57.4086C240.312 56.778 241.266 56.3923 242.062 55.9432L240.2 55.1387C241.948 60.3919 243.698 65.6453 245.45 70.8991C245.966 72.4514 248.445 71.8513 247.919 70.2834C246.179 65.0451 244.434 59.8013 242.686 54.552C242.428 53.7752 241.584 53.315 240.822 53.7453C238.679 54.9548 236.91 56.0468 236.169 58.5759C235.401 61.1613 235.836 63.9723 236.562 66.5221C237.696 70.5038 238.847 74.4811 239.991 78.4599L241.225 82.7546C241.585 84.0194 243.265 83.976 243.689 82.7912L247.925 70.9557C248.477 69.4078 246.019 68.7282 245.467 70.2669Z" fill="#174124"/>
<path d="M279.579 33.2623L281.448 32.2079C283.923 30.8108 287.664 32.2085 290.963 35.7664L302.678 48.3952L290.357 45.9032C286.765 41.6922 283.172 37.4786 279.579 33.2623Z" fill="white"/>
<path d="M280.207 34.3758C280.883 33.9446 281.581 33.5504 282.3 33.195C283.491 32.6811 284.88 33.0189 286.006 33.549C287.872 34.4219 289.315 35.8655 290.699 37.3599L299.103 46.4164L301.766 49.2856L303.008 47.1577L296.109 45.7661L292.66 45.0702C292.098 44.9555 291.413 44.9314 290.923 44.6177C290.497 44.3443 290.111 43.6664 289.781 43.2774L280.481 32.3655C279.416 31.1142 277.615 32.9146 278.678 34.1614C281.945 37.9938 285.212 41.8267 288.478 45.6599C288.843 46.0849 289.224 46.7334 289.721 47.0136C290.092 47.221 290.601 47.2571 291.006 47.3392L294.949 48.1382L302.342 49.633C303.575 49.8822 304.486 48.476 303.584 47.505L296.277 39.6262C293.457 36.5873 290.598 32.7222 286.694 31.091C285.17 30.4623 283.441 30.1524 281.847 30.664C280.819 30.9915 279.885 31.6303 278.954 32.1556C277.525 32.9532 278.778 35.1825 280.207 34.3758Z" fill="#174124"/>
<path d="M256.571 123.743C256.494 123.59 256.378 123.461 256.235 123.369C256.109 123.262 255.962 123.184 255.804 123.139C255.646 123.095 255.48 123.085 255.318 123.111C255.147 123.115 254.98 123.165 254.835 123.255L254.563 123.461C254.407 123.617 254.294 123.812 254.235 124.025L254.188 124.345C254.185 124.571 254.242 124.794 254.354 124.991C254.531 125.277 254.803 125.492 255.122 125.597C255.279 125.645 255.445 125.653 255.605 125.618C255.776 125.615 255.942 125.564 256.086 125.473L256.36 125.268C256.516 125.112 256.628 124.918 256.687 124.705L256.735 124.384C256.737 124.157 256.68 123.934 256.567 123.736L256.571 123.743Z" fill="#174124"/>
<path d="M264.458 130.452C264.174 130.631 263.962 130.903 263.858 131.222C263.81 131.379 263.804 131.545 263.838 131.706C263.843 131.876 263.894 132.042 263.984 132.187L264.191 132.461C264.347 132.618 264.54 132.733 264.753 132.793L265.072 132.841C265.298 132.845 265.52 132.788 265.716 132.678C265.87 132.602 265.999 132.485 266.09 132.34C266.239 132.142 266.328 131.904 266.347 131.656C266.366 131.408 266.313 131.159 266.196 130.939L265.974 130.665C265.819 130.507 265.625 130.393 265.413 130.333L265.093 130.284C264.868 130.28 264.645 130.336 264.448 130.446L264.458 130.452Z" fill="#174124"/>
<path d="M243.915 101.372C243.838 101.22 243.722 101.091 243.578 100.998C243.453 100.891 243.305 100.812 243.146 100.767C242.987 100.723 242.821 100.713 242.658 100.74C242.487 100.744 242.32 100.793 242.175 100.883L241.903 101.09C241.747 101.246 241.634 101.44 241.575 101.653L241.528 101.974C241.525 102.2 241.583 102.423 241.694 102.62C241.871 102.906 242.143 103.12 242.462 103.225C242.619 103.274 242.785 103.281 242.945 103.247C243.116 103.243 243.283 103.193 243.427 103.101L243.7 102.897C243.856 102.741 243.969 102.546 244.028 102.333L244.075 102.013C244.078 101.786 244.02 101.562 243.908 101.365L243.915 101.372Z" fill="#174124"/>
<path d="M326.856 114.786L331.72 102.732L335.874 117.199C337.213 121.86 336.478 125.787 334.002 127.184L331.772 128.442L326.856 114.786Z" fill="white"/>
<path d="M328.087 115.128L332.951 103.076L330.488 103.04L333.085 112.085C334.059 115.478 335.775 119.519 335.143 123.07C334.706 125.516 333.099 126.226 331.144 127.329L333.008 128.136L328.091 114.468C327.537 112.931 325.063 113.535 325.618 115.083L330.537 128.749C330.813 129.518 331.621 129.993 332.399 129.553C334.124 128.58 335.923 127.771 336.868 125.91C338.272 123.142 337.913 119.771 337.107 116.876C336.15 113.435 335.136 110.008 334.15 106.578L332.956 102.422C332.58 101.113 330.955 101.243 330.492 102.385L325.63 114.436C325.017 115.959 327.48 116.637 328.087 115.128Z" fill="#174124"/>
<path d="M272.223 134.798L283.378 146.824C286.677 150.38 290.418 151.78 292.894 150.383L294.612 149.413L283.429 137.256L272.223 134.798Z" fill="white"/>
<path d="M271.322 135.698L278.351 143.275C281.13 146.273 283.911 150.02 287.804 151.57C289.243 152.146 290.864 152.409 292.377 151.972C293.404 151.686 294.322 151.044 295.24 150.527C295.408 150.429 295.552 150.293 295.661 150.131C295.769 149.969 295.839 149.784 295.865 149.59C295.892 149.397 295.874 149.199 295.813 149.013C295.752 148.827 295.65 148.657 295.514 148.516L287.18 139.444C286.249 138.431 285.325 137.053 284.205 136.243C283.708 135.881 282.964 135.836 282.38 135.708L278.914 134.951L272.578 133.562C270.978 133.214 270.289 135.67 271.897 136.022L277.004 137.139L280.759 137.956C281.329 138.081 282.398 138.546 282.982 138.442C283.332 138.38 282.472 137.89 282.604 138.212C282.738 138.408 282.898 138.583 283.082 138.733L284.935 140.749L290.238 146.52L293.717 150.303L293.99 148.29C293.325 148.666 292.669 149.13 291.964 149.413C290.842 149.864 289.556 149.562 288.485 149.095C286.575 148.258 285.097 146.788 283.702 145.279L275.742 136.72L273.126 133.902C272.007 132.695 270.203 134.491 271.322 135.698Z" fill="#174124"/>
<path d="M241.013 87.8157C240.73 87.9945 240.518 88.2668 240.413 88.5858C240.366 88.7426 240.359 88.9091 240.394 89.0695C240.399 89.2399 240.449 89.4061 240.54 89.5508L240.747 89.8244C240.902 89.9819 241.096 90.0963 241.308 90.1565L241.628 90.2051C241.854 90.2087 242.076 90.1522 242.272 90.0413C242.425 89.9653 242.554 89.8487 242.646 89.7042C242.794 89.5053 242.884 89.2679 242.902 89.0196C242.921 88.7714 242.869 88.5226 242.752 88.3025L242.546 88.0311C242.391 87.8736 242.197 87.7592 241.985 87.699L241.665 87.6504C241.439 87.6468 241.217 87.7025 241.02 87.812L241.013 87.8157Z" fill="#174124"/>
<path d="M277.831 78.1423L281.717 85.4177L283.72 89.1675C284.356 90.3583 284.908 91.8529 285.758 92.8995C286.56 93.8856 288.286 93.9921 289.464 94.2875L293.632 95.3558L301.972 97.4934C304.361 98.1031 305.379 94.4168 302.988 93.8049L287.784 89.9068L288.937 90.8119L281.164 76.2611C280 74.0847 276.676 75.9609 277.84 78.1373L277.831 78.1423Z" fill="#174124"/>
<path d="M250.838 46.1051L266.686 37.1618C268.113 36.3563 266.859 34.1282 265.429 34.935L249.582 43.8782C248.157 44.6825 249.409 46.9118 250.838 46.1051Z" fill="white"/>
<path d="M308.646 148.54L324.493 139.597C325.92 138.791 324.666 136.563 323.236 137.37L307.389 146.313C305.964 147.117 307.216 149.347 308.646 148.54Z" fill="white"/>
<path d="M302.422 179C308.047 195.461 304.557 205.68 291.064 213C279.768 200.658 284.647 185.623 302.422 179Z" fill="#318349"/>
<g clip-path="url(#clip1_2794_6013)">
<path d="M175.644 177.631C174.92 177.508 174.273 177.106 173.847 176.514C173.421 175.921 173.249 175.187 173.37 174.472L174.301 168.986C176.193 169.096 178.057 168.513 179.536 167.349C181.015 166.185 182.006 164.522 182.319 162.677C182.632 160.832 182.245 158.935 181.233 157.349C180.22 155.762 178.653 154.597 176.831 154.077L177.761 148.591C177.883 147.876 178.287 147.24 178.885 146.821C179.483 146.402 180.226 146.236 180.95 146.359L241.224 156.585C241.947 156.71 242.592 157.112 243.017 157.704C243.443 158.296 243.614 159.03 243.494 159.744L242.565 165.218C240.656 165.082 238.767 165.651 237.266 166.816C235.764 167.981 234.757 169.658 234.441 171.521C234.125 173.383 234.523 175.298 235.556 176.893C236.589 178.488 238.185 179.649 240.032 180.15L239.103 185.624C238.981 186.339 238.576 186.975 237.979 187.393C237.381 187.812 236.639 187.978 235.914 187.857L175.644 177.631Z" fill="white"/>
<path d="M240.949 158.203C241.239 158.252 241.498 158.413 241.668 158.65C241.839 158.887 241.907 159.181 241.859 159.467L241.159 163.593C239.108 163.781 237.179 164.632 235.673 166.014C234.166 167.396 233.165 169.233 232.824 171.239C232.484 173.245 232.823 175.309 233.79 177.111C234.756 178.913 236.296 180.352 238.17 181.206L237.468 185.347C237.419 185.633 237.258 185.887 237.019 186.055C236.779 186.222 236.482 186.289 236.192 186.24L175.919 176.013C175.629 175.964 175.37 175.803 175.2 175.566C175.029 175.329 174.961 175.036 175.009 174.75L175.715 170.591C177.749 170.386 179.656 169.529 181.146 168.15C182.635 166.772 183.624 164.947 183.962 162.956C184.3 160.965 183.968 158.916 183.017 157.123C182.065 155.331 180.547 153.892 178.695 153.028L179.4 148.869C179.449 148.583 179.61 148.329 179.85 148.161C180.089 147.994 180.386 147.927 180.676 147.976L240.949 158.203ZM241.498 154.968L181.225 144.741C180.066 144.545 178.877 144.811 177.92 145.481C176.963 146.15 176.317 147.169 176.123 148.313L174.915 155.43C175.184 155.438 175.453 155.464 175.719 155.508C177.299 155.776 178.709 156.652 179.639 157.945C180.57 159.237 180.943 160.839 180.679 162.399C180.414 163.959 179.533 165.348 178.228 166.261C176.924 167.174 175.303 167.537 173.723 167.269C173.458 167.223 173.196 167.158 172.939 167.076L171.732 174.194C171.538 175.337 171.812 176.513 172.494 177.461C173.176 178.409 174.211 179.052 175.37 179.248L235.644 189.475C236.803 189.671 237.991 189.405 238.948 188.736C239.905 188.066 240.551 187.047 240.745 185.903L241.956 178.768C241.647 178.765 241.338 178.739 241.033 178.689C239.453 178.421 238.042 177.544 237.112 176.252C236.182 174.959 235.808 173.357 236.073 171.797C236.337 170.238 237.219 168.849 238.523 167.935C239.828 167.022 241.448 166.66 243.028 166.928C243.333 166.981 243.633 167.058 243.926 167.158L245.136 160.023C245.33 158.879 245.056 157.703 244.374 156.755C243.692 155.807 242.657 155.164 241.498 154.968Z" fill="#205C32"/>
<path d="M198.368 148.918L197.88 151.794C197.831 152.08 197.9 152.374 198.071 152.611C198.241 152.848 198.5 153.009 198.789 153.058C199.079 153.107 199.376 153.04 199.616 152.873C199.855 152.706 200.016 152.451 200.065 152.165L200.553 149.289C200.601 149.003 200.533 148.709 200.362 148.472C200.192 148.235 199.933 148.075 199.643 148.026C199.354 147.976 199.056 148.043 198.817 148.21C198.578 148.378 198.416 148.632 198.368 148.918Z" fill="#205C32"/>
<path d="M193.436 177.991L192.948 180.866C192.899 181.152 192.968 181.446 193.138 181.683C193.309 181.92 193.568 182.081 193.857 182.13C194.147 182.179 194.444 182.112 194.683 181.945C194.923 181.778 195.084 181.523 195.133 181.237L195.621 178.361C195.669 178.075 195.601 177.781 195.43 177.544C195.26 177.307 195.001 177.147 194.711 177.098C194.421 177.048 194.124 177.115 193.885 177.282C193.646 177.45 193.484 177.705 193.436 177.991Z" fill="#205C32"/>
<path d="M196.957 157.236L196.006 162.84C195.957 163.126 196.026 163.42 196.197 163.657C196.367 163.894 196.626 164.054 196.915 164.104C197.205 164.153 197.502 164.086 197.742 163.919C197.981 163.751 198.142 163.497 198.191 163.211L199.142 157.607C199.19 157.321 199.122 157.027 198.951 156.79C198.781 156.553 198.522 156.392 198.232 156.343C197.942 156.294 197.645 156.36 197.406 156.528C197.167 156.695 197.005 156.95 196.957 157.236Z" fill="#205C32"/>
<path d="M195.313 166.927L194.362 172.531C194.313 172.817 194.382 173.11 194.552 173.347C194.723 173.584 194.982 173.745 195.271 173.794C195.561 173.843 195.858 173.777 196.098 173.609C196.337 173.442 196.498 173.187 196.547 172.901L197.498 167.297C197.546 167.011 197.478 166.718 197.307 166.481C197.136 166.244 196.878 166.083 196.588 166.034C196.298 165.985 196.001 166.051 195.762 166.219C195.523 166.386 195.361 166.641 195.313 166.927Z" fill="#205C32"/>
<path d="M209.819 163.928L207.284 163.921C208.478 160.948 210.595 160.259 212.5 160.58C213.732 160.786 214.874 161.416 215.647 161.959C216.556 161.701 217.841 161.486 219.073 161.695C220.967 162.016 222.749 163.369 222.895 166.569L220.5 165.74C220.583 166.642 220.83 168.244 219.872 169.438C218.834 168.132 216.285 165.994 215.159 164.834C213.714 165.557 210.602 166.735 209.192 167.625C208.681 166.183 209.443 164.752 209.819 163.928Z" fill="#205C32"/>
<path d="M215.159 164.835C214.578 166.38 213.472 170.268 213.696 173.461L215.159 164.835Z" fill="#205C32"/>
<path d="M215.159 164.835C214.578 166.38 213.472 170.268 213.696 173.461" stroke="#205C32" stroke-width="2" stroke-linecap="round" stroke-linejoin="round"/>
<path d="M208.348 175.09L218.207 176.763C216.56 174.545 215.749 173.812 213.696 173.461C211.642 173.111 209.308 174.146 208.348 175.09Z" fill="#205C32"/>
</g>
<path d="M30.2161 82.873L165.944 108.102L143.079 64.439L65.3014 50.1708C53.6079 61.063 41.9128 71.9637 30.2161 82.873Z" fill="white"/>
<path d="M27.7471 84.174L165.309 110.191C136.807 135.151 108.305 160.111 79.803 185.071L27.7471 84.174Z" fill="#E9EFEB"/>
<path d="M167.364 105.718L27.347 79.2363L28.589 85.1288L62.1953 56.8144L66.9513 52.8254L64.4839 53.3179L142.261 67.5861L140.159 66.2162L164.054 110.736C164.895 112.306 167.251 112.499 168.609 111.598C170.214 110.54 170.292 108.619 169.464 107.074L156.502 82.9384L150.022 70.8661L146.78 64.8296C146.271 63.8759 145.853 62.6743 145.01 61.9401C144.166 61.2059 142.867 61.0928 141.759 60.8833L86.6319 50.7707L72.9539 48.2633C70.8076 47.8574 68.6669 47.4216 66.5428 47.0862C65.3079 46.8924 64.2519 46.7634 63.1605 47.5028C61.6306 48.5395 60.2473 49.953 58.8348 51.1445L39.4502 67.4787L24.8884 79.7526C22.8202 81.4963 23.1342 85.0784 26.1348 85.6459L166.152 112.128C170.296 112.903 171.515 106.503 167.364 105.718Z" fill="#205C32"/>
<path d="M85.7654 53.0246L71.9955 79.0486C70.252 82.3432 68.1913 85.6221 66.7079 89.0455C65.9695 90.7401 66.6039 93.0745 66.7949 94.8388L74.133 163.097L76.5344 185.545C76.9836 189.705 83.5165 189.204 83.0686 185.013L79.6251 152.935L74.1533 102.056L72.8882 90.2674L72.5654 91.9743L89.2917 60.3569L91.6564 55.8935C93.6224 52.1989 87.7252 49.3156 85.7654 53.0246Z" fill="#205C32"/>
<path d="M115.96 60.4989L119.09 95.8099L119.544 100.86L119.867 99.1526L110.152 120.476C108.416 124.294 114.3 127.174 116.04 123.358L121.522 111.324L124.819 104.094C125.379 102.874 126.101 101.644 126.062 100.249C125.965 96.6948 125.427 93.0969 125.114 89.5591L123.498 71.3524L122.489 59.9702C122.118 55.7982 115.587 56.309 115.959 60.5032L115.96 60.4989Z" fill="#205C32"/>
<path d="M24.0345 84.2674L42.0279 119.132L70.5629 174.426L77.0997 187.093C77.8454 188.533 80.4441 189.016 81.6542 187.954L111.137 162.069L157.895 121.015L168.606 111.611C169.939 110.44 170.529 108.682 169.462 107.087C168.574 105.761 166.234 105.062 164.907 106.226L135.42 132.106L88.6671 173.161L77.956 182.565L82.5105 183.427L64.5172 148.562L35.9813 93.2719L29.4445 80.6055C28.6278 79.0233 26.2186 78.855 24.89 79.7441C23.2689 80.8165 23.2309 82.7099 24.0345 84.2674Z" fill="#205C32"/>
<path d="M82.7456 186.72L99.381 155.748L101.803 151.242C103.788 147.538 97.8955 144.678 95.914 148.361L79.2964 179.309L76.857 183.838C74.8715 187.542 80.7642 190.403 82.7456 186.72Z" fill="#205C32"/>
<path d="M104.948 131.488L101.245 138.301C99.2139 141.988 105.132 144.853 107.129 141.182C108.366 138.905 109.602 136.635 110.837 134.369C112.842 130.678 106.945 127.817 104.948 131.488Z" fill="#205C32"/>
<path d="M158.658 64.1181C158.862 64.9544 159.301 65.7147 159.924 66.309L161.39 64.7729L159.924 66.309L168.78 74.7623L156.882 77.6584C156.046 77.8618 155.286 78.3007 154.691 78.9229L146.234 87.779L143.342 75.8825L141.278 76.3843L143.342 75.8825C143.138 75.0462 142.699 74.2857 142.077 73.6913L133.221 65.2343L145.117 62.3418C145.954 62.1383 146.715 61.6991 147.309 61.0762L155.762 52.2201L158.658 64.1181L160.852 63.5842L158.658 64.1181Z" fill="white" stroke="#205C32" stroke-width="5"/>
<path d="M124.328 184.788C124.532 185.624 124.971 186.385 125.594 186.979L127.06 185.443L125.594 186.979L134.45 195.432L122.552 198.328C121.716 198.532 120.956 198.97 120.361 199.593L111.904 208.449L109.012 196.552L106.948 197.054L109.012 196.552C108.808 195.716 108.369 194.956 107.747 194.361L98.891 185.904L110.787 183.012C111.624 182.808 112.385 182.369 112.979 181.746L121.432 172.89L124.328 184.788L126.522 184.254L124.328 184.788Z" fill="#E9EFEB" stroke="#205C32" stroke-width="5"/>
<path d="M45.5298 119.764C46.2049 120.298 47.0189 120.627 47.8754 120.712L48.0858 118.599L47.8754 120.712L60.0582 121.925L52.4619 131.53C51.9282 132.205 51.5992 133.018 51.5137 133.874L50.2975 146.059L40.6966 138.463L39.3789 140.128L40.6966 138.463C40.0216 137.928 39.2076 137.599 38.3512 137.514L26.1664 136.297L33.7632 126.697C34.2975 126.021 34.6269 125.207 34.7122 124.35L35.9252 112.168L45.5298 119.764L46.9302 117.993L45.5298 119.764Z" fill="#E9EFEB" stroke="#205C32" stroke-width="5"/>
<defs>
<clipPath id="clip0_2794_6013">
<rect width="90.4276" height="105.209" fill="white" transform="translate(173 220.738) rotate(-17.8633)"/>
</clipPath>
<clipPath id="clip1_2794_6013">
<rect width="70" height="35" fill="white" transform="translate(176.854 144) rotate(9.62941)"/>
</clipPath>
</defs>
</svg>
