<svg width="375" height="440" viewBox="0 0 375 440" fill="none" xmlns="http://www.w3.org/2000/svg">
<g clip-path="url(#clip0_2727_21965)">
<g filter="url(#filter0_i_2727_21965)">
<circle cx="187.5" cy="268.5" r="212.5" fill="#E9EFEB"/>
</g>
<g opacity="0.5" filter="url(#filter1_i_2727_21965)">
<circle cx="187.5" cy="268.5" r="176.5" fill="#67AF79"/>
</g>
<g clip-path="url(#clip1_2727_21965)">
<path d="M76.7817 179.606C99.2019 176.89 116.139 181.865 151.779 201.887C154.746 169.844 148.908 139.656 139.41 109.325C141.778 112.203 144.433 114.89 146.475 117.958C159.042 136.894 163.979 158.315 166.251 180.505C166.9 186.822 167.844 193.319 167.051 199.527C165.411 212.38 169.9 222.189 178.577 231.33C185.926 239.067 191.079 241.269 199.274 237.297C207.226 233.448 211.608 224.729 208.891 215.743C206.591 208.132 203.218 200.801 199.78 193.603C197.534 188.908 192.604 179.045 193.138 178.448L216.129 199.581C228.929 162.807 221.307 85.4578 222.323 85.242C226.894 101.691 231.459 118.109 236.016 134.498L270.802 113.598C271.128 114.08 254.805 130.023 246.264 137.451C239.281 143.523 235.858 150.606 235.345 160.376C234.369 178.775 231.548 197.067 229.359 216.632C255.483 201.369 282.643 192.585 313.001 197.829C274.088 205.502 238.617 218.358 220.51 257.672C203.164 295.348 207.811 331.726 228.513 367.558H165.056C166.301 349.428 167.255 331.647 168.838 313.92C169.771 303.489 171.895 293.154 173.144 282.737C174.769 269.103 171.59 256.395 164.934 244.488C146.741 211.941 120.258 190.272 83.4776 182.124C81.6009 181.711 79.7421 181.189 77.9013 180.621C77.442 180.505 77.1406 179.959 76.7817 179.606Z" fill="#0C3917"/>
<path d="M76.7816 180.056C85.1855 179.052 93.6469 179.142 101.943 180.833C111.991 182.876 121.579 186.865 130.794 191.315C137.834 194.718 144.717 198.444 151.538 202.272C151.606 202.31 151.683 202.331 151.761 202.331C151.84 202.33 151.916 202.31 151.984 202.271C152.052 202.232 152.109 202.177 152.149 202.109C152.189 202.042 152.211 201.965 152.213 201.887C154.427 177.477 151.495 153.052 145.542 129.357C143.841 122.584 141.911 115.872 139.829 109.213L139.072 109.641C141.989 113.142 145.004 116.454 147.444 120.329C149.661 123.856 151.662 127.515 153.436 131.286C156.874 138.689 159.564 146.418 161.467 154.358C163.398 162.457 164.794 170.675 165.644 178.959C166.121 183.333 166.685 187.714 166.864 192.113C167.036 196.351 166.268 200.484 166.276 204.704C166.315 211.293 168.196 217.74 171.705 223.312C173.602 226.309 175.798 229.106 178.261 231.657C180.597 234.114 183.137 236.582 186.155 238.164C191.43 240.923 197.433 239.438 202.138 236.139C207.065 232.689 210.179 227.035 210.133 220.97C210.097 216.653 208.382 212.491 206.853 208.531C205.059 203.909 203.01 199.401 200.885 194.926C199.429 191.854 197.921 188.811 196.472 185.729C195.786 184.29 195.105 182.811 194.48 181.329C194.33 180.969 193.31 179.07 193.511 178.682L192.794 178.772L215.784 199.905C215.841 199.959 215.91 199.997 215.985 200.016C216.06 200.036 216.139 200.035 216.214 200.016C216.29 199.996 216.358 199.957 216.414 199.903C216.47 199.849 216.512 199.782 216.534 199.707C219.279 191.761 220.769 183.416 221.831 175.095C223.058 165.433 223.625 155.696 223.908 145.958C224.371 129.347 223.858 112.731 223.058 96.1377C222.936 93.6197 222.8 91.1017 222.699 88.5621C222.671 87.8067 222.635 87.0477 222.638 86.2923C222.663 86.0784 222.663 85.8623 222.638 85.6484C222.559 85.3499 222.836 85.4722 222.498 85.6233L221.842 85.3571C226.439 101.786 231.019 118.206 235.581 134.617C235.601 134.682 235.635 134.743 235.681 134.794C235.726 134.845 235.783 134.885 235.847 134.911C235.91 134.937 235.979 134.948 236.047 134.944C236.115 134.94 236.182 134.92 236.242 134.886L271.027 113.99L270.371 113.721C270.288 113.386 269.886 114.131 269.653 114.408C268.986 115.16 268.282 115.883 267.583 116.602C265.605 118.634 263.585 120.627 261.551 122.606C256.724 127.307 251.833 131.958 246.781 136.415C241.255 141.286 237.189 146.969 235.657 154.297C234.792 158.476 234.785 162.786 234.465 167.027C234.107 171.926 233.622 176.811 233.084 181.693C231.799 193.354 230.22 204.966 228.929 216.635C228.93 216.714 228.951 216.791 228.991 216.859C229.031 216.927 229.087 216.983 229.156 217.022C229.224 217.061 229.301 217.082 229.379 217.082C229.458 217.083 229.535 217.062 229.603 217.024C248.98 205.747 270.317 197.326 292.956 196.786C299.635 196.637 306.312 197.133 312.897 198.265V197.412C287.24 202.488 260.75 210.164 241.064 228.326C230.429 238.135 222.735 250.431 217.406 263.834C211.17 279.528 208.356 296.46 209.813 313.32C211.486 332.68 218.519 351.068 228.143 367.802L228.53 367.126H165.056L165.504 367.576C166.785 348.896 167.553 330.129 169.527 311.507C170.499 302.341 172.257 293.283 173.413 284.143C174.487 276.137 173.975 267.997 171.906 260.19C169.864 252.672 166.351 245.783 162.325 239.161C158.779 233.314 154.822 227.729 150.483 222.448C142.184 212.297 132.267 203.59 121.134 196.682C114.882 192.848 108.284 189.613 101.427 187.02C97.8094 185.646 94.1242 184.448 90.3959 183.423C88.3959 182.869 86.3829 182.362 84.3566 181.901C82.1211 181.39 78.6655 181.077 77.0758 179.315C76.6883 178.883 76.0567 179.52 76.4407 179.951C77.6499 181.293 79.0961 181.516 80.8221 181.977C82.7024 182.48 84.615 182.869 86.5025 183.333C89.7894 184.146 93.0417 185.083 96.2593 186.146C102.738 188.273 109.021 190.959 115.037 194.175C126.616 200.449 137.043 208.655 145.872 218.441C150.463 223.519 154.661 228.94 158.431 234.657C162.641 241.013 166.599 247.672 169.265 254.841C172.155 262.523 173.436 270.72 173.029 278.92C172.53 288.05 170.496 297.104 169.283 306.158C167.944 316.165 167.356 326.284 166.667 336.356C165.949 346.752 165.328 357.151 164.618 367.55C164.619 367.669 164.666 367.783 164.75 367.867C164.834 367.951 164.948 367.999 165.066 368H228.512C228.591 367.998 228.668 367.976 228.735 367.936C228.803 367.896 228.859 367.838 228.898 367.77C228.937 367.701 228.958 367.624 228.958 367.545C228.958 367.467 228.938 367.389 228.9 367.32C220.352 352.46 213.829 336.313 211.378 319.262C208.97 302.589 210.743 285.589 216.179 269.668C220.973 255.614 228.25 242.412 238.714 231.804C247.653 222.74 258.518 215.88 270.13 210.794C283.845 204.786 298.478 201.15 313.119 198.254C313.212 198.225 313.293 198.168 313.35 198.09C313.408 198.012 313.439 197.917 313.439 197.82C313.439 197.723 313.408 197.629 313.35 197.551C313.293 197.473 313.212 197.415 313.119 197.387C290.437 193.538 267.837 197.642 246.978 206.991C240.87 209.755 234.912 212.841 229.13 216.236L229.808 216.624C230.967 206.308 232.338 196.02 233.529 185.707C234.121 180.592 234.663 175.473 235.097 170.343C235.499 165.61 235.488 160.771 236.238 156.084C236.83 152.142 238.21 148.36 240.297 144.966C242.285 141.786 244.9 139.257 247.685 136.793C252.748 132.311 257.654 127.642 262.494 122.922C264.694 120.764 266.89 118.606 269.014 116.39C269.499 115.879 271.447 114.354 271.236 113.472C271.216 113.407 271.182 113.346 271.136 113.295C271.091 113.244 271.034 113.204 270.97 113.178C270.907 113.152 270.838 113.141 270.77 113.145C270.702 113.149 270.635 113.169 270.575 113.203L235.79 134.102L236.446 134.368C231.887 117.956 227.323 101.541 222.757 85.1233C222.737 85.0577 222.703 84.9975 222.657 84.9469C222.61 84.8963 222.554 84.8567 222.491 84.8308C222.427 84.805 222.359 84.7936 222.291 84.7975C222.223 84.8014 222.156 84.8206 222.096 84.8535C221.562 85.0981 221.777 86.4974 221.784 86.9218C221.82 88.7959 221.924 90.6665 222.014 92.5406C222.337 99.2673 222.66 105.998 222.875 112.728C223.485 131.793 223.521 150.984 221.551 169.973C220.517 179.926 218.974 189.984 215.698 199.47L216.448 199.272C208.793 192.229 201.129 185.184 193.458 178.139C193.408 178.089 193.348 178.051 193.282 178.028C193.216 178.006 193.145 177.999 193.076 178.008C193.006 178.017 192.94 178.042 192.882 178.081C192.823 178.119 192.775 178.171 192.74 178.232C192.266 179.149 193.339 180.919 193.68 181.725C194.778 184.311 196.002 186.84 197.222 189.369C200.598 196.376 204.04 203.376 206.713 210.696C208.048 214.34 209.411 218.053 209.225 221.991C209.042 225.393 207.854 228.664 205.812 231.387C202.052 236.423 194.599 240.38 188.319 238.146C184.989 236.963 182.244 234.434 179.8 231.963C177.158 229.34 174.797 226.446 172.756 223.33C168.948 217.47 167.002 210.59 167.176 203.599C167.291 199.516 167.923 195.552 167.718 191.444C167.503 187.175 166.965 182.912 166.498 178.664C165.698 171.018 164.446 163.427 162.748 155.93C160.84 147.492 158.066 139.276 154.47 131.411C152.632 127.445 150.543 123.6 148.215 119.901C145.732 115.944 142.671 112.595 139.704 109.03C139.413 108.67 138.825 109.055 138.954 109.465C146.184 132.631 151.513 156.523 152.037 180.872C152.193 187.892 151.953 194.916 151.319 201.909L151.994 201.52C133.334 191.038 113.06 179.689 91.1853 178.588C86.3766 178.372 81.5584 178.562 76.7816 179.157C76.2074 179.225 76.2002 180.124 76.7816 180.056Z" fill="#0C3917"/>
<path d="M291.072 146.03C289.518 157.073 289.256 168.174 285.977 178.293C284.362 183.29 277.777 187.916 272.384 190.164C262.832 194.121 252.468 196.16 242.392 199.013C237.695 165.966 258.167 146.825 291.072 146.03Z" fill="#205C32"/>
<path d="M290.649 145.912C289.662 153.038 289.192 160.228 288.055 167.333C287.539 170.793 286.769 174.21 285.751 177.556C284.843 180.434 282.977 182.657 280.727 184.585C275.642 188.919 269.244 191.117 262.929 193.024C256.111 195.085 249.153 196.642 242.296 198.574L242.848 198.887C241.345 188.034 242.314 176.552 248.127 167.034C253.413 158.379 262.071 152.595 271.602 149.552C277.903 147.541 284.499 146.674 291.094 146.48C291.213 146.48 291.327 146.433 291.411 146.348C291.495 146.264 291.543 146.15 291.543 146.03C291.543 145.911 291.495 145.797 291.411 145.712C291.327 145.628 291.213 145.581 291.094 145.581C279.722 145.89 267.988 148.322 258.49 154.894C250.186 160.654 244.413 169.398 242.368 179.311C240.986 185.833 241.072 192.545 241.984 199.124C242.015 199.24 242.091 199.337 242.195 199.397C242.298 199.456 242.421 199.472 242.536 199.441C253.226 196.43 264.763 194.606 274.76 189.567C278.707 187.585 282.712 184.804 285.166 181.049C286.418 179.117 286.96 176.862 287.527 174.653C288.209 171.885 288.751 169.084 289.153 166.261C290.143 159.581 290.62 152.84 291.546 146.153C291.586 145.584 290.721 145.34 290.649 145.912Z" fill="#205C32"/>
<path d="M149.68 107.206C125.397 89.3175 119.781 64.3353 134.329 40.2991C165.626 53.3172 171.705 78.893 149.68 107.206Z" fill="#318349"/>
<path d="M149.906 106.818C140.874 100.113 133.001 91.3823 129.226 80.6124C125.824 70.9181 126.237 60.4432 129.732 50.8352C130.719 48.1405 131.909 45.525 133.291 43.0113C133.474 42.6768 134.081 41.1804 134.422 41.0329C134.895 40.8279 136.051 41.5401 136.438 41.7164C137.682 42.2823 138.91 42.8818 140.12 43.5149C144.585 45.7988 148.695 48.7215 152.321 52.1913C158.521 58.2849 162.339 66.3173 162.368 75.0908C162.393 86.8643 156.379 97.8212 149.371 106.89C149.012 107.343 149.654 107.969 150.006 107.526C157.003 98.4687 162.992 87.6556 163.254 75.9253C163.477 65.9612 158.948 56.9107 151.642 50.3172C146.612 45.7919 140.655 42.4826 134.447 39.8782C134.351 39.8528 134.25 39.8594 134.159 39.8971C134.068 39.9348 133.991 40.0014 133.941 40.0869C128.813 48.6229 125.559 58.3568 125.971 68.4073C126.369 78.0764 130.173 87.1916 136.065 94.778C139.88 99.6881 144.476 103.9 149.454 107.595C149.916 107.94 150.365 107.159 149.906 106.818Z" fill="#318349"/>
<path d="M60.3862 210.585C79.8244 187.563 106.479 188.617 124.74 212.682C108.237 225.243 80.7287 224.499 60.3862 210.585Z" fill="#205C32"/>
<path d="M60.7021 210.905C67.093 203.387 75.3462 197.139 85.1604 195.095C94.2247 193.207 103.483 195.412 111.194 200.401C116.311 203.711 120.653 208.081 124.353 212.909L124.514 212.293C106.002 226.189 78.8736 222.56 60.6124 210.196C60.1315 209.873 59.683 210.653 60.1602 210.973C75.1489 221.121 95.0715 225.189 112.504 219.491C116.982 218.05 121.192 215.88 124.966 213.067C125.067 213.005 125.14 212.906 125.17 212.792C125.2 212.677 125.185 212.555 125.128 212.452C118.931 204.365 110.796 197.434 100.813 194.714C91.842 192.268 82.3938 193.746 74.3092 198.239C68.8297 201.279 64.1218 205.513 60.0705 210.268C59.6973 210.721 60.3289 211.344 60.7021 210.905Z" fill="#205C32"/>
<path d="M205.712 90.6197C202.931 114.221 180.83 128.98 162.11 120.476C156.864 118.091 155.335 115.4 157.904 109.685C163.434 97.3499 172.078 90.3715 185.937 90.6197C192.503 90.7168 199.077 90.6197 205.712 90.6197Z" fill="#318349"/>
<path d="M205.263 90.6197C203.297 106.429 191.193 121.706 174.403 122.429C170.669 122.586 166.944 121.953 163.47 120.573C159.659 119.059 156.192 116.785 157.434 112.192C158.51 108.163 161.062 104.08 163.678 100.868C166.037 97.9191 169.001 95.5133 172.369 93.814C176.589 91.7205 181.264 91.0154 185.936 91.0586C192.528 91.1233 199.12 91.0838 205.712 91.0802C205.831 91.0802 205.945 91.0328 206.029 90.9485C206.113 90.8641 206.16 90.7498 206.16 90.6305C206.16 90.5113 206.113 90.3969 206.029 90.3126C205.945 90.2282 205.831 90.1809 205.712 90.1809C199.03 90.1809 192.352 90.2132 185.671 90.1593C181.365 90.1233 177.059 90.7708 173.112 92.4866C165.447 95.8032 159.587 103.242 156.874 111.048C155.719 114.368 156.253 117.343 159.225 119.408C162.479 121.663 166.685 122.839 170.582 123.228C178.512 124.027 186.392 121.17 192.525 116.192C200.304 109.879 204.937 100.501 206.16 90.6305C206.232 90.0478 205.335 90.0514 205.263 90.6197Z" fill="#318349"/>
<path d="M56.0552 141.613C83.5995 137.678 99.9087 149.03 102.259 173.34C70.2149 177.164 60.4402 172.592 56.0552 141.613Z" fill="#205C32"/>
<path d="M56.1738 142.045C64.9043 140.825 74.1982 140.782 82.4981 144.124C89.4816 146.936 95.1156 152.338 98.2295 159.207C100.275 163.649 101.333 168.491 101.818 173.34L102.266 172.89C93.2273 173.969 83.1906 175.275 74.3058 172.559C67.1291 170.365 62.7118 164.8 60.2035 157.919C58.2837 152.638 57.2826 147.052 56.4859 141.491C56.407 140.922 55.5422 141.163 55.6211 141.732C56.8627 150.39 58.4811 160.318 64.3445 167.196C69.2247 172.923 76.6418 174.61 83.8545 174.883C90.0049 175.113 96.1734 174.505 102.27 173.782C102.492 173.757 102.747 173.595 102.719 173.333C101.9 165.102 99.3598 156.832 93.6471 150.649C88.2215 144.786 80.6429 141.764 72.8346 140.793C67.208 140.073 61.5204 140.397 55.9226 141.178C55.3664 141.257 55.6104 142.124 56.1738 142.045Z" fill="#205C32"/>
<path d="M138.297 134.512C114.542 141.318 99.4062 128.26 83.1509 115.228C96.7149 107.293 109.777 101.577 124.345 108.677C134.576 113.667 137.644 123.311 138.297 134.512Z" fill="#318349"/>
<path d="M138.179 134.081C127.851 136.958 117.398 136.293 107.677 131.706C98.7531 127.498 91.1135 121.045 83.4666 114.911L83.3769 115.631C95.0427 108.832 108.259 102.717 121.744 108.034C127.029 110.116 131.432 113.606 134.113 118.685C136.668 123.545 137.511 129.117 137.848 134.512C137.884 135.088 138.781 135.091 138.746 134.512C138.222 126.081 136.266 117.167 129.509 111.49C121.557 104.796 110.326 103.713 100.641 106.57C94.3681 108.422 88.5514 111.566 82.9212 114.843C82.8609 114.878 82.8095 114.927 82.771 114.986C82.7325 115.044 82.708 115.111 82.6993 115.181C82.6906 115.25 82.6981 115.321 82.721 115.387C82.7439 115.453 82.7817 115.513 82.8315 115.562C90.7941 121.947 98.7639 128.717 108.147 132.922C117.836 137.271 128.21 137.822 138.415 134.962C138.532 134.93 138.631 134.854 138.692 134.749C138.752 134.644 138.768 134.519 138.737 134.403C138.705 134.286 138.629 134.186 138.524 134.126C138.419 134.065 138.295 134.049 138.179 134.081Z" fill="#318349"/>
<path d="M254.23 48.7739C263.097 73.7705 257.596 89.2887 236.328 100.404C218.522 81.6627 226.212 58.8316 254.23 48.7739Z" fill="#318349"/>
<path d="M253.8 48.8927C256.67 57.0295 258.823 65.8857 257.435 74.5441C256.265 81.9038 252.292 88.2133 246.695 93.0191C245.047 94.4224 243.308 95.7131 241.488 96.8824C240.598 97.458 239.695 98.0107 238.779 98.5407C237.853 99.0731 236.816 100.127 235.944 99.3393C232.869 96.5587 230.432 92.2097 228.961 88.3715C227.623 84.9568 227.06 81.2862 227.314 77.6264C227.568 73.9665 228.632 70.4092 230.429 67.2131C235.477 58.2202 244.929 52.6302 254.341 49.2273C254.883 49.0294 254.65 48.1481 254.105 48.3604C245.004 51.6698 236.005 56.8892 230.608 65.1987C228.43 68.5006 227.044 72.2629 226.558 76.1912C226.071 80.1196 226.498 84.1074 227.805 87.8428C229.513 92.7169 232.488 97.0011 236.005 100.739C236.075 100.808 236.166 100.852 236.264 100.865C236.361 100.878 236.461 100.859 236.547 100.811C243.533 97.127 250.258 92.3176 254.417 85.4399C258.314 78.9973 259.286 71.4109 258.432 64.0332C257.822 58.7741 256.408 53.6554 254.657 48.6733C254.474 48.1301 253.606 48.346 253.8 48.8927Z" fill="#318349"/>
<path d="M319.56 231.189C307.665 238.247 297.158 240.833 286.21 236.247C278.38 232.966 269.581 218.693 273.363 216.603C279.536 213.193 288.865 210.045 294.535 212.409C303.85 216.312 311.311 224.697 319.56 231.189Z" fill="#205C32"/>
<path d="M319.331 230.801C312.035 235.092 303.854 238.679 295.21 237.995C291.47 237.707 287.419 236.715 284.24 234.661C281.646 232.981 279.446 230.664 277.573 228.225C275.865 226.009 274.261 223.527 273.371 220.855C273.098 220.027 272.793 219.056 272.922 218.16C273.12 216.808 274.584 216.423 275.674 215.894C279.202 214.175 282.998 212.804 286.892 212.247C290.997 211.657 294.309 212.535 297.897 214.545C305.86 219.002 312.143 225.862 319.241 231.492C319.689 231.851 320.317 231.215 319.876 230.855C312.721 225.179 306.38 218.265 298.346 213.768C294.865 211.822 291.646 210.808 287.627 211.25C283.608 211.693 279.636 213.049 275.954 214.765C273.934 215.707 271.885 216.337 272.007 218.862C272.129 221.387 273.611 223.934 274.914 226.006C278.649 231.952 283.68 236.47 290.581 238.157C300.89 240.675 310.959 236.74 319.768 231.56C319.843 231.491 319.892 231.398 319.907 231.297C319.922 231.196 319.902 231.094 319.851 231.005C319.801 230.917 319.721 230.849 319.627 230.812C319.532 230.775 319.428 230.771 319.331 230.801Z" fill="#205C32"/>
<path d="M164.338 135.325C176.395 137.609 186.665 139.962 191.553 150.908C195.08 158.822 192.224 165.854 186.719 172.325C170.209 165.908 167.894 151.257 164.338 135.325Z" fill="#205C32"/>
<path d="M164.231 135.76C170.331 136.922 176.761 138.066 182.23 141.207C188 144.523 192.565 150.789 192.665 157.635C192.723 161.459 191.28 165.07 189.235 168.243C188.808 168.908 188.348 169.556 187.875 170.185C186.917 171.462 186.798 171.916 185.205 171.2C183.741 170.544 182.331 169.773 180.989 168.894C175.843 165.509 172.305 160.459 170.019 154.8C167.489 148.52 166.244 141.789 164.783 135.207C164.658 134.642 163.793 134.879 163.919 135.444C165.609 143.066 167.001 150.966 170.482 158.023C173.894 164.951 179.453 169.919 186.612 172.772C186.687 172.795 186.768 172.796 186.845 172.776C186.922 172.756 186.991 172.714 187.046 172.657C190.275 168.822 193.06 164.383 193.505 159.264C193.925 154.383 191.973 149.516 188.955 145.75C183.066 138.394 173.202 136.566 164.468 134.908C163.904 134.786 163.664 135.653 164.231 135.76Z" fill="#205C32"/>
<path d="M196.759 141.685C193.734 121.293 198.851 112.685 216.764 107.044C223.029 128.465 219.631 138.779 196.759 141.685Z" fill="#318349"/>
<path d="M197.193 141.566C196.117 134.221 195.399 125.739 199.296 119.059C202.999 112.692 210.18 109.609 216.879 107.476L216.327 107.163C218.433 114.415 221.02 123.742 217.364 130.947C213.614 138.332 204.194 140.264 196.756 141.235C196.192 141.311 196.185 142.21 196.756 142.135C203.247 141.286 210.689 139.865 215.512 135.019C219.502 131.009 220.32 125.307 219.858 119.865C219.499 115.469 218.422 111.152 217.191 106.915C217.16 106.801 217.084 106.704 216.981 106.645C216.878 106.586 216.757 106.571 216.642 106.602C209.713 108.807 202.339 112.019 198.517 118.598C194.498 125.519 195.216 134.203 196.321 141.796C196.411 142.376 197.276 142.135 197.193 141.566Z" fill="#318349"/>
<path d="M127.302 149.57C143.511 156.311 148.811 167.325 144.125 184.538C124.317 182.48 117.398 168.095 127.302 149.57Z" fill="#205C32"/>
<path d="M127.18 150.016C132.775 152.372 138.304 155.678 141.724 160.843C144.749 165.394 145.635 170.844 145.201 176.221C145.063 177.868 144.823 179.504 144.483 181.121C144.376 181.892 144.202 182.653 143.963 183.394C143.637 184.203 143.924 183.887 143.156 183.984C142.65 184.049 141.968 183.818 141.466 183.732C138.467 183.25 135.561 182.302 132.854 180.923C128.39 178.556 124.984 174.656 123.786 169.682C122.149 162.887 124.532 155.782 127.69 149.807C127.959 149.297 127.184 148.84 126.915 149.354C123.097 156.584 120.423 165.646 124.184 173.455C127.833 181.041 136.277 184.128 144.125 184.995C144.222 184.994 144.317 184.962 144.395 184.903C144.472 184.844 144.529 184.761 144.555 184.667C146.457 177.559 147.221 169.739 143.934 162.908C140.676 156.138 134.117 151.966 127.428 149.142C126.89 148.922 126.66 149.793 127.18 150.016Z" fill="#205C32"/>
<path d="M272.205 124.861C283.522 110.994 296.832 108.731 311.451 117.857C302.756 135.901 288.919 138.53 272.205 124.861Z" fill="#318349"/>
<path d="M272.521 125.178C277.186 119.541 283.11 114.57 290.462 113.213C297.815 111.857 305.006 114.426 311.21 118.249L311.049 117.634C307.755 124.379 302.713 131.278 294.901 132.786C286.648 134.379 278.653 129.516 272.513 124.544C272.069 124.185 271.437 124.818 271.878 125.181C278.201 130.3 286.275 135.167 294.754 133.724C302.982 132.325 308.39 125.152 311.831 118.088C311.888 117.984 311.904 117.862 311.873 117.748C311.843 117.633 311.77 117.534 311.67 117.472C305.39 113.606 298.134 111.03 290.696 112.267C282.988 113.548 276.733 118.67 271.878 124.544C271.519 124.983 272.151 125.624 272.521 125.178Z" fill="#318349"/>
<path d="M286.598 92.8104C277.146 111.185 265.01 113.814 247.947 101.188C254.686 87.6988 274.86 82.8318 286.598 92.8104Z" fill="#318349"/>
<path d="M286.211 92.5837C282.755 99.2277 277.807 106.501 270.009 108.203C262.115 109.915 254.296 105.296 248.185 100.81L248.342 101.426C255.16 88.1161 274.613 83.4398 286.279 93.1521C286.72 93.5118 287.355 92.8859 286.914 92.5154C274.825 82.4721 254.669 87.1197 247.571 100.983C247.513 101.086 247.498 101.208 247.527 101.322C247.557 101.437 247.629 101.536 247.729 101.598C254.062 106.246 262.082 110.85 270.25 109.08C278.27 107.339 283.426 99.904 286.986 93.0586C287.251 92.5262 286.476 92.0693 286.211 92.5837Z" fill="#318349"/>
<path d="M103.993 245.337C104.825 228.923 115.063 219.437 132.438 218.988C136.406 238.229 123.732 249.966 103.993 245.337Z" fill="#205C32"/>
<path d="M104.441 245.337C104.774 239.416 106.371 233.466 110.182 228.79C113.813 224.326 119.02 221.617 124.564 220.365C126.158 220.008 127.774 219.756 129.401 219.61C130.04 219.552 131.081 219.283 131.676 219.459C132.441 219.682 132.394 221.124 132.487 221.905C132.889 224.853 132.808 227.847 132.247 230.768C131.192 235.916 128.239 240.452 123.656 243.099C117.757 246.502 110.577 246.369 104.125 244.898C103.565 244.769 103.325 245.635 103.888 245.765C111.872 247.585 121.112 247.29 127.435 241.423C133.643 235.668 134.457 226.747 132.886 218.862C132.858 218.767 132.801 218.684 132.723 218.625C132.645 218.565 132.55 218.532 132.451 218.531C124.991 218.765 117.323 220.65 111.707 225.851C106.278 230.887 103.967 238.081 103.558 245.33C103.511 245.916 104.412 245.916 104.441 245.337Z" fill="#205C32"/>
<path d="M207.617 284.1L217.295 283.851C218.325 283.836 219.342 283.617 220.288 283.207C221.233 282.798 222.089 282.205 222.807 281.464C223.524 280.723 224.089 279.848 224.468 278.888C224.848 277.928 225.035 276.902 225.02 275.869L223.988 208.3C223.955 206.215 223.099 204.229 221.605 202.777C220.112 201.326 218.105 200.528 216.026 200.56L209.642 200.657C209.183 203.302 207.817 205.704 205.781 207.448C203.745 209.192 201.166 210.17 198.488 210.212C195.81 210.255 193.201 209.36 191.111 207.682C189.02 206.004 187.579 203.647 187.036 201.018L179.757 201.13C178.727 201.145 177.71 201.364 176.765 201.774C175.819 202.183 174.963 202.775 174.246 203.516C173.528 204.258 172.964 205.133 172.584 206.093C172.204 207.053 172.017 208.079 172.033 209.111L172.824 261.154L173.061 276.681C173.077 277.713 173.296 278.733 173.705 279.68C174.114 280.628 174.705 281.486 175.445 282.205C176.184 282.923 177.058 283.489 178.016 283.869C178.974 284.25 179.997 284.437 181.027 284.421L189.859 284.284" fill="#F7F7F7"/>
<path d="M211.372 247.35L214.999 242L210.102 242.046L208.564 243.905C208.27 244.292 208.258 244.843 208.538 245.243L210.023 247.381C210.36 247.866 211.049 247.85 211.368 247.35L211.372 247.35Z" fill="#205C32"/>
<path d="M208.256 249.901L203.457 242.89C203.12 242.401 202.583 242.112 202.01 242.117L198.626 242.149L198.664 246.194L200.565 246.177C200.88 246.174 201.174 246.329 201.354 246.599L204.037 250.515C204.234 250.807 204.237 251.196 204.046 251.487L201.449 255.398C201.292 255.635 201.031 255.782 200.755 255.785L198.759 255.803L198.798 259.944L202.25 259.911C202.815 259.906 203.338 259.612 203.652 259.125L208.284 252.007C208.7 251.371 208.688 250.526 208.26 249.901L208.256 249.901Z" fill="#205C32"/>
<path d="M190.074 243.026L185.374 250.18C184.983 250.776 184.986 251.571 185.388 252.164L190.14 259.18C190.498 259.71 191.083 260.021 191.699 260.015L195.061 259.984L195.022 255.844L193.216 255.861C192.82 255.864 192.443 255.664 192.211 255.323L189.777 251.825C189.502 251.416 189.497 250.874 189.764 250.464L192.178 246.789C192.399 246.457 192.759 246.255 193.143 246.251L194.927 246.235L194.889 242.189L191.515 242.221C190.937 242.227 190.397 242.525 190.07 243.026L190.074 243.026Z" fill="#205C32"/>
<path d="M171.011 266.864L158.841 298.268L167.958 350.699L201.072 350.79L198.087 338.896L186.033 337.494L199.209 327.937L201.072 307.832L209.581 273.14L202.151 268.119L195.566 273.735L188.19 284.41H179.696L172.856 280.185L171.011 266.864Z" fill="#E8F3EB"/>
<path d="M162.484 367.895H207.837V352.174H165.987L162.484 367.895Z" fill="#318349"/>
<path d="M208.038 284.24L202.712 306.44C203.172 306.278 203.643 306.08 204.114 305.878C208.236 304.01 210.893 300.852 212.522 298.307L220.334 287.254L220.934 284.258L208.038 284.24Z" fill="#205C32"/>
<path d="M218.55 290.564L201.169 312.194C201.851 315.095 201.867 318.113 201.216 321.021C200.565 323.93 199.264 326.652 197.411 328.983C195.028 332.993 191.289 336.014 186.874 337.498C190.587 337.183 194.288 338.236 197.282 340.461C200.276 342.686 202.357 345.929 203.136 349.582C202.676 345.268 202.206 340.957 201.727 336.651C205.419 334.814 208.531 331.988 210.717 328.485C212.159 326.14 213.148 323.543 213.634 320.832L218.564 311.365L225.296 299.598C225.64 297.968 225.442 296.27 224.732 294.763C222.962 291.18 218.895 290.607 218.55 290.564Z" fill="#205C32"/>
<path d="M164.286 366.45L166.57 357.145L168.116 350.847C168.368 349.816 168.81 348.684 168.835 347.603C168.9 345.627 168.195 343.316 167.9 341.362C167.522 338.882 167.145 336.403 166.771 333.925C166.069 329.318 165.37 324.713 164.675 320.111C163.955 315.388 163.236 310.667 162.517 305.946C162.157 303.586 161.798 301.225 161.438 298.862C161.301 297.958 160.909 296.764 161.078 295.921C161.312 294.839 162.092 293.595 162.538 292.536C166.66 282.701 170.782 272.865 174.906 263.028C175.359 261.947 174.413 260.66 173.399 260.368C172.158 260.007 171.191 260.808 170.745 261.878L159.784 288.109L157.173 294.335C156.259 296.516 157.173 299.144 157.511 301.429C158.23 306.152 158.949 310.873 159.669 315.593C161.069 324.803 162.466 334.012 163.862 343.219C163.982 344.407 164.162 345.589 164.401 346.759C164.88 348.598 164.639 346.705 164.581 347.163C164.497 347.63 164.384 348.091 164.243 348.544L162.837 354.265L160.129 365.293C159.467 367.996 163.628 369.15 164.293 366.443L164.286 366.45Z" fill="#205C32"/>
<path d="M210.023 365.913C210.023 360.839 210.014 355.768 209.995 350.699C209.985 350.129 209.755 349.584 209.352 349.18C208.95 348.777 208.406 348.546 207.837 348.536H167.109C164.333 348.536 164.33 352.862 167.109 352.862H207.841L205.683 350.699C205.683 355.773 205.692 360.844 205.712 365.913C205.712 368.696 210.027 368.699 210.027 365.913H210.023Z" fill="#205C32"/>
<path d="M203.255 312.327C207.463 307.154 211.767 302.064 215.903 296.826C219.215 292.637 223.815 288.13 223.815 282.456C223.815 279.669 219.499 279.666 219.499 282.456C219.524 283.271 219.427 284.085 219.212 284.871C219.384 284.313 219.05 285.163 218.942 285.358C218.454 286.207 217.922 287.03 217.349 287.824C215.666 290.221 213.85 292.51 212.026 294.814C208.15 299.677 204.136 304.432 200.213 309.259C198.472 311.401 201.507 314.48 203.262 312.32L203.255 312.327Z" fill="#205C32"/>
<path d="M207.617 286.263L213.839 286.104C215.892 286.05 218.086 286.202 220.075 285.589C221.693 285.083 223.16 284.179 224.34 282.959C225.52 281.74 226.377 280.243 226.832 278.606C227.285 276.919 227.166 275.177 227.138 273.454L226.843 254.066L226.181 209.8C226.131 206.534 225.491 203.441 222.97 201.09C219.287 197.658 214.259 198.422 209.663 198.494C208.782 198.494 207.757 199.151 207.585 200.081C206.74 204.601 203.097 208.105 198.382 208.123C193.775 208.141 190.111 204.843 189.14 200.43C189.011 199.975 188.738 199.574 188.363 199.288C187.987 199.001 187.529 198.844 187.058 198.84C183.677 198.891 179.592 198.372 176.377 199.601C172.155 201.213 169.86 205.229 169.903 209.634C169.968 215.817 170.094 221.999 170.188 228.178C170.377 240.765 170.569 253.348 170.763 265.927C170.82 269.791 170.562 273.807 171 277.654C171.194 279.355 171.817 280.979 172.81 282.372C173.804 283.764 175.135 284.88 176.679 285.614C178.527 286.476 180.397 286.58 182.408 286.548L189.881 286.432C192.653 286.393 192.66 282.063 189.881 282.106L183.767 282.204C182.123 282.229 180.347 282.478 178.783 281.843C177.747 281.404 176.862 280.672 176.234 279.738C175.605 278.804 175.262 277.706 175.244 276.58C175.104 273.335 175.143 270.047 175.093 266.785L174.92 255.36L174.255 211.739C174.219 209.266 173.978 206.797 175.963 204.89C177.614 203.304 179.606 203.3 181.717 203.267L187.054 203.188L184.972 201.602C186.345 207.857 191.945 212.496 198.378 212.471C201.555 212.425 204.618 211.281 207.05 209.233C209.481 207.184 211.133 204.356 211.724 201.227L209.638 202.82C212.594 202.774 216.878 201.937 219.434 203.765C221.456 205.207 221.812 207.37 221.848 209.63L222.092 225.658L222.779 270.664C222.804 272.329 222.851 273.998 222.855 275.668C222.855 277.697 222.067 279.539 220.359 280.715C218.651 281.89 216.529 281.713 214.526 281.764L207.614 281.94C204.841 282.009 204.83 286.339 207.614 286.266L207.617 286.263Z" fill="#205C32"/>
<path d="M221.282 300.865C222.282 299.561 222.04 297.692 220.739 296.689C219.439 295.686 217.574 295.929 216.574 297.233L210.665 304.929C209.665 306.233 209.907 308.102 211.208 309.105C212.508 310.108 214.373 309.865 215.373 308.562L221.282 300.865Z" fill="#E8F3EB"/>
<path d="M213.235 290.34C213.232 290.993 213.014 291.626 212.616 292.143L206.711 299.839C206.306 300.365 205.738 300.74 205.097 300.906C204.455 301.072 203.777 301.019 203.169 300.755L205.381 291.807L206.607 290.207L207.912 288.509C208.29 288.018 208.812 287.657 209.404 287.478C209.996 287.298 210.629 287.308 211.215 287.507C211.801 287.705 212.311 288.082 212.673 288.585C213.035 289.088 213.231 289.691 213.235 290.311V290.34Z" fill="#E8F3EB"/>
<path d="M217.701 293.156C218.7 293.173 219.676 293.466 220.52 294.002C221.365 294.538 222.046 295.297 222.49 296.195C222.933 297.093 223.122 298.095 223.035 299.094C222.949 300.092 222.59 301.047 221.999 301.855C221.01 303.297 219.862 304.645 218.801 306.033L213.497 312.962C212.839 313.683 212.457 314.614 212.418 315.59C212.19 318.106 211.584 320.574 210.62 322.908C208.583 327.648 205.089 331.611 200.648 334.221C199.741 334.758 199.518 335.692 199.659 336.661C200.311 341.16 200.964 345.657 201.619 350.151L203.701 347.415H201.457L203.525 350.151C203.805 348.349 203.208 346.817 202.672 345.155C202.039 343.194 201.158 341.247 199.691 339.747C196.39 336.416 191.7 336.827 187.395 336.679L189.478 338.266L188.945 336.899L187.957 339.343C192.82 337.196 196.94 333.653 199.799 329.163C202.659 324.672 204.129 319.434 204.025 314.108C203.981 312.77 203.848 311.437 203.625 310.117C203.625 310.092 203.366 308.549 203.32 308.553C203.586 308.524 203.061 309.858 203.32 309.014C203.794 307.551 204.068 305.99 204.438 304.494L206.035 298.04L209.843 282.622C210.483 280.033 211.566 277.131 211.303 274.435C210.771 268.995 205.751 264.86 200.288 266.19C197.159 266.951 194.944 269.146 193.854 272.095C192.63 275.406 191.21 278.642 189.604 281.785C186.295 288.313 182.232 294.428 177.499 300.005C175.701 302.111 178.743 305.182 180.548 303.062C184.268 298.722 187.606 294.068 190.524 289.15C193.581 283.974 195.825 278.555 198.13 273.025C198.983 270.981 201.55 269.817 203.679 270.458C205.808 271.1 207.117 273.342 207.06 275.505C207.002 277.668 206.092 279.943 205.582 281.994C204.467 286.515 203.35 291.035 202.23 295.553C201.751 297.5 201.271 299.448 200.792 301.397L199.637 306.065C199.36 307.176 198.968 308.261 199.094 309.407C199.414 312.342 199.943 314.981 199.529 317.976C199.074 321.175 197.934 324.237 196.188 326.953C193.651 330.81 190.032 333.829 185.788 335.63C184.993 335.991 184.483 337.267 184.795 338.071L185.328 339.437C185.466 339.886 185.741 340.28 186.114 340.565C186.486 340.85 186.938 341.011 187.406 341.027C190.211 341.121 193.88 340.569 196.235 342.444C197.282 343.273 197.893 344.535 198.339 345.76C198.601 346.481 198.745 347.242 198.993 347.963C199.072 348.183 199.414 348.735 199.375 349.005C199.162 350.368 199.925 351.745 201.453 351.745H203.697C205.236 351.745 205.977 350.368 205.776 349.005C205.124 344.511 204.47 340.014 203.816 335.515L202.805 337.956C207.254 335.346 210.912 331.574 213.389 327.043C214.867 324.33 215.884 321.389 216.399 318.34C216.514 317.645 216.611 316.938 216.683 316.239C216.683 316.138 216.759 315.384 216.759 315.384C216.637 315.384 216.608 316.105 216.511 316.077C216.773 315.785 217.013 315.474 217.23 315.146L223.067 307.518C224.829 305.218 226.807 303.073 227.289 300.095C228.263 294.093 223.628 288.999 217.708 288.83C214.932 288.75 214.932 293.076 217.708 293.156H217.701Z" fill="#205C32"/>
<path d="M172.159 229.303L180.29 229.163C182.599 229.123 182.606 225.518 180.29 225.557L172.159 225.698C169.85 225.738 169.843 229.343 172.159 229.303Z" fill="#205C32"/>
<path d="M186.827 229.051L194.958 228.91C197.267 228.87 197.274 225.265 194.958 225.305L186.827 225.446C184.515 225.485 184.508 229.09 186.827 229.051Z" fill="#205C32"/>
<path d="M201.497 228.798L209.624 228.658C211.937 228.618 211.944 225.013 209.624 225.053L201.497 225.193C199.184 225.233 199.177 228.838 201.497 228.798Z" fill="#205C32"/>
<path d="M216.166 228.546L224.293 228.405C226.606 228.366 226.613 224.761 224.293 224.8L216.166 224.941C213.853 224.981 213.846 228.586 216.166 228.546Z" fill="#205C32"/>
</g>
</g>
<defs>
<filter id="filter0_i_2727_21965" x="-25" y="56" width="425" height="425" filterUnits="userSpaceOnUse" color-interpolation-filters="sRGB">
<feFlood flood-opacity="0" result="BackgroundImageFix"/>
<feBlend mode="normal" in="SourceGraphic" in2="BackgroundImageFix" result="shape"/>
<feColorMatrix in="SourceAlpha" type="matrix" values="0 0 0 0 0 0 0 0 0 0 0 0 0 0 0 0 0 0 127 0" result="hardAlpha"/>
<feMorphology radius="4" operator="erode" in="SourceAlpha" result="effect1_innerShadow_2727_21965"/>
<feOffset/>
<feGaussianBlur stdDeviation="4.3"/>
<feComposite in2="hardAlpha" operator="arithmetic" k2="-1" k3="1"/>
<feColorMatrix type="matrix" values="0 0 0 0 0 0 0 0 0 0 0 0 0 0 0 0 0 0 0.08 0"/>
<feBlend mode="normal" in2="shape" result="effect1_innerShadow_2727_21965"/>
</filter>
<filter id="filter1_i_2727_21965" x="11" y="92" width="353" height="353" filterUnits="userSpaceOnUse" color-interpolation-filters="sRGB">
<feFlood flood-opacity="0" result="BackgroundImageFix"/>
<feBlend mode="normal" in="SourceGraphic" in2="BackgroundImageFix" result="shape"/>
<feColorMatrix in="SourceAlpha" type="matrix" values="0 0 0 0 0 0 0 0 0 0 0 0 0 0 0 0 0 0 127 0" result="hardAlpha"/>
<feMorphology radius="4" operator="erode" in="SourceAlpha" result="effect1_innerShadow_2727_21965"/>
<feOffset/>
<feGaussianBlur stdDeviation="4.3"/>
<feComposite in2="hardAlpha" operator="arithmetic" k2="-1" k3="1"/>
<feColorMatrix type="matrix" values="0 0 0 0 0 0 0 0 0 0 0 0 0 0 0 0 0 0 0.08 0"/>
<feBlend mode="normal" in2="shape" result="effect1_innerShadow_2727_21965"/>
</filter>
<clipPath id="clip0_2727_21965">
<rect width="375" height="440" fill="white"/>
</clipPath>
<clipPath id="clip1_2727_21965">
<rect width="265" height="329" fill="white" transform="translate(55 39)"/>
</clipPath>
</defs>
</svg>
