<svg width="375" height="401" viewBox="0 0 375 401" fill="none" xmlns="http://www.w3.org/2000/svg">
<g filter="url(#filter0_i_1521_21997)">
<circle cx="187.5" cy="229.5" r="212.5" fill="#E9EFEB"/>
</g>
<g opacity="0.5" filter="url(#filter1_i_1521_21997)">
<circle cx="187.5" cy="229.5" r="176.5" fill="#67AF79"/>
</g>
<g clip-path="url(#clip0_1521_21997)">
<path d="M76.7817 140.606C99.2019 137.89 116.139 142.865 151.779 162.887C154.746 130.844 148.908 100.656 139.41 70.325C141.778 73.2027 144.433 75.8898 146.475 78.9581C159.042 97.8936 163.979 119.315 166.251 141.505C166.9 147.822 167.844 154.319 167.051 160.527C165.411 173.38 169.9 183.189 178.577 192.33C185.926 200.067 191.079 202.269 199.274 198.297C207.226 194.448 211.608 185.729 208.891 176.743C206.591 169.132 203.218 161.801 199.78 154.603C197.534 149.908 192.604 140.045 193.138 139.448L216.129 160.581C228.929 123.807 221.307 46.4578 222.323 46.242C226.894 62.6906 231.459 79.1092 236.016 95.4979L270.802 74.5984C271.128 75.0804 254.805 91.023 246.264 98.4511C239.281 104.523 235.858 111.606 235.345 121.376C234.369 139.775 231.548 158.067 229.359 177.632C255.483 162.369 282.643 153.585 313.001 158.829C274.088 166.502 238.617 179.358 220.51 218.672C203.164 256.348 207.811 292.726 228.513 328.558H165.056C166.301 310.428 167.255 292.647 168.838 274.92C169.771 264.489 171.895 254.154 173.144 243.737C174.769 230.103 171.59 217.395 164.934 205.488C146.741 172.941 120.258 151.272 83.4776 143.124C81.6009 142.711 79.7421 142.189 77.9013 141.621C77.442 141.505 77.1406 140.959 76.7817 140.606Z" fill="#0C3917"/>
<path d="M76.7813 141.056C85.1853 140.052 93.6467 140.142 101.943 141.833C111.99 143.876 121.579 147.865 130.794 152.315C137.834 155.718 144.716 159.444 151.538 163.272C151.606 163.31 151.683 163.331 151.761 163.331C151.839 163.33 151.916 163.31 151.984 163.271C152.052 163.232 152.109 163.177 152.149 163.109C152.189 163.042 152.211 162.965 152.213 162.887C154.427 138.477 151.495 114.052 145.542 90.3575C143.841 83.584 141.91 76.8717 139.829 70.2134L139.072 70.6415C141.989 74.1415 145.003 77.4545 147.444 81.3286C149.66 84.856 151.662 88.5151 153.436 92.2855C156.873 99.6888 159.564 107.418 161.467 115.358C163.398 123.457 164.793 131.675 165.644 139.959C166.121 144.333 166.684 148.714 166.864 153.113C167.036 157.351 166.268 161.484 166.275 165.703C166.315 172.293 168.195 178.739 171.705 184.312C173.602 187.309 175.798 190.106 178.261 192.657C180.597 195.114 183.137 197.581 186.155 199.164C191.43 201.923 197.433 200.438 202.138 197.139C207.064 193.689 210.179 188.035 210.132 181.97C210.097 177.653 208.381 173.491 206.853 169.531C205.059 164.909 203.01 160.401 200.885 155.926C199.428 152.854 197.921 149.811 196.472 146.729C195.786 145.29 195.104 143.811 194.48 142.329C194.329 141.969 193.31 140.07 193.511 139.682L192.793 139.772L215.784 160.905C215.84 160.959 215.91 160.997 215.985 161.016C216.06 161.036 216.139 161.035 216.214 161.016C216.289 160.996 216.358 160.957 216.414 160.903C216.47 160.849 216.511 160.782 216.534 160.707C219.279 152.761 220.768 144.416 221.831 136.095C223.058 126.433 223.625 116.696 223.908 106.958C224.371 90.3467 223.858 73.7314 223.058 57.1377C222.936 54.6197 222.799 52.1017 222.699 49.5621C222.67 48.8067 222.634 48.0477 222.638 47.2923C222.663 47.0784 222.663 46.8623 222.638 46.6484C222.559 46.3499 222.835 46.4722 222.498 46.6232L221.841 46.3571C226.439 62.7865 231.019 79.2063 235.581 95.6165C235.601 95.6824 235.634 95.7431 235.68 95.7941C235.726 95.8451 235.783 95.885 235.846 95.9109C235.91 95.9368 235.978 95.9481 236.047 95.9438C236.115 95.9396 236.182 95.9199 236.241 95.8863L271.027 74.9904L270.37 74.7206C270.288 74.3861 269.886 75.1307 269.653 75.4077C268.985 76.1595 268.282 76.8825 267.582 77.602C265.605 79.6343 263.585 81.6272 261.55 83.6056C256.724 88.3071 251.833 92.9582 246.781 97.4151C241.254 102.286 237.189 107.969 235.657 115.297C234.792 119.476 234.785 123.786 234.465 128.027C234.106 132.926 233.622 137.811 233.084 142.692C231.799 154.354 230.22 165.966 228.928 177.635C228.929 177.714 228.951 177.791 228.991 177.859C229.03 177.927 229.087 177.983 229.155 178.022C229.223 178.061 229.3 178.082 229.379 178.082C229.457 178.083 229.535 178.062 229.603 178.024C248.98 166.747 270.317 158.326 292.956 157.786C299.634 157.637 306.312 158.133 312.896 159.265V158.412C287.239 163.488 260.75 171.164 241.064 189.326C230.428 199.135 222.735 211.431 217.406 224.834C211.17 240.528 208.356 257.46 209.813 274.32C211.485 293.68 218.519 312.068 228.143 328.802L228.53 328.126H165.055L165.504 328.576C166.785 309.896 167.553 291.129 169.526 272.507C170.499 263.341 172.257 254.283 173.413 245.143C174.487 237.137 173.975 228.997 171.906 221.19C169.864 213.672 166.351 206.783 162.325 200.161C158.779 194.314 154.822 188.729 150.483 183.448C142.183 173.297 132.267 164.59 121.134 157.682C114.882 153.848 108.284 150.613 101.426 148.02C97.8092 146.646 94.1239 145.448 90.3956 144.423C88.3957 143.869 86.3826 143.362 84.3564 142.901C82.1208 142.39 78.6652 142.077 77.0756 140.315C76.688 139.883 76.0565 140.52 76.4404 140.951C77.6497 142.293 79.0958 142.516 80.8218 142.977C82.7021 143.48 84.6147 143.869 86.5022 144.333C89.7892 145.146 93.0414 146.083 96.259 147.146C102.738 149.273 109.021 151.959 115.037 155.175C126.615 161.449 137.043 169.655 145.872 179.441C150.462 184.519 154.661 189.94 158.431 195.657C162.64 202.013 166.598 208.672 169.264 215.841C172.154 223.523 173.436 231.72 173.029 239.92C172.53 249.05 170.495 258.104 169.282 267.158C167.944 277.165 167.355 287.284 166.666 297.356C165.949 307.752 165.328 318.151 164.618 328.55C164.618 328.669 164.666 328.783 164.75 328.867C164.834 328.951 164.947 328.999 165.066 329H228.512C228.591 328.998 228.668 328.976 228.735 328.936C228.803 328.896 228.859 328.838 228.898 328.77C228.937 328.701 228.957 328.624 228.958 328.545C228.958 328.466 228.938 328.389 228.9 328.32C220.352 313.46 213.828 297.313 211.378 280.262C208.97 263.589 210.742 246.589 216.179 230.668C220.973 216.614 228.25 203.412 238.714 192.804C247.653 183.74 258.518 176.88 270.13 171.793C283.845 165.786 298.478 162.15 313.119 159.254C313.211 159.225 313.292 159.168 313.35 159.09C313.408 159.012 313.439 158.917 313.439 158.82C313.439 158.723 313.408 158.629 313.35 158.551C313.292 158.473 313.211 158.415 313.119 158.387C290.437 154.538 267.837 158.642 246.978 167.991C240.87 170.755 234.912 173.841 229.129 177.236L229.808 177.624C230.967 167.308 232.337 157.02 233.529 146.707C234.121 141.592 234.663 136.473 235.097 131.343C235.499 126.61 235.488 121.771 236.238 117.084C236.829 113.142 238.21 109.36 240.296 105.966C242.284 102.786 244.9 100.257 247.685 97.7928C252.748 93.3107 257.653 88.6416 262.494 83.9222C264.694 81.7639 266.89 79.6056 269.014 77.3897C269.499 76.8789 271.447 75.3537 271.235 74.4724C271.216 74.4065 271.182 74.3458 271.136 74.2949C271.09 74.2439 271.033 74.2039 270.97 74.178C270.907 74.1521 270.838 74.1408 270.77 74.1451C270.701 74.1494 270.635 74.169 270.575 74.2026L235.789 95.1021L236.446 95.3683C231.886 78.9557 227.323 62.5407 222.756 46.1232C222.736 46.0577 222.702 45.9975 222.656 45.9469C222.61 45.8963 222.554 45.8567 222.49 45.8308C222.427 45.805 222.359 45.7936 222.291 45.7975C222.222 45.8014 222.156 45.8205 222.096 45.8535C221.561 46.0981 221.777 47.4974 221.784 47.9218C221.82 49.7959 221.924 51.6665 222.014 53.5406C222.337 60.2673 222.659 66.9975 222.875 73.7278C223.485 92.7927 223.521 111.984 221.551 130.973C220.517 140.926 218.974 150.984 215.698 160.47L216.448 160.272C208.793 153.229 201.129 146.184 193.457 139.139C193.408 139.089 193.348 139.051 193.282 139.028C193.215 139.006 193.145 138.999 193.075 139.008C193.006 139.017 192.94 139.042 192.881 139.081C192.823 139.119 192.775 139.171 192.74 139.232C192.266 140.149 193.339 141.919 193.68 142.725C194.778 145.311 196.001 147.84 197.222 150.369C200.598 157.376 204.039 164.376 206.713 171.696C208.048 175.34 209.411 179.053 209.225 182.991C209.041 186.393 207.854 189.664 205.812 192.387C202.051 197.423 194.598 201.38 188.319 199.146C184.989 197.963 182.244 195.434 179.8 192.963C177.158 190.34 174.797 187.446 172.756 184.33C168.948 178.47 167.002 171.59 167.176 164.599C167.291 160.516 167.922 156.552 167.718 152.444C167.503 148.175 166.964 143.912 166.498 139.664C165.698 132.018 164.446 124.427 162.748 116.93C160.84 108.492 158.066 100.276 154.47 92.4114C152.631 88.4449 150.542 84.6001 148.215 80.9005C145.732 76.9437 142.671 73.5947 139.703 70.0299C139.413 69.6702 138.824 70.0551 138.953 70.4652C146.184 93.6309 151.513 117.523 152.037 141.872C152.192 148.892 151.953 155.916 151.319 162.909L151.994 162.52C133.334 152.038 113.06 140.689 91.185 139.588C86.3764 139.372 81.5582 139.562 76.7813 140.157C76.2072 140.225 76.2 141.124 76.7813 141.056Z" fill="#0C3917"/>
<path d="M291.072 107.03C289.518 118.073 289.256 129.174 285.976 139.293C284.362 144.29 277.777 148.915 272.384 151.164C262.831 155.121 252.468 157.16 242.392 160.013C237.695 126.966 258.167 107.825 291.072 107.03Z" fill="#205C32"/>
<path d="M290.649 106.912C289.662 114.038 289.192 121.228 288.055 128.333C287.539 131.793 286.769 135.21 285.751 138.556C284.843 141.434 282.977 143.657 280.727 145.585C275.642 149.919 269.244 152.117 262.929 154.024C256.111 156.085 249.153 157.642 242.296 159.574L242.848 159.887C241.345 149.034 242.314 137.552 248.127 128.034C253.413 119.379 262.071 113.595 271.602 110.552C277.903 108.541 284.499 107.674 291.094 107.48C291.213 107.48 291.327 107.433 291.411 107.348C291.495 107.264 291.543 107.15 291.543 107.03C291.543 106.911 291.495 106.797 291.411 106.712C291.327 106.628 291.213 106.581 291.094 106.581C279.722 106.89 267.988 109.322 258.49 115.894C250.186 121.654 244.413 130.398 242.368 140.311C240.986 146.833 241.072 153.545 241.984 160.124C242.015 160.24 242.091 160.337 242.195 160.397C242.298 160.456 242.421 160.472 242.536 160.441C253.226 157.43 264.763 155.606 274.76 150.567C278.707 148.585 282.712 145.804 285.166 142.049C286.418 140.117 286.96 137.862 287.527 135.653C288.209 132.885 288.751 130.084 289.153 127.261C290.143 120.581 290.62 113.84 291.546 107.153C291.586 106.584 290.721 106.34 290.649 106.912Z" fill="#205C32"/>
<path d="M149.679 68.2062C125.397 50.3176 119.781 25.3353 134.328 1.29913C165.626 14.3172 171.705 39.893 149.679 68.2062Z" fill="#318349"/>
<path d="M149.906 67.8177C140.874 61.1126 133.001 52.3823 129.226 41.6124C125.824 31.9181 126.237 21.4432 129.732 11.8352C130.719 9.1405 131.909 6.52501 133.291 4.01134C133.474 3.6768 134.081 2.18039 134.422 2.0329C134.895 1.82787 136.051 2.5401 136.438 2.71636C137.682 3.28232 138.91 3.88184 140.12 4.51494C144.585 6.79879 148.695 9.72149 152.321 13.1913C158.521 19.2849 162.339 27.3173 162.368 36.0908C162.393 47.8643 156.379 58.8212 149.371 67.8896C149.012 68.3429 149.654 68.9688 150.006 68.5263C157.003 59.4687 162.992 48.6556 163.254 36.9253C163.477 26.9612 158.948 17.9107 151.642 11.3172C146.612 6.79194 140.655 3.48256 134.447 0.878216C134.351 0.852799 134.25 0.859437 134.159 0.897115C134.068 0.934792 133.991 1.00144 133.941 1.08685C128.813 9.6229 125.559 19.3568 125.971 29.4073C126.369 39.0764 130.173 48.1916 136.065 55.778C139.88 60.6881 144.476 64.9004 149.454 68.5947C149.916 68.94 150.365 68.1594 149.906 67.8177Z" fill="#318349"/>
<path d="M60.386 171.585C79.8242 148.563 106.479 149.617 124.74 173.682C108.237 186.243 80.7285 185.499 60.386 171.585Z" fill="#205C32"/>
<path d="M60.7021 171.905C67.093 164.387 75.3462 158.139 85.1604 156.095C94.2247 154.207 103.483 156.412 111.194 161.401C116.311 164.711 120.653 169.081 124.353 173.909L124.514 173.293C106.002 187.189 78.8736 183.56 60.6124 171.196C60.1315 170.873 59.683 171.653 60.1602 171.973C75.1489 182.121 95.0715 186.189 112.504 180.491C116.982 179.05 121.192 176.88 124.966 174.067C125.067 174.005 125.14 173.906 125.17 173.792C125.2 173.677 125.185 173.555 125.128 173.452C118.931 165.365 110.796 158.434 100.813 155.714C91.842 153.268 82.3938 154.746 74.3092 159.239C68.8297 162.279 64.1218 166.513 60.0705 171.268C59.6973 171.721 60.3289 172.344 60.7021 171.905Z" fill="#205C32"/>
<path d="M205.712 51.6197C202.931 75.2206 180.83 89.9798 162.11 81.4761C156.864 79.0912 155.335 76.4005 157.904 70.6846C163.434 58.35 172.078 51.3715 185.937 51.6197C192.503 51.7168 199.077 51.6197 205.712 51.6197Z" fill="#318349"/>
<path d="M205.263 51.6197C203.297 67.4292 191.193 82.7064 174.403 83.4294C170.669 83.5857 166.944 82.9533 163.469 81.5733C159.658 80.0589 156.192 77.7855 157.434 73.1919C158.51 69.1631 161.062 65.0803 163.677 61.868C166.036 58.9191 169 56.5133 172.369 54.814C176.588 52.7205 181.264 52.0154 185.936 52.0586C192.528 52.1233 199.12 52.0838 205.712 52.0802C205.831 52.0802 205.945 52.0328 206.029 51.9485C206.113 51.8642 206.16 51.7498 206.16 51.6305C206.16 51.5113 206.113 51.3969 206.029 51.3126C205.945 51.2283 205.831 51.1809 205.712 51.1809C199.03 51.1809 192.352 51.2133 185.671 51.1593C181.365 51.1233 177.059 51.7708 173.111 53.4867C165.447 56.8032 159.587 64.2422 156.874 72.048C155.718 75.3682 156.253 78.343 159.224 80.4078C162.479 82.6632 166.685 83.8395 170.582 84.228C178.512 85.0265 186.392 82.1704 192.524 77.1919C200.304 70.8789 204.937 61.5011 206.16 51.6305C206.232 51.0478 205.335 51.0514 205.263 51.6197Z" fill="#318349"/>
<path d="M56.0549 102.613C83.5993 98.6776 99.9084 110.03 102.259 134.34C70.2147 138.164 60.4399 133.592 56.0549 102.613Z" fill="#205C32"/>
<path d="M56.1735 103.045C64.904 101.825 74.1979 101.782 82.4978 105.124C89.4813 107.936 95.1154 113.338 98.2292 120.207C100.275 124.649 101.333 129.491 101.818 134.34L102.266 133.89C93.2271 134.969 83.1904 136.275 74.3056 133.559C67.1288 131.365 62.7115 125.8 60.2033 118.919C58.2835 113.638 57.2823 108.052 56.4857 102.491C56.4068 101.922 55.542 102.163 55.6209 102.732C56.8625 111.39 58.4808 121.318 64.3442 128.196C69.2244 133.923 76.6416 135.61 83.8542 135.883C90.0047 136.113 96.1731 135.505 102.27 134.782C102.492 134.757 102.747 134.595 102.718 134.333C101.9 126.102 99.3596 117.832 93.6469 111.649C88.2213 105.786 80.6426 102.764 72.8343 101.793C67.2078 101.073 61.5202 101.397 55.9223 102.178C55.3661 102.257 55.6101 103.124 56.1735 103.045Z" fill="#205C32"/>
<path d="M138.297 95.5122C114.542 102.318 99.4062 89.2603 83.1509 76.2278C96.7149 68.2925 109.777 62.5766 124.345 69.6774C134.576 74.6667 137.644 84.3107 138.297 95.5122Z" fill="#318349"/>
<path d="M138.178 95.0806C127.851 97.9583 117.398 97.2929 107.677 92.7065C98.7529 88.4978 91.1132 82.0445 83.4664 75.9114L83.3767 76.6308C95.0425 69.8322 108.258 63.717 121.744 69.0336C127.029 71.1164 131.432 74.6056 134.113 79.6848C136.668 84.5445 137.511 90.1165 137.848 95.5123C137.884 96.0878 138.781 96.0914 138.745 95.5123C138.221 87.0805 136.266 78.1668 129.509 72.4905C121.557 65.7962 110.325 64.7134 100.64 67.5696C94.3679 69.4221 88.5511 72.566 82.921 75.843C82.8606 75.8785 82.8092 75.9273 82.7707 75.9859C82.7323 76.0444 82.7077 76.111 82.6991 76.1806C82.6904 76.2501 82.6978 76.3207 82.7207 76.387C82.7437 76.4532 82.7815 76.5132 82.8312 76.5625C90.7938 82.9474 98.7636 89.7173 108.147 93.9223C117.836 98.2713 128.21 98.8217 138.415 95.9619C138.532 95.9304 138.631 95.8538 138.691 95.7489C138.752 95.644 138.768 95.5194 138.736 95.4026C138.705 95.2857 138.628 95.1861 138.524 95.1257C138.419 95.0654 138.295 95.0491 138.178 95.0806Z" fill="#318349"/>
<path d="M254.23 9.77393C263.097 34.7706 257.596 50.2887 236.328 61.4039C218.522 42.6627 226.212 19.8316 254.23 9.77393Z" fill="#318349"/>
<path d="M253.8 9.89276C256.67 18.0295 258.823 26.8857 257.435 35.5441C256.265 42.9039 252.292 49.2133 246.695 54.0191C245.047 55.4224 243.308 56.7131 241.488 57.8824C240.598 58.458 239.695 59.0107 238.779 59.5407C237.853 60.0731 236.816 61.1271 235.944 60.3393C232.869 57.5587 230.432 53.2097 228.961 49.3715C227.623 45.9569 227.06 42.2863 227.314 38.6264C227.568 34.9665 228.632 31.4093 230.429 28.2131C235.477 19.2202 244.929 13.6302 254.341 10.2273C254.883 10.0295 254.65 9.14815 254.105 9.36038C245.004 12.6698 236.005 17.8892 230.608 26.1987C228.43 29.5006 227.044 33.2629 226.558 37.1912C226.071 41.1196 226.498 45.1074 227.805 48.8428C229.513 53.7169 232.488 58.0011 236.005 61.7386C236.075 61.8077 236.166 61.852 236.264 61.865C236.361 61.878 236.461 61.8589 236.547 61.8105C243.533 58.127 250.258 53.3176 254.417 46.4399C258.314 39.9974 259.286 32.411 258.432 25.0332C257.822 19.7741 256.408 14.6554 254.657 9.67334C254.474 9.13016 253.606 9.34599 253.8 9.89276Z" fill="#318349"/>
<path d="M319.56 192.189C307.664 199.247 297.158 201.833 286.209 197.247C278.38 193.966 269.581 179.693 273.363 177.603C279.535 174.193 288.865 171.045 294.534 173.409C303.85 177.312 311.31 185.697 319.56 192.189Z" fill="#205C32"/>
<path d="M319.33 191.801C312.035 196.092 303.854 199.679 295.209 198.995C291.47 198.707 287.419 197.715 284.24 195.661C281.645 193.981 279.446 191.664 277.572 189.225C275.864 187.009 274.26 184.527 273.37 181.855C273.098 181.027 272.793 180.056 272.922 179.16C273.119 177.808 274.583 177.423 275.674 176.894C279.202 175.175 282.998 173.804 286.891 173.247C290.997 172.657 294.309 173.535 297.897 175.545C305.86 180.002 312.143 186.862 319.241 192.492C319.689 192.851 320.317 192.215 319.876 191.855C312.721 186.179 306.38 179.265 298.346 174.768C294.865 172.822 291.646 171.808 287.627 172.25C283.608 172.693 279.636 174.049 275.954 175.765C273.934 176.707 271.885 177.337 272.007 179.862C272.129 182.387 273.611 184.934 274.913 187.006C278.649 192.952 283.68 197.47 290.58 199.157C300.89 201.675 310.959 197.74 319.768 192.56C319.843 192.491 319.891 192.398 319.906 192.297C319.922 192.196 319.902 192.094 319.851 192.005C319.8 191.917 319.721 191.849 319.626 191.812C319.532 191.775 319.427 191.771 319.33 191.801Z" fill="#205C32"/>
<path d="M164.338 96.3251C176.395 98.6093 186.665 100.962 191.552 111.908C195.08 119.822 192.223 126.854 186.719 133.325C170.209 126.908 167.894 112.257 164.338 96.3251Z" fill="#205C32"/>
<path d="M164.231 96.7605C170.331 97.9224 176.761 99.0663 182.23 102.207C188 105.523 192.564 111.789 192.665 118.635C192.722 122.459 191.28 126.07 189.234 129.243C188.807 129.908 188.348 130.556 187.874 131.185C186.916 132.462 186.798 132.916 185.205 132.2C183.741 131.544 182.331 130.773 180.988 129.894C175.843 126.509 172.304 121.459 170.019 115.8C167.489 109.52 166.244 102.789 164.783 96.2065C164.658 95.6418 163.793 95.8792 163.918 96.444C165.609 104.066 167.001 111.966 170.482 119.023C173.894 125.951 179.453 130.919 186.611 133.772C186.687 133.795 186.768 133.796 186.845 133.776C186.921 133.756 186.991 133.714 187.046 133.657C190.275 129.822 193.06 125.383 193.505 120.264C193.924 115.383 191.972 110.516 188.955 106.75C183.066 99.3936 173.202 97.5663 164.467 95.908C163.904 95.7857 163.664 96.6526 164.231 96.7605Z" fill="#205C32"/>
<path d="M196.759 102.685C193.734 82.2928 198.851 73.6848 216.764 68.0444C223.029 89.4655 219.631 99.7785 196.759 102.685Z" fill="#318349"/>
<path d="M197.193 102.566C196.117 95.2208 195.399 86.7387 199.296 80.0588C202.999 73.6918 210.18 70.609 216.879 68.4759L216.327 68.163C218.433 75.4148 221.02 84.7423 217.364 91.9474C213.614 99.3323 204.194 101.264 196.756 102.235C196.192 102.311 196.185 103.21 196.756 103.135C203.247 102.286 210.689 100.865 215.512 96.0193C219.502 92.0085 220.32 86.307 219.858 80.8645C219.499 76.4688 218.422 72.1522 217.191 67.9148C217.16 67.8006 217.084 67.7036 216.981 67.645C216.878 67.5864 216.757 67.5709 216.642 67.6018C209.713 69.8069 202.339 73.0191 198.517 79.5983C194.498 86.5193 195.216 95.2028 196.321 102.796C196.411 103.376 197.276 103.135 197.193 102.566Z" fill="#318349"/>
<path d="M127.302 110.57C143.511 117.311 148.811 128.325 144.124 145.538C124.316 143.48 117.398 129.095 127.302 110.57Z" fill="#205C32"/>
<path d="M127.18 111.016C132.775 113.372 138.304 116.678 141.724 121.843C144.749 126.394 145.635 131.843 145.201 137.221C145.063 138.868 144.823 140.504 144.483 142.121C144.376 142.892 144.202 143.653 143.963 144.394C143.637 145.203 143.924 144.887 143.156 144.984C142.65 145.049 141.968 144.818 141.466 144.732C138.467 144.25 135.561 143.302 132.854 141.923C128.39 139.556 124.984 135.656 123.786 130.682C122.149 123.887 124.532 116.782 127.69 110.807C127.959 110.297 127.184 109.84 126.915 110.354C123.097 117.584 120.423 126.646 124.184 134.455C127.833 142.041 136.277 145.128 144.125 145.995C144.222 145.994 144.317 145.962 144.395 145.903C144.472 145.844 144.529 145.761 144.555 145.667C146.457 138.559 147.221 130.739 143.934 123.908C140.676 117.138 134.117 112.966 127.428 110.142C126.89 109.922 126.66 110.793 127.18 111.016Z" fill="#205C32"/>
<path d="M272.204 85.8611C283.522 71.9941 296.831 69.7315 311.45 78.8575C302.756 96.9008 288.919 99.5303 272.204 85.8611Z" fill="#318349"/>
<path d="M272.52 86.1775C277.185 80.5408 283.11 75.5695 290.462 74.2134C297.815 72.8573 305.006 75.4256 311.21 79.2494L311.049 78.6343C307.755 85.379 302.713 92.2783 294.901 93.7855C286.648 95.379 278.653 90.5157 272.513 85.5444C272.068 85.1847 271.437 85.8178 271.878 86.1811C278.201 91.2999 286.275 96.1668 294.754 94.7244C302.982 93.3251 308.39 86.1523 311.831 79.0875C311.888 78.9839 311.903 78.8621 311.873 78.7475C311.843 78.633 311.77 78.5344 311.67 78.4724C305.39 74.6055 298.134 72.0299 290.695 73.2673C282.988 74.5479 276.733 79.6703 271.878 85.5444C271.519 85.9833 272.151 86.6236 272.52 86.1775Z" fill="#318349"/>
<path d="M286.598 53.8104C277.146 72.1846 265.01 74.8141 247.947 62.1881C254.686 48.6988 274.86 43.8318 286.598 53.8104Z" fill="#318349"/>
<path d="M286.21 53.5837C282.755 60.2277 277.806 67.5011 270.009 69.2026C262.114 70.9148 254.295 66.2961 248.184 61.8104L248.342 62.4255C255.16 49.116 274.612 44.4397 286.278 54.1521C286.72 54.5118 287.355 53.8859 286.913 53.5154C274.824 43.4721 254.668 48.1196 247.57 61.9831C247.513 62.0863 247.497 62.2078 247.527 62.3223C247.556 62.4368 247.628 62.5356 247.728 62.5982C254.062 67.2457 262.082 71.8501 270.249 70.0803C278.269 68.3392 283.426 60.9039 286.985 54.0585C287.251 53.5262 286.476 53.0693 286.21 53.5837Z" fill="#318349"/>
<path d="M103.992 206.337C104.825 189.923 115.063 180.437 132.437 179.988C136.406 199.229 123.732 210.966 103.992 206.337Z" fill="#205C32"/>
<path d="M104.44 206.337C104.774 200.416 106.371 194.466 110.182 189.79C113.813 185.326 119.02 182.617 124.564 181.365C126.158 181.008 127.774 180.755 129.401 180.61C130.04 180.552 131.08 180.283 131.676 180.459C132.44 180.682 132.394 182.124 132.487 182.905C132.889 185.853 132.807 188.847 132.247 191.768C131.192 196.916 128.238 201.452 123.656 204.099C117.757 207.502 110.577 207.369 104.125 205.898C103.565 205.769 103.324 206.635 103.888 206.765C111.872 208.585 121.112 208.29 127.435 202.423C133.643 196.668 134.457 187.747 132.885 179.862C132.858 179.767 132.801 179.684 132.723 179.625C132.645 179.565 132.549 179.532 132.451 179.531C124.991 179.765 117.323 181.65 111.707 186.851C106.278 191.887 103.967 199.081 103.558 206.33C103.511 206.916 104.412 206.916 104.44 206.337Z" fill="#205C32"/>
<path d="M207.617 245.1L217.295 244.851C218.325 244.836 219.342 244.617 220.288 244.207C221.233 243.798 222.089 243.205 222.807 242.464C223.524 241.723 224.089 240.848 224.468 239.888C224.848 238.928 225.035 237.902 225.02 236.869L223.988 169.3C223.955 167.215 223.099 165.229 221.605 163.777C220.112 162.326 218.105 161.528 216.026 161.56L209.642 161.657C209.183 164.302 207.817 166.704 205.781 168.448C203.745 170.192 201.166 171.17 198.488 171.212C195.81 171.255 193.201 170.36 191.111 168.682C189.02 167.004 187.579 164.647 187.036 162.018L179.757 162.13C178.727 162.145 177.71 162.364 176.765 162.774C175.819 163.183 174.963 163.775 174.246 164.516C173.528 165.258 172.964 166.133 172.584 167.093C172.204 168.053 172.017 169.079 172.033 170.111L172.824 222.154L173.061 237.681C173.077 238.713 173.296 239.733 173.705 240.68C174.114 241.628 174.705 242.486 175.445 243.205C176.184 243.923 177.058 244.489 178.016 244.869C178.974 245.25 179.997 245.437 181.027 245.421L189.859 245.284" fill="#F7F7F7"/>
<path d="M211.372 208.35L214.999 203L210.102 203.046L208.564 204.905C208.27 205.292 208.258 205.843 208.538 206.243L210.023 208.381C210.36 208.866 211.049 208.85 211.368 208.35L211.372 208.35Z" fill="#205C32"/>
<path d="M208.256 210.901L203.457 203.89C203.12 203.401 202.583 203.112 202.01 203.117L198.626 203.149L198.664 207.194L200.565 207.177C200.88 207.174 201.174 207.329 201.354 207.599L204.037 211.515C204.234 211.807 204.237 212.196 204.046 212.487L201.449 216.399C201.292 216.635 201.031 216.782 200.755 216.785L198.759 216.803L198.798 220.944L202.25 220.911C202.815 220.906 203.338 220.612 203.652 220.125L208.284 213.007C208.7 212.371 208.688 211.526 208.26 210.901L208.256 210.901Z" fill="#205C32"/>
<path d="M190.074 204.026L185.374 211.18C184.983 211.776 184.986 212.571 185.388 213.164L190.14 220.18C190.498 220.71 191.083 221.021 191.699 221.015L195.061 220.984L195.022 216.844L193.216 216.861C192.82 216.864 192.443 216.664 192.211 216.323L189.777 212.825C189.502 212.416 189.497 211.874 189.764 211.464L192.178 207.789C192.399 207.457 192.759 207.255 193.143 207.251L194.927 207.235L194.889 203.189L191.515 203.221C190.937 203.227 190.397 203.525 190.07 204.026L190.074 204.026Z" fill="#205C32"/>
<path d="M171.011 227.864L158.842 259.268L167.958 311.699L201.072 311.79L198.087 299.896L186.033 298.494L199.209 288.937L201.072 268.832L209.581 234.14L202.151 229.119L195.566 234.735L188.19 245.41H179.696L172.856 241.185L171.011 227.864Z" fill="#E8F3EB"/>
<path d="M162.485 328.895H207.837V313.174H165.987L162.485 328.895Z" fill="#318349"/>
<path d="M208.038 245.24L202.712 267.44C203.172 267.278 203.644 267.08 204.115 266.878C208.236 265.01 210.894 261.852 212.523 259.307L220.334 248.254L220.934 245.258L208.038 245.24Z" fill="#205C32"/>
<path d="M218.55 251.564L201.169 273.194C201.851 276.095 201.867 279.113 201.216 282.021C200.565 284.93 199.264 287.652 197.411 289.983C195.028 293.993 191.289 297.014 186.874 298.498C190.587 298.183 194.288 299.236 197.282 301.461C200.276 303.686 202.357 306.929 203.136 310.582C202.676 306.268 202.206 301.957 201.727 297.651C205.419 295.814 208.531 292.988 210.717 289.485C212.159 287.14 213.148 284.543 213.634 281.832L218.564 272.365L225.296 260.598C225.64 258.968 225.442 257.27 224.732 255.763C222.962 252.18 218.895 251.607 218.55 251.564Z" fill="#205C32"/>
<path d="M164.286 327.45L166.57 318.145L168.116 311.847C168.368 310.816 168.81 309.684 168.835 308.603C168.9 306.627 168.195 304.316 167.9 302.362C167.522 299.882 167.145 297.403 166.771 294.925C166.069 290.318 165.37 285.713 164.675 281.111C163.955 276.388 163.236 271.667 162.517 266.946C162.157 264.586 161.798 262.225 161.438 259.862C161.301 258.958 160.909 257.764 161.078 256.921C161.312 255.839 162.092 254.596 162.538 253.536C166.66 243.701 170.782 233.865 174.906 224.028C175.359 222.947 174.413 221.66 173.399 221.368C172.158 221.007 171.191 221.808 170.745 222.878L159.784 249.109L157.173 255.335C156.259 257.516 157.173 260.144 157.511 262.429C158.23 267.152 158.949 271.873 159.669 276.593C161.069 285.803 162.466 295.012 163.862 304.219C163.982 305.407 164.162 306.589 164.401 307.759C164.88 309.598 164.639 307.705 164.581 308.163C164.497 308.63 164.384 309.091 164.243 309.544L162.837 315.265L160.129 326.293C159.467 328.996 163.628 330.15 164.293 327.443L164.286 327.45Z" fill="#205C32"/>
<path d="M210.023 326.913C210.023 321.839 210.014 316.768 209.994 311.699C209.985 311.129 209.755 310.584 209.352 310.18C208.95 309.777 208.406 309.546 207.837 309.536H167.109C164.333 309.536 164.329 313.862 167.109 313.862H207.84L205.683 311.699C205.683 316.773 205.692 321.844 205.711 326.913C205.711 329.696 210.027 329.699 210.027 326.913H210.023Z" fill="#205C32"/>
<path d="M203.255 273.327C207.463 268.154 211.767 263.064 215.903 257.826C219.215 253.637 223.815 249.13 223.815 243.456C223.815 240.669 219.499 240.666 219.499 243.456C219.524 244.271 219.427 245.085 219.212 245.871C219.384 245.312 219.05 246.163 218.942 246.358C218.454 247.207 217.922 248.03 217.349 248.824C215.666 251.221 213.85 253.51 212.026 255.814C208.15 260.677 204.136 265.432 200.213 270.259C198.472 272.401 201.507 275.479 203.262 273.32L203.255 273.327Z" fill="#205C32"/>
<path d="M207.617 247.263L213.839 247.104C215.892 247.05 218.086 247.202 220.075 246.589C221.693 246.083 223.16 245.179 224.34 243.959C225.521 242.74 226.377 241.243 226.832 239.606C227.285 237.919 227.167 236.177 227.138 234.454L226.843 215.066L226.181 170.8C226.131 167.534 225.491 164.441 222.97 162.09C219.287 158.658 214.26 159.422 209.664 159.494C208.783 159.494 207.758 160.151 207.585 161.081C206.74 165.601 203.097 169.105 198.382 169.123C193.776 169.142 190.111 165.843 189.14 161.43C189.011 160.975 188.738 160.574 188.363 160.288C187.988 160.001 187.53 159.844 187.058 159.84C183.677 159.891 179.592 159.372 176.377 160.601C172.155 162.213 169.861 166.229 169.904 170.634C169.968 176.817 170.094 182.999 170.188 189.178C170.377 201.765 170.569 214.348 170.763 226.927C170.821 230.791 170.562 234.807 171.001 238.654C171.194 240.355 171.817 241.979 172.811 243.372C173.804 244.764 175.136 245.88 176.679 246.614C178.527 247.476 180.398 247.58 182.408 247.548L189.881 247.432C192.654 247.393 192.661 243.063 189.881 243.106L183.767 243.204C182.124 243.229 180.347 243.478 178.783 242.843C177.748 242.404 176.862 241.672 176.234 240.738C175.606 239.804 175.262 238.706 175.244 237.58C175.104 234.335 175.143 231.047 175.093 227.785L174.92 216.36L174.255 172.739C174.219 170.266 173.978 167.797 175.963 165.89C177.614 164.304 179.606 164.3 181.717 164.267L187.054 164.188L184.972 162.602C186.346 168.857 191.945 173.496 198.379 173.471C201.555 173.425 204.618 172.281 207.05 170.233C209.482 168.184 211.133 165.356 211.724 162.227L209.639 163.82C212.595 163.774 216.878 162.937 219.435 164.765C221.456 166.207 221.812 168.37 221.848 170.63L222.092 186.658L222.779 231.664C222.804 233.329 222.851 234.998 222.855 236.668C222.855 238.697 222.067 240.539 220.359 241.715C218.651 242.89 216.529 242.713 214.526 242.764L207.614 242.94C204.841 243.009 204.83 247.339 207.614 247.266L207.617 247.263Z" fill="#205C32"/>
<path d="M221.282 261.865C222.282 260.561 222.04 258.692 220.739 257.689C219.439 256.686 217.574 256.929 216.574 258.233L210.665 265.929C209.665 267.233 209.907 269.102 211.208 270.105C212.508 271.108 214.373 270.865 215.373 269.562L221.282 261.865Z" fill="#E8F3EB"/>
<path d="M213.235 251.34C213.232 251.993 213.014 252.626 212.616 253.143L206.711 260.839C206.306 261.365 205.738 261.74 205.097 261.906C204.455 262.072 203.777 262.019 203.169 261.755L205.381 252.807L206.607 251.207L207.912 249.509C208.29 249.018 208.812 248.657 209.404 248.478C209.996 248.298 210.629 248.308 211.215 248.507C211.801 248.705 212.311 249.082 212.673 249.585C213.035 250.088 213.231 250.691 213.235 251.311V251.34Z" fill="#E8F3EB"/>
<path d="M217.701 254.156C218.701 254.174 219.676 254.466 220.52 255.002C221.365 255.538 222.046 256.297 222.49 257.195C222.933 258.093 223.122 259.095 223.036 260.094C222.949 261.092 222.59 262.047 221.999 262.855C221.01 264.297 219.863 265.645 218.802 267.033L213.497 273.962C212.839 274.683 212.457 275.614 212.418 276.59C212.191 279.106 211.584 281.574 210.62 283.908C208.583 288.648 205.089 292.611 200.648 295.221C199.742 295.758 199.519 296.692 199.659 297.661C200.311 302.16 200.964 306.657 201.619 311.151L203.701 308.415H201.457L203.525 311.151C203.805 309.349 203.208 307.817 202.673 306.155C202.04 304.194 201.159 302.247 199.691 300.747C196.39 297.416 191.7 297.827 187.396 297.679L189.478 299.266L188.946 297.899L187.957 300.344C192.82 298.196 196.94 294.653 199.8 290.163C202.659 285.672 204.129 280.434 204.025 275.108C203.982 273.77 203.848 272.437 203.626 271.117C203.626 271.092 203.367 269.549 203.32 269.553C203.586 269.524 203.061 270.858 203.32 270.014C203.795 268.551 204.068 266.99 204.438 265.494L206.035 259.041L209.843 243.622C210.484 241.033 211.566 238.131 211.304 235.435C210.771 229.995 205.751 225.86 200.288 227.19C197.16 227.951 194.944 230.146 193.855 233.095C192.63 236.406 191.21 239.642 189.604 242.785C186.295 249.313 182.232 255.428 177.499 261.005C175.701 263.111 178.743 266.182 180.548 264.062C184.268 259.723 187.606 255.068 190.524 250.15C193.581 244.974 195.825 239.555 198.131 234.025C198.983 231.981 201.551 230.817 203.68 231.458C205.809 232.1 207.118 234.342 207.06 236.505C207.002 238.668 206.093 240.943 205.582 242.994C204.467 247.515 203.35 252.035 202.23 256.553C201.751 258.5 201.271 260.448 200.792 262.397L199.637 267.065C199.36 268.176 198.968 269.261 199.094 270.407C199.414 273.342 199.943 275.981 199.529 278.976C199.074 282.175 197.934 285.237 196.189 287.953C193.651 291.81 190.033 294.829 185.788 296.63C184.993 296.991 184.483 298.267 184.796 299.071L185.328 300.437C185.467 300.886 185.741 301.28 186.114 301.565C186.486 301.85 186.938 302.011 187.407 302.027C190.212 302.121 193.88 301.569 196.235 303.444C197.282 304.273 197.893 305.535 198.339 306.76C198.602 307.481 198.745 308.242 198.994 308.963C199.073 309.183 199.414 309.735 199.375 310.005C199.163 311.368 199.925 312.745 201.453 312.745H203.698C205.237 312.745 205.978 311.368 205.776 310.005C205.124 305.511 204.471 301.014 203.816 296.515L202.806 298.956C207.254 296.346 210.913 292.574 213.389 288.043C214.867 285.33 215.884 282.389 216.399 279.341C216.515 278.645 216.612 277.938 216.684 277.239C216.684 277.138 216.759 276.384 216.759 276.384C216.637 276.384 216.608 277.105 216.511 277.077C216.773 276.785 217.014 276.474 217.23 276.146L223.067 268.518C224.829 266.218 226.807 264.073 227.289 261.095C228.263 255.093 223.628 249.999 217.708 249.83C214.932 249.75 214.932 254.076 217.708 254.156H217.701Z" fill="#205C32"/>
<path d="M172.158 190.303L180.289 190.162C182.598 190.123 182.605 186.518 180.289 186.557L172.158 186.698C169.85 186.738 169.842 190.343 172.158 190.303Z" fill="#205C32"/>
<path d="M186.828 190.051L194.959 189.91C197.267 189.871 197.275 186.265 194.959 186.305L186.828 186.446C184.515 186.485 184.508 190.09 186.828 190.051Z" fill="#205C32"/>
<path d="M201.497 189.798L209.624 189.658C211.936 189.618 211.944 186.013 209.624 186.053L201.497 186.193C199.184 186.233 199.177 189.838 201.497 189.798Z" fill="#205C32"/>
<path d="M216.166 189.546L224.293 189.405C226.606 189.366 226.613 185.761 224.293 185.8L216.166 185.941C213.853 185.981 213.846 189.586 216.166 189.546Z" fill="#205C32"/>
</g>
<defs>
<filter id="filter0_i_1521_21997" x="-25" y="17" width="425" height="425" filterUnits="userSpaceOnUse" color-interpolation-filters="sRGB">
<feFlood flood-opacity="0" result="BackgroundImageFix"/>
<feBlend mode="normal" in="SourceGraphic" in2="BackgroundImageFix" result="shape"/>
<feColorMatrix in="SourceAlpha" type="matrix" values="0 0 0 0 0 0 0 0 0 0 0 0 0 0 0 0 0 0 127 0" result="hardAlpha"/>
<feMorphology radius="4" operator="erode" in="SourceAlpha" result="effect1_innerShadow_1521_21997"/>
<feOffset/>
<feGaussianBlur stdDeviation="4.3"/>
<feComposite in2="hardAlpha" operator="arithmetic" k2="-1" k3="1"/>
<feColorMatrix type="matrix" values="0 0 0 0 0 0 0 0 0 0 0 0 0 0 0 0 0 0 0.08 0"/>
<feBlend mode="normal" in2="shape" result="effect1_innerShadow_1521_21997"/>
</filter>
<filter id="filter1_i_1521_21997" x="11" y="53" width="353" height="353" filterUnits="userSpaceOnUse" color-interpolation-filters="sRGB">
<feFlood flood-opacity="0" result="BackgroundImageFix"/>
<feBlend mode="normal" in="SourceGraphic" in2="BackgroundImageFix" result="shape"/>
<feColorMatrix in="SourceAlpha" type="matrix" values="0 0 0 0 0 0 0 0 0 0 0 0 0 0 0 0 0 0 127 0" result="hardAlpha"/>
<feMorphology radius="4" operator="erode" in="SourceAlpha" result="effect1_innerShadow_1521_21997"/>
<feOffset/>
<feGaussianBlur stdDeviation="4.3"/>
<feComposite in2="hardAlpha" operator="arithmetic" k2="-1" k3="1"/>
<feColorMatrix type="matrix" values="0 0 0 0 0 0 0 0 0 0 0 0 0 0 0 0 0 0 0.08 0"/>
<feBlend mode="normal" in2="shape" result="effect1_innerShadow_1521_21997"/>
</filter>
<clipPath id="clip0_1521_21997">
<rect width="265" height="329" fill="white" transform="translate(55)"/>
</clipPath>
</defs>
</svg>
