<svg width="19" height="20" viewBox="0 0 19 20" fill="none" xmlns="http://www.w3.org/2000/svg">
<path fill-rule="evenodd" clip-rule="evenodd" d="M5.58372 5.013V4C5.58372 3.00544 5.97881 2.05161 6.68207 1.34835C7.38533 0.645088 8.33916 0.25 9.33372 0.25C10.3283 0.25 11.2821 0.645088 11.9854 1.34835C12.6886 2.05161 13.0837 3.00544 13.0837 4V5.013C14.3807 5.05 15.1707 5.183 15.7757 5.68C16.6057 6.36 16.8357 7.514 17.2987 9.823L17.8987 12.823C18.5627 16.143 18.8947 17.803 17.9947 18.902C17.0937 20 15.4007 20 12.0137 20H6.65372C3.26772 20 1.57372 20 0.67372 18.902C-0.22628 17.804 0.10572 16.144 0.76972 12.823L1.36972 9.823C1.83172 7.514 2.06272 6.36 2.89172 5.68C3.49772 5.184 4.28772 5.05 5.58472 5.013M7.08372 4C7.08372 3.40326 7.32077 2.83097 7.74273 2.40901C8.16469 1.98705 8.73698 1.75 9.33372 1.75C9.93046 1.75 10.5028 1.98705 10.9247 2.40901C11.3467 2.83097 11.5837 3.40326 11.5837 4V5H7.08372V4ZM12.3337 9C12.5989 9 12.8533 8.89464 13.0408 8.70711C13.2284 8.51957 13.3337 8.26522 13.3337 8C13.3337 7.73478 13.2284 7.48043 13.0408 7.29289C12.8533 7.10536 12.5989 7 12.3337 7C12.0685 7 11.8141 7.10536 11.6266 7.29289C11.4391 7.48043 11.3337 7.73478 11.3337 8C11.3337 8.26522 11.4391 8.51957 11.6266 8.70711C11.8141 8.89464 12.0685 9 12.3337 9ZM7.33372 8C7.33372 8.26522 7.22836 8.51957 7.04083 8.70711C6.85329 8.89464 6.59894 9 6.33372 9C6.0685 9 5.81415 8.89464 5.62661 8.70711C5.43908 8.51957 5.33372 8.26522 5.33372 8C5.33372 7.73478 5.43908 7.48043 5.62661 7.29289C5.81415 7.10536 6.0685 7 6.33372 7C6.59894 7 6.85329 7.10536 7.04083 7.29289C7.22836 7.48043 7.33372 7.73478 7.33372 8Z" fill="#B3B3B3"/>
</svg>
