<svg width="32" height="32" viewBox="0 0 32 32" fill="none" xmlns="http://www.w3.org/2000/svg">
<path fill-rule="evenodd" clip-rule="evenodd" d="M12.8161 8.112C12.2134 8.948 12.0001 9.992 12.0001 10.6667V12H20.0001V10.6667C20.0001 9.99067 19.7867 8.948 19.1854 8.112C18.6321 7.344 17.6987 6.66667 16.0001 6.66667C14.3014 6.66667 13.3681 7.344 12.8161 8.112ZM22.6667 12V10.6667C22.6667 9.564 22.3467 7.94133 21.3494 6.55467C20.3014 5.1 18.5681 4 16.0001 4C13.4321 4 11.6987 5.1 10.6507 6.55467C9.65341 7.94133 9.33342 9.564 9.33342 10.6667V12H4.00008C3.64646 12 3.30732 12.1405 3.05727 12.3905C2.80722 12.6406 2.66675 12.9797 2.66675 13.3333C2.66675 13.687 2.80722 14.0261 3.05727 14.2761C3.30732 14.5262 3.64646 14.6667 4.00008 14.6667H4.12675L5.34008 26.8C5.37314 27.1289 5.52717 27.4338 5.77231 27.6555C6.01745 27.8772 6.33621 28 6.66675 28H25.3334C25.664 28 25.9827 27.8772 26.2279 27.6555C26.473 27.4338 26.627 27.1289 26.6601 26.8L27.8734 14.6667H28.0001C28.3537 14.6667 28.6928 14.5262 28.9429 14.2761C29.1929 14.0261 29.3334 13.687 29.3334 13.3333C29.3334 12.9797 29.1929 12.6406 28.9429 12.3905C28.6928 12.1405 28.3537 12 28.0001 12H22.6667ZM12.0001 18.6667C12.0001 18.313 11.8596 17.9739 11.6096 17.7239C11.3595 17.4738 11.0204 17.3333 10.6667 17.3333C10.3131 17.3333 9.97399 17.4738 9.72394 17.7239C9.47389 17.9739 9.33342 18.313 9.33342 18.6667V21.3333C9.33342 21.687 9.47389 22.0261 9.72394 22.2761C9.97399 22.5262 10.3131 22.6667 10.6667 22.6667C11.0204 22.6667 11.3595 22.5262 11.6096 22.2761C11.8596 22.0261 12.0001 21.687 12.0001 21.3333V18.6667ZM17.3334 18.6667C17.3334 18.313 17.1929 17.9739 16.9429 17.7239C16.6928 17.4738 16.3537 17.3333 16.0001 17.3333C15.6465 17.3333 15.3073 17.4738 15.0573 17.7239C14.8072 17.9739 14.6667 18.313 14.6667 18.6667V21.3333C14.6667 21.687 14.8072 22.0261 15.0573 22.2761C15.3073 22.5262 15.6465 22.6667 16.0001 22.6667C16.3537 22.6667 16.6928 22.5262 16.9429 22.2761C17.1929 22.0261 17.3334 21.687 17.3334 21.3333V18.6667ZM22.6667 18.6667C22.6667 18.313 22.5263 17.9739 22.2762 17.7239C22.0262 17.4738 21.687 17.3333 21.3334 17.3333C20.9798 17.3333 20.6407 17.4738 20.3906 17.7239C20.1406 17.9739 20.0001 18.313 20.0001 18.6667V21.3333C20.0001 21.687 20.1406 22.0261 20.3906 22.2761C20.6407 22.5262 20.9798 22.6667 21.3334 22.6667C21.687 22.6667 22.0262 22.5262 22.2762 22.2761C22.5263 22.0261 22.6667 21.687 22.6667 21.3333V18.6667Z" fill="#1A1A1A"/>
</svg>
