<svg width="32" height="32" viewBox="0 0 32 32" fill="none" xmlns="http://www.w3.org/2000/svg">
<path d="M11 28C12.1046 28 13 27.1046 13 26C13 24.8954 12.1046 24 11 24C9.89543 24 9 24.8954 9 26C9 27.1046 9.89543 28 11 28Z" fill="#205C32"/>
<path d="M25 28C26.1046 28 27 27.1046 27 26C27 24.8954 26.1046 24 25 24C23.8954 24 23 24.8954 23 26C23 27.1046 23.8954 28 25 28Z" fill="#205C32"/>
<path d="M28.55 7.54875C28.4095 7.37691 28.2325 7.2385 28.0319 7.14358C27.8312 7.04867 27.612 6.99962 27.39 7H8.36812L7.985 4.82625C7.94415 4.59471 7.82301 4.38496 7.64288 4.23385C7.46274 4.08275 7.23512 3.99995 7 4H3C2.73478 4 2.48043 4.10536 2.29289 4.29289C2.10536 4.48043 2 4.73478 2 5C2 5.26522 2.10536 5.51957 2.29289 5.70711C2.48043 5.89464 2.73478 6 3 6H6.16125L9.015 22.1737C9.05585 22.4053 9.17699 22.615 9.35712 22.7661C9.53726 22.9172 9.76488 23 10 23H26C26.2652 23 26.5196 22.8946 26.7071 22.7071C26.8946 22.5196 27 22.2652 27 22C27 21.7348 26.8946 21.4804 26.7071 21.2929C26.5196 21.1054 26.2652 21 26 21H10.8387L10.4862 19H25.59C25.9368 18.9996 26.2728 18.8793 26.5411 18.6596C26.8094 18.4399 26.9936 18.1343 27.0625 17.7944L28.8625 8.79438C28.9059 8.57656 28.9003 8.35184 28.8463 8.13643C28.7923 7.92102 28.6911 7.72029 28.55 7.54875Z" fill="#205C32"/>
</svg>
