<svg width="107" height="107" viewBox="0 0 107 107" fill="none" xmlns="http://www.w3.org/2000/svg">
<path d="M50.389 0.12764C47.7348 0.093275 45.0168 2.06108 43.7911 5.16743C42.2826 8.99028 43.6002 13.0916 46.7321 14.327C49.8638 15.5628 53.6254 13.4685 55.1339 9.64546C56.6423 5.82261 55.3248 1.72124 52.1928 0.485892C51.6186 0.257182 51.0073 0.135755 50.3892 0.12764H50.389ZM67.1785 3.70746C64.7146 3.70881 62.0702 5.06051 60.2651 7.49752C57.5136 11.2112 57.7494 16.0462 60.7911 18.2999C63.8332 20.5538 68.5266 19.3677 71.2776 15.654C74.0291 11.9403 73.7933 7.10536 70.7512 4.85163C69.7058 4.07672 68.4691 3.70679 67.1788 3.70769L67.1785 3.70746ZM82.2835 12.1371C79.9619 12.1085 77.445 13.0946 75.4397 15.0361C71.8751 18.4879 71.2788 23.6485 74.1064 26.5684C76.9335 29.4884 82.116 29.0585 85.6805 25.6071C89.245 22.1549 89.8416 16.9945 87.0142 14.0745C85.7771 12.7965 84.0889 12.1593 82.2833 12.1371H82.2835ZM47.1461 19.3387C42.0901 19.2758 37.1784 20.8869 32.8834 24.7293C19.1739 36.9946 5.81907 54.6262 1.34665 82.9175C-3.87709 115.964 36.8298 109.995 32.7994 92.3435C27.6509 69.7956 40.4653 60.6489 57.0572 64.4569C64.4329 66.1505 72.0027 63.3563 76.3736 55.3746C81.6299 45.7764 74.7052 31.3825 62.2513 24.0135C57.3975 21.1407 52.2023 19.4014 47.1463 19.3385L47.1461 19.3387ZM95.9427 26.0981C93.5798 26.103 91.079 26.7315 88.7343 28.0354C82.4818 31.5123 79.7162 38.4819 82.5643 43.6037C85.4128 48.7253 92.793 50.0567 99.0452 46.5798C105.297 43.1028 108.056 36.1332 105.208 31.0114C103.428 27.8103 99.881 26.0902 95.9429 26.0981H95.9427Z" fill="#205C32"/>
</svg>
