<svg width="26" height="22" viewBox="0 0 26 22" fill="none" xmlns="http://www.w3.org/2000/svg">
<path d="M24 6.10352e-05H2C1.46957 6.10352e-05 0.960859 0.210775 0.585786 0.585847C0.210714 0.96092 0 1.46963 0 2.00006V20.0001C0 20.5305 0.210714 21.0392 0.585786 21.4143C0.960859 21.7893 1.46957 22.0001 2 22.0001H24C24.5304 22.0001 25.0391 21.7893 25.4142 21.4143C25.7893 21.0392 26 20.5305 26 20.0001V2.00006C26 1.46963 25.7893 0.96092 25.4142 0.585847C25.0391 0.210775 24.5304 6.10352e-05 24 6.10352e-05ZM24 2.00006V14.8438L20.7412 11.5863C20.5555 11.4005 20.335 11.2532 20.0923 11.1526C19.8497 11.0521 19.5896 11.0004 19.3269 11.0004C19.0642 11.0004 18.8041 11.0521 18.5614 11.1526C18.3187 11.2532 18.0982 11.4005 17.9125 11.5863L15.4125 14.0863L9.9125 8.58631C9.53747 8.21152 9.02896 8.00099 8.49875 8.00099C7.96854 8.00099 7.46003 8.21152 7.085 8.58631L2 13.6713V2.00006H24ZM2 16.5001L8.5 10.0001L18.5 20.0001H2V16.5001ZM24 20.0001H21.3288L16.8288 15.5001L19.3288 13.0001L24 17.6726V20.0001ZM15 7.50006C15 7.20339 15.088 6.91338 15.2528 6.66671C15.4176 6.42003 15.6519 6.22777 15.926 6.11424C16.2001 6.00071 16.5017 5.971 16.7926 6.02888C17.0836 6.08676 17.3509 6.22962 17.5607 6.4394C17.7704 6.64918 17.9133 6.91645 17.9712 7.20743C18.0291 7.4984 17.9993 7.8 17.8858 8.07409C17.7723 8.34818 17.58 8.58244 17.3334 8.74727C17.0867 8.91209 16.7967 9.00006 16.5 9.00006C16.1022 9.00006 15.7206 8.84203 15.4393 8.56072C15.158 8.27942 15 7.89789 15 7.50006Z" fill="#8C8C8C"/>
</svg>
