<svg width="18" height="18" viewBox="0 0 18 18" fill="none" xmlns="http://www.w3.org/2000/svg">
<path d="M8.16226 2.9V6.13333C8.16227 6.40106 8.1094 6.66615 8.00669 6.91339C7.90399 7.16063 7.75347 7.38515 7.56377 7.57407C7.37407 7.76299 7.14894 7.91259 6.90128 8.01429C6.65362 8.11598 6.38832 8.16776 6.1206 8.16667H2.90393C2.63693 8.16829 2.37235 8.11598 2.12606 8.01288C1.87976 7.90978 1.65682 7.75801 1.4706 7.56667C1.2819 7.37889 1.13242 7.15547 1.03085 6.90941C0.929275 6.66334 0.877635 6.39954 0.87893 6.13333V2.90833C0.878926 2.3705 1.09201 1.85457 1.47153 1.47349C1.85105 1.0924 2.3661 0.877204 2.90393 0.875H6.12893C6.39565 0.875256 6.65967 0.928419 6.9057 1.03141C7.15174 1.1344 7.3749 1.28517 7.56226 1.475C7.75221 1.66054 7.90315 1.88218 8.00619 2.1269C8.10923 2.37162 8.16229 2.63447 8.16226 2.9ZM17.1206 2.90833V6.13333C17.1163 6.66983 16.9018 7.18326 16.5232 7.56341C16.1446 7.94356 15.6321 8.16014 15.0956 8.16667H11.8623C11.3233 8.16337 10.8065 7.95129 10.4206 7.575C10.232 7.38541 10.0827 7.16048 9.98117 6.9131C9.87964 6.66572 9.82791 6.40074 9.82893 6.13333V2.90833C9.82779 2.6414 9.88031 2.37697 9.98338 2.13074C10.0865 1.88451 10.238 1.66151 10.4289 1.475C10.6163 1.28517 10.8395 1.1344 11.0855 1.03141C11.3315 0.928419 11.5955 0.875256 11.8623 0.875H15.0873C15.6252 0.879356 16.1398 1.09498 16.5202 1.47536C16.9006 1.85575 17.1162 2.37041 17.1206 2.90833ZM17.1206 11.8667V15.0917C17.1163 15.6282 16.9018 16.1416 16.5232 16.5217C16.1446 16.9019 15.6321 17.1185 15.0956 17.125H11.8623C11.3198 17.1305 10.7966 16.9242 10.4039 16.55C10.2146 16.361 10.0648 16.1361 9.96322 15.8886C9.86164 15.6411 9.81032 15.3759 9.81226 15.1083V11.8833C9.81117 11.6164 9.86371 11.352 9.96678 11.1058C10.0699 10.8595 10.2213 10.6365 10.4123 10.45C10.5997 10.2602 10.8228 10.1095 11.0688 10.0065C11.3149 9.90349 11.5789 9.8503 11.8456 9.85H15.0706C15.6085 9.85436 16.1232 10.07 16.5036 10.4504C16.8839 10.8307 17.0996 11.3454 17.1039 11.8833L17.1206 11.8667ZM8.16226 11.875V15.1C8.15571 15.6379 7.93797 16.1517 7.55603 16.5305C7.17409 16.9093 6.65854 17.1229 6.1206 17.125H2.90393C2.63769 17.1261 2.37388 17.0745 2.12769 16.9731C1.88151 16.8717 1.65784 16.7226 1.46958 16.5344C1.28132 16.3461 1.1322 16.1224 1.03083 15.8762C0.929453 15.6301 0.877828 15.3662 0.87893 15.1V11.875C0.881077 11.3371 1.09459 10.8215 1.47342 10.4396C1.85224 10.0576 2.36602 9.83989 2.90393 9.83333H6.12893C6.66928 9.83799 7.1865 10.0532 7.5706 10.4333C7.95067 10.8168 8.16341 11.3351 8.16226 11.875Z" fill="#1A1A1A"/>
</svg>
