<svg width="24" height="24" viewBox="0 0 24 24" fill="none" xmlns="http://www.w3.org/2000/svg">
<path d="M12 11.6378C17.5234 11.6378 22 9.70302 22 7.31892C22 4.93481 17.5234 3 12 3C6.47656 3 2 4.93481 2 7.31892C2 9.70302 6.47656 11.6378 12 11.6378ZM12 18.5432C8.18359 18.5432 4.80859 17.592 2.67969 16.1227C2.24609 16.6084 2 17.1306 2 17.6811C2 20.0652 6.47656 22 12 22C17.5234 22 22 20.0652 22 17.6811C22 17.1306 21.7539 16.6084 21.3203 16.1268C19.1914 17.592 15.8164 18.5432 12 18.5432ZM12 13.3622C8.18359 13.3622 4.80859 12.4109 2.67969 10.9416C2.24609 11.4274 2 11.9495 2 12.5C2 14.8841 6.47656 16.8189 12 16.8189C17.5234 16.8189 22 14.8841 22 12.5C22 11.9495 21.7539 11.4274 21.3203 10.9457C19.1914 12.4109 15.8164 13.3622 12 13.3622Z" fill="white"/>
</svg>
