<svg width="25" height="24" viewBox="0 0 25 24" fill="none" xmlns="http://www.w3.org/2000/svg">
<path d="M10.0415 20.4C10.0734 20.4284 10.1137 20.4456 10.1562 20.449C10.1988 20.4524 10.2413 20.4418 10.2773 20.4188C10.3133 20.3959 10.3408 20.3618 10.3556 20.3217C10.3705 20.2817 10.3718 20.2379 10.3595 20.197L7.83948 11.559C7.81663 11.4804 7.77027 11.4107 7.70663 11.3592C7.64299 11.3077 7.56512 11.2769 7.48348 11.271C7.07548 11.241 6.66848 11.208 6.26148 11.171L2.89148 10.864C2.85585 10.8605 2.81995 10.8668 2.7876 10.8821C2.75524 10.8974 2.72765 10.9212 2.70775 10.951C2.68784 10.9807 2.67638 11.0153 2.67457 11.0511C2.67276 11.0868 2.68068 11.1224 2.69748 11.154C4.52048 14.564 7.14548 17.814 10.0415 20.4ZM12.5135 22.226C12.5335 22.296 12.5935 22.348 12.6665 22.348C12.7018 22.347 12.7357 22.3345 12.7633 22.3125C12.7909 22.2905 12.8106 22.2602 12.8195 22.226L15.9035 11.653C15.9127 11.6223 15.9143 11.5898 15.9083 11.5584C15.9024 11.5269 15.8889 11.4973 15.8691 11.4721C15.8493 11.4469 15.8237 11.4269 15.7946 11.4136C15.7654 11.4004 15.7335 11.3943 15.7015 11.396C13.6791 11.4828 11.6539 11.4828 9.63148 11.396C9.5996 11.3944 9.56779 11.4004 9.53872 11.4136C9.50966 11.4268 9.48417 11.4468 9.4644 11.4719C9.44462 11.4969 9.43113 11.5263 9.42506 11.5577C9.41898 11.589 9.4205 11.6214 9.42948 11.652L12.5135 22.226ZM14.9735 20.197C14.9175 20.387 15.1435 20.532 15.2915 20.4C18.1875 17.813 20.8125 14.564 22.6355 11.154C22.6522 11.1225 22.6601 11.087 22.6583 11.0513C22.6566 11.0157 22.6452 10.9812 22.6254 10.9515C22.6056 10.9218 22.5782 10.8979 22.546 10.8825C22.5138 10.8671 22.478 10.8607 22.4425 10.864L19.0725 11.171C18.6645 11.208 18.2575 11.241 17.8495 11.271C17.7678 11.2769 17.69 11.3077 17.6263 11.3592C17.5627 11.4107 17.5163 11.4804 17.4935 11.559L14.9735 20.197ZM22.4675 9.356C22.5023 9.35294 22.5358 9.34078 22.5645 9.32073C22.5932 9.30069 22.6161 9.27347 22.631 9.24178C22.6459 9.2101 22.6522 9.17507 22.6493 9.14018C22.6464 9.1053 22.6344 9.07179 22.6145 9.043L19.3765 4.348C19.2385 4.14805 19.054 3.98461 18.8389 3.87174C18.6237 3.75886 18.3844 3.69992 18.1415 3.7H15.6515C15.6186 3.7 15.5863 3.70808 15.5573 3.72354C15.5284 3.739 15.5036 3.76136 15.4853 3.78864C15.4671 3.81592 15.4558 3.84728 15.4525 3.87996C15.4492 3.91264 15.454 3.94562 15.4665 3.976L17.7235 9.499C17.7555 9.57712 17.8115 9.64309 17.8834 9.68746C17.9552 9.73183 18.0393 9.75232 18.1235 9.746C18.3935 9.725 18.6655 9.702 18.9365 9.676L22.4675 9.356ZM13.8315 3.946C13.801 3.87301 13.7496 3.81069 13.6838 3.7669C13.6179 3.72311 13.5406 3.69983 13.4615 3.7H11.8715C11.7924 3.69983 11.715 3.72311 11.6492 3.7669C11.5833 3.81069 11.5319 3.87301 11.5015 3.946L9.14348 9.604C9.13127 9.63361 9.12635 9.66571 9.12913 9.69762C9.13191 9.72952 9.14232 9.76029 9.15947 9.78734C9.17662 9.81439 9.20001 9.83692 9.22768 9.85305C9.25535 9.86917 9.28649 9.87841 9.31848 9.88C11.5485 9.988 13.7845 9.988 16.0155 9.88C16.0474 9.87826 16.0784 9.86891 16.1059 9.85272C16.1335 9.83653 16.1568 9.81398 16.1738 9.78695C16.1908 9.75993 16.2011 9.72921 16.2039 9.69738C16.2066 9.66555 16.2017 9.63353 16.1895 9.604L13.8315 3.946ZM9.86648 3.976C9.87896 3.94562 9.88377 3.91264 9.88048 3.87996C9.87719 3.84728 9.8659 3.81592 9.84761 3.78864C9.82933 3.76136 9.80461 3.739 9.77563 3.72354C9.74666 3.70808 9.71432 3.7 9.68148 3.7H7.19148C6.94854 3.69992 6.70921 3.75886 6.49409 3.87174C6.27896 3.98461 6.09447 4.14805 5.95648 4.348L2.71848 9.043C2.69857 9.07179 2.68656 9.1053 2.68366 9.14018C2.68076 9.17507 2.68706 9.2101 2.70194 9.24178C2.71682 9.27347 2.73976 9.30069 2.76845 9.32073C2.79715 9.34078 2.83061 9.35294 2.86548 9.356L6.39648 9.676C6.66748 9.702 6.93848 9.725 7.20948 9.746C7.29372 9.75248 7.37783 9.73205 7.44972 9.68766C7.5216 9.64327 7.57754 9.57721 7.60948 9.499L9.86648 3.976Z" fill="#B3B3B3"/>
</svg>
