<svg width="32" height="32" viewBox="0 0 32 32" fill="none" xmlns="http://www.w3.org/2000/svg">
<path d="M15.7324 14.5333C12.7058 13.7467 11.7324 12.9333 11.7324 11.6667C11.7324 10.2133 13.0791 9.2 15.3324 9.2C17.7058 9.2 18.5858 10.3333 18.6658 12H21.6124C21.5191 9.70667 20.1191 7.6 17.3324 6.92V4H13.3324V6.88C10.7458 7.44 8.66578 9.12 8.66578 11.6933C8.66578 14.7733 11.2124 16.3067 14.9324 17.2C18.2658 18 18.9324 19.1733 18.9324 20.4133C18.9324 21.3333 18.2791 22.8 15.3324 22.8C12.5858 22.8 11.5058 21.5733 11.3591 20H8.42578C8.58578 22.92 10.7724 24.56 13.3324 25.1067V28H17.3324V25.1333C19.9324 24.64 21.9991 23.1333 21.9991 20.4C21.9991 16.6133 18.7591 15.32 15.7324 14.5333Z" fill="white"/>
</svg>
