<svg width="25" height="25" viewBox="0 0 25 25" fill="none" xmlns="http://www.w3.org/2000/svg">
<g clip-path="url(#clip0_4700_13154)">
<path d="M1.5 8.825V9.23368L1.9005 9.315C2.63519 9.46418 3.29571 9.86277 3.77015 10.4432C4.24458 11.0237 4.50376 11.7503 4.50376 12.5C4.50376 13.2497 4.24458 13.9763 3.77015 14.5568C3.29571 15.1372 2.63519 15.5358 1.9005 15.685L1.5 15.7663V16.175V17.75C1.5 18.0815 1.6317 18.3995 1.86612 18.6339C2.10054 18.8683 2.41848 19 2.75 19H22.25C22.5815 19 22.8995 18.8683 23.1339 18.6339C23.3683 18.3995 23.5 18.0815 23.5 17.75V16.175V15.7663L23.0995 15.685C22.3648 15.5358 21.7043 15.1372 21.2299 14.5568C20.7554 13.9763 20.4962 13.2497 20.4962 12.5C20.4962 11.7503 20.7554 11.0237 21.2299 10.4432C21.7043 9.86277 22.3648 9.46418 23.0995 9.315L23.5 9.23368V8.825V7.25C23.5 6.91848 23.3683 6.60054 23.1339 6.36612C22.8995 6.1317 22.5815 6 22.25 6H2.75C2.41848 6 2.10054 6.1317 1.86612 6.36612C1.6317 6.60054 1.5 6.91848 1.5 7.25V8.825ZM1 7.25C1 6.78587 1.18437 6.34075 1.51256 6.01256C1.84075 5.68437 2.28587 5.5 2.75 5.5H22.25C22.7141 5.5 23.1592 5.68437 23.4874 6.01256C23.8156 6.34075 24 6.78587 24 7.25V9.5C24 9.5663 23.9737 9.62989 23.9268 9.67678C23.8799 9.72366 23.8163 9.75 23.75 9.75C23.0207 9.75 22.3212 10.0397 21.8055 10.5555C21.2897 11.0712 21 11.7707 21 12.5C21 13.2293 21.2897 13.9288 21.8055 14.4445C22.3212 14.9603 23.0207 15.25 23.75 15.25C23.8163 15.25 23.8799 15.2763 23.9268 15.3232C23.9737 15.3701 24 15.4337 24 15.5V17.75C24 18.2141 23.8156 18.6592 23.4874 18.9874C23.1592 19.3156 22.7141 19.5 22.25 19.5H2.75C2.28587 19.5 1.84075 19.3156 1.51256 18.9874C1.18437 18.6592 1 18.2141 1 17.75V15.5C1 15.4337 1.02634 15.3701 1.07322 15.3232C1.12011 15.2763 1.18369 15.25 1.25 15.25C1.97935 15.25 2.67882 14.9603 3.19454 14.4445C3.71027 13.9288 4 13.2293 4 12.5C4 11.7707 3.71027 11.0712 3.19454 10.5555C2.67882 10.0397 1.97935 9.75 1.25 9.75C1.1837 9.75 1.12011 9.72366 1.07322 9.67678C1.02634 9.62989 1 9.5663 1 9.5V7.25Z" fill="#B3B3B3" stroke="#B3B3B3"/>
</g>
<defs>
<clipPath id="clip0_4700_13154">
<rect width="24" height="24" fill="white" transform="translate(0.5 0.5)"/>
</clipPath>
</defs>
</svg>
