<svg width="25" height="25" viewBox="0 0 25 25" fill="none" xmlns="http://www.w3.org/2000/svg">
<g clip-path="url(#clip0_5314_1418)">
<path d="M1.51256 6.01256C1.84075 5.68437 2.28587 5.5 2.75 5.5H22.25C22.7141 5.5 23.1592 5.68437 23.4874 6.01256C23.8156 6.34075 24 6.78587 24 7.25V9.5C24 9.5663 23.9737 9.62989 23.9268 9.67678C23.8799 9.72366 23.8163 9.75 23.75 9.75C23.0207 9.75 22.3212 10.0397 21.8055 10.5555C21.2897 11.0712 21 11.7707 21 12.5C21 13.2293 21.2897 13.9288 21.8055 14.4445C22.3212 14.9603 23.0207 15.25 23.75 15.25C23.8163 15.25 23.8799 15.2763 23.9268 15.3232C23.9737 15.3701 24 15.4337 24 15.5V17.75C24 18.2141 23.8156 18.6592 23.4874 18.9874C23.1592 19.3156 22.7141 19.5 22.25 19.5H2.75C2.28587 19.5 1.84075 19.3156 1.51256 18.9874C1.18437 18.6592 1 18.2141 1 17.75V15.5C1 15.4337 1.02634 15.3701 1.07322 15.3232C1.12011 15.2763 1.18369 15.25 1.25 15.25C1.97935 15.25 2.67882 14.9603 3.19454 14.4445C3.71027 13.9288 4 13.2293 4 12.5C4 11.7707 3.71027 11.0712 3.19454 10.5555C2.67882 10.0397 1.97935 9.75 1.25 9.75C1.1837 9.75 1.12011 9.72366 1.07322 9.67678C1.02634 9.62989 1 9.5663 1 9.5V7.25C1 6.78587 1.18437 6.34075 1.51256 6.01256Z" fill="#205C32" stroke="#205C32"/>
</g>
<defs>
<clipPath id="clip0_5314_1418">
<rect width="24" height="24" fill="white" transform="translate(0.5 0.5)"/>
</clipPath>
</defs>
</svg>
