<svg width="21" height="20" viewBox="0 0 21 20" fill="none" xmlns="http://www.w3.org/2000/svg">
<path d="M1.75 7.22461V14.3746C1.75 15.0377 2.01339 15.6735 2.48223 16.1424C2.95107 16.6112 3.58696 16.8746 4.25 16.8746H16.75C17.413 16.8746 18.0489 16.6112 18.5178 16.1424C18.9866 15.6735 19.25 15.0377 19.25 14.3746V7.22461L11.81 11.8021C11.416 12.0445 10.9626 12.1728 10.5 12.1728C10.0374 12.1728 9.58396 12.0445 9.19 11.8021L1.75 7.22461Z" fill="white"/>
<path d="M19.25 5.75667V5.625C19.25 4.96196 18.9866 4.32607 18.5178 3.85723C18.0489 3.38839 17.413 3.125 16.75 3.125H4.25C3.58696 3.125 2.95107 3.38839 2.48223 3.85723C2.01339 4.32607 1.75 4.96196 1.75 5.625V5.75667L9.845 10.7383C10.042 10.8595 10.2687 10.9237 10.5 10.9237C10.7313 10.9237 10.958 10.8595 11.155 10.7383L19.25 5.75667Z" fill="white"/>
</svg>
