<svg width="32" height="32" viewBox="0 0 32 32" fill="none" xmlns="http://www.w3.org/2000/svg">
<circle cx="16" cy="16.0005" r="16" fill="#1A1A1A"/>
<path d="M7.25 13.2251V20.3751C7.25 21.0381 7.51339 21.674 7.98223 22.1429C8.45107 22.6117 9.08696 22.8751 9.75 22.8751H22.25C22.913 22.8751 23.5489 22.6117 24.0178 22.1429C24.4866 21.674 24.75 21.0381 24.75 20.3751V13.2251L17.31 17.8026C16.916 18.045 16.4626 18.1733 16 18.1733C15.5374 18.1733 15.084 18.045 14.69 17.8026L7.25 13.2251Z" fill="white"/>
<path d="M24.75 11.7572V11.6255C24.75 10.9624 24.4866 10.3266 24.0178 9.85772C23.5489 9.38888 22.913 9.12549 22.25 9.12549H9.75C9.08696 9.12549 8.45107 9.38888 7.98223 9.85772C7.51339 10.3266 7.25 10.9624 7.25 11.6255V11.7572L15.345 16.7388C15.542 16.86 15.7687 16.9242 16 16.9242C16.2313 16.9242 16.458 16.86 16.655 16.7388L24.75 11.7572Z" fill="white"/>
</svg>
