<svg id="Layer_1" data-name="Layer 1" xmlns="http://www.w3.org/2000/svg" xmlns:xlink="http://www.w3.org/1999/xlink" viewBox="0 0 302.69 239.02"><defs><style>.cls-1,.cls-6{fill:none;}.cls-2{clip-path:url(#clip-path);}.cls-3{opacity:0.25;}.cls-4{fill:#67af79;}.cls-5{fill:#318349;}.cls-6{stroke:#205c32;stroke-linecap:round;stroke-linejoin:round;stroke-width:12.92px;}.cls-7{clip-path:url(#clip-path-2);}.cls-8{clip-path:url(#clip-path-3);}</style><clipPath id="clip-path" transform="translate(-8.9 -7.34)"><rect class="cls-1" x="-26.56" y="-47.98" width="335.81" height="326.93" transform="translate(-40.98 124.06) rotate(-41.95)"/></clipPath><clipPath id="clip-path-2" transform="translate(-8.9 -7.34)"><rect class="cls-1" x="272.06" y="124.65" width="39.55" height="29.06"/></clipPath><clipPath id="clip-path-3" transform="translate(-8.9 -7.34)"><rect class="cls-1" x="8.9" y="22.94" width="16.95" height="22.6"/></clipPath></defs><title>empty-basket</title><g class="cls-2"><g class="cls-3"><path class="cls-4" d="M278.2,160.73c-6.81,16.65-15.8,29.46-20.24,35.74-16.07,22.67-31.13,43.94-51.93,49-34,8.2-47-40.93-91.12-40.41-33.4.39-50.13,28.14-73.72,17.38-10.43-4.76-18.08-15.15-21-25.31-10.07-34.58,40.18-55.71,32.71-93.73-6-30.36-36.95-40.53-32-64.7,3.73-18.24,24.38-27.32,26-28C73-.36,96.14,18.52,130.06,30,207.87,56.3,247.75,11.71,276.78,40.81,304.66,68.74,290,131.91,278.2,160.73Z" transform="translate(-8.9 -7.34)"/></g></g><path class="cls-5" d="M142.76,63.61c-.53-.88-1.44-1.65-1.52-2.54-1.56-16.73-10.68-26.87-24.55-32.38a54.74,54.74,0,0,0-18.41-3.93c-5.94-.19-11,1-21.07,3.54-1.41.36-2,.53-2.51,1.17-4,5.47,10.78,33.65,32.53,40,12.72,3.73,26.45-.55,27.4-1,.57-.23,1.13-.49,1.68-.7a1.51,1.51,0,0,1,.52,0L139,88.12a28.59,28.59,0,0,0-6.5-5.45,28.13,28.13,0,0,0-6.47-2.83c-4.21-1.29-12.4-3.68-14.77-.38-2.77,3.88,3.36,14.6,9.53,20.42a21.73,21.73,0,0,0,6.74,4.51,20.67,20.67,0,0,0,13.22.28l1.7,15.53c-8.3,1.87-15.81,4.91-17.63,15.65a25.25,25.25,0,0,0-12-.7,26.11,26.11,0,0,0-11.14,5,28.41,28.41,0,0,0-7.56,8.27c-1.2,2.06-1.8,3.1-1.75,3.9.24,4.75,13.3,9,25.29,10.11,24.49,2.22,31.7-5.76,43.14-2,9.91,3.24,6.74-8.58,11-7.79,5.48-2.25,12.33-.23,13.28-.41,11.31-1.7,8,2.77,22.3-13.37,1.13-1.29,3.09-3.42,2.61-5.5-.86-3.89-9.48-4.65-11.8-4.89a30.73,30.73,0,0,0-11.82,1.15c-4.56-8.72-19.11-10.58-26.67-3.51a13,13,0,0,0-7.92-5.2,2,2,0,0,1-.77-.53,2.19,2.19,0,0,1-.46-.85C149,105.33,147.48,91.29,146,77.19c0-.06,0-.15.14-.43,2.38.2,4.83.54,7.28.59a28,28,0,0,0,12.83-2.61c1.27-.61,6.3-3,11.74-10.12,6.08-7.9,14.76-24.28,9.89-30.23-4.39-5.42-18.15,0-25.55,4.58C150.47,46.29,145,58,142.76,63.61Z" transform="translate(-8.9 -7.34)"/><path class="cls-6" d="M122.09,224.09a6.76,6.76,0,0,0,5.24-7.79,6.36,6.36,0,0,0-7.17-5.69,6.76,6.76,0,0,0-5.24,7.79A6.37,6.37,0,0,0,122.09,224.09Z" transform="translate(-8.9 -7.34)"/><path class="cls-6" d="M209,209.4a6.76,6.76,0,0,0,5.23-7.79,6.37,6.37,0,0,0-7.17-5.69,6.78,6.78,0,0,0-5.24,7.79A6.38,6.38,0,0,0,209,209.4Z" transform="translate(-8.9 -7.34)"/><path class="cls-6" d="M51.2,84.17,76,80l35,111.46,99.29-16.78" transform="translate(-8.9 -7.34)"/><path class="cls-6" d="M107.2,164.46,204,148.11A3.09,3.09,0,0,0,205.8,147a3.54,3.54,0,0,0,.8-2.13l2.48-62.56a3.71,3.71,0,0,0-.24-1.48,3.46,3.46,0,0,0-.8-1.21,3.06,3.06,0,0,0-1.2-.73,2.82,2.82,0,0,0-1.38-.1L145.29,89,85.13,99.15" transform="translate(-8.9 -7.34)"/><path class="cls-5" d="M8.93,213.32a3.38,3.38,0,0,0,.64,2,3,3,0,0,0,1.67,1.14,21.92,21.92,0,0,0,12.2-.25c10.35-3.38,18-15.25,19.42-30.24a3.39,3.39,0,0,0-.11-1.27,3.25,3.25,0,0,0-.55-1.12,3,3,0,0,0-.91-.8,2.68,2.68,0,0,0-1.13-.36,27.59,27.59,0,0,0-21.84,7.64C10.12,198.06,9,208.5,8.93,213.32Z" transform="translate(-8.9 -7.34)"/><g class="cls-7"><path class="cls-5" d="M309.28,152.71a3.12,3.12,0,0,0,1.71-1.16,3.16,3.16,0,0,0,.61-2,24.87,24.87,0,0,0-3.53-12.26c-5.95-9.62-19.07-14.41-33.38-12.09a3.15,3.15,0,0,0-2.05,1.27,3,3,0,0,0-.5,1.12,3.13,3.13,0,0,0,0,1.22c.9,4.83,3.77,14.11,13,20.17C294.76,155.3,304.78,153.85,309.28,152.71Z" transform="translate(-8.9 -7.34)"/></g><g class="cls-8"><path class="cls-5" d="M25.27,24.28a1.78,1.78,0,0,0-.67-1A1.91,1.91,0,0,0,23.44,23a14.71,14.71,0,0,0-7.15,2c-5.61,3.4-8.4,10.89-7,19.07a1.71,1.71,0,0,0,.25.66,1.83,1.83,0,0,0,.49.51,2,2,0,0,0,.65.29,1.94,1.94,0,0,0,.72,0,17.85,17.85,0,0,0,11.76-7.44A17.09,17.09,0,0,0,25.27,24.28Z" transform="translate(-8.9 -7.34)"/></g></svg>