<svg width="335" height="271" viewBox="0 0 335 271" fill="none" xmlns="http://www.w3.org/2000/svg">
<g clip-path="url(#clip0_4781_28880)">
<path opacity="0.25" d="M108.377 42.9176C66.7458 43.3049 23.485 81.6906 25.4973 112.072C25.9258 118.6 25.1147 120.359 32.4753 130.308C68.0159 178.345 16.7212 216.65 66.5086 248.233C116.296 279.816 188.685 174.681 235.887 225.833C283.088 276.984 331.529 181.903 297.182 142.646C268.872 110.288 285.705 69.393 267.839 48.2353C264.197 43.9101 258.657 40.3193 250.922 37.6403C221.035 27.3115 202.611 58.7657 165.226 59.8147C136.733 60.5813 136.993 42.6432 108.377 42.9176Z" fill="#67AF79"/>
</g>
<mask id="path-2-inside-1_4781_28880" fill="white">
<path fill-rule="evenodd" clip-rule="evenodd" d="M50.9482 110.997L266.479 74.8394L270.664 99.7867C260.184 105.763 254.016 117.83 256.129 130.421C258.241 143.013 268.009 152.407 279.865 154.636L284.051 179.583L68.5203 215.741L64.3351 190.794C74.8153 184.817 80.9827 172.75 78.8704 160.159C76.758 147.567 66.9902 138.174 55.1335 135.945L50.9482 110.997Z"/>
</mask>
<path d="M266.479 74.8394L268.469 74.5055L268.135 72.5152L266.145 72.8491L266.479 74.8394ZM50.9482 110.997L50.6144 109.007L48.6241 109.341L48.958 111.331L50.9482 110.997ZM270.664 99.7867L271.664 101.54L272.887 100.842L272.654 99.4528L270.664 99.7867ZM279.865 154.636L281.856 154.302L281.623 152.913L280.238 152.652L279.865 154.636ZM284.051 179.583L284.385 181.573L286.375 181.239L286.041 179.249L284.051 179.583ZM68.5203 215.741L66.53 216.075L66.8639 218.065L68.8542 217.731L68.5203 215.741ZM64.3351 190.794L63.3354 189.041L62.1118 189.738L62.3448 191.128L64.3351 190.794ZM55.1335 135.945L53.1432 136.278L53.3763 137.668L54.7606 137.928L55.1335 135.945ZM266.145 72.8491L260.158 73.8535L260.826 77.834L266.813 76.8296L266.145 72.8491ZM248.184 75.8623L236.21 77.871L236.878 81.8516L248.852 79.8428L248.184 75.8623ZM224.236 79.8798L212.262 81.8886L212.93 85.8691L224.904 83.8603L224.236 79.8798ZM200.288 83.8974L188.314 85.9061L188.982 89.8866L200.956 87.8779L200.288 83.8974ZM176.34 87.9149L164.366 89.9237L165.034 93.9042L177.008 91.8954L176.34 87.9149ZM152.393 91.9324L140.419 93.9412L141.086 97.9217L153.06 95.913L152.393 91.9324ZM128.445 95.95L116.471 97.9588L117.139 101.939L129.113 99.9305L128.445 95.95ZM104.497 99.9675L92.5231 101.976L93.1908 105.957L105.165 103.948L104.497 99.9675ZM80.5492 103.985L68.5752 105.994L69.243 109.974L81.2169 107.966L80.5492 103.985ZM56.6013 108.003L50.6144 109.007L51.2821 112.988L57.2691 111.983L56.6013 108.003ZM48.958 111.331L50.0043 117.568L53.9848 116.9L52.9385 110.663L48.958 111.331ZM52.0969 130.042L53.1432 136.278L57.1237 135.611L56.0774 129.374L52.0969 130.042ZM54.7606 137.928C57.5442 138.451 60.2054 139.399 62.661 140.712L64.5646 137.153C61.7517 135.649 58.7006 134.562 55.5063 133.961L54.7606 137.928ZM74.263 152.533C75.5047 154.973 76.4021 157.643 76.8801 160.493L80.8607 159.825C80.314 156.566 79.2859 153.505 77.8603 150.703L74.263 152.533ZM76.8801 160.493C77.3581 163.342 77.3812 166.159 77.0039 168.871L81.0016 169.427C81.4348 166.313 81.4073 163.084 80.8607 159.825L76.8801 160.493ZM69.8947 183.831C68.0021 185.873 65.7958 187.638 63.3354 189.041L65.3348 192.547C68.1582 190.937 70.6876 188.914 72.8555 186.574L69.8947 183.831ZM62.3448 191.128L63.3911 197.364L67.3716 196.697L66.3253 190.46L62.3448 191.128ZM65.4837 209.838L66.53 216.075L70.5106 215.407L69.4643 209.17L65.4837 209.838ZM68.8542 217.731L74.8411 216.727L74.1734 212.746L68.1864 213.751L68.8542 217.731ZM86.8151 214.718L98.789 212.709L98.1212 208.729L86.1473 210.738L86.8151 214.718ZM110.763 210.701L122.737 208.692L122.069 204.711L110.095 206.72L110.763 210.701ZM134.711 206.683L146.685 204.674L146.017 200.694L134.043 202.702L134.711 206.683ZM158.659 202.665L170.632 200.657L169.965 196.676L157.991 198.685L158.659 202.665ZM182.606 198.648L194.58 196.639L193.912 192.659L181.939 194.667L182.606 198.648ZM206.554 194.63L218.528 192.622L217.86 188.641L205.886 190.65L206.554 194.63ZM230.502 190.613L242.476 188.604L241.808 184.624L229.834 186.632L230.502 190.613ZM254.45 186.595L266.424 184.587L265.756 180.606L253.782 182.615L254.45 186.595ZM278.398 182.578L284.385 181.573L283.717 177.593L277.73 178.597L278.398 182.578ZM286.041 179.249L284.995 173.012L281.014 173.68L282.06 179.917L286.041 179.249ZM282.902 160.539L281.856 154.302L277.875 154.97L278.921 161.206L282.902 160.539ZM280.238 152.652C277.455 152.129 274.793 151.181 272.338 149.868L270.434 153.427C273.247 154.932 276.298 156.018 279.493 156.619L280.238 152.652ZM260.736 138.047C259.494 135.607 258.597 132.937 258.119 130.088L254.138 130.755C254.685 134.014 255.713 137.076 257.139 139.878L260.736 138.047ZM258.119 130.088C257.641 127.238 257.618 124.422 257.995 121.71L253.997 121.153C253.564 124.267 253.592 127.497 254.138 130.755L258.119 130.088ZM265.104 106.75C266.997 104.707 269.203 102.943 271.664 101.54L269.664 98.0336C266.841 99.6437 264.311 101.667 262.143 104.007L265.104 106.75ZM272.654 99.4528L271.608 93.216L267.627 93.8838L268.674 100.121L272.654 99.4528ZM269.515 80.7423L268.469 74.5055L264.488 75.1733L265.535 81.4101L269.515 80.7423ZM266.479 74.8394L270.459 74.1716L269.791 70.1911L265.811 70.8589L266.479 74.8394ZM50.9482 110.997L50.2805 107.017L46.2999 107.685L46.9677 111.665L50.9482 110.997ZM270.664 99.7867L272.663 103.293L275.11 101.897L274.644 99.1189L270.664 99.7867ZM279.865 154.636L283.846 153.968L283.38 151.19L280.611 150.669L279.865 154.636ZM284.051 179.583L284.718 183.564L288.699 182.896L288.031 178.915L284.051 179.583ZM68.5203 215.741L64.5398 216.409L65.2076 220.389L69.1881 219.722L68.5203 215.741ZM64.3351 190.794L62.3357 187.288L59.8885 188.683L60.3546 191.461L64.3351 190.794ZM55.1335 135.945L51.1529 136.612L51.6191 139.391L54.3877 139.911L55.1335 135.945ZM265.811 70.8589L259.824 71.8632L261.159 79.8243L267.146 78.8199L265.811 70.8589ZM247.85 73.872L235.876 75.8808L237.212 83.8418L249.186 81.833L247.85 73.872ZM223.902 77.8896L211.928 79.8983L213.264 87.8594L225.238 85.8506L223.902 77.8896ZM199.954 81.9071L187.98 83.9159L189.316 91.8769L201.29 89.8681L199.954 81.9071ZM176.007 85.9246L164.033 87.9334L165.368 95.8944L177.342 93.8857L176.007 85.9246ZM152.059 89.9422L140.085 91.9509L141.42 99.912L153.394 97.9032L152.059 89.9422ZM128.111 93.9597L116.137 95.9685L117.473 103.93L129.446 101.921L128.111 93.9597ZM104.163 97.9773L92.1892 99.986L93.5247 107.947L105.499 105.938L104.163 97.9773ZM80.2153 101.995L68.2413 104.004L69.5769 111.965L81.5508 109.956L80.2153 101.995ZM56.2674 106.012L50.2805 107.017L51.616 114.978L57.603 113.973L56.2674 106.012ZM46.9677 111.665L48.014 117.902L55.9751 116.566L54.9288 110.329L46.9677 111.665ZM50.1066 130.376L51.1529 136.612L59.114 135.277L58.0677 129.04L50.1066 130.376ZM54.3877 139.911C56.966 140.396 59.4323 141.274 61.7092 142.492L65.5164 135.374C62.5248 133.774 59.2788 132.617 55.8792 131.978L54.3877 139.911ZM72.4644 153.448C73.6141 155.708 74.4462 158.182 74.8899 160.827L82.8509 159.491C82.2699 156.028 81.1766 152.77 79.659 149.787L72.4644 153.448ZM74.8899 160.827C75.3335 163.471 75.3545 166.082 75.0051 168.593L83.0004 169.705C83.4615 166.39 83.4319 162.954 82.8509 159.491L74.8899 160.827ZM68.4142 182.459C66.6594 184.353 64.6146 185.988 62.3357 187.288L66.3345 194.3C69.3394 192.586 72.0303 190.434 74.3359 187.945L68.4142 182.459ZM60.3546 191.461L61.4009 197.698L69.3619 196.363L68.3156 190.126L60.3546 191.461ZM63.4935 210.172L64.5398 216.409L72.5008 215.073L71.4545 208.836L63.4935 210.172ZM69.1881 219.722L75.175 218.717L73.8395 210.756L67.8525 211.76L69.1881 219.722ZM87.1489 216.708L99.1229 214.7L97.7873 206.739L85.8134 208.747L87.1489 216.708ZM111.097 212.691L123.071 210.682L121.735 202.721L109.761 204.73L111.097 212.691ZM135.045 208.673L147.019 206.665L145.683 198.703L133.709 200.712L135.045 208.673ZM158.992 204.656L170.966 202.647L169.631 194.686L157.657 196.695L158.992 204.656ZM182.94 200.638L194.914 198.629L193.579 190.668L181.605 192.677L182.94 200.638ZM206.888 196.621L218.862 194.612L217.526 186.651L205.552 188.66L206.888 196.621ZM230.836 192.603L242.81 190.594L241.474 182.633L229.5 184.642L230.836 192.603ZM254.784 188.586L266.758 186.577L265.422 178.616L253.448 180.625L254.784 188.586ZM278.731 184.568L284.718 183.564L283.383 175.603L277.396 176.607L278.731 184.568ZM288.031 178.915L286.985 172.678L279.024 174.014L280.07 180.251L288.031 178.915ZM284.892 160.205L283.846 153.968L275.885 155.303L276.931 161.54L284.892 160.205ZM280.611 150.669C278.033 150.184 275.567 149.306 273.29 148.089L269.482 155.207C272.474 156.807 275.72 157.963 279.12 158.602L280.611 150.669ZM262.535 137.132C261.385 134.873 260.553 132.398 260.109 129.754L252.148 131.089C252.729 134.553 253.822 137.81 255.34 140.793L262.535 137.132ZM260.109 129.754C259.665 127.109 259.645 124.499 259.994 121.988L251.999 120.875C251.537 124.19 251.567 127.626 252.148 131.089L260.109 129.754ZM266.585 108.121C268.34 106.227 270.384 104.592 272.663 103.293L268.664 96.2806C265.66 97.9941 262.969 100.147 260.663 102.635L266.585 108.121ZM274.644 99.1189L273.598 92.8821L265.637 94.2176L266.683 100.454L274.644 99.1189ZM271.505 80.4084L270.459 74.1716L262.498 75.5072L263.544 81.744L271.505 80.4084Z" fill="#205C32" mask="url(#path-2-inside-1_4781_28880)"/>
<path d="M205.993 116.664C205.95 116.424 205.821 116.209 205.63 116.064C205.44 115.918 205.203 115.853 204.969 115.881L194.251 117.758C194.118 117.781 193.993 117.835 193.883 117.914C193.774 117.994 193.683 118.097 193.617 118.217L189.439 126.535C189.142 127.088 189.03 127.727 189.121 128.355C189.211 128.983 189.499 129.566 189.94 130.013L194.766 134.901C195.018 135.157 195.326 135.347 195.664 135.455C196.001 135.563 196.358 135.585 196.704 135.521C197.05 135.456 197.375 135.306 197.651 135.083C197.927 134.86 198.146 134.572 198.289 134.242C198.289 134.242 205.959 117.156 205.955 117.155C206.01 116.998 206.023 116.829 205.993 116.664Z" fill="#205C32"/>
<path d="M170.491 157.651L174.421 156.963C174.953 156.87 175.454 156.652 175.883 156.328C176.312 156.004 176.655 155.583 176.884 155.102L181.833 145.018C182.106 144.448 182.194 143.809 182.085 143.19C181.977 142.571 181.677 142.001 181.227 141.557L172.965 133.458C172.597 133.094 172.143 132.822 171.644 132.668C171.145 132.513 170.614 132.479 170.097 132.568L166.224 133.246C165.97 133.29 165.709 133.234 165.498 133.089C165.287 132.944 165.143 132.723 165.099 132.473L164.86 131.113L163.871 125.463L163.631 124.09C163.617 124.002 163.616 123.912 163.627 123.824L163.624 123.81L163.623 123.801C163.649 123.607 163.734 123.425 163.868 123.28C164.002 123.135 164.178 123.033 164.372 122.989L172.609 121.547C173.383 121.412 174.177 121.461 174.925 121.691C175.673 121.92 176.353 122.324 176.907 122.867L192.998 138.655C193.652 139.3 194.089 140.128 194.249 141.027C194.409 141.927 194.285 142.855 193.893 143.686L184.326 163.841C183.971 164.591 183.437 165.246 182.769 165.751C182.102 166.256 181.321 166.595 180.494 166.74L172.337 168.168C172.082 168.211 171.821 168.154 171.611 168.009C171.4 167.864 171.257 167.642 171.213 167.392L169.947 160.166C169.945 160.151 169.943 160.139 169.94 160.124L169.701 158.76C169.659 158.511 169.718 158.255 169.866 158.047C170.014 157.84 170.238 157.697 170.491 157.651Z" fill="#205C32"/>
<path d="M160.056 161.857L159.817 160.492C159.772 160.243 159.631 160.021 159.425 159.875C159.219 159.729 158.964 159.672 158.717 159.714L154.891 160.384C154.373 160.476 153.84 160.44 153.338 160.279C152.835 160.118 152.379 159.837 152.007 159.459L144.101 151.626C143.66 151.181 143.365 150.609 143.257 149.99C143.148 149.371 143.231 148.734 143.495 148.165L148.336 137.771C148.551 137.305 148.874 136.898 149.278 136.585C149.682 136.272 150.156 136.062 150.658 135.972L154.43 135.312C154.678 135.268 154.898 135.127 155.042 134.92C155.186 134.713 155.243 134.457 155.201 134.207L154.962 132.846L153.973 127.197L153.733 125.823C153.716 125.735 153.687 125.651 153.645 125.572C153.644 125.567 153.643 125.563 153.643 125.558L153.641 125.549C153.553 125.376 153.416 125.235 153.247 125.143C153.077 125.051 152.884 125.013 152.694 125.034L144.674 126.439C143.919 126.569 143.207 126.881 142.598 127.349C141.989 127.816 141.501 128.425 141.176 129.123L131.76 149.382C131.378 150.209 131.256 151.135 131.411 152.035C131.566 152.936 131.991 153.767 132.628 154.419L148.138 170.178C148.715 170.764 149.423 171.202 150.203 171.453C150.983 171.704 151.811 171.762 152.617 171.621L160.556 170.231C160.803 170.186 161.023 170.045 161.167 169.838C161.311 169.63 161.367 169.374 161.324 169.124L160.059 161.9C160.057 161.884 160.058 161.872 160.056 161.857Z" fill="#205C32"/>
<circle cx="263.56" cy="77.4939" r="17.759" fill="#318349"/>
<path d="M270.55 77.1348L264.545 78.1422L265.552 84.1471L263.551 84.4829L262.543 78.478L256.539 79.4854L256.203 77.4837L262.208 76.4763L261.2 70.4714L263.202 70.1356L264.209 76.1405L270.214 75.1331L270.55 77.1348Z" fill="white"/>
<defs>
<clipPath id="clip0_4781_28880">
<rect width="283.337" height="218.759" fill="white" transform="translate(25.4277 35.518)"/>
</clipPath>
</defs>
</svg>
