<svg width="200" height="200" viewBox="0 0 20 20" fill="none" xmlns="http://www.w3.org/2000/svg">
<g clip-path="url(#clip0_2494_26008)">
<path d="M9.99935 1.66667C14.6018 1.66667 18.3327 5.39751 18.3327 10C18.3327 14.6025 14.6018 18.3333 9.99935 18.3333C5.39685 18.3333 1.66602 14.6025 1.66602 10C1.66602 5.39751 5.39685 1.66667 9.99935 1.66667ZM9.99935 12.5C9.77833 12.5 9.56637 12.5878 9.41009 12.7441C9.25381 12.9004 9.16602 13.1123 9.16602 13.3333C9.16602 13.5544 9.25381 13.7663 9.41009 13.9226C9.56637 14.0789 9.77833 14.1667 9.99935 14.1667C10.2204 14.1667 10.4323 14.0789 10.5886 13.9226C10.7449 13.7663 10.8327 13.5544 10.8327 13.3333C10.8327 13.1123 10.7449 12.9004 10.5886 12.7441C10.4323 12.5878 10.2204 12.5 9.99935 12.5ZM9.99935 5.00001C9.79524 5.00003 9.59823 5.07497 9.4457 5.2106C9.29318 5.34623 9.19573 5.53313 9.17185 5.73584L9.16602 5.83334V10.8333C9.16625 11.0457 9.24758 11.25 9.39339 11.4045C9.5392 11.5589 9.73848 11.6519 9.95051 11.6643C10.1625 11.6768 10.3713 11.6078 10.5342 11.4715C10.6971 11.3351 10.8018 11.1418 10.8268 10.9308L10.8327 10.8333V5.83334C10.8327 5.61232 10.7449 5.40036 10.5886 5.24408C10.4323 5.0878 10.2204 5.00001 9.99935 5.00001Z" fill="#205C32"/>
</g>
<defs>
<clipPath id="clip0_2494_26008">
<rect width="20" height="20" fill="white"/>
</clipPath>
</defs>
</svg>
