<svg width="182" height="30" viewBox="0 0 182 30" fill="none" xmlns="http://www.w3.org/2000/svg">
<g clip-path="url(#clip0_2364_25729)">
<path d="M0 1H22.1579V7.52717H7.49897C6.84128 7.52717 6.30564 8.08888 6.30564 8.77857V12.5399C6.30564 13.2296 6.84128 13.7913 7.49897 13.7913H16.2726V20.3184H7.49897C6.84128 20.3184 6.30564 20.8801 6.30564 21.5698V29.0071H0V1Z" fill="#050505"/>
<path d="M28.0029 1H34.2272V20.7308C34.2272 21.6978 34.973 22.4799 35.8952 22.4799H43.3331L50.1608 29H28.0029V1Z" fill="#050505"/>
<path d="M123.354 29H117.13V1H123.354V29Z" fill="#050505"/>
<path d="M167.132 9.3616L172.916 1H165.214L162.766 3.90096C162.298 4.50533 162.271 5.37278 162.705 6.00559L165.01 9.39005C165.532 10.1579 166.617 10.1437 167.126 9.3616H167.132Z" fill="#ADFB4F"/>
<path d="M162.192 13.3289L154.747 2.22991C154.225 1.4549 153.384 0.992737 152.483 0.992737H147.16V7.35637H150.15C150.645 7.35637 151.106 7.60523 151.384 8.03184L155.547 14.2319C155.852 14.6941 155.852 15.3056 155.547 15.7606L151.405 21.8754C151.154 22.2451 150.74 22.4727 150.306 22.4727H147.167V28.9856H152.598C153.486 28.9856 154.313 28.5306 154.815 27.7698L162.206 16.6423C162.87 15.6469 162.863 14.3173 162.199 13.3289H162.192Z" fill="#050505"/>
<path d="M133.694 2.2441L126.195 13.4285C125.571 14.3599 125.564 15.6113 126.188 16.5498L133.558 27.656C134.114 28.495 135.03 28.9927 135.999 28.9927H141.288V22.4798H138.447C137.823 22.4798 137.233 22.1598 136.874 21.6194L133.097 16.0806C132.67 15.4335 132.67 14.5803 133.097 13.9404L136.948 8.19535C137.301 7.6763 137.87 7.36345 138.474 7.36345H141.281V0.999817H135.972C135.063 0.999817 134.209 1.46198 133.687 2.2441H133.694Z" fill="#050505"/>
<path d="M78.1971 1V27.1656C78.1971 28.1752 77.4173 29 76.4478 29H59.47L50.9404 20.745V1H57.3071V16.8771C57.3071 17.4744 57.5308 18.0432 57.9309 18.4627L61.1312 21.8187C61.5312 22.2382 62.0736 22.4728 62.6432 22.4728H70.7184C71.3151 22.4728 71.7965 21.968 71.7965 21.3423V1H78.1903H78.1971Z" fill="#050505"/>
<path d="M111.279 1V27.1656C111.279 28.1752 110.499 29 109.53 29H92.552L84.0225 20.745V1H90.3891V16.8771C90.3891 17.4744 90.6129 18.0432 91.0129 18.4627L94.2132 21.8187C94.6132 22.2382 95.1556 22.4728 95.7252 22.4728H103.8C104.397 22.4728 104.879 21.968 104.879 21.3423V1H111.272H111.279Z" fill="#050505"/>
</g>
<defs>
<clipPath id="clip0_2364_25729">
<rect width="173.199" height="28.6588" fill="white" transform="translate(0 0.670593)"/>
</clipPath>
</defs>
</svg>
