<svg width="45" height="46" viewBox="0 0 45 46" fill="none" xmlns="http://www.w3.org/2000/svg">
<path d="M21.6205 0.722658C20.5126 0.708314 19.3782 1.52966 18.8666 2.82622C18.2369 4.42185 18.7869 6.13372 20.0941 6.64935C21.4013 7.16516 22.9713 6.29103 23.6009 4.69531C24.2306 3.09969 23.6806 1.38781 22.3734 0.872189C22.1337 0.776728 21.8785 0.726045 21.6206 0.722658H21.6205ZM28.6283 2.21685C27.5998 2.21741 26.4961 2.7816 25.7427 3.79878C24.5942 5.34885 24.6927 7.36691 25.9622 8.3076C27.232 9.24838 29.191 8.75328 30.3392 7.20322C31.4877 5.65316 31.3892 3.6351 30.1195 2.69441C29.6832 2.37097 29.167 2.21656 28.6284 2.21694L28.6283 2.21685ZM34.933 5.73528C33.964 5.72338 32.9134 6.13494 32.0764 6.94531C30.5886 8.38606 30.3397 10.5401 31.5199 11.7588C32.6999 12.9776 34.863 12.7981 36.3508 11.3576C37.8387 9.91663 38.0877 7.76272 36.9075 6.54397C36.3912 6.01053 35.6865 5.74457 34.9329 5.73528H34.933ZM20.2669 8.74119C18.1566 8.71494 16.1065 9.38741 14.3138 10.9912C8.59157 16.1106 3.01738 23.4699 1.15063 35.2784C-1.02971 49.0719 15.961 46.5803 14.2787 39.2128C12.1298 29.8015 17.4784 25.9837 24.4037 27.5731C27.4823 28.28 30.6418 27.1138 32.4662 23.7823C34.6602 19.776 31.7698 13.7682 26.5717 10.6924C24.5458 9.49335 22.3773 8.76735 20.267 8.7411L20.2669 8.74119ZM40.6342 11.5625C39.6479 11.5646 38.6041 11.8269 37.6255 12.3711C35.0158 13.8223 33.8614 16.7314 35.0502 18.8692C36.2391 21.0069 39.3195 21.5626 41.9292 20.1114C44.5388 18.6601 45.6902 15.7511 44.5015 13.6133C43.7584 12.2772 42.278 11.5592 40.6343 11.5625H40.6342Z" fill="#1A1A1A"/>
</svg>
