<svg width="43" height="44" viewBox="0 0 43 44" fill="none" xmlns="http://www.w3.org/2000/svg">
<path d="M36.3499 7.16312C34.4034 5.19733 32.0876 3.63552 29.5357 2.56742C26.9837 1.49931 24.2459 0.945959 21.4794 0.939151C18.713 0.932342 15.9724 1.47221 13.4153 2.52774C10.8581 3.58327 8.53467 5.13366 6.57849 7.08984C4.62231 9.04603 3.07192 11.3694 2.01639 13.9266C0.960858 16.4838 0.420989 19.2243 0.427798 21.9908C0.434607 24.7572 0.98796 27.4951 2.05607 30.047C3.12417 32.599 4.68598 34.9147 6.65177 36.8612C8.59829 38.827 10.9141 40.3888 13.466 41.4569C16.0179 42.5251 18.7558 43.0784 21.5222 43.0852C24.2887 43.092 27.0292 42.5522 29.5864 41.4966C32.1436 40.4411 34.467 38.8907 36.4232 36.9345C38.3793 34.9783 39.9297 32.6549 40.9853 30.0977C42.0408 27.5406 42.5807 24.8 42.5739 22.0336C42.5671 19.2671 42.0137 16.5293 40.9456 13.9774C39.8775 11.4254 38.3157 9.10965 36.3499 7.16312ZM3.50083 22.0122C3.50016 20.4191 3.71138 18.833 4.12895 17.2956C4.81708 18.7769 5.81645 20.0566 6.49614 21.5762C7.37458 23.53 9.73333 22.9881 10.7749 24.7C11.6993 26.2197 10.7121 28.1416 11.404 29.7316C11.9065 30.8856 13.0915 31.1378 13.909 31.9816C14.7443 32.8328 14.7265 33.9991 14.854 35.1091C14.9978 36.4132 15.2312 37.706 15.5524 38.9781C15.5524 38.9875 15.5524 38.9978 15.5599 39.0072C8.54458 36.5434 3.50083 29.8562 3.50083 22.0122ZM21.5008 40.0122C20.4956 40.0119 19.4921 39.9278 18.5008 39.7609C18.5111 39.5069 18.5158 39.2697 18.5411 39.1047C18.769 37.6141 19.5152 36.1562 20.5221 35.0406C21.5168 33.94 22.8799 33.1956 23.7199 31.9469C24.543 30.7281 24.7896 29.0875 24.4502 27.6634C23.9505 25.5597 21.0921 24.8575 19.5508 23.7166C18.6649 23.0603 17.8765 22.0459 16.713 21.9634C16.1768 21.9259 15.7277 22.0412 15.1961 21.9044C14.7086 21.7778 14.3261 21.5153 13.8068 21.5837C12.8365 21.7112 12.2243 22.7481 11.1818 22.6075C10.1927 22.4753 9.17364 21.3175 8.94864 20.3753C8.65989 19.1641 9.61802 18.7712 10.6446 18.6634C11.073 18.6184 11.554 18.5697 11.9655 18.7272C12.5074 18.9278 12.7633 19.4584 13.2499 19.7266C14.1621 20.2272 14.3468 19.4275 14.2071 18.6175C13.998 17.4044 13.7543 16.9103 14.8361 16.075C15.5861 15.4994 16.2274 15.0831 16.1074 14.0491C16.0361 13.4416 15.7033 13.1669 16.0136 12.5622C16.249 12.1019 16.8949 11.6866 17.3158 11.4119C18.4024 10.7031 21.9705 10.7556 20.5127 8.77187C20.0843 8.18968 19.294 7.14906 18.544 7.00656C17.6065 6.82937 17.1902 7.87562 16.5368 8.33687C15.8618 8.81406 14.5474 9.35593 13.8715 8.61812C12.9621 7.62531 14.4743 7.29999 14.809 6.60624C14.9636 6.28281 14.809 5.83374 14.5483 5.41093C14.8865 5.26843 15.2302 5.13624 15.5796 5.01437C15.7985 5.17609 16.0583 5.27349 16.3296 5.29562C16.9568 5.33687 17.5483 4.99749 18.0958 5.42499C18.7033 5.89374 19.1411 6.48624 19.9474 6.63249C20.7274 6.77406 21.5533 6.31937 21.7465 5.52062C21.8636 5.03499 21.7465 4.52218 21.634 4.02062C25.1402 4.04079 28.5633 5.09085 31.4777 7.04031C31.2902 6.96906 31.0661 6.97749 30.7896 7.10593C30.2205 7.37031 29.4143 8.04343 29.3477 8.71093C29.2718 9.46843 30.3893 9.57531 30.9199 9.57531C31.7168 9.57531 32.524 9.21906 32.2671 8.29843C32.1555 7.89906 32.0036 7.48374 31.759 7.23249C32.3472 7.64064 32.9106 8.08329 33.4465 8.55812C33.438 8.56656 33.4296 8.57406 33.4211 8.58343C32.8811 9.14593 32.254 9.59124 31.8846 10.2756C31.624 10.7575 31.3305 10.9862 30.8027 11.1109C30.5121 11.1794 30.1802 11.2047 29.9365 11.3997C29.2577 11.9341 29.644 13.2184 30.2871 13.6037C31.0999 14.0903 32.3055 13.8616 32.9186 13.1669C33.3977 12.6231 33.6799 11.6791 34.5415 11.68C34.9208 11.6792 35.2851 11.8277 35.5558 12.0934C35.9121 12.4628 35.8418 12.8078 35.9177 13.2691C36.0518 14.0884 36.7746 13.6441 37.2143 13.2306C37.5348 13.801 37.8239 14.3884 38.0805 14.9903C37.5968 15.6869 37.2124 16.4462 36.049 15.6344C35.3524 15.1478 34.924 14.4419 34.0493 14.2225C33.2852 14.035 32.5024 14.23 31.7477 14.3603C30.8899 14.5094 29.8727 14.575 29.2221 15.2247C28.593 15.8509 28.2602 16.6891 27.5908 17.3181C26.2961 18.5369 25.7496 19.8672 26.5877 21.5903C27.394 23.2469 29.0805 24.1459 30.9002 24.0278C32.688 23.9087 34.5452 22.8719 34.4936 25.4697C34.4749 26.3894 34.6671 27.0259 34.9493 27.88C35.2108 28.6675 35.193 29.4306 35.253 30.2434C35.3101 31.1952 35.4589 32.1393 35.6974 33.0625C34.017 35.226 31.8644 36.9769 29.4039 38.1814C26.9435 39.3858 24.2403 40.0121 21.5008 40.0122Z" fill="#1A1A1A"/>
</svg>
