<svg width="16" height="17" viewBox="0 0 16 17" fill="none" xmlns="http://www.w3.org/2000/svg">
<path fill-rule="evenodd" clip-rule="evenodd" d="M6 9.16667C6.35362 9.16667 6.69276 9.30714 6.94281 9.55719C7.19286 9.80724 7.33333 10.1464 7.33333 10.5V13.1667C7.33333 13.5203 7.19286 13.8594 6.94281 14.1095C6.69276 14.3595 6.35362 14.5 6 14.5H3.33333C2.97971 14.5 2.64057 14.3595 2.39052 14.1095C2.14048 13.8594 2 13.5203 2 13.1667V10.5C2 10.1464 2.14048 9.80724 2.39052 9.55719C2.64057 9.30714 2.97971 9.16667 3.33333 9.16667H6ZM12.6667 9.16667C13.0031 9.16656 13.327 9.2936 13.5737 9.52233C13.8204 9.75106 13.9714 10.0646 13.9967 10.4L14 10.5V13.1667C14.0001 13.5031 13.8731 13.827 13.6443 14.0737C13.4156 14.3204 13.1021 14.4714 12.7667 14.4967L12.6667 14.5H10C9.66362 14.5001 9.33962 14.3731 9.09297 14.1443C8.84631 13.9156 8.69523 13.6021 8.67 13.2667L8.66667 13.1667V10.5C8.66656 10.1636 8.7936 9.83962 9.02233 9.59297C9.25106 9.34631 9.56456 9.19523 9.9 9.17L10 9.16667H12.6667ZM6 10.5H3.33333V13.1667H6V10.5ZM12.6667 10.5H10V13.1667H12.6667V10.5ZM12.6667 2.5C13.0031 2.49989 13.327 2.62694 13.5737 2.85566C13.8204 3.08439 13.9714 3.3979 13.9967 3.73333L14 3.83333V6.5C14.0001 6.83638 13.8731 7.16038 13.6443 7.40703C13.4156 7.65369 13.1021 7.80477 12.7667 7.83L12.6667 7.83333H10C9.66362 7.83344 9.33962 7.7064 9.09297 7.47767C8.84631 7.24894 8.69523 6.93544 8.67 6.6L8.66667 6.5V3.83333C8.66656 3.49695 8.7936 3.17296 9.02233 2.9263C9.25106 2.67965 9.56456 2.52856 9.9 2.50333L10 2.5H12.6667ZM6 2.5C6.33638 2.49989 6.66038 2.62694 6.90703 2.85566C7.15369 3.08439 7.30477 3.3979 7.33 3.73333L7.33333 3.83333V6.5C7.33344 6.83638 7.2064 7.16038 6.97767 7.40703C6.74894 7.65369 6.43544 7.80477 6.1 7.83L6 7.83333H3.33333C2.99695 7.83344 2.67296 7.7064 2.4263 7.47767C2.17965 7.24894 2.02856 6.93544 2.00333 6.6L2 6.5V3.83333C1.99989 3.49695 2.12694 3.17296 2.35566 2.9263C2.58439 2.67965 2.8979 2.52856 3.23333 2.50333L3.33333 2.5H6ZM12.6667 3.83333H10V6.5H12.6667V3.83333ZM6 3.83333H3.33333V6.5H6V3.83333Z" fill="#1A1A1A"/>
</svg>
