<svg width="19" height="19" viewBox="0 0 19 19" fill="none" xmlns="http://www.w3.org/2000/svg">
<path d="M17.5 16.5V8C17.5 7.84475 17.4639 7.69164 17.3944 7.55279C17.325 7.41393 17.2242 7.29315 17.1 7.2L10.1 1.95C9.9269 1.82018 9.71637 1.75 9.5 1.75C9.28363 1.75 9.0731 1.82018 8.9 1.95L1.9 7.2C1.7758 7.29315 1.675 7.41393 1.60557 7.55279C1.53614 7.69164 1.5 7.84475 1.5 8V16.5C1.5 16.7652 1.60536 17.0196 1.79289 17.2071C1.98043 17.3946 2.23478 17.5 2.5 17.5H6.5C6.76522 17.5 7.01957 17.3946 7.20711 17.2071C7.39464 17.0196 7.5 16.7652 7.5 16.5V13.5C7.5 13.2348 7.60536 12.9804 7.79289 12.7929C7.98043 12.6054 8.23478 12.5 8.5 12.5H10.5C10.7652 12.5 11.0196 12.6054 11.2071 12.7929C11.3946 12.9804 11.5 13.2348 11.5 13.5V16.5C11.5 16.7652 11.6054 17.0196 11.7929 17.2071C11.9804 17.3946 12.2348 17.5 12.5 17.5H16.5C16.7652 17.5 17.0196 17.3946 17.2071 17.2071C17.3946 17.0196 17.5 16.7652 17.5 16.5Z" fill="#205C32" stroke="#205C32" stroke-width="2" stroke-linecap="round" stroke-linejoin="round"/>
</svg>
