<svg width="33" height="32" viewBox="0 0 33 32" fill="none" xmlns="http://www.w3.org/2000/svg">
<circle cx="16.4004" cy="16.0005" r="16" fill="#1A1A1A"/>
<path d="M17.2569 7.66748C18.1944 7.66998 18.6702 7.67498 19.0811 7.68665L19.2427 7.69248C19.4294 7.69915 19.6136 7.70748 19.8361 7.71748C20.7227 7.75915 21.3277 7.89915 21.8586 8.10498C22.4086 8.31665 22.8719 8.60331 23.3352 9.06581C23.759 9.48239 24.0869 9.9863 24.2961 10.5425C24.5019 11.0733 24.6419 11.6783 24.6836 12.5658C24.6936 12.7875 24.7019 12.9716 24.7086 13.1591L24.7136 13.3208C24.7261 13.7308 24.7311 14.2066 24.7327 15.1441L24.7336 15.7658V16.8575C24.7356 17.4653 24.7292 18.0732 24.7144 18.6808L24.7094 18.8425C24.7027 19.03 24.6944 19.2141 24.6844 19.4358C24.6427 20.3233 24.5011 20.9275 24.2961 21.4591C24.0875 22.0156 23.7595 22.5197 23.3352 22.9358C22.9185 23.3594 22.4146 23.6873 21.8586 23.8966C21.3277 24.1025 20.7227 24.2425 19.8361 24.2841C19.6383 24.2935 19.4405 24.3018 19.2427 24.3091L19.0811 24.3141C18.6702 24.3258 18.1944 24.3316 17.2569 24.3333L16.6352 24.3341H15.5444C14.9363 24.3362 14.3282 24.3299 13.7202 24.315L13.5586 24.31C13.3607 24.3025 13.1629 24.2939 12.9652 24.2841C12.0786 24.2425 11.4736 24.1025 10.9419 23.8966C10.3858 23.6878 9.88207 23.3599 9.46605 22.9358C9.04192 22.5194 8.71374 22.0154 8.50439 21.4591C8.29855 20.9283 8.15855 20.3233 8.11689 19.4358C8.1076 19.2381 8.09927 19.0403 8.09189 18.8425L8.08772 18.6808C8.07236 18.0732 8.06542 17.4653 8.06689 16.8575V15.1441C8.06456 14.5363 8.07067 13.9285 8.08522 13.3208L8.09105 13.1591C8.09772 12.9716 8.10605 12.7875 8.11605 12.5658C8.15772 11.6783 8.29772 11.0741 8.50355 10.5425C8.71282 9.98573 9.04165 9.48167 9.46689 9.06581C9.8828 8.64204 10.3862 8.31414 10.9419 8.10498C11.4736 7.89915 12.0777 7.75915 12.9652 7.71748C13.1869 7.70748 13.3719 7.69915 13.5586 7.69248L13.7202 7.68748C14.3279 7.67267 14.9357 7.66628 15.5436 7.66831L17.2569 7.66748ZM16.4002 11.8341C15.2952 11.8341 14.2353 12.2731 13.4539 13.0545C12.6725 13.8359 12.2336 14.8957 12.2336 16.0008C12.2336 17.1059 12.6725 18.1657 13.4539 18.9471C14.2353 19.7285 15.2952 20.1675 16.4002 20.1675C17.5053 20.1675 18.5651 19.7285 19.3465 18.9471C20.1279 18.1657 20.5669 17.1059 20.5669 16.0008C20.5669 14.8957 20.1279 13.8359 19.3465 13.0545C18.5651 12.2731 17.5053 11.8341 16.4002 11.8341ZM16.4002 13.5008C16.7285 13.5008 17.0536 13.5654 17.357 13.691C17.6603 13.8165 17.9359 14.0006 18.1681 14.2328C18.4003 14.4649 18.5845 14.7404 18.7102 15.0437C18.8359 15.347 18.9006 15.6721 18.9006 16.0004C18.9007 16.3287 18.8361 16.6538 18.7105 16.9571C18.5849 17.2605 18.4008 17.5361 18.1687 17.7683C17.9366 18.0005 17.661 18.1847 17.3577 18.3104C17.0544 18.436 16.7294 18.5008 16.4011 18.5008C15.738 18.5008 15.1021 18.2374 14.6333 17.7686C14.1644 17.2997 13.9011 16.6639 13.9011 16.0008C13.9011 15.3378 14.1644 14.7019 14.6333 14.233C15.1021 13.7642 15.738 13.5008 16.4011 13.5008M20.7761 10.5841C20.4998 10.5841 20.2348 10.6939 20.0395 10.8892C19.8441 11.0846 19.7344 11.3495 19.7344 11.6258C19.7344 11.9021 19.8441 12.167 20.0395 12.3624C20.2348 12.5577 20.4998 12.6675 20.7761 12.6675C21.0523 12.6675 21.3173 12.5577 21.5126 12.3624C21.708 12.167 21.8177 11.9021 21.8177 11.6258C21.8177 11.3495 21.708 11.0846 21.5126 10.8892C21.3173 10.6939 21.0523 10.5841 20.7761 10.5841Z" fill="white"/>
</svg>
