<svg width="21" height="20" viewBox="0 0 21 20" fill="none" xmlns="http://www.w3.org/2000/svg">
<path d="M11.3565 1.66699C12.294 1.66949 12.7698 1.67449 13.1807 1.68616L13.3423 1.69199C13.529 1.69866 13.7132 1.70699 13.9357 1.71699C14.8223 1.75866 15.4273 1.89866 15.9582 2.10449C16.5082 2.31616 16.9715 2.60283 17.4348 3.06533C17.8586 3.48191 18.1865 3.98582 18.3957 4.54199C18.6015 5.07283 18.7415 5.67783 18.7832 6.56533C18.7932 6.78699 18.8015 6.97116 18.8082 7.15866L18.8132 7.32033C18.8257 7.73033 18.8307 8.20616 18.8323 9.14366L18.8332 9.76533V10.857C18.8352 11.4648 18.8288 12.0727 18.814 12.6803L18.809 12.842C18.8023 13.0295 18.794 13.2137 18.784 13.4353C18.7423 14.3228 18.6007 14.927 18.3957 15.4587C18.1871 16.0151 17.8591 16.5192 17.4348 16.9353C17.0181 17.3589 16.5143 17.6868 15.9582 17.8962C15.4273 18.102 14.8223 18.242 13.9357 18.2837C13.7379 18.293 13.5401 18.3013 13.3423 18.3087L13.1807 18.3137C12.7698 18.3253 12.294 18.3312 11.3565 18.3328L10.7348 18.3337H9.644C9.03588 18.3358 8.42777 18.3294 7.81983 18.3145L7.65816 18.3095C7.46034 18.302 7.26256 18.2934 7.06483 18.2837C6.17816 18.242 5.57316 18.102 5.0415 17.8962C4.48539 17.6873 3.98168 17.3594 3.56566 16.9353C3.14153 16.5189 2.81335 16.015 2.604 15.4587C2.39816 14.9278 2.25816 14.3228 2.2165 13.4353C2.20721 13.2376 2.19888 13.0398 2.1915 12.842L2.18733 12.6803C2.17197 12.0727 2.16503 11.4648 2.1665 10.857V9.14366C2.16417 8.53583 2.17028 7.92799 2.18483 7.32033L2.19066 7.15866C2.19733 6.97116 2.20566 6.78699 2.21566 6.56533C2.25733 5.67783 2.39733 5.07366 2.60316 4.54199C2.81242 3.98525 3.14126 3.48118 3.5665 3.06533C3.98241 2.64155 4.48578 2.31365 5.0415 2.10449C5.57316 1.89866 6.17733 1.75866 7.06483 1.71699C7.2865 1.70699 7.4715 1.69866 7.65816 1.69199L7.81983 1.68699C8.42749 1.67219 9.03533 1.6658 9.64316 1.66783L11.3565 1.66699ZM10.4998 5.83366C9.39476 5.83366 8.33495 6.27265 7.55355 7.05405C6.77215 7.83545 6.33316 8.89526 6.33316 10.0003C6.33316 11.1054 6.77215 12.1652 7.55355 12.9466C8.33495 13.728 9.39476 14.167 10.4998 14.167C11.6049 14.167 12.6647 13.728 13.4461 12.9466C14.2275 12.1652 14.6665 11.1054 14.6665 10.0003C14.6665 8.89526 14.2275 7.83545 13.4461 7.05405C12.6647 6.27265 11.6049 5.83366 10.4998 5.83366ZM10.4998 7.50033C10.8281 7.50027 11.1532 7.56488 11.4566 7.69047C11.7599 7.81605 12.0355 8.00016 12.2677 8.23226C12.4999 8.46437 12.6841 8.73994 12.8098 9.04323C12.9355 9.34653 13.0002 9.67161 13.0002 9.99991C13.0003 10.3282 12.9357 10.6533 12.8101 10.9566C12.6845 11.26 12.5004 11.5356 12.2683 11.7678C12.0362 12 11.7606 12.1842 11.4573 12.3099C11.154 12.4356 10.829 12.5003 10.5007 12.5003C9.83762 12.5003 9.20174 12.2369 8.7329 11.7681C8.26406 11.2993 8.00066 10.6634 8.00066 10.0003C8.00066 9.33728 8.26406 8.7014 8.7329 8.23256C9.20174 7.76372 9.83762 7.50033 10.5007 7.50033M14.8757 4.58366C14.5994 4.58366 14.3344 4.69341 14.1391 4.88876C13.9437 5.08411 13.834 5.34906 13.834 5.62533C13.834 5.90159 13.9437 6.16654 14.1391 6.3619C14.3344 6.55725 14.5994 6.66699 14.8757 6.66699C15.1519 6.66699 15.4169 6.55725 15.6122 6.3619C15.8076 6.16654 15.9173 5.90159 15.9173 5.62533C15.9173 5.34906 15.8076 5.08411 15.6122 4.88876C15.4169 4.69341 15.1519 4.58366 14.8757 4.58366Z" fill="white"/>
</svg>
