<svg width="200" height="200" viewBox="0 0 16 17" fill="none" xmlns="http://www.w3.org/2000/svg">
<circle cx="8" cy="8.5" r="7.5" fill="none" stroke="#205C32"/>
<path d="M7.5 13.5V11.37C7.265 11.455 7.015 11.5 6.75 11.5C5.5 11.5 4.5 10.5 4.5 9.25C4.5 8.615 4.75 8.045 5.18 7.635C5.065 7.365 5 7.065 5 6.75C5 5.5 6 4.5 7.25 4.5C8.03 4.5 8.72 4.9 9.125 5.5H9.25C9.61114 5.5 9.96873 5.57113 10.3024 5.70933C10.636 5.84753 10.9392 6.0501 11.1945 6.30546C11.4499 6.56082 11.6525 6.86398 11.7907 7.19762C11.9289 7.53127 12 7.88886 12 8.25C12 8.61114 11.9289 8.96873 11.7907 9.30238C11.6525 9.63602 11.4499 9.93918 11.1945 10.1945C10.9392 10.4499 10.636 10.6525 10.3024 10.7907C9.96873 10.9289 9.61114 11 9.25 11C9 11 8.75 10.965 8.5 10.895V13.5H7.5Z" fill="#205C32"/>
</svg>
