<svg width="24" height="24" viewBox="0 0 24 24" fill="none" xmlns="http://www.w3.org/2000/svg">
<path d="M20.9494 3.7567C20.9387 3.57322 20.861 3.40006 20.731 3.2701C20.6011 3.14013 20.4279 3.06242 20.2444 3.0517C13.1072 2.63264 7.39035 4.78139 4.95285 8.81264C4.10794 10.1916 3.69159 11.7905 3.7566 13.4064C3.79903 14.4397 4.00928 15.4593 4.3791 16.4251C4.40083 16.4846 4.43725 16.5376 4.48497 16.5791C4.53269 16.6207 4.59015 16.6495 4.65201 16.6629C4.71387 16.6763 4.7781 16.6738 4.83874 16.6557C4.89937 16.6375 4.95443 16.6043 4.99879 16.5592L12.9675 8.46858C13.0372 8.39889 13.1199 8.34362 13.211 8.30591C13.302 8.2682 13.3996 8.24878 13.4982 8.24878C13.5967 8.24878 13.6943 8.2682 13.7853 8.30591C13.8764 8.34362 13.9591 8.39889 14.0288 8.46858C14.0985 8.53826 14.1537 8.62098 14.1915 8.71203C14.2292 8.80307 14.2486 8.90066 14.2486 8.9992C14.2486 9.09775 14.2292 9.19533 14.1915 9.28637C14.1537 9.37742 14.0985 9.46014 14.0288 9.52983L5.32035 18.3695L3.99004 19.6998C3.85169 19.8345 3.76909 20.0163 3.75867 20.2092C3.74825 20.402 3.81076 20.5916 3.93379 20.7405C4.00116 20.8185 4.0839 20.8818 4.17683 20.9264C4.26976 20.971 4.3709 20.996 4.47391 20.9998C4.57693 21.0035 4.67962 20.9861 4.77558 20.9484C4.87153 20.9107 4.95868 20.8536 5.0316 20.7808L6.60566 19.2067C7.93129 19.848 9.2691 20.1976 10.5957 20.2445C10.7 20.2483 10.8041 20.2501 10.9079 20.2501C12.4185 20.254 13.9006 19.8379 15.1885 19.0483C19.2197 16.6108 21.3694 10.8948 20.9494 3.7567Z" fill="#205C32"/>
</svg>
