<svg width="13" height="7" viewBox="0 0 13 7" fill="none" xmlns="http://www.w3.org/2000/svg">
<path d="M1.16667 4C1.53333 4 1.83333 3.7 1.83333 3.33333C1.83333 2.96667 1.53333 2.66667 1.16667 2.66667C0.8 2.66667 0.5 2.96667 0.5 3.33333C0.5 3.7 0.8 4 1.16667 4ZM1.16667 6.66667C1.53333 6.66667 1.83333 6.36667 1.83333 6C1.83333 5.63333 1.53333 5.33333 1.16667 5.33333C0.8 5.33333 0.5 5.63333 0.5 6C0.5 6.36667 0.8 6.66667 1.16667 6.66667ZM1.16667 1.33333C1.53333 1.33333 1.83333 1.03333 1.83333 0.666667C1.83333 0.3 1.53333 0 1.16667 0C0.8 0 0.5 0.3 0.5 0.666667C0.5 1.03333 0.8 1.33333 1.16667 1.33333ZM3.83333 4H11.8333C12.2 4 12.5 3.7 12.5 3.33333C12.5 2.96667 12.2 2.66667 11.8333 2.66667H3.83333C3.46667 2.66667 3.16667 2.96667 3.16667 3.33333C3.16667 3.7 3.46667 4 3.83333 4ZM3.83333 6.66667H11.8333C12.2 6.66667 12.5 6.36667 12.5 6C12.5 5.63333 12.2 5.33333 11.8333 5.33333H3.83333C3.46667 5.33333 3.16667 5.63333 3.16667 6C3.16667 6.36667 3.46667 6.66667 3.83333 6.66667ZM3.16667 0.666667C3.16667 1.03333 3.46667 1.33333 3.83333 1.33333H11.8333C12.2 1.33333 12.5 1.03333 12.5 0.666667C12.5 0.3 12.2 0 11.8333 0H3.83333C3.46667 0 3.16667 0.3 3.16667 0.666667ZM1.16667 4C1.53333 4 1.83333 3.7 1.83333 3.33333C1.83333 2.96667 1.53333 2.66667 1.16667 2.66667C0.8 2.66667 0.5 2.96667 0.5 3.33333C0.5 3.7 0.8 4 1.16667 4ZM1.16667 6.66667C1.53333 6.66667 1.83333 6.36667 1.83333 6C1.83333 5.63333 1.53333 5.33333 1.16667 5.33333C0.8 5.33333 0.5 5.63333 0.5 6C0.5 6.36667 0.8 6.66667 1.16667 6.66667ZM1.16667 1.33333C1.53333 1.33333 1.83333 1.03333 1.83333 0.666667C1.83333 0.3 1.53333 0 1.16667 0C0.8 0 0.5 0.3 0.5 0.666667C0.5 1.03333 0.8 1.33333 1.16667 1.33333ZM3.83333 4H11.8333C12.2 4 12.5 3.7 12.5 3.33333C12.5 2.96667 12.2 2.66667 11.8333 2.66667H3.83333C3.46667 2.66667 3.16667 2.96667 3.16667 3.33333C3.16667 3.7 3.46667 4 3.83333 4ZM3.83333 6.66667H11.8333C12.2 6.66667 12.5 6.36667 12.5 6C12.5 5.63333 12.2 5.33333 11.8333 5.33333H3.83333C3.46667 5.33333 3.16667 5.63333 3.16667 6C3.16667 6.36667 3.46667 6.66667 3.83333 6.66667ZM3.16667 0.666667C3.16667 1.03333 3.46667 1.33333 3.83333 1.33333H11.8333C12.2 1.33333 12.5 1.03333 12.5 0.666667C12.5 0.3 12.2 0 11.8333 0H3.83333C3.46667 0 3.16667 0.3 3.16667 0.666667Z" fill="#205C32"/>
</svg>
