<svg width="20" height="20" viewBox="0 0 20 20" fill="none" xmlns="http://www.w3.org/2000/svg">
<g clip-path="url(#clip0_4781_29746)">
<path d="M5.00065 18.3334C4.54232 18.3334 4.1501 18.1703 3.82398 17.8442C3.49787 17.5181 3.33454 17.1256 3.33398 16.6667V8.33336C3.33398 7.87503 3.49732 7.48281 3.82398 7.1567C4.15065 6.83059 4.54287 6.66725 5.00065 6.6667H5.83398V5.00003C5.83398 3.84725 6.24037 2.86475 7.05315 2.05253C7.86593 1.24031 8.84843 0.833919 10.0007 0.833363C11.1529 0.832808 12.1357 1.2392 12.949 2.05253C13.7623 2.86586 14.1684 3.84836 14.1673 5.00003V6.6667H15.0007C15.459 6.6667 15.8515 6.83003 16.1782 7.1567C16.5048 7.48336 16.6679 7.87559 16.6673 8.33336V16.6667C16.6673 17.125 16.5043 17.5175 16.1782 17.8442C15.852 18.1709 15.4595 18.3339 15.0007 18.3334H5.00065ZM7.50065 6.6667H12.5007V5.00003C12.5007 4.30559 12.2576 3.71531 11.7715 3.2292C11.2854 2.74309 10.6951 2.50003 10.0007 2.50003C9.30621 2.50003 8.71593 2.74309 8.22982 3.2292C7.74371 3.71531 7.50065 4.30559 7.50065 5.00003V6.6667Z" fill="white"/>
</g>
<defs>
<clipPath id="clip0_4781_29746">
<rect width="20" height="20" fill="white"/>
</clipPath>
</defs>
</svg>
