<svg width="240" height="150" viewBox="0 0 24 15" fill="none" xmlns="http://www.w3.org/2000/svg">
<path d="M21.0588 4.76491L24 0.703613H20.083L18.8383 2.11264C18.6004 2.40618 18.5866 2.82751 18.8073 3.13487L19.9796 4.77873C20.2451 5.1517 20.7968 5.1448 21.0554 4.76491H21.0588Z" fill="#205C32"/>
<path d="M18.5451 6.6918L14.7592 1.3009C14.4937 0.924474 14.0662 0.699997 13.6076 0.699997H10.9009V3.79087H12.4215C12.6732 3.79087 12.9076 3.91174 13.049 4.11895L15.1661 7.13039C15.3212 7.35487 15.3212 7.65187 15.1661 7.87289L13.0593 10.8429C12.9318 11.0225 12.7214 11.133 12.5008 11.133H10.9043V14.2964H13.6662C14.1179 14.2964 14.5385 14.0754 14.7937 13.7058L18.552 8.30112C18.8899 7.81763 18.8865 7.17183 18.5486 6.6918H18.5451Z" fill="#205C32"/>
<path d="M4.05314 1.30797L0.239643 6.74031C-0.0775741 7.19272 -0.0810202 7.80053 0.236197 8.25639L3.98418 13.6507C4.26692 14.0582 4.7324 14.3 5.22547 14.3H7.91491V11.1366H6.4702C6.15298 11.1366 5.853 10.9812 5.67026 10.7187L3.74972 8.02846C3.53249 7.71419 3.53249 7.29977 3.74972 6.98896L5.70819 4.19854C5.88748 3.94644 6.17711 3.79448 6.48399 3.79448H7.91146V0.703613H5.21167C4.74964 0.703613 4.31519 0.92809 4.04969 1.30797H4.05314Z" fill="#205C32"/>
</svg>
