<svg width="200" height="200" viewBox="0 0 100 100" fill="none" xmlns="http://www.w3.org/2000/svg">
<path d="M79.2007 42.254L87.6569 30.0103H76.3951L72.8163 34.2581C72.1323 35.1431 72.0927 36.4133 72.7271 37.3399L76.0977 42.2957C76.8611 43.4201 78.4472 43.3993 79.1908 42.254H79.2007Z" fill="#ADFB4F"/>
<path d="M71.9783 48.0638L61.0932 31.8116C60.3299 30.6767 59.1006 30 57.7821 30H50V39.3182H54.3719C55.0956 39.3182 55.7697 39.6826 56.1761 40.3073L62.263 49.386C62.7091 50.0627 62.7091 50.9581 62.263 51.6245L56.2059 60.5782C55.8391 61.1196 55.2343 61.4528 54.5999 61.4528H50.0099V70.9896H57.9506C59.2493 70.9896 60.4588 70.3233 61.1924 69.2093L71.9981 52.9155C72.9696 51.4579 72.9597 49.5109 71.9882 48.0638H71.9783Z" fill="#050505"/>
<path d="M30.6534 31.8322L19.689 48.2094C18.777 49.5733 18.7671 51.4057 19.6791 52.78L30.4551 69.0425C31.268 70.2711 32.6063 70.9999 34.024 70.9999H41.7565V61.4631H37.6027C36.6907 61.4631 35.8282 60.9945 35.3028 60.2033L29.781 52.0928C29.1564 51.1454 29.1564 49.896 29.781 48.959L35.4118 40.5466C35.9274 39.7865 36.7601 39.3284 37.6424 39.3284H41.7466V30.0103H33.9843C32.6559 30.0103 31.4068 30.687 30.6434 31.8322H30.6534Z" fill="#050505"/>
</svg>
