<svg width="18" height="18" viewBox="0 0 18 18" fill="none" xmlns="http://www.w3.org/2000/svg">
<path fill-rule="evenodd" clip-rule="evenodd" d="M12.4373 9C12.4373 8.83424 12.3715 8.67527 12.2543 8.55806C12.137 8.44085 11.9781 8.375 11.8123 8.375H2.66815L4.30231 6.975C4.36469 6.92159 4.41594 6.85643 4.45313 6.78322C4.49033 6.71001 4.51273 6.63019 4.51908 6.54832C4.52542 6.46645 4.51558 6.38413 4.49011 6.30606C4.46465 6.22799 4.42405 6.15571 4.37065 6.09333C4.31724 6.03095 4.25208 5.9797 4.17887 5.94251C4.10566 5.90532 4.02584 5.88291 3.94397 5.87656C3.8621 5.87022 3.77978 5.88006 3.70171 5.90553C3.62364 5.931 3.55136 5.97159 3.48898 6.025L0.572314 8.525C0.503701 8.58367 0.448615 8.65651 0.410844 8.73851C0.373074 8.82051 0.353516 8.90972 0.353516 9C0.353516 9.09028 0.373074 9.17948 0.410844 9.26148C0.448615 9.34348 0.503701 9.41632 0.572314 9.475L3.48898 11.975C3.61496 12.0829 3.77862 12.1362 3.94397 12.1234C4.10931 12.1106 4.26279 12.0326 4.37065 11.9067C4.4785 11.7807 4.53189 11.617 4.51908 11.4517C4.50626 11.2863 4.42829 11.1329 4.30231 11.025L2.66898 9.625H11.8123C11.9781 9.625 12.137 9.55915 12.2543 9.44194C12.3715 9.32473 12.4373 9.16576 12.4373 9Z" fill="#1A1A1A"/>
<path d="M6.8125 5.66667C6.8125 6.25167 6.8125 6.54417 6.95333 6.75501C7.01399 6.84566 7.09185 6.92352 7.1825 6.98417C7.39333 7.12501 7.68583 7.12501 8.27083 7.12501H11.8125C12.3098 7.12501 12.7867 7.32255 13.1383 7.67418C13.49 8.02581 13.6875 8.50272 13.6875 9.00001C13.6875 9.49729 13.49 9.9742 13.1383 10.3258C12.7867 10.6775 12.3098 10.875 11.8125 10.875H8.27083C7.68583 10.875 7.39333 10.875 7.1825 11.015C7.09177 11.0759 7.0139 11.1541 6.95333 11.245C6.8125 11.4558 6.8125 11.7483 6.8125 12.3333C6.8125 14.69 6.8125 15.8692 7.545 16.6008C8.27667 17.3333 9.455 17.3333 11.8117 17.3333H12.645C15.0033 17.3333 16.1808 17.3333 16.9133 16.6008C17.6458 15.8692 17.6458 14.69 17.6458 12.3333V5.66667C17.6458 3.31001 17.6458 2.13084 16.9133 1.39917C16.1808 0.666672 15.0025 0.666672 12.6458 0.666672H11.8125C9.455 0.666672 8.27667 0.666672 7.545 1.39917C6.8125 2.13084 6.8125 3.31001 6.8125 5.66667Z" fill="#1A1A1A"/>
</svg>
