<svg width="49" height="48" viewBox="0 0 49 48" fill="none" xmlns="http://www.w3.org/2000/svg">
<path d="M47.3652 22.545L42.2933 21.2775C41.7173 17.4868 39.9441 13.9797 37.2329 11.2685C34.5217 8.55732 31.0146 6.78417 27.2239 6.20813L25.9564 1.14563C25.8751 0.821286 25.6878 0.533405 25.4242 0.327705C25.1606 0.122006 24.8358 0.0102844 24.5014 0.0102844C24.1671 0.0102844 23.8423 0.122006 23.5787 0.327705C23.315 0.533405 23.1277 0.821286 23.0464 1.14563L21.7789 6.2175C17.9883 6.79355 14.4811 8.5667 11.7699 11.2779C9.05876 13.9891 7.28561 17.4962 6.70956 21.2869L1.64706 22.5544C1.32272 22.6357 1.03484 22.823 0.82914 23.0866C0.623441 23.3502 0.511719 23.675 0.511719 24.0094C0.511719 24.3437 0.623441 24.6685 0.82914 24.9321C1.03484 25.1958 1.32272 25.3831 1.64706 25.4644L6.71894 26.7319C7.29498 30.5226 9.06813 34.0297 11.7793 36.7409C14.4905 39.4521 17.9976 41.2252 21.7883 41.8013L23.0558 46.8731C23.1371 47.1975 23.3244 47.4853 23.588 47.691C23.8517 47.8967 24.1764 48.0085 24.5108 48.0085C24.8452 48.0085 25.17 47.8967 25.4336 47.691C25.6972 47.4853 25.8845 47.1975 25.9658 46.8731L27.2333 41.8013C31.024 41.2252 34.5311 39.4521 37.2423 36.7409C39.9535 34.0297 41.7266 30.5226 42.3027 26.7319L47.3746 25.4644C47.6989 25.3831 47.9868 25.1958 48.1925 24.9321C48.3982 24.6685 48.5099 24.3437 48.5099 24.0094C48.5099 23.675 48.3982 23.3502 48.1925 23.0866C47.9868 22.823 47.6989 22.6357 47.3746 22.5544L47.3652 22.545ZM39.0833 20.4825L30.2389 18.2625L28.0264 9.41813C30.7091 10.0638 33.1612 11.438 35.1123 13.3891C37.0634 15.3402 38.4376 17.7923 39.0833 20.475V20.4825ZM20.9764 9.42L18.7639 18.2625L9.91956 20.475C10.5652 17.7923 11.9394 15.3402 13.8905 13.3891C15.8416 11.438 18.2938 10.0638 20.9764 9.41813V9.42ZM9.91394 27.5269L18.7639 29.7375L20.9764 38.5819C18.2938 37.9362 15.8416 36.562 13.8905 34.6109C11.9394 32.6598 10.5652 30.2077 9.91956 27.525L9.91394 27.5269ZM28.0208 38.5894L30.2333 29.745L39.0777 27.5325C38.4312 30.2131 37.0573 32.6632 35.1074 34.6128C33.1574 36.5624 30.7071 37.9359 28.0264 38.5819L28.0208 38.5894Z" fill="#1A1A1A"/>
</svg>
