<svg width="16" height="19" viewBox="0 0 16 19" fill="none" xmlns="http://www.w3.org/2000/svg">
<path d="M15.5 14.8333V15.6667H0.5V14.8333L2.16667 13.1667V8.16667C2.16667 5.58334 3.85833 3.30834 6.33333 2.57501V2.33334C6.33333 1.89131 6.50893 1.46739 6.82149 1.15483C7.13405 0.842266 7.55797 0.666672 8 0.666672C8.44203 0.666672 8.86595 0.842266 9.17851 1.15483C9.49107 1.46739 9.66667 1.89131 9.66667 2.33334V2.57501C12.1417 3.30834 13.8333 5.58334 13.8333 8.16667V13.1667L15.5 14.8333ZM9.66667 16.5C9.66667 16.942 9.49107 17.366 9.17851 17.6785C8.86595 17.9911 8.44203 18.1667 8 18.1667C7.55797 18.1667 7.13405 17.9911 6.82149 17.6785C6.50893 17.366 6.33333 16.942 6.33333 16.5" fill="#1A1A1A"/>
</svg>
