<svg width="16" height="12" viewBox="0 0 16 12" fill="none" xmlns="http://www.w3.org/2000/svg">
<path d="M15.4118 7.29416C15.5104 7.49177 15.5266 7.72047 15.4568 7.93001C15.3869 8.13955 15.2368 8.31279 15.0393 8.41166L8.37259 11.745C8.25692 11.8028 8.12939 11.8329 8.00009 11.8329C7.87078 11.8329 7.74325 11.8028 7.62759 11.745L0.960921 8.41166C0.770314 8.30888 0.627205 8.13593 0.561907 7.92946C0.49661 7.72298 0.514252 7.4992 0.611099 7.3055C0.707945 7.11181 0.876387 6.96343 1.08075 6.89178C1.2851 6.82013 1.50933 6.83085 1.70592 6.92166L8.00009 10.0667L14.2951 6.92083C14.4927 6.82215 14.7214 6.80595 14.9309 6.8758C15.1405 6.94564 15.3137 7.09582 15.4126 7.29333M8.00675 0.166664C8.03787 0.166664 8.0687 0.168609 8.09925 0.172497L8.19175 0.189164L8.26342 0.209164L8.27342 0.214164L8.28342 0.215831L8.30759 0.227497L8.34925 0.243331L8.36259 0.250831L8.37259 0.254997L15.0393 3.58833C15.1775 3.65761 15.2937 3.76399 15.3749 3.89556C15.4562 4.02713 15.4992 4.17871 15.4992 4.33333C15.4992 4.48796 15.4562 4.63953 15.3749 4.7711C15.2937 4.90267 15.1775 5.00905 15.0393 5.07833L8.37259 8.41166C8.25692 8.46946 8.12939 8.49955 8.00009 8.49955C7.87078 8.49955 7.74325 8.46946 7.62759 8.41166L0.960921 5.07833C0.822686 5.00905 0.706454 4.90267 0.625225 4.7711C0.543997 4.63953 0.500977 4.48796 0.500977 4.33333C0.500977 4.17871 0.543997 4.02713 0.625225 3.89556C0.706454 3.76399 0.822686 3.65761 0.960921 3.58833L7.62759 0.254997L7.63675 0.250831L7.65175 0.242498L7.71675 0.215831L7.72592 0.214164L7.73675 0.209164L7.80842 0.189164L7.90009 0.172497L7.94675 0.168331L8.00675 0.166664Z" fill="#1A1A1A"/>
</svg>
