<svg width="22" height="22" viewBox="0 0 22 22" fill="none" xmlns="http://www.w3.org/2000/svg">
<path d="M8 8.75C7.85166 8.75 7.70666 8.70601 7.58332 8.6236C7.45999 8.54119 7.36386 8.42406 7.30709 8.28701C7.25032 8.14997 7.23547 7.99917 7.26441 7.85368C7.29335 7.7082 7.36478 7.57456 7.46967 7.46967C7.57456 7.36478 7.7082 7.29335 7.85368 7.26441C7.99917 7.23547 8.14997 7.25032 8.28701 7.30709C8.42406 7.36386 8.54119 7.45999 8.6236 7.58332C8.70601 7.70666 8.75 7.85166 8.75 8C8.75 8.19891 8.67098 8.38968 8.53033 8.53033C8.38968 8.67098 8.19891 8.75 8 8.75ZM14 13.25C13.8517 13.25 13.7067 13.294 13.5833 13.3764C13.46 13.4588 13.3639 13.5759 13.3071 13.713C13.2503 13.85 13.2355 14.0008 13.2644 14.1463C13.2934 14.2918 13.3648 14.4254 13.4697 14.5303C13.5746 14.6352 13.7082 14.7066 13.8537 14.7356C13.9992 14.7645 14.15 14.7497 14.287 14.6929C14.4241 14.6361 14.5412 14.54 14.6236 14.4167C14.706 14.2933 14.75 14.1483 14.75 14C14.75 13.8011 14.671 13.6103 14.5303 13.4697C14.3897 13.329 14.1989 13.25 14 13.25ZM21.5 11C21.5 11.9788 20.7959 12.7128 20.1744 13.3606C19.8209 13.73 19.4553 14.1106 19.3175 14.4453C19.19 14.7519 19.1825 15.26 19.175 15.7522C19.1609 16.6672 19.1459 17.7041 18.425 18.425C17.7041 19.1459 16.6672 19.1609 15.7522 19.175C15.26 19.1825 14.7519 19.19 14.4453 19.3175C14.1106 19.4553 13.73 19.8209 13.3606 20.1744C12.7128 20.7959 11.9788 21.5 11 21.5C10.0212 21.5 9.28719 20.7959 8.63937 20.1744C8.27 19.8209 7.88938 19.4553 7.55469 19.3175C7.24813 19.19 6.74 19.1825 6.24781 19.175C5.33281 19.1609 4.29594 19.1459 3.575 18.425C2.85406 17.7041 2.83906 16.6672 2.825 15.7522C2.8175 15.26 2.81 14.7519 2.6825 14.4453C2.54469 14.1106 2.17906 13.73 1.82562 13.3606C1.20406 12.7128 0.5 11.9788 0.5 11C0.5 10.0212 1.20406 9.28719 1.82562 8.63937C2.17906 8.27 2.54469 7.88938 2.6825 7.55469C2.81 7.24813 2.8175 6.74 2.825 6.24781C2.83906 5.33281 2.85406 4.29594 3.575 3.575C4.29594 2.85406 5.33281 2.83906 6.24781 2.825C6.74 2.8175 7.24813 2.81 7.55469 2.6825C7.88938 2.54469 8.27 2.17906 8.63937 1.82562C9.28719 1.20406 10.0212 0.5 11 0.5C11.9788 0.5 12.7128 1.20406 13.3606 1.82562C13.73 2.17906 14.1106 2.54469 14.4453 2.6825C14.7519 2.81 15.26 2.8175 15.7522 2.825C16.6672 2.83906 17.7041 2.85406 18.425 3.575C19.1459 4.29594 19.1609 5.33281 19.175 6.24781C19.1825 6.74 19.19 7.24813 19.3175 7.55469C19.4553 7.88938 19.8209 8.27 20.1744 8.63937C20.7959 9.28719 21.5 10.0212 21.5 11ZM8 10.25C8.44501 10.25 8.88002 10.118 9.25003 9.87081C9.62004 9.62357 9.90843 9.27217 10.0787 8.86104C10.249 8.4499 10.2936 7.9975 10.2068 7.56105C10.12 7.12459 9.90566 6.72368 9.59099 6.40901C9.27632 6.09434 8.87541 5.88005 8.43895 5.79323C8.0025 5.70642 7.5501 5.75097 7.13896 5.92127C6.72783 6.09157 6.37643 6.37996 6.12919 6.74997C5.88196 7.11998 5.75 7.55499 5.75 8C5.75 8.59674 5.98705 9.16903 6.40901 9.59099C6.83097 10.0129 7.40326 10.25 8 10.25ZM15.2806 7.78063C15.3503 7.71094 15.4056 7.62822 15.4433 7.53717C15.481 7.44613 15.5004 7.34855 15.5004 7.25C15.5004 7.15145 15.481 7.05387 15.4433 6.96283C15.4056 6.87178 15.3503 6.78906 15.2806 6.71937C15.2109 6.64969 15.1282 6.59442 15.0372 6.5567C14.9461 6.51899 14.8485 6.49958 14.75 6.49958C14.6515 6.49958 14.5539 6.51899 14.4628 6.5567C14.3718 6.59442 14.2891 6.64969 14.2194 6.71937L6.71937 14.2194C6.64969 14.2891 6.59442 14.3718 6.5567 14.4628C6.51899 14.5539 6.49958 14.6515 6.49958 14.75C6.49958 14.8485 6.51899 14.9461 6.5567 15.0372C6.59442 15.1282 6.64969 15.2109 6.71937 15.2806C6.86011 15.4214 7.05098 15.5004 7.25 15.5004C7.34855 15.5004 7.44613 15.481 7.53717 15.4433C7.62822 15.4056 7.71094 15.3503 7.78063 15.2806L15.2806 7.78063ZM16.25 14C16.25 13.555 16.118 13.12 15.8708 12.75C15.6236 12.38 15.2722 12.0916 14.861 11.9213C14.4499 11.751 13.9975 11.7064 13.561 11.7932C13.1246 11.88 12.7237 12.0943 12.409 12.409C12.0943 12.7237 11.88 13.1246 11.7932 13.561C11.7064 13.9975 11.751 14.4499 11.9213 14.861C12.0916 15.2722 12.38 15.6236 12.75 15.8708C13.12 16.118 13.555 16.25 14 16.25C14.5967 16.25 15.169 16.0129 15.591 15.591C16.0129 15.169 16.25 14.5967 16.25 14Z" fill="white"/>
</svg>
