<svg width="24" height="28" viewBox="0 0 24 28" fill="none" xmlns="http://www.w3.org/2000/svg">
<path d="M12.936 0.926696L22.2693 4.4267C22.7777 4.61727 23.2159 4.9585 23.5251 5.40477C23.8344 5.85104 24.0001 6.38107 24 6.92403V14.0747C24 16.3033 23.3795 18.4878 22.2079 20.3836C21.0363 22.2793 19.3599 23.8114 17.3667 24.808L12.8947 27.0427C12.6169 27.1816 12.3106 27.254 12 27.254C11.6894 27.254 11.3831 27.1816 11.1053 27.0427L6.63333 24.8067C4.64005 23.81 2.96369 22.278 1.79209 20.3822C0.620495 18.4865 -4.75427e-05 16.3019 5.20216e-07 14.0734V6.92536C-0.000338679 6.38218 0.165207 5.85185 0.474491 5.40532C0.783775 4.95879 1.22204 4.61735 1.73067 4.4267L11.064 0.926696C11.6675 0.700475 12.3325 0.700475 12.936 0.926696ZM12 8.6667C11.6734 8.66674 11.3582 8.78664 11.1142 9.00365C10.8701 9.22066 10.7142 9.51969 10.676 9.84403L10.6667 10V12.6667H8C7.66016 12.6671 7.33329 12.7972 7.08618 13.0305C6.83906 13.2638 6.69035 13.5826 6.67044 13.9219C6.65052 14.2611 6.7609 14.5952 6.97902 14.8558C7.19714 15.1164 7.50654 15.2839 7.844 15.324L8 15.3334H10.6667V18C10.667 18.3399 10.7972 18.6667 11.0305 18.9139C11.2638 19.161 11.5826 19.3097 11.9219 19.3296C12.2611 19.3495 12.5952 19.2391 12.8558 19.021C13.1164 18.8029 13.2839 18.4935 13.324 18.156L13.3333 18V15.3334H16C16.3398 15.333 16.6667 15.2029 16.9138 14.9696C17.1609 14.7363 17.3096 14.4174 17.3296 14.0782C17.3495 13.7389 17.2391 13.4049 17.021 13.1443C16.8029 12.8836 16.4935 12.7162 16.156 12.676L16 12.6667H13.3333V10C13.3333 9.64641 13.1929 9.30727 12.9428 9.05722C12.6928 8.80717 12.3536 8.6667 12 8.6667Z" fill="white"/>
</svg>
