<svg width="48" height="48" viewBox="0 0 48 48" fill="none" xmlns="http://www.w3.org/2000/svg">
<g clip-path="url(#clip0_4781_31221)">
<path d="M15.1797 41.3963L15.4898 44.7817L17.9699 44.2233V41.127L15.1797 41.3963Z" fill="#E9EFEB"/>
<path d="M2.27344 41.5735V44.3352H4.72547L5.11968 41.8804L2.27344 41.5735Z" fill="#E9EFEB"/>
<path d="M0.837891 34.2102L1.25741 41.1269H18.777L19.55 36.5477L18.447 33.8872L0.837891 34.2102Z" fill="#E9EFEB"/>
<path d="M4.61168 28.4641L2.08008 33.8872L18.1431 34.2102L15.6115 28.3522L4.61168 28.4641Z" fill="#E9EFEB"/>
<path d="M33.5279 12.6207H31.6816V14.8803H33.5279V12.6207Z" fill="#E9EFEB"/>
<path d="M20.0992 19.4631C20.1308 19.3922 20.1448 19.3147 20.1399 19.2373C20.135 19.1598 20.1114 19.0847 20.0711 19.0182C20.0308 18.9516 19.975 18.8956 19.9083 18.8549C19.8416 18.8141 19.766 18.7898 19.6878 18.7839C17.6427 18.6371 15.7458 18.1405 14.2241 16.8447C12.1374 15.0665 10.2233 13.0861 8.2631 11.1701C8.06781 10.9786 7.99186 10.5911 7.99186 10.294C7.97016 8.02718 7.99186 5.75949 7.97287 3.4927C7.96293 2.71324 8.29475 2.38213 9.08135 2.40539C10.0759 2.43403 11.0786 2.44208 12.075 2.40539C12.7892 2.37676 13.1355 2.67834 13.3272 3.34236C13.8823 5.26729 14.5026 7.17433 15.0541 9.09927C15.2123 9.64695 15.4158 9.90468 16.0604 9.88768C17.5604 9.84204 19.0631 9.86352 20.6426 9.86889C20.717 9.86924 20.7904 9.85281 20.8574 9.82085C20.9244 9.78888 20.9831 9.74222 21.0292 9.68442C21.0752 9.62661 21.1073 9.55918 21.123 9.48725C21.1388 9.41532 21.1377 9.34078 21.12 9.2693C20.7846 7.91352 20.4645 6.6186 20.1453 5.32367C19.8741 4.20862 20.0866 4.02606 21.1887 3.88467C22.8234 3.67526 23.8858 4.20057 24.6037 5.71833C25.1715 6.91929 26.0394 7.97796 26.7013 9.14044C27.0412 9.73644 27.4589 9.89931 28.1181 9.88589C29.8784 9.84741 31.6442 9.86262 33.4028 9.89573C35.36 9.91653 37.2478 10.6164 38.7372 11.8735C39.8819 12.8221 40.9216 13.9004 41.9523 14.9734C42.616 15.6643 42.7371 16.5332 42.3339 17.4058C41.9017 18.3436 41.107 18.7875 40.0735 18.792C37.6658 18.8018 35.2581 18.792 32.8503 18.7964C30.854 18.7964 28.8567 18.8152 26.8604 18.7839C26.3071 18.7759 25.9563 18.9217 25.6362 19.396C24.5594 20.989 23.4174 22.5389 22.3234 24.1211C21.9563 24.6518 21.5558 24.8639 20.9148 24.5954C20.3768 24.3708 19.8072 24.216 19.2484 24.0433C18.5251 23.8195 18.3488 23.3685 18.6481 22.7009C19.1282 21.6404 19.6038 20.571 20.0992 19.4631ZM11.7223 11.3338C11.6258 11.3341 11.5315 11.3626 11.4512 11.4157C11.3709 11.4689 11.3083 11.5443 11.2712 11.6326C11.2342 11.7208 11.2242 11.8179 11.2427 11.9117C11.2612 12.0056 11.3073 12.0919 11.3752 12.1598C12.301 13.0834 13.1419 13.9282 13.9972 14.7551C15.7376 16.4339 17.828 17.2671 20.2647 17.2858C20.8289 17.2903 21.233 17.2008 21.3931 16.6057C21.5667 15.9605 22.026 15.7869 22.6643 15.8066C23.7782 15.8406 24.8948 15.7958 26.0096 15.8272C26.43 15.8388 26.9626 15.8451 27.232 16.0858C27.3839 16.2227 27.4011 16.5055 27.4128 16.8098C27.4184 16.9342 27.4723 17.0518 27.5632 17.138C27.6542 17.2242 27.7752 17.2723 27.9011 17.2724C31.9326 17.2724 36.0031 17.2724 40.0744 17.2724C40.1911 17.2724 40.3701 17.293 40.4135 17.2313C40.6223 16.9306 40.956 16.5995 40.9469 16.2898C40.9252 15.6634 39.1784 14.3121 38.5256 14.3112C36.824 14.3076 35.1222 14.3076 33.42 14.3112H32.5538C32.4241 14.3112 32.2996 14.2602 32.2079 14.1694C32.1162 14.0786 32.0646 13.9554 32.0646 13.827V13.2964C32.0646 13.168 32.1162 13.0448 32.2079 12.954C32.2996 12.8632 32.4241 12.8122 32.5538 12.8122H35.5519C36.0944 12.8122 36.2354 12.0712 35.7327 11.8771C34.7449 11.5052 33.6946 11.323 32.6379 11.3401C26.2709 11.3401 19.9039 11.3401 13.537 11.3401L11.7223 11.3338ZM13.0388 9.81251C13.1149 9.81256 13.1901 9.79501 13.2582 9.76125C13.3263 9.72749 13.3855 9.67845 13.431 9.61805C13.4766 9.55764 13.5073 9.48754 13.5207 9.41332C13.534 9.3391 13.5297 9.26282 13.508 9.19055C13.0117 7.53766 12.537 5.94205 12.0379 4.35807C11.9827 4.18357 11.7459 3.95537 11.5804 3.94373C11.0551 3.90794 10.5271 3.91599 9.99092 3.92136C9.86197 3.92254 9.73872 3.97407 9.64796 4.06473C9.55721 4.1554 9.50629 4.27787 9.5063 4.4055V9.32747C9.5063 9.45587 9.55783 9.57902 9.64956 9.66981C9.7413 9.76061 9.86571 9.81161 9.99544 9.81161L13.0388 9.81251ZM24.7673 18.0456C24.8184 17.9733 24.8486 17.8885 24.8545 17.8004C24.8604 17.7123 24.8419 17.6243 24.8009 17.5458C24.76 17.4674 24.6981 17.4016 24.6221 17.3554C24.546 17.3093 24.4587 17.2846 24.3695 17.2841C23.9509 17.2841 23.5847 17.2841 23.2203 17.3011C23.0187 17.3118 22.7149 17.412 22.6462 17.5579C21.9039 19.1428 21.1914 20.742 20.4835 22.3188C20.4556 22.3791 20.4407 22.4445 20.4397 22.5109C20.4387 22.5772 20.4516 22.643 20.4776 22.7041C20.5036 22.7653 20.5422 22.8204 20.5908 22.8661C20.6394 22.9117 20.6971 22.9469 20.7602 22.9694C21.1001 23.0848 21.3596 22.9497 21.6028 22.5479C21.9771 21.9295 22.431 21.3586 22.8487 20.7661L24.7673 18.0456ZM23.214 9.79819H24.4798C24.567 9.79837 24.6528 9.77546 24.728 9.73182C24.8033 9.68818 24.8654 9.6254 24.908 9.54999C24.9505 9.47459 24.9719 9.3893 24.9699 9.30297C24.9679 9.21663 24.9426 9.1324 24.8966 9.059C24.1597 7.88131 23.4653 6.7591 22.7267 5.66463C22.7023 5.62962 22.6716 5.5993 22.6363 5.57514C22.2746 5.32457 21.7927 5.67895 21.9003 6.10224L22.7429 9.43307C22.7697 9.53687 22.8304 9.62899 22.9156 9.69504C23.0009 9.7611 23.1058 9.79736 23.214 9.79819Z" fill="#205C32"/>
<path d="M40.5306 30.9564C42.0107 30.9564 43.3579 30.9769 44.7042 30.9474C45.2783 30.934 45.6354 31.1398 45.8841 31.6481C46.5224 32.9538 47.1887 34.2433 47.8424 35.5418C47.8922 35.6141 47.9264 35.6957 47.9428 35.7817C47.9735 37.9527 48.0124 40.1238 47.9952 42.2939C47.9952 42.4729 47.6281 42.7038 47.3867 42.8129C47.1896 42.9024 46.9238 42.8639 46.6915 42.8452C45.7105 42.7664 45.0025 42.8854 44.3542 43.9038C43.1933 45.7285 40.4375 45.4252 39.4213 43.4814C39.1627 42.9865 38.8987 42.8219 38.3589 42.8371C37.0397 42.8747 35.7188 42.8622 34.3987 42.8425C33.953 42.8353 33.6655 42.9096 33.4539 43.3794C32.9539 44.4846 32.0254 45.0654 30.8075 45.0797C29.5516 45.0869 28.6611 44.4605 28.0417 43.3866C27.8962 43.1342 27.5074 42.9078 27.2081 42.8756C26.5065 42.8153 25.8012 42.8096 25.0987 42.8586C24.2217 42.9024 23.9875 42.438 23.9903 41.6728C24.002 38.3617 23.9948 35.0505 23.9948 31.7394C23.9948 30.8391 24.0011 29.9389 23.9948 29.0386C23.9894 28.3325 24.2823 27.9737 25.0463 27.9754C29.8575 27.9886 34.6688 27.9886 39.48 27.9754C40.2286 27.9754 40.5578 28.2878 40.5343 29.0207C40.5153 29.6256 40.5306 30.2315 40.5306 30.9564ZM39.0008 29.5245H25.5734V41.3784C26.039 41.3784 26.4477 41.348 26.8501 41.3856C27.4893 41.4437 27.8898 41.2862 28.2063 40.6401C28.709 39.6298 29.6475 39.1411 30.8012 39.1555C31.9928 39.1698 32.8445 39.7524 33.4349 40.7609C33.5687 40.9882 33.7803 41.339 33.9638 41.3435C35.6248 41.3891 37.2884 41.3704 38.9972 41.3704L39.0008 29.5245ZM40.5677 32.492V39.44C40.8335 39.3667 41.0514 39.3031 41.2711 39.2459C42.5369 38.9138 43.9836 39.364 44.526 40.5309C44.9871 41.5198 45.6408 41.4124 46.4862 41.3211V36.9003C45.3895 36.9003 44.3407 36.9003 43.291 36.9003C42.2123 36.8949 42.0622 36.75 42.0559 35.6958C42.0496 34.6416 42.0559 33.5748 42.0559 32.4929L40.5677 32.492ZM30.7966 40.6356C30.3988 40.6325 30.0157 40.7847 29.7305 41.0593C29.4453 41.3339 29.281 41.7087 29.2732 42.1024C29.2737 42.4811 29.422 42.845 29.6869 43.1182C29.9518 43.3915 30.3131 43.553 30.6954 43.5691C30.8917 43.5825 31.0888 43.5561 31.2745 43.4916C31.4602 43.427 31.6306 43.3256 31.7753 43.1936C31.9201 43.0615 32.0361 42.9017 32.1162 42.7237C32.1964 42.5458 32.239 42.3536 32.2415 42.1588C32.2499 41.9644 32.219 41.7704 32.1506 41.5881C32.0821 41.4057 31.9775 41.2388 31.8428 41.0971C31.7082 40.9554 31.5463 40.8418 31.3666 40.763C31.1869 40.6842 30.9931 40.6418 30.7966 40.6383V40.6356ZM42.0876 40.6356C41.6899 40.6286 41.3055 40.7771 41.0178 41.0489C40.73 41.3206 40.5621 41.6937 40.5505 42.0872C40.5476 42.4656 40.6922 42.8306 40.9543 43.1063C41.2163 43.382 41.5755 43.5471 41.9574 43.5673C42.8118 43.6103 43.4872 43.008 43.5188 42.1731C43.5292 41.9788 43.5001 41.7843 43.4333 41.6013C43.3665 41.4183 43.2634 41.2504 43.13 41.1074C42.9966 40.9645 42.8356 40.8494 42.6566 40.769C42.4776 40.6886 42.2841 40.6444 42.0876 40.6392V40.6356ZM43.5794 35.3324H46.0405C45.6246 34.5055 45.2222 33.8022 44.9112 33.0612C44.63 32.3909 44.2014 32.3291 43.5794 32.5538V35.3324Z" fill="#205C32"/>
<path d="M10.5469 11.3338H13.5414C19.9084 11.3338 26.2753 11.3338 32.6423 11.3338C34.3159 11.3338 35.8728 11.7025 37.4957 12.8095H32.0709V14.3085H33.4271C35.1287 14.3085 36.8306 14.3085 38.5328 14.3085C39.1856 14.3085 40.9324 15.6562 40.9541 16.2871C40.964 16.5968 40.6295 16.9279 40.4206 17.2286C40.3772 17.2903 40.1982 17.2697 40.0816 17.2697C35.8583 17.2697 31.6351 17.2697 27.4552 17.2697C27.3892 16.8276 27.4661 16.2853 27.2373 16.0831C26.9661 15.8424 26.4354 15.8361 26.0149 15.8245C24.901 15.7931 23.7844 15.8379 22.6696 15.8039C22.0313 15.7842 21.572 15.9578 21.3984 16.603C21.2384 17.1981 20.8342 17.2876 20.27 17.2831C17.8334 17.2644 15.743 16.4312 14.0025 14.7524C12.894 13.6883 11.8145 12.593 10.5469 11.3338ZM30.4706 14.27C30.4706 13.7429 29.5022 12.9142 29.0637 12.9142V14.27H30.4706Z" fill="#E9EFEB"/>
<path d="M13.6947 9.81159H9.50586V3.92134C10.2093 3.92134 10.8973 3.89449 11.58 3.94103C11.7454 3.95266 11.9823 4.18086 12.0375 4.35537C12.5989 6.13981 13.1297 7.93498 13.6947 9.81159Z" fill="#E9EFEB"/>
<path d="M25.3002 17.2858L22.8482 20.7625C22.4305 21.3549 21.9766 21.9259 21.6023 22.5443C21.2614 23.1081 20.8889 23.1465 20.3066 22.7062C21.0734 21.0059 21.8437 19.2707 22.6457 17.5543C22.7144 17.4084 23.0182 17.3082 23.2198 17.2974C23.8301 17.2643 24.4431 17.2858 25.3002 17.2858Z" fill="#E9EFEB"/>
<path d="M22.8325 9.79817L21.6797 5.2449C22.1679 5.43104 22.5838 5.457 22.7249 5.66461C23.6136 6.98549 24.4427 8.34932 25.3559 9.79817H22.8325Z" fill="#E9EFEB"/>
<path d="M39.0019 29.5272V41.3703C37.2931 41.3703 35.6295 41.3891 33.9686 41.3435C33.7877 41.339 33.5735 40.9855 33.4396 40.7609C32.8492 39.7524 31.9975 39.1698 30.8059 39.1555C29.6522 39.1411 28.7137 39.6298 28.211 40.6401C27.8909 41.2862 27.4877 41.4455 26.8548 41.3856C26.4524 41.348 26.041 41.3784 25.5781 41.3784V29.5272H39.0019Z" fill="#E9EFEB"/>
<path d="M40.5681 32.4947H42.0527C42.0527 33.5766 42.0472 34.6371 42.0527 35.6975C42.0581 36.758 42.2091 36.8967 43.2877 36.9021C44.3374 36.9021 45.3862 36.9021 46.483 36.9021V41.3283C45.6376 41.4178 44.9839 41.5269 44.5228 40.5381C43.9803 39.3747 42.5382 38.921 41.2679 39.253C41.0482 39.3103 40.8303 39.3738 40.5645 39.4472L40.5681 32.4947Z" fill="#E9EFEB"/>
<path d="M30.7971 40.6383C30.9938 40.6416 31.1878 40.6839 31.3678 40.7626C31.5477 40.8414 31.7099 40.955 31.8448 41.0968C31.9796 41.2386 32.0844 41.4057 32.1529 41.5883C32.2214 41.7708 32.2523 41.9651 32.2437 42.1597C32.2412 42.3545 32.1986 42.5467 32.1184 42.7246C32.0383 42.9026 31.9223 43.0624 31.7776 43.1945C31.6328 43.3265 31.4624 43.4279 31.2767 43.4925C31.091 43.5571 30.894 43.5835 30.6976 43.57C30.3153 43.5539 29.9541 43.3924 29.6891 43.1192C29.4242 42.8459 29.276 42.482 29.2754 42.1033C29.2837 41.7102 29.448 41.3361 29.7327 41.062C30.0175 40.7879 30.3998 40.6357 30.7971 40.6383Z" fill="#E9EFEB"/>
<path d="M42.0888 40.6392C42.2855 40.6446 42.4792 40.6889 42.6584 40.7696C42.8376 40.8502 42.9986 40.9657 43.132 41.109C43.2653 41.2523 43.3683 41.4206 43.4348 41.604C43.5013 41.7874 43.53 41.9821 43.5191 42.1767C43.4875 43.0116 42.8121 43.6139 41.9577 43.5709C41.5758 43.5507 41.2166 43.3856 40.9546 43.1099C40.6925 42.8342 40.5479 42.4692 40.5508 42.0908C40.5624 41.6971 40.7304 41.3239 41.0184 41.0521C41.3063 40.7804 41.691 40.632 42.0888 40.6392Z" fill="#E9EFEB"/>
<path d="M43.5801 35.3324V32.5582C44.2021 32.3336 44.6307 32.3954 44.9119 33.0657C45.2229 33.8066 45.6252 34.51 46.0412 35.3369L43.5801 35.3324Z" fill="#E9EFEB"/>
<path d="M24.1442 12.8829H23.3549C23.1826 12.8829 23.043 13.0211 23.043 13.1916V13.938C23.043 14.1085 23.1826 14.2467 23.3549 14.2467H24.1442C24.3165 14.2467 24.4561 14.1085 24.4561 13.938V13.1916C24.4561 13.0211 24.3165 12.8829 24.1442 12.8829Z" fill="#205C32"/>
<path d="M27.1746 12.908H26.3627C26.1904 12.908 26.0508 13.0462 26.0508 13.2167V13.9326C26.0508 14.1031 26.1904 14.2414 26.3627 14.2414H27.1746C27.3469 14.2414 27.4866 14.1031 27.4866 13.9326V13.2167C27.4866 13.0462 27.3469 12.908 27.1746 12.908Z" fill="#205C32"/>
<path d="M30.4702 14.27H29.0625V12.9142H30.1574C30.1984 12.9142 30.2389 12.9222 30.2768 12.9377C30.3146 12.9532 30.349 12.976 30.378 13.0046C30.4069 13.0333 30.4299 13.0673 30.4456 13.1048C30.4613 13.1423 30.4693 13.1824 30.4693 13.223L30.4702 14.27Z" fill="#205C32"/>
<path d="M18.1331 12.9053H17.351C17.1787 12.9053 17.0391 13.0435 17.0391 13.214V13.9362C17.0391 14.1067 17.1787 14.2449 17.351 14.2449H18.1331C18.3053 14.2449 18.445 14.1067 18.445 13.9362V13.214C18.445 13.0435 18.3053 12.9053 18.1331 12.9053Z" fill="#205C32"/>
<path d="M21.1347 12.899H20.349C20.1768 12.899 20.0371 13.0372 20.0371 13.2078V13.9434C20.0371 14.1139 20.1768 14.2521 20.349 14.2521H21.1347C21.307 14.2521 21.4467 14.1139 21.4467 13.9434V13.2078C21.4467 13.0372 21.307 12.899 21.1347 12.899Z" fill="#205C32"/>
<path d="M14.3958 42.0281H5.63831C5.63831 42.54 5.63831 43.0504 5.63831 43.5593C5.63831 44.6913 5.20613 45.1155 4.05245 45.1155C3.55788 45.1155 3.05789 45.12 2.56694 45.1155C1.78667 45.1057 1.26769 44.5983 1.25774 43.8305C1.25051 43.289 1.2478 42.7476 1.25774 42.2062C1.26968 42.1197 1.25204 42.0318 1.20763 41.9564C1.16323 41.881 1.09462 41.8224 1.01272 41.7901C0.346369 41.4402 0.00821956 40.871 0.00550714 40.1238C8.22853e-05 38.4861 -0.00353428 36.8475 0.00550714 35.2098C0.010932 34.4456 0.385247 33.8845 1.07059 33.5373C1.53441 33.3028 1.55882 33.2867 1.70349 32.7319C1.36172 32.7319 1.02628 32.7381 0.690847 32.7319C0.273133 32.722 -0.001726 32.4634 0.00821956 32.0965C0.0181651 31.7296 0.279462 31.5041 0.685422 31.496C1.12755 31.487 1.57148 31.479 2.01361 31.496C2.24959 31.5067 2.35447 31.4146 2.44217 31.2105C2.76404 30.4642 3.10762 29.7277 3.43673 28.9849C3.79838 28.1625 4.43128 27.7714 5.34175 27.7732C8.45683 27.778 11.5716 27.778 14.6861 27.7732C15.6092 27.7732 16.2466 28.1714 16.6128 29.0108C16.9383 29.7554 17.2855 30.491 17.6073 31.2374C17.6923 31.4351 17.7999 31.5058 18.0142 31.496C18.4572 31.4799 18.9003 31.4853 19.3433 31.496C19.7637 31.5041 20.0377 31.7645 20.0304 32.1269C20.0232 32.4768 19.7592 32.722 19.3578 32.7328C19.0214 32.7417 18.6842 32.7328 18.3162 32.7328C18.4319 33.1077 18.5549 33.3825 18.9491 33.5489C19.6408 33.838 20.0133 34.4205 20.0214 35.1678C20.0395 36.8442 20.0395 38.5207 20.0214 40.1971C20.0142 40.9131 19.6597 41.4554 19.0223 41.7892C18.8316 41.8894 18.7656 41.9941 18.771 42.2017C18.7854 42.7387 18.7818 43.2855 18.771 43.8269C18.7601 44.5974 18.2457 45.1075 17.4663 45.1164C16.8669 45.1236 16.2674 45.1254 15.668 45.1164C14.9157 45.1048 14.4022 44.5884 14.3913 43.8385C14.3895 43.2452 14.3958 42.6545 14.3958 42.0281ZM10.0162 34.5879H2.07961C1.4657 34.5879 1.26046 34.791 1.25955 35.3987C1.25955 36.9206 1.25955 38.4419 1.25955 39.9627C1.25955 40.5676 1.46841 40.7744 2.08051 40.7744H17.9572C18.5712 40.7744 18.7773 40.5694 18.7773 39.9627C18.7773 38.4533 18.7773 36.9439 18.7773 35.4345C18.7773 34.7767 18.582 34.5852 17.9166 34.5852L10.0162 34.5879ZM17.1589 33.3288C17.0974 33.1766 17.0549 33.0603 17.0034 32.944C16.5025 31.8262 15.988 30.713 15.5034 29.5881C15.3226 29.1737 15.064 29.0064 14.6074 29.0082C11.5442 29.0219 8.48124 29.0219 5.41861 29.0082C4.9593 29.0082 4.70433 29.1871 4.52712 29.5943C4.0425 30.7201 3.53257 31.8316 3.02715 32.9511C2.97561 33.0648 2.93674 33.1829 2.87525 33.3288H17.1589ZM2.53982 42.0335V43.8537H4.35986V42.0335H2.53982ZM15.6815 42.0335V43.8537H17.4998V42.0335H15.6815Z" fill="#205C32"/>
<path d="M4.37648 39.5385C4.00445 39.5369 3.6413 39.4258 3.33314 39.2195C3.02499 39.0132 2.78573 38.7209 2.64575 38.3797C2.50577 38.0386 2.47137 37.6639 2.54694 37.3033C2.62251 36.9428 2.80462 36.6126 3.07016 36.3547C3.3357 36.0968 3.67269 35.9228 4.03833 35.8548C4.40397 35.7868 4.78177 35.8279 5.12376 35.9729C5.46575 36.1179 5.75651 36.3602 5.9591 36.669C6.16169 36.9779 6.26699 37.3393 6.26162 37.7075C6.25307 38.1965 6.05061 38.6626 5.69792 39.0052C5.34524 39.3477 4.87061 39.5393 4.37648 39.5385ZM4.37648 38.2964C4.4995 38.2976 4.62013 38.2627 4.72311 38.1961C4.82609 38.1295 4.9068 38.0341 4.95503 37.9221C5.00326 37.8101 5.01685 37.6864 4.99407 37.5667C4.9713 37.4471 4.91319 37.3368 4.82708 37.2498C4.74098 37.1628 4.63075 37.1031 4.51034 37.0781C4.38993 37.0531 4.26474 37.0641 4.1506 37.1095C4.03647 37.155 3.93851 37.2329 3.86912 37.3334C3.79973 37.434 3.76202 37.5527 3.76076 37.6744C3.76118 37.8376 3.82596 37.9943 3.94129 38.1109C4.05663 38.2276 4.21342 38.2951 4.37829 38.2991L4.37648 38.2964Z" fill="#205C32"/>
<path d="M15.6421 39.5385C15.2701 39.5369 14.9069 39.4258 14.5988 39.2195C14.2906 39.0132 14.0514 38.7209 13.9114 38.3797C13.7714 38.0386 13.737 37.6639 13.8126 37.3033C13.8881 36.9428 14.0702 36.6126 14.3358 36.3547C14.6013 36.0968 14.9383 35.9228 15.304 35.8548C15.6696 35.7868 16.0474 35.8279 16.3894 35.9729C16.7314 36.1179 17.0221 36.3602 17.2247 36.669C17.4273 36.9779 17.5326 37.3393 17.5272 37.7075C17.5187 38.1965 17.3162 38.6626 16.9635 39.0052C16.6109 39.3477 16.1362 39.5393 15.6421 39.5385ZM16.275 37.6744C16.2737 37.5527 16.236 37.434 16.1666 37.3334C16.0973 37.2329 15.9993 37.155 15.8852 37.1095C15.771 37.0641 15.6458 37.0531 15.5254 37.0781C15.405 37.1031 15.2948 37.1628 15.2087 37.2498C15.1226 37.3368 15.0645 37.4471 15.0417 37.5667C15.0189 37.6864 15.0325 37.8101 15.0807 37.9221C15.129 38.0341 15.2097 38.1295 15.3127 38.1961C15.4156 38.2627 15.5363 38.2976 15.6593 38.2964C15.8229 38.292 15.9784 38.225 16.0932 38.1096C16.208 37.9941 16.2732 37.8391 16.275 37.6771V37.6744Z" fill="#205C32"/>
</g>
<defs>
<clipPath id="clip0_4781_31221">
<rect width="48" height="48" fill="white"/>
</clipPath>
</defs>
</svg>
