<svg width="48" height="48" viewBox="0 0 48 48" fill="none" xmlns="http://www.w3.org/2000/svg">
<g clip-path="url(#clip0_4781_34091)">
<path d="M7.43969 12L1.11719 15.7204L1.5483 26.5056C1.5483 26.5056 8.09646 31.2833 8.24574 31.5015C8.39501 31.7197 16.7376 33.6759 16.7376 33.6759L27.9622 33.0412L38.0157 29.5766L43.1244 24.208L46.543 18.1682L47.0942 10.9823L42.2397 7.68001L35.9997 7.20001L29.5197 8.64001L23.7597 11.52L18.9597 12H11.9997H7.43969Z" fill="white"/>
<path d="M23.1445 16.3498L27.3419 14.7089L30.4652 14.0585L33.7168 12.4312L36.3849 11.3247L39.053 11.1295L41.3955 11.7808L42.8569 12.7568L43.0187 15.8801L41.36 19.9512C41.36 19.9512 39.9935 21.1161 39.8307 21.1359C39.6679 21.1558 37.4559 21.7737 37.1302 21.8385C36.8045 21.9032 30.9161 21.1359 30.9161 21.1359L25.2615 18.7434L23.1445 16.3498Z" fill="white"/>
<path d="M9.122 15.8801L5.8735 18.0273L5.41211 22.4836L7.26706 25.5431L11.6868 28.0808L18.0042 29.3585L28.6433 28.4701L32.3522 25.8365L26.2028 23.3959L18.7673 20.1338L15.523 15.8801H10.9759H9.122Z" fill="white"/>
<path d="M0.0541302 24.2821C0.0541302 22.5712 -0.0847037 20.8457 0.0823145 19.1515C0.484202 15.0805 3.21391 12.2954 7.59814 11.5397C9.44574 11.2094 11.3263 11.1021 13.1995 11.2203C18.8719 11.6263 24.2895 10.9906 29.369 8.20559C33.5277 5.92683 37.961 5.7713 42.4538 7.0135C46.2253 8.05736 47.9414 10.4113 47.9456 14.2913C47.9456 16.1369 47.8412 17.9897 47.9664 19.8238C48.2608 24.2247 46.6188 27.9085 43.8588 31.1539C38.3044 37.6833 31.2187 41.2439 22.6684 41.9193C18.5806 42.245 14.5503 42.1427 10.6159 40.8963C6.77662 39.676 3.64189 37.511 1.57713 33.9619C0.543702 32.18 -0.000150727 30.2729 0.024902 28.2071C0.0384722 26.8991 0.024902 25.5901 0.024902 24.2821H0.0541302ZM14.9104 12.689C12.2298 12.4698 9.55016 12.3915 6.92171 13.1316C3.13144 14.1984 1.09173 17.045 1.50406 20.9658C1.65831 22.3267 2.05348 23.6494 2.6711 24.8719C4.27969 28.0568 6.99374 30.0213 10.2913 31.2144C14.2173 32.6372 18.2779 32.7552 22.4001 32.4671C29.8972 31.9368 36.2313 28.9419 41.4799 23.6245C43.6449 21.4324 45.4027 18.9469 46.2086 15.9051C47.2357 12.0261 45.6574 9.26615 41.7722 8.28492C37.7011 7.2588 33.7135 7.44983 29.9504 9.48432C25.2467 12.03 20.2334 13.0982 14.9104 12.689ZM1.53537 25.9158C1.04998 30.1758 2.17735 33.4963 5.11478 36.129C6.19503 37.0792 7.38683 37.8945 8.66392 38.557C11.2558 39.9224 14.0983 40.4359 17.0002 40.5946C25.1288 41.0549 32.583 39.248 38.984 33.9744C41.8922 31.5787 44.3495 28.8209 45.7879 25.2696C46.5405 23.4095 46.6376 21.4898 46.4372 19.2601C45.0097 21.8756 43.1356 24.221 40.8995 26.1903C33.9745 32.3637 25.7488 34.5183 16.6818 33.9285C10.5314 33.5287 5.13462 31.5652 1.53537 25.9158Z" fill="#205C32"/>
<path d="M20.6757 29.8564C16.4126 29.8668 12.9605 29.3146 9.79346 27.5776C7.06062 26.0786 5.03761 23.9919 4.53865 20.7497C4.24323 18.8405 5.01152 17.2225 6.64203 16.2152C9.67446 14.3362 16.8354 14.6055 19.1204 18.9292C19.9409 20.4804 21.3292 21.3009 22.9827 21.7623C25.3366 22.422 27.6916 23.0786 30.0256 23.803C30.8254 24.0492 31.586 24.4081 32.2846 24.8688C33.3284 25.5692 33.3284 26.6434 32.2678 27.3187C31.5265 27.7759 30.7261 28.1295 29.8889 28.3699C26.6613 29.3344 23.3616 29.8741 20.6757 29.8564ZM31.486 26.3281C31.4776 26.1935 31.4693 26.0588 31.462 25.9241C30.8545 25.6694 30.2647 25.3605 29.6373 25.1715C27.393 24.493 25.1487 23.8145 22.8804 23.2153C20.6695 22.6287 18.9388 21.4679 17.7362 19.4804C17.3322 18.8123 16.7644 18.1233 16.0984 17.7538C13.4334 16.2851 10.6139 16.0554 7.77462 17.2319C6.25267 17.8582 5.54284 19.1662 6.02302 20.7455C6.4009 21.9909 7.00738 23.2508 7.81116 24.2623C9.11286 25.9053 11.0106 26.7676 12.9835 27.4064C17.8719 28.9785 22.7812 28.6476 27.6811 27.4847C28.9672 27.1757 30.2187 26.7175 31.486 26.3281Z" fill="#205C32"/>
<path d="M35.7737 22.5723C31.3456 22.4011 27.3487 20.8604 23.5605 18.6891C23.1599 18.4442 22.8096 18.1254 22.5281 17.7497C21.8767 16.9146 21.9477 15.9605 22.8569 15.3957C23.6607 14.8957 24.5981 14.4844 25.525 14.331C28.2025 13.8884 30.7266 13.0784 33.0659 11.7005C35.2737 10.3935 37.5994 9.76201 40.1777 10.4155C43.2958 11.2046 44.7039 13.4886 43.7144 16.567C42.4649 20.4522 40.1329 22.7706 35.7737 22.5723ZM23.5605 16.448C23.477 16.8258 24.0532 17.2705 24.4895 17.6066C25.0775 18.0574 25.738 18.4047 26.4426 18.6338C29.6076 20.0441 32.8269 21.2706 36.3791 21.1182C37.6516 21.0639 38.9356 20.971 39.946 20.0242C41.1986 18.8499 42.0859 17.4574 42.4513 15.7653C42.8866 13.7433 42.1089 12.4426 40.1412 11.8664C37.9783 11.2328 35.9658 11.642 34.0691 12.7662C32.7849 13.5279 31.4294 14.1625 30.022 14.6609C28.6165 15.1423 27.1715 15.4997 25.7035 15.7287C24.5668 15.9239 23.6596 16.0148 23.5626 16.448H23.5605Z" fill="#205C32"/>
<path d="M1.01953 24.5671L1.42664 32.5923C3.60422 36.0794 6.90278 38.7224 10.7807 40.0873C12.6314 40.5087 14.5057 40.8182 16.3936 41.0142C19.0686 41.2918 21.7625 41.3407 24.4459 41.1604L37.9118 36.2834L43.8618 29.6424C44.2533 29.1205 44.6478 28.5568 45.033 27.9346C45.916 26.5066 46.6362 24.9842 47.1802 23.3959V17.5555L41.9098 24.159L38.035 28.4743L30.206 32.0871C30.206 32.0871 23.1776 33.1612 22.6901 33.0631C22.2027 32.965 12.8319 31.99 12.8319 31.99L5.87246 29.3585L1.01953 24.5671Z" fill="#205C32"/>
</g>
<defs>
<clipPath id="clip0_4781_34091">
<rect width="48" height="48" fill="white"/>
</clipPath>
</defs>
</svg>
