<svg width="48" height="48" viewBox="0 0 48 48" fill="none" xmlns="http://www.w3.org/2000/svg">
<g clip-path="url(#clip0_4781_34402)">
<path d="M25.2639 5.61788L23.0723 11.2151L40.6018 11.2283L43.1516 5.24948C39.8406 4.21833 38.382 4.68703 37.6696 5.36103C37.0715 5.92347 37.2196 6.42686 36.4397 7.19179C34.9933 8.61103 32.8457 8.49666 32.4023 8.46291C31.9148 8.42448 30.0785 8.28199 28.9892 6.97243C28.4774 6.35656 28.4867 5.91129 27.9365 5.55976C27.135 5.05168 26.0495 5.31791 25.2639 5.61788Z" fill="#E9EFEB"/>
<path d="M43.3165 5.48291L39.8574 11.622L40.4714 47.2679L45.7303 47.4291L46.4137 45.7634V29.1965V10.483L43.3165 5.48291Z" fill="#E9EFEB"/>
<path d="M12.8831 15.1504H4.40234V18.0648H12.8831V15.1504Z" fill="#E9EFEB"/>
<path d="M0.808594 26.1134L3.21867 19.0294L6.68146 18.3132H12.0013L13.9379 19.4175L15.5343 21.8604L15.7978 26.6983L10.4508 27.3564L1.19949 26.9467L0.808594 26.1134Z" fill="#E9EFEB"/>
<path d="M13.1659 18.4454V15.6782C13.1659 14.7726 11.7598 14.7717 11.7598 15.6782V18.4454C11.7598 19.35 13.1659 19.3519 13.1659 18.4454Z" fill="#205C32"/>
<path d="M1.19949 39.1312L12.4625 39.1996L13.518 46.2452L12.0013 47.6916L4.36231 46.9182C4.36231 46.9182 0.808594 42.0821 0.808594 41.9509C0.808594 41.8197 1.19949 39.1312 1.19949 39.1312Z" fill="#E9EFEB"/>
<path d="M12 36.1362L24.9953 36.0555L23.6192 47.4291H13.5833L12 36.1362Z" fill="#E9EFEB"/>
<path d="M23.4275 46.5798H13.6785L14.3572 47.0963L12.2949 33.4505L12.0137 31.5522L11.335 32.4418H25.7711L25.0933 31.5522L23.0357 45.1981L22.7498 47.0963C22.6926 47.4713 22.8435 47.8463 23.2401 47.9606C23.5719 48.0544 24.049 47.8444 24.1053 47.4694L26.1676 33.8236L26.4488 31.9253C26.5154 31.4829 26.2707 31.0357 25.7711 31.0357H11.335C10.8353 31.0357 10.5907 31.4829 10.6572 31.9253L12.7148 45.5712L13.0008 47.4694C13.0457 47.7694 13.3973 47.9859 13.6785 47.9859H23.4275C24.3321 47.9859 24.334 46.5798 23.4275 46.5798Z" fill="#205C32"/>
<path d="M12.2921 36.8402H24.7343C25.6398 36.8402 25.6408 35.4341 24.7343 35.4341H12.2921C11.3875 35.4341 11.3865 36.8402 12.2921 36.8402Z" fill="#205C32"/>
<path d="M2.05025 27.6535H15.159C16.0636 27.6535 16.0654 26.2474 15.159 26.2474H2.05025C1.14565 26.2474 1.14377 27.6535 2.05025 27.6535Z" fill="#205C32"/>
<path d="M12.2905 38.4281H2.05025C1.14565 38.4281 1.14377 39.8342 2.05025 39.8342H12.2905C13.196 39.8342 13.197 38.4281 12.2905 38.4281Z" fill="#205C32"/>
<path d="M13.1205 46.0052C12.2487 46.4964 11.3394 46.5798 10.3683 46.5798H7.56542C6.88018 46.5798 6.13681 46.6436 5.46094 46.5114C4.82741 46.3888 4.22836 46.1291 3.7058 45.7505C3.18324 45.3719 2.74982 44.8836 2.43592 44.3198C1.84911 43.2633 1.90254 42.144 1.90254 40.9891V25.2482C1.90254 24.3276 1.8088 23.304 2.0394 22.4069C2.21007 21.7602 2.52574 21.1608 2.96248 20.6542C3.39922 20.1477 3.94556 19.7472 4.56009 19.4831C5.41688 19.1222 6.29617 19.1485 7.19983 19.1485H10.0505C10.9392 19.1485 11.8034 19.1278 12.6462 19.4822C13.2721 19.7498 13.8274 20.1589 14.2687 20.6772C14.7099 21.1956 15.0251 21.8091 15.1894 22.4697C15.3947 23.3049 15.3103 24.1983 15.3103 25.0504V31.0376C15.3103 31.9422 16.7164 31.9441 16.7164 31.0376V24.5901C16.7164 23.708 16.7492 22.8269 16.5121 21.9654C16.2954 21.2015 15.9258 20.4897 15.4256 19.8731C14.9055 19.2332 14.2544 18.7122 13.5161 18.345C12.7778 17.9778 11.9694 17.773 11.1454 17.7442C10.4245 17.7189 9.6999 17.7442 8.97904 17.7442C8.10912 17.7442 7.23921 17.7442 6.36929 17.7442C4.97575 17.7326 3.62264 18.2121 2.54748 19.0988C1.94361 19.608 1.45067 20.2357 1.09917 20.943C0.747662 21.6504 0.545068 22.4224 0.503926 23.2112C0.48799 23.5102 0.496426 23.8102 0.496426 24.112V40.3086C0.496426 41.3397 0.412997 42.4431 0.627664 43.462C1.20511 46.2049 3.71174 47.9897 6.4396 47.9897H9.15808C9.89113 47.9897 10.6382 48.031 11.3694 47.9738C12.2338 47.9069 13.0728 47.6509 13.8273 47.2238C14.6147 46.7795 13.907 45.5646 13.1168 46.0052H13.1205Z" fill="#205C32"/>
<path d="M3.91406 15.6782V18.4454C3.91406 19.35 5.32018 19.3519 5.32018 18.4454V15.6782C5.32018 14.7726 3.91406 14.7717 3.91406 15.6782Z" fill="#205C32"/>
<path d="M2.71757 13.2962V15.3416C2.72 15.5273 2.79485 15.7047 2.92618 15.8361C3.0575 15.9674 3.23492 16.0423 3.42063 16.0447H13.6178C13.8034 16.042 13.9807 15.9671 14.1119 15.8358C14.2432 15.7045 14.3181 15.5273 14.3208 15.3416V13.9983C14.3208 13.4931 14.3555 12.9812 14.1661 12.4985C13.8277 11.6435 13.0328 11.1364 12.1273 11.1008C11.9398 11.0933 11.7467 11.1008 11.5573 11.1008H5.42762C5.10751 11.0864 4.78676 11.1021 4.46959 11.1477C3.43281 11.3426 2.76069 12.28 2.71757 13.2962C2.67914 14.2017 4.08525 14.1999 4.12368 13.2962C4.15837 12.4685 4.9336 12.5097 5.5298 12.5097H11.1318C11.6239 12.5097 12.3926 12.371 12.7403 12.8069C12.9991 13.1312 12.91 13.6571 12.91 14.0433V15.3416L13.6131 14.6386H3.42063L4.12368 15.3416V13.2962C4.12368 12.3916 2.71757 12.3907 2.71757 13.2962Z" fill="#205C32"/>
<path d="M27.8019 4.55017H25.2709L25.9777 5.24948V2.69879C25.9777 2.36414 25.884 1.87012 25.9777 1.54672C26.0031 1.4586 25.9665 1.55328 25.9656 1.55328C26.0423 1.48112 26.1417 1.43774 26.2468 1.43048C26.2989 1.4272 26.3512 1.4272 26.4033 1.43048C27.7532 1.37705 29.1162 1.43048 30.467 1.43048H42.0074C42.1949 1.43048 42.373 1.41642 42.5474 1.4961C42.6205 1.52891 42.6327 1.55234 42.6168 1.51672C42.6252 1.5695 42.6252 1.62329 42.6168 1.67608C42.6083 1.90199 42.6168 2.12978 42.6168 2.35664V5.24948L43.3198 4.54642H37.7947C36.8901 4.54642 36.8882 5.95254 37.7947 5.95254H43.3198C43.5054 5.94987 43.6827 5.87495 43.814 5.74367C43.9453 5.61239 44.0202 5.43511 44.0229 5.24948V2.5638C44.0229 2.21134 44.0407 1.85325 44.0229 1.50078C43.976 0.550251 43.1126 0.053425 42.2408 0.0215531C40.9538 -0.0262547 39.6564 0.0215531 38.3684 0.0215531C34.3957 0.0215531 30.4192 -0.0243799 26.4465 0.0215531C25.884 0.028115 25.3131 0.176225 24.9213 0.61212C24.5295 1.04802 24.5716 1.56921 24.5716 2.10447V5.24948C24.5743 5.43511 24.6492 5.61239 24.7805 5.74367C24.9118 5.87495 25.0891 5.94987 25.2747 5.95254H27.8057C28.7103 5.95254 28.7122 4.54642 27.8057 4.54642L27.8019 4.55017Z" fill="#205C32"/>
<path d="M24.653 4.89795L22.0517 10.1784C21.8549 10.5777 21.6261 10.9424 21.6205 11.397C21.613 11.9463 21.6205 12.4956 21.6205 13.045V31.3732C21.6205 32.2787 23.0266 32.2797 23.0266 31.3732V11.2133L22.9329 11.5686L25.8689 5.60757C26.2673 4.79859 25.0552 4.08522 24.6549 4.89795H24.653Z" fill="#205C32"/>
<path d="M22.3217 11.9163L40.334 12.0157C41.2396 12.0157 41.2405 10.6096 40.334 10.6096L22.3217 10.5102C21.4171 10.5055 21.4153 11.9117 22.3217 11.9163Z" fill="#205C32"/>
<path d="M42.767 4.41614L40.7609 8.73572L39.7232 10.9677C39.6034 11.1924 39.5328 11.4401 39.5161 11.6942C39.4579 14.0115 39.5161 16.3381 39.5161 18.6563V45.5468C39.5161 45.6865 39.5104 45.828 39.5161 45.9677C39.547 46.7486 39.9623 47.4563 40.686 47.7844C41.0853 47.9653 41.4912 47.9719 41.9168 47.9719H44.774C45.2193 47.9719 45.6477 47.9494 46.0545 47.7366C46.7182 47.3898 47.0856 46.7008 47.1166 45.9677C47.1372 45.4315 47.1166 44.8897 47.1166 44.3526V12.3607C47.1166 11.817 47.1859 11.2798 46.9553 10.7783C46.1923 9.121 45.4105 7.47303 44.6381 5.82038L43.9819 4.41427C43.5985 3.59497 42.3883 4.30834 42.7632 5.12388L45.8061 11.6239L45.7123 11.2686V45.5777C45.7123 45.7015 45.7208 45.829 45.7123 45.9527C45.6692 46.563 45.1499 46.5602 44.6859 46.5602H42.2271C41.7105 46.5602 40.9812 46.6755 40.9222 45.9621C40.8922 45.6021 40.9222 45.2262 40.9222 44.8644V11.5639L40.8284 11.9192L43.9847 5.12576C44.3606 4.31209 43.1485 3.59497 42.767 4.41614Z" fill="#205C32"/>
<path d="M42.5418 46.5648L16.3628 46.5761H8.88228C7.97768 46.5761 7.9758 47.9822 8.88228 47.9822L35.0622 47.9709H42.5418C43.4464 47.9709 43.4483 46.5648 42.5418 46.5648Z" fill="#205C32"/>
<path d="M28.2719 5.82317C31.1669 6.74446 34.2762 6.74675 37.1726 5.82973C38.0312 5.55695 37.6647 4.19864 36.7976 4.47424C34.1446 5.32012 31.2938 5.31783 28.6422 4.46768C27.7779 4.19114 27.4085 5.54851 28.2672 5.82317H28.2719Z" fill="#205C32"/>
<path d="M36.9606 5.48289C36.9269 6.7662 35.2583 7.39333 34.2272 7.61924C32.6748 7.95858 30.8084 7.8011 29.4632 6.89369C29.0489 6.61246 28.6196 6.19157 28.5333 5.67506C28.4518 5.17729 28.7208 4.7264 29.0667 4.39174C30.1916 3.30341 32.0458 3.07937 33.5269 3.23123C34.7137 3.35122 36.925 3.96616 36.9644 5.48101C36.9878 6.38374 38.3939 6.38749 38.3705 5.48101C38.3189 3.50496 36.3232 2.36413 34.6012 1.98823C32.5539 1.54108 30.1138 1.78012 28.4143 3.10281C26.9847 4.21832 26.6848 6.08002 27.955 7.44863C29.377 8.9813 31.8508 9.35532 33.8259 9.10222C35.7673 8.85287 38.3068 7.76923 38.3667 5.48101C38.3902 4.57735 36.9841 4.57829 36.9606 5.48289Z" fill="#205C32"/>
<path d="M28.0195 0.724624V3.75433C28.0195 4.65893 29.4256 4.65987 29.4256 3.75433V0.724624C29.4256 -0.179975 28.0195 -0.18185 28.0195 0.724624Z" fill="#205C32"/>
<path d="M32.1641 0.724624V2.49351C32.1641 3.39811 33.5702 3.39905 33.5702 2.49351V0.724624C33.5702 -0.179975 32.1641 -0.18185 32.1641 0.724624Z" fill="#205C32"/>
<path d="M35.7324 0.724624V3.50685C35.7324 4.41145 37.1385 4.41333 37.1385 3.50685V0.724624C37.1385 -0.179975 35.7324 -0.18185 35.7324 0.724624Z" fill="#205C32"/>
<path d="M38.7715 0.724624V4.77048C38.7715 5.67508 40.1776 5.67695 40.1776 4.77048V0.724624C40.1776 -0.179975 38.7715 -0.18185 38.7715 0.724624Z" fill="#205C32"/>
<path d="M34.8334 28.8919C34.8015 29.9062 33.3551 30.372 32.5555 30.537C31.2843 30.7976 29.7835 30.6664 28.669 29.9605C27.9031 29.4759 27.6303 28.7166 28.354 28.0604C29.2914 27.2111 30.7912 27.0536 31.9968 27.1633C32.906 27.2467 34.7959 27.7014 34.8334 28.8919C34.8624 29.7946 36.2685 29.7984 36.2395 28.8919C36.1851 27.1933 34.4818 26.2306 32.9998 25.9072C31.2403 25.5228 29.117 25.7066 27.6462 26.8315C26.3901 27.7923 26.1023 29.4206 27.2432 30.6055C28.4862 31.8963 30.6038 32.2066 32.3052 31.9928C33.985 31.781 36.1804 30.8679 36.2423 28.8919C36.2685 27.9873 34.8624 27.9882 34.8334 28.8919Z" fill="#205C32"/>
<path d="M35.6125 27.8045C36.3118 25.4563 35.5328 22.4865 33.2286 21.312C31.0548 20.203 28.5594 21.281 27.4926 23.3874C26.8092 24.7581 26.675 26.3381 27.1177 27.8045C27.3755 28.6697 28.7328 28.3013 28.4732 27.4295C28.1085 26.2062 28.2126 24.8685 28.8866 23.7689C29.4181 22.9018 30.3217 22.2541 31.3641 22.2541C32.4065 22.2541 33.3093 22.9018 33.8408 23.7689C34.5148 24.8685 34.6179 26.2062 34.2532 27.4295C33.9945 28.2985 35.3519 28.6697 35.6097 27.8045H35.6125Z" fill="#205C32"/>
<path d="M28.2376 22.2297C26.6731 22.4931 25.3317 23.3883 24.3886 24.6501C24.2387 24.8516 24.2799 25.1544 24.3886 25.3597C24.6511 25.845 25.0527 26.2408 25.5418 26.496C26.0309 26.7513 26.5852 26.8544 27.1334 26.7921C27.3846 26.7621 27.6565 26.7302 27.8449 26.5418C28.1111 26.2756 28.2058 25.7066 28.3248 25.3597C28.5842 24.6054 28.8432 23.8502 29.1019 23.094C29.3963 22.2363 28.0389 21.8679 27.7464 22.719C27.3871 23.7646 27.0284 24.8101 26.6703 25.8556L27.1615 25.3644C26.8595 25.4406 26.5405 25.4117 26.257 25.2826C25.9735 25.1535 25.7424 24.9317 25.6017 24.6538V25.3635C26.3272 24.3886 27.424 23.7886 28.6098 23.5889C29.5013 23.4352 29.1235 22.0797 28.2376 22.2297Z" fill="#205C32"/>
<path d="M34.0483 23.5852C35.2341 23.7849 36.3309 24.3848 37.0565 25.3597V24.6538C36.9168 24.9325 36.6864 25.1553 36.4032 25.2854C36.12 25.4156 35.8009 25.4455 35.4985 25.37L35.9887 25.8612L34.9135 22.7247C34.6211 21.8735 33.2628 22.2391 33.5571 23.0996C33.8158 23.8552 34.0749 24.6104 34.3342 25.3653C34.4523 25.7103 34.5367 26.1874 34.7589 26.4762C34.951 26.7246 35.2369 26.764 35.5266 26.7977C36.0748 26.8597 36.629 26.7565 37.118 26.5013C37.6071 26.2461 38.0087 25.8505 38.2713 25.3653C38.3801 25.16 38.4213 24.8573 38.2713 24.6557C37.3339 23.394 35.9859 22.4997 34.4223 22.2353C33.5365 22.0807 33.1568 23.4352 34.0483 23.5852Z" fill="#205C32"/>
<path d="M30.5858 21.5051L29.6484 19.3978C29.4947 19.0509 28.9922 18.9685 28.6866 19.1456C28.3295 19.3547 28.2798 19.7587 28.4345 20.1074L29.3719 22.2147C29.5265 22.5625 30.028 22.644 30.3336 22.4669C30.6908 22.2578 30.7414 21.8538 30.5858 21.5051Z" fill="#205C32"/>
<path d="M33.9034 22.2166L34.8408 20.1093C34.9945 19.7624 34.9411 19.3537 34.5886 19.1475C34.2886 18.9722 33.7815 19.0538 33.6268 19.3997L32.6894 21.507C32.5348 21.8538 32.5882 22.2625 32.9416 22.4687C33.2406 22.644 33.7478 22.5625 33.9034 22.2166Z" fill="#205C32"/>
</g>
<defs>
<clipPath id="clip0_4781_34402">
<rect width="48" height="48" fill="white"/>
</clipPath>
</defs>
</svg>
