<svg width="48" height="48" viewBox="0 0 48 48" fill="none" xmlns="http://www.w3.org/2000/svg">
<g clip-path="url(#clip0_4781_34737)">
<path d="M46.1399 44.6732H1.84944C1.62494 44.6732 1.43252 44.8656 1.43252 45.0901C1.43252 45.2826 1.43252 45.4643 1.42182 45.646C1.38975 46.1485 1.57149 46.4157 2.1167 46.373C2.36258 46.3516 2.61915 46.373 2.86503 46.373C13.8975 46.373 24.9194 46.373 35.9519 46.3837C36.5292 46.3837 37.4058 46.1271 37.3844 47.0892C37.363 48.03 36.4864 47.752 35.9198 47.752C24.7056 47.7627 13.4806 47.7627 2.26637 47.7627C0.48107 47.7627 0 47.2817 0 45.4857C0 38.5797 0 31.6737 0 24.7676C0 23.0358 0.502451 22.5333 2.21292 22.5226C3.21782 22.5226 4.21202 22.5226 5.21692 22.5226C5.70868 22.5226 6.22183 22.5547 6.22183 23.2068C6.22183 23.8483 5.75145 23.9231 5.23831 23.9124C4.21203 23.9017 3.17506 23.9338 2.14878 23.9017C1.64633 23.891 1.41114 24.0407 1.41114 24.5859C1.42183 30.6474 1.42182 36.7088 1.42182 42.781C1.42182 42.9948 1.61425 43.1659 1.83875 43.1659H46.1506C46.3644 43.1659 46.5461 42.9948 46.5568 42.781C46.5675 42.5886 46.5782 42.3961 46.5782 42.2144C46.5782 36.463 46.5675 30.7115 46.5995 24.9601C46.5995 24.169 46.4285 23.8696 45.5626 23.891C42.8151 23.9445 40.057 23.7841 37.3203 23.9552C35.1073 24.0941 33.91 22.1378 35.0218 20.1387C39.159 12.7088 34.9363 3.48301 26.6405 1.76185C21.4877 0.692805 17.1261 2.30706 13.9617 6.48702C10.7653 10.7097 10.5514 15.328 12.882 20.0745C13.1171 20.5449 13.3844 21.0367 13.4592 21.5391C13.6303 22.7044 12.6575 23.8269 11.4388 23.9017C10.6263 23.9552 9.80312 23.9765 9.00134 23.891C8.80891 23.8696 8.62717 23.6986 8.44543 23.5275C8.28508 23.3672 8.28508 23.1213 8.43474 22.9503C8.60579 22.7685 8.77684 22.5975 8.96927 22.5547C9.53586 22.4371 10.1452 22.5226 10.7439 22.512C12.0374 22.4906 12.3261 22.0202 11.7167 20.887C9.62138 16.9636 9.33274 12.912 11.0004 8.77477C13.5448 2.44604 20.3332 -1.12457 26.9185 0.318641C33.6107 1.78323 38.2931 7.80194 38.0258 14.6224C37.9403 16.8353 37.3416 18.9307 36.2726 20.8763C35.6526 21.9988 35.9412 22.4906 37.2454 22.5013C40.1211 22.512 42.9969 22.5013 45.8726 22.512C47.4762 22.512 48 23.0572 48 24.6607C48 31.663 48 38.6652 48 45.6674C48 47.2175 47.4655 47.7627 45.9261 47.7627C44.0873 47.7734 42.2379 47.7627 40.3991 47.7627C39.8753 47.7627 39.3194 47.7627 39.3514 47.0358C39.3728 46.373 39.8967 46.3837 40.3777 46.3837C42.0027 46.3837 43.6276 46.3837 45.2526 46.3837C46.5995 46.3837 46.7706 46.2875 46.5247 45.026C46.514 44.8122 46.343 44.6732 46.1399 44.6732Z" fill="#205C32"/>
<path d="M23.9897 4.33825C27.9344 4.31687 30.5536 8.33647 28.8859 11.8964C28.0093 13.7779 26.5019 15.0821 24.7594 16.1191C24.4387 16.3115 23.84 16.3757 23.5193 16.2046C21.2636 14.9752 19.3714 13.3396 18.7727 10.7204C18.0244 7.43847 20.6008 4.35963 23.9897 4.33825ZM20.0663 9.87589C20.0877 9.98279 20.0877 10.3035 20.1839 10.5921C20.7718 12.495 22.183 13.7031 23.7545 14.7614C23.8828 14.8469 24.1928 14.8256 24.3318 14.7293C25.6681 13.842 26.8654 12.8051 27.5816 11.3191C28.2979 9.83313 28.0199 8.16542 26.9081 6.97878C25.775 5.77076 24.0645 5.3966 22.5358 6.01664C21.0284 6.64738 20.077 8.05852 20.0663 9.87589Z" fill="#205C32"/>
<path d="M15.7462 12.8265C19.2633 12.8692 22.0001 16.2795 21.1876 19.6683C21.0914 20.0639 20.6531 20.5556 20.2789 20.6625C16.6442 21.6674 12.8491 18.2465 13.3729 14.4942C13.5653 13.1151 14.0036 12.8051 15.7462 12.8265ZM14.891 14.3873C14.3778 17.0599 16.5587 19.5721 19.2313 19.4118C19.6803 19.3797 19.8834 19.2728 19.9261 18.7703C20.1506 16.0656 17.5101 13.7565 14.891 14.3873Z" fill="#205C32"/>
<path d="M32.3917 12.8264C34.2305 12.8264 34.7008 13.2968 34.7008 15.1462C34.6901 18.642 31.4509 21.336 28.0193 20.7373C27.3138 20.6197 26.9396 20.3097 26.7899 19.5721C26.1164 16.1404 28.8532 12.8264 32.3917 12.8264ZM33.1507 14.3658C30.4674 13.8527 28.0086 15.9694 28.1048 18.642C28.1262 19.1872 28.2866 19.3903 28.8639 19.4117C31.5258 19.5079 33.5997 17.1133 33.1507 14.3658Z" fill="#205C32"/>
<path d="M24.0318 7.38501C22.7382 7.38501 21.7227 8.38991 21.7227 9.68345C21.7227 10.9663 22.7489 12.014 24.0104 12.0247C25.2719 12.0353 26.3195 10.9877 26.3195 9.70483C26.3302 8.41129 25.3146 7.3957 24.0318 7.38501ZM24.0211 11.0732C23.2728 11.0732 22.6634 10.4639 22.6634 9.71552C22.6634 8.96719 23.2728 8.35784 24.0211 8.35784C24.7694 8.35784 25.3788 8.96719 25.3788 9.71552C25.3895 10.4639 24.7801 11.0732 24.0211 11.0732Z" fill="#205C32"/>
<path d="M13.9414 30.5725C14.4011 30.5725 14.6684 30.8398 14.6684 31.2353C14.6684 31.6309 14.4011 31.8981 13.9414 31.8981H11.643C11.1833 31.8981 10.916 31.6309 10.916 31.2353V27.8785C10.916 27.483 11.1833 27.2157 11.643 27.2157C12.1027 27.2157 12.3699 27.483 12.3699 27.8785V30.5725H13.9414Z" fill="#205C32"/>
<path d="M20.5158 30.038C20.5158 31.1605 19.6605 32.0157 18.3136 32.0157C16.9666 32.0157 16.1113 31.1605 16.1113 30.038V29.1186C16.1113 27.9961 16.9666 27.1409 18.3136 27.1409C19.6605 27.1409 20.5158 27.9961 20.5158 29.1186V30.038ZM19.0405 29.1186C19.0405 28.5948 18.7091 28.2634 18.3136 28.2634C17.918 28.2634 17.5866 28.5948 17.5866 29.1186V30.038C17.5866 30.5618 17.918 30.8932 18.3136 30.8932C18.7091 30.8932 19.0405 30.5618 19.0405 30.038V29.1186Z" fill="#205C32"/>
<path d="M22.3555 29.1186C22.3555 27.9961 23.2107 27.1409 24.5577 27.1409C25.7123 27.1409 26.3644 27.8037 26.3644 28.2634C26.3644 28.6269 26.1292 28.8514 25.6374 28.8514C25.1136 28.8514 25.0495 28.3917 24.547 28.3917C24.1194 28.3917 23.8201 28.691 23.8201 29.1186V30.038C23.8201 30.4656 24.1194 30.7649 24.547 30.7649C25.1029 30.7649 25.167 30.3053 25.7016 30.3053C26.1933 30.3053 26.4285 30.5405 26.4285 30.8932C26.4285 31.3529 25.7657 32.0157 24.5577 32.0157C23.2107 32.0157 22.3555 31.1605 22.3555 30.038V29.1186Z" fill="#205C32"/>
<path d="M29.3247 31.2888C29.1643 31.6843 28.8971 31.9516 28.5336 31.9516C28.106 31.9516 27.8066 31.6522 27.8066 31.2888C27.8066 31.0963 27.967 30.7008 27.967 30.7008L29.0147 27.9427C29.2071 27.4509 29.5064 27.1516 30.1692 27.1516C30.832 27.1516 31.1314 27.4509 31.3238 27.9427L32.3714 30.7008C32.3714 30.7008 32.5318 31.0963 32.5318 31.2888C32.5318 31.6522 32.2325 31.9516 31.8049 31.9516C31.4414 31.9516 31.1848 31.6843 31.0138 31.2888L30.8534 30.8932H29.4743L29.3247 31.2888ZM30.5755 29.7173L30.212 28.7338H30.1478L29.7844 29.7173H30.5755Z" fill="#205C32"/>
<path d="M37.3203 30.5725C37.78 30.5725 38.0473 30.8398 38.0473 31.2353C38.0473 31.6309 37.78 31.8981 37.3203 31.8981H35.0219C34.5622 31.8981 34.2949 31.6309 34.2949 31.2353V27.8785C34.2949 27.483 34.5622 27.2157 35.0219 27.2157C35.4816 27.2157 35.7488 27.483 35.7488 27.8785V30.5725H37.3203Z" fill="#205C32"/>
<path d="M5.68827 37.9596V38.7507C5.68827 39.1463 5.42101 39.4135 4.96132 39.4135C4.50163 39.4135 4.23438 39.1463 4.23438 38.7507V35.3939C4.23438 34.9984 4.50163 34.7311 4.96132 34.7311H6.27624C7.59116 34.7311 8.31811 35.4581 8.31811 36.3454C8.31811 37.2327 7.59116 37.9596 6.27624 37.9596H5.68827ZM6.27624 36.773C6.60765 36.773 6.80008 36.5806 6.80008 36.3454C6.80008 36.1102 6.60765 35.9177 6.27624 35.9177H5.68827V36.773H6.27624Z" fill="#205C32"/>
<path d="M11.6434 37.6923V38.74C11.6434 39.1355 11.3761 39.4028 10.9164 39.4028C10.4567 39.4028 10.1895 39.1355 10.1895 38.74V35.3832C10.1895 34.9877 10.4567 34.7204 10.9164 34.7204H12.2955C13.6745 34.7204 14.2732 35.3084 14.2732 36.1957C14.2732 37.0188 13.5462 37.2861 13.5462 37.2861V37.3502L14.2091 38.1413C14.2091 38.1413 14.4763 38.4727 14.4763 38.7293C14.4763 39.1249 14.2091 39.3921 13.6852 39.3921C13.3538 39.3921 13.0972 39.0607 13.0972 39.0607L12.0496 37.6816H11.6434V37.6923ZM12.2955 36.5805C12.5948 36.5805 12.7552 36.4202 12.7552 36.2171C12.7552 36.0139 12.5948 35.8536 12.2955 35.8536H11.6327V36.5805H12.2955Z" fill="#205C32"/>
<path d="M20.547 37.4999C20.547 38.6224 19.6918 39.4776 18.3448 39.4776C16.9978 39.4776 16.1426 38.6224 16.1426 37.4999V36.5805C16.1426 35.458 16.9978 34.6028 18.3448 34.6028C19.6918 34.6028 20.547 35.458 20.547 36.5805V37.4999ZM19.0718 36.5805C19.0718 36.0567 18.7404 35.7253 18.3448 35.7253C17.9493 35.7253 17.6179 36.0567 17.6179 36.5805V37.4999C17.6179 38.0237 17.9493 38.3551 18.3448 38.3551C18.7404 38.3551 19.0718 38.0237 19.0718 37.4999V36.5805Z" fill="#205C32"/>
<path d="M26.6948 37.3716C26.6948 38.4941 25.8395 39.3494 24.4284 39.3494H23.2738C22.8141 39.3494 22.5469 39.0821 22.5469 38.6866V35.3939C22.5469 34.9984 22.8141 34.7311 23.2738 34.7311H24.4284C25.8395 34.7311 26.6948 35.5863 26.6948 36.7088V37.3716ZM24.0008 35.9177V38.152H24.4284C24.8881 38.152 25.2195 37.8206 25.2195 37.361V36.6981C25.2195 36.2385 24.8881 35.9071 24.4284 35.9071H24.0008V35.9177Z" fill="#205C32"/>
<path d="M28.7051 37.5641V35.3298C28.7051 34.9342 28.9723 34.667 29.432 34.667C29.8917 34.667 30.159 34.9342 30.159 35.3298V37.5641C30.159 38.0238 30.4262 38.291 30.8218 38.291C31.2173 38.291 31.4846 38.0238 31.4846 37.5641V35.3298C31.4846 34.9342 31.7518 34.667 32.2115 34.667C32.6712 34.667 32.9385 34.9342 32.9385 35.3298V37.5641C32.9385 38.6866 32.1474 39.467 30.8325 39.467C29.5176 39.467 28.7051 38.6866 28.7051 37.5641Z" fill="#205C32"/>
<path d="M34.916 36.5805C34.916 35.458 35.7712 34.6028 37.1182 34.6028C38.2728 34.6028 38.9249 35.2656 38.9249 35.7253C38.9249 36.0888 38.6897 36.3133 38.198 36.3133C37.6741 36.3133 37.61 35.8536 37.1076 35.8536C36.6799 35.8536 36.3806 36.1529 36.3806 36.5805V37.4999C36.3806 37.9275 36.6799 38.2269 37.1076 38.2269C37.6635 38.2269 37.7276 37.7672 38.2621 37.7672C38.7539 37.7672 38.9891 38.0024 38.9891 38.3551C38.9891 38.8148 38.3263 39.4776 37.1182 39.4776C35.7712 39.4776 34.916 38.6224 34.916 37.4999V36.5805Z" fill="#205C32"/>
<path d="M41.1059 36.0567C40.6462 36.0567 40.3789 35.7895 40.3789 35.3939C40.3789 34.9984 40.6462 34.7311 41.1059 34.7311H44.003C44.4626 34.7311 44.7299 34.9984 44.7299 35.3939C44.7299 35.7895 44.4626 36.0567 44.003 36.0567H43.276V38.7507C43.276 39.1463 43.0088 39.4135 42.5491 39.4135C42.0894 39.4135 41.8221 39.1463 41.8221 38.7507V36.0567H41.1059Z" fill="#205C32"/>
</g>
<defs>
<clipPath id="clip0_4781_34737">
<rect width="48" height="48" fill="white"/>
</clipPath>
</defs>
</svg>
