<svg width="48" height="48" viewBox="0 0 48 48" fill="none" xmlns="http://www.w3.org/2000/svg">
<g clip-path="url(#clip0_4781_35061)">
<path d="M16.7643 7.57651V9.24711C16.7643 9.68487 16.4695 9.97075 15.9603 9.97075C15.4511 9.97075 15.1562 9.67593 15.1562 9.24711V5.45923C15.1562 5.03041 15.4511 4.7356 15.9603 4.7356C16.398 4.7356 16.6482 4.99467 16.9787 5.45923L18.2116 7.12983H18.283V5.45923C18.283 5.02147 18.5779 4.7356 19.0871 4.7356C19.5963 4.7356 19.8911 5.03041 19.8911 5.45923V9.24711C19.8911 9.67593 19.5963 9.97075 19.0871 9.97075C18.6493 9.97075 18.3992 9.71167 18.0686 9.24711L16.8358 7.57651H16.7643Z" fill="#205C32"/>
<path d="M22.4362 6.26326V6.70101H23.8209C24.2587 6.70101 24.5445 6.99582 24.5445 7.35317C24.5445 7.71052 24.2497 8.00533 23.8209 8.00533H22.4362V8.44308H24.4731C24.9823 8.44308 25.2771 8.7379 25.2771 9.16671C25.2771 9.59553 24.9823 9.89034 24.4731 9.89034H21.6322C21.1229 9.89034 20.8281 9.59553 20.8281 9.16671V5.5307C20.8281 5.09294 21.1229 4.80707 21.6322 4.80707H24.4016C24.9108 4.80707 25.2056 5.10188 25.2056 5.5307C25.2056 5.95951 24.9108 6.25433 24.4016 6.25433H22.4362V6.26326Z" fill="#205C32"/>
<path d="M29.2801 7.2817L28.8781 9.17565C28.7441 9.68487 28.3689 10.0511 27.6452 10.0511C26.9216 10.0511 26.5464 9.68487 26.4124 9.17565L25.5726 6.12032C25.5726 6.12032 25.4297 5.68257 25.4297 5.46816C25.4297 5.06614 25.7602 4.74453 26.2337 4.74453C26.7429 4.74453 27.0377 5.03934 27.145 5.46816L27.7256 7.87133H27.7971L28.2706 5.6111C28.3867 5.06614 28.7084 4.7356 29.3248 4.7356C29.9412 4.7356 30.2628 5.06614 30.379 5.6111L30.8524 7.87133H30.9239L31.5046 5.46816C31.6118 5.03041 31.9066 4.74453 32.4158 4.74453C32.8893 4.74453 33.2199 5.07508 33.2199 5.46816C33.2199 5.68257 33.0769 6.12032 33.0769 6.12032L32.2372 9.17565C32.1032 9.68487 31.7279 10.0511 31.0043 10.0511C30.2807 10.0511 29.9055 9.68487 29.7715 9.17565L29.3694 7.2817H29.2801Z" fill="#205C32"/>
<path d="M20.0259 14.3304C20.8567 15.2148 21.6786 16.1082 22.5273 16.9748C23.3224 17.7877 24.5731 17.8235 25.395 17.0194C25.7702 16.6531 26.1276 16.2511 26.4849 15.867C26.9495 15.3756 27.414 14.8753 27.8875 14.384C28.1823 14.0802 28.495 14.116 28.8792 14.116C30.389 14.116 31.8898 14.116 33.3996 14.116C34.8201 14.116 36.3567 14.2947 37.4108 13.0975C38.3489 12.0255 38.1791 10.6408 38.1791 9.32751C38.1791 7.72838 38.1791 6.12925 38.1791 4.53012C38.1791 3.15433 38.2953 1.72493 37.116 0.733294C36.3031 0.0543326 35.3918 0.000729313 34.4091 0.000729313C33.3817 0.000729313 32.3454 0.000729313 31.3181 0.000729313C28.093 0.000729313 24.859 0.000729313 21.6339 0.000729313C18.9985 0.000729313 16.363 0.000729313 13.7276 0.000729313C12.8878 0.000729313 12.0838 -0.0350061 11.3155 0.393812C10.3507 0.938767 9.79677 1.96614 9.77891 3.04712C9.76997 3.42234 9.77891 3.80649 9.77891 4.19063C9.77891 5.78977 9.77891 7.3889 9.77891 8.98803C9.77891 10.1405 9.5913 11.5431 10.172 12.5883C10.7169 13.5532 11.7443 14.107 12.8342 14.1249C13.2809 14.1338 13.7276 14.1249 14.1743 14.1249C15.7288 14.1249 17.2832 14.1249 18.8377 14.1249C19.2397 14.1249 19.7221 14.0445 20.0259 14.3304C20.6512 14.9289 21.5982 13.982 20.9728 13.3834C20.0527 12.5079 18.4535 12.7849 17.2832 12.7849C15.8896 12.7849 14.4959 12.7849 13.1022 12.7849C12.5126 12.7849 11.9587 12.6777 11.5478 12.2042C11.1815 11.7843 11.1279 11.2929 11.1279 10.7658C11.1279 9.41685 11.1279 8.05893 11.1279 6.70994C11.1279 5.52176 11.119 4.32464 11.1279 3.13646C11.1368 2.01975 11.9587 1.34078 13.0308 1.34078C15.0855 1.34078 17.1313 1.34078 19.1861 1.34078C22.3844 1.34078 25.5916 1.34078 28.7898 1.34078C30.8446 1.34078 32.8904 1.34078 34.9451 1.34078C36.0172 1.34078 36.8391 2.01081 36.848 3.13646C36.8569 4.32464 36.848 5.52176 36.848 6.70994C36.848 8.05893 36.848 9.41685 36.848 10.7658C36.848 11.2929 36.7944 11.7843 36.4281 12.2042C36.0172 12.6777 35.4633 12.7849 34.8737 12.7849C33.48 12.7849 32.0864 12.7849 30.6927 12.7849C30.0584 12.7849 29.4241 12.7849 28.7988 12.7849C28.1198 12.7849 27.5212 12.8831 27.0031 13.3834C26.1544 14.2142 25.3771 15.1166 24.5552 15.9742C24.18 16.3673 23.7869 16.3494 23.4117 15.9563C22.9293 15.456 22.4558 14.9468 21.9823 14.4376C21.6518 14.0802 21.3123 13.7318 20.9818 13.3745C20.3832 12.7581 19.4362 13.705 20.0259 14.3304Z" fill="#205C32"/>
<path d="M36.9276 16.8854H29.6377C29.6377 19.8068 27.2703 22.1742 24.349 22.1742C21.4276 22.1742 19.0602 19.8068 19.0602 16.8854H11.1003L0.683594 21.397L4.80203 28.6958L10.4839 26.1318V47.2958H24.0095H37.544V26.1229L43.2259 28.6869L47.3443 21.388L36.9276 16.8854Z" fill="#E9EFEB"/>
<path d="M36.9271 16.2154C34.4971 16.2154 32.0671 16.2154 29.6282 16.2154C29.262 16.2154 28.9582 16.5191 28.9582 16.8854C28.9314 19.4047 26.8767 21.5041 24.3395 21.5041C21.7934 21.5041 19.7476 19.4047 19.7208 16.8854C19.7208 16.5191 19.417 16.2154 19.0507 16.2154C17.8089 16.2154 16.5761 16.2154 15.3343 16.2154C13.9407 16.2154 12.5291 16.1528 11.1355 16.2154C10.8496 16.2243 10.5726 16.3851 10.3046 16.4923C9.74181 16.7335 9.17899 16.9837 8.61617 17.2249C6.96343 17.9396 5.3107 18.6543 3.64903 19.3779C2.54125 19.8603 1.43347 20.3338 0.325695 20.8162C-0.0137859 20.9592 -0.0763229 21.4505 0.0844837 21.7364C1.29053 23.8716 2.48765 25.9978 3.6937 28.1329C3.86344 28.4367 4.03318 28.7315 4.20292 29.0352C4.39053 29.3747 4.79254 29.4194 5.12309 29.2765C7.01703 28.4188 8.91098 27.5701 10.8049 26.7125C10.4654 26.5159 10.1349 26.3283 9.79542 26.1318C9.79542 28.5171 9.79542 30.9024 9.79542 33.2877C9.79542 37.0845 9.79542 40.8903 9.79542 44.6871C9.79542 45.5537 9.79542 46.4202 9.79542 47.2868C9.79542 47.6531 10.0992 47.9568 10.4654 47.9568C14.4231 47.9568 18.3718 47.9568 22.3294 47.9568C25.5545 47.9568 28.7795 47.9568 32.0046 47.9568C33.8449 47.9568 35.6853 47.9568 37.5346 47.9568C37.9008 47.9568 38.2046 47.6531 38.2046 47.2868C38.2046 44.9015 38.2046 42.5162 38.2046 40.1309C38.2046 36.3341 38.2046 32.5283 38.2046 28.7315C38.2046 27.8649 38.2046 26.9984 38.2046 26.1318C37.8651 26.3283 37.5346 26.5159 37.1951 26.7125C39.089 27.5701 40.983 28.4188 42.8769 29.2765C43.2075 29.4194 43.6005 29.3747 43.7971 29.0352C45.0031 26.9001 46.2002 24.7739 47.4063 22.6387C47.576 22.335 47.7458 22.0402 47.9155 21.7364C48.0763 21.4505 48.0138 20.9681 47.6743 20.8162C44.6368 19.503 41.5905 18.1808 38.553 16.8675C38.1242 16.6799 37.6954 16.4923 37.2665 16.3047C36.936 16.1618 36.5518 16.2065 36.3464 16.5459C36.1766 16.8318 36.257 17.3232 36.5876 17.4661C39.625 18.7794 42.6714 20.1015 45.7089 21.4148C46.1377 21.6024 46.5665 21.79 46.9953 21.9776C46.9149 21.6739 46.8345 21.3701 46.7541 21.0575C45.5481 23.1926 44.351 25.3188 43.1449 27.454C42.9752 27.7577 42.8054 28.0525 42.6357 28.3563C42.9394 28.2759 43.2432 28.1955 43.5559 28.1151C41.6619 27.2574 39.768 26.4087 37.874 25.5511C37.4273 25.3456 36.8645 25.5779 36.8645 26.1318C36.8645 28.5171 36.8645 30.9024 36.8645 33.2877C36.8645 37.0845 36.8645 40.8903 36.8645 44.6871C36.8645 45.5537 36.8645 46.4202 36.8645 47.2868C37.0879 47.0635 37.3112 46.8401 37.5346 46.6168C33.5769 46.6168 29.6282 46.6168 25.6706 46.6168C22.4455 46.6168 19.2205 46.6168 15.9954 46.6168C14.1551 46.6168 12.3147 46.6168 10.4654 46.6168C10.6888 46.8401 10.9121 47.0635 11.1355 47.2868C11.1355 44.9015 11.1355 42.5162 11.1355 40.1309C11.1355 36.3341 11.1355 32.5283 11.1355 28.7315C11.1355 27.8649 11.1355 26.9984 11.1355 26.1318C11.1355 25.5868 10.5726 25.3546 10.126 25.5511C8.23201 26.4087 6.33807 27.2574 4.44413 28.1151C4.74787 28.1955 5.05162 28.2759 5.3643 28.3563C4.15825 26.2211 2.96114 24.0949 1.75509 21.9598C1.58535 21.656 1.41561 21.3612 1.24586 21.0575C1.16546 21.3612 1.08506 21.6649 1.00465 21.9776C4.04211 20.6644 7.0885 19.3422 10.126 18.0289C10.5548 17.8413 10.9836 17.6537 11.4124 17.4661C11.2963 17.4929 11.1891 17.5286 11.0729 17.5554C13.3957 17.5554 15.7274 17.5554 18.0502 17.5554C18.3807 17.5554 18.7113 17.5554 19.0418 17.5554C18.8185 17.3321 18.5951 17.1088 18.3718 16.8854C18.3986 19.3779 19.9352 21.5756 22.2579 22.469C24.5718 23.3534 27.3233 22.6119 28.8957 20.709C29.789 19.6281 30.2715 18.288 30.2893 16.8854C30.066 17.1088 29.8426 17.3321 29.6193 17.5554C32.0493 17.5554 34.4792 17.5554 36.9181 17.5554C37.7936 17.5554 37.7936 16.2154 36.9271 16.2154Z" fill="#205C32"/>
</g>
<defs>
<clipPath id="clip0_4781_35061">
<rect width="48" height="48" fill="white"/>
</clipPath>
</defs>
</svg>
