<svg width="48" height="48" viewBox="0 0 48 48" fill="none" xmlns="http://www.w3.org/2000/svg">
<g clip-path="url(#clip0_4781_35376)">
<path d="M37.2049 18.1499H26.6016V29.1189H37.2049V18.1499Z" fill="#E9EFEB"/>
<path d="M10.9492 1.11928V4.27868H18.7881L20.7529 0.737061L10.9492 1.11928Z" fill="#E9EFEB"/>
<path d="M27.8035 28.8667V16.3894C27.8035 15.4461 27.4507 14.5477 26.4624 14.2388C26.0518 14.1088 25.5738 14.1528 25.1476 14.1528H2.30351C2.13342 14.1528 1.96137 14.145 1.79128 14.1596C1.37808 14.1917 0.986183 14.356 0.67366 14.6282C0.361137 14.9004 0.144609 15.266 0.0561541 15.6709C0.0126996 15.943 -0.00204439 16.2189 0.0121649 16.494V44.0987C0.0121649 44.7526 -0.0152061 45.4125 0.0121649 46.0664C0.0639744 47.2766 1.01023 47.9726 2.15493 47.9726H25.8973C26.8416 47.9726 26.8426 46.5063 25.8973 46.5063H2.45601C2.05619 46.5063 1.54397 46.5943 1.47847 46.0596C1.46674 45.8594 1.46674 45.6586 1.47847 45.4584V18.1822C1.47847 17.4979 1.39929 16.755 1.47847 16.0707C1.54103 15.535 2.04153 15.6181 2.44232 15.6181H24.9276C25.2404 15.6181 25.5806 15.58 25.8915 15.6181C26.4203 15.6836 26.3333 16.19 26.3333 16.582V28.8667C26.3333 29.81 27.7996 29.812 27.7996 28.8667H27.8035Z" fill="#205C32"/>
<path d="M11.3502 14.882V4.12324C11.3502 3.4155 11.2671 2.65693 11.3502 1.94822C11.4186 1.37734 12.012 1.49269 12.4343 1.49269H35.0154C35.4397 1.49269 36.1337 1.35388 36.206 1.93258C36.2491 2.26885 36.206 2.63738 36.206 2.97561V28.8667C36.206 29.81 37.6723 29.8119 37.6723 28.8667V16.0824C37.6723 11.3981 37.7466 6.70687 37.6723 2.02251C37.6577 0.857287 36.8102 0.0400656 35.6537 0.02638C35.032 0.0185598 34.4103 0.02638 33.7896 0.02638H16.4539C14.9065 0.02638 13.3454 -0.0332497 11.7989 0.02638C11.2952 0.0351008 10.8145 0.238461 10.4575 0.593828C10.1005 0.949195 9.89494 1.42897 9.8839 1.93258C9.87706 2.11929 9.8839 2.30795 9.8839 2.49466V14.882C9.8839 15.8253 11.3502 15.8273 11.3502 14.882Z" fill="#205C32"/>
<path d="M35.7689 46.5063H11.7899C10.8466 46.5063 10.8456 47.9726 11.7899 47.9726H35.7689C36.7132 47.9726 36.7142 46.5063 35.7689 46.5063Z" fill="#205C32"/>
<path d="M45.7775 46.5063H25.6451C25.1397 46.5063 24.5366 46.6178 24.5131 45.9364C24.4153 43.1866 24.5131 40.4143 24.5131 37.6625V32.5793C24.5131 31.7504 24.4417 30.8853 24.5131 30.0583C24.5688 29.4111 25.5249 29.5988 25.9794 29.5988H44.4627C44.885 29.5988 46.102 29.3818 46.2164 29.983C46.2535 30.1736 46.2164 30.4033 46.2164 30.5949V45.7947C46.2164 46.1143 46.2056 46.4789 45.7765 46.5063C44.8381 46.5571 44.8322 48.0235 45.7765 47.9726C46.8792 47.913 47.6524 47.1007 47.6827 46.0039C47.6925 45.6735 47.6827 45.3421 47.6827 45.0117V30.6761C47.6827 30.4649 47.6925 30.2508 47.6827 30.0397C47.6367 28.9478 46.8127 28.1658 45.7276 28.1335C44.9378 28.11 44.144 28.1335 43.3542 28.1335H32.7547C30.1955 28.1335 27.6354 28.1061 25.0771 28.1335C24.3147 28.1423 23.605 28.4786 23.2511 29.1863C23.0439 29.6008 23.0468 30.0241 23.0468 30.4679V44.7116C23.0468 45.8377 22.8796 47.1554 24.0996 47.7673C24.7839 48.1095 25.7614 47.9726 26.5043 47.9726H45.7775C46.7257 47.9726 46.7257 46.5063 45.7775 46.5063Z" fill="#205C32"/>
<path d="M36.5925 32.6605H28.2434C27.5955 32.6605 27.0703 33.1857 27.0703 33.8335V42.1827C27.0703 42.8305 27.5955 43.3557 28.2434 43.3557H36.5925C37.2404 43.3557 37.7655 42.8305 37.7655 42.1827V33.8335C37.7655 33.1857 37.2404 32.6605 36.5925 32.6605Z" fill="#E9EFEB"/>
<path d="M36.5914 42.6206H28.8366C28.5433 42.6206 28.0712 42.7076 27.8796 42.4251C27.7193 42.1905 27.8043 41.7135 27.8043 41.4476V34.6224C27.8043 34.3467 27.7212 33.8951 27.8522 33.6351C28.0164 33.3086 28.4827 33.3936 28.7848 33.3936H35.5816C35.9091 33.3936 36.2659 33.3555 36.5894 33.3936C37.0733 33.4494 37.0303 33.8648 37.0303 34.2294V38.5883C37.0303 39.7613 37.1281 40.9803 37.0303 42.1514C37.0098 42.4104 36.87 42.6069 36.5904 42.6216C35.652 42.6724 35.6461 44.1397 36.5904 44.0879C37.7126 44.0273 38.481 43.1905 38.4966 42.0781C38.5044 41.5434 38.4966 41.0096 38.4966 40.4749V35.1913C38.4966 34.7456 38.5132 34.2959 38.4966 33.8511C38.4556 32.7592 37.6481 31.9635 36.5601 31.9264C35.2307 31.8804 33.8914 31.9264 32.562 31.9264C31.1465 31.9264 29.7271 31.9009 28.3126 31.9264C27.2197 31.9449 26.382 32.7328 26.3351 33.8335C26.3194 34.2246 26.3351 34.6205 26.3351 35.0115V40.2745C26.3351 40.8542 26.3302 41.4339 26.3351 42.0126C26.3439 42.9716 26.8669 43.8406 27.8581 44.0478C28.2735 44.1348 28.733 44.0908 29.1543 44.0908H36.5904C37.5367 44.0869 37.5367 42.6206 36.5914 42.6206Z" fill="#205C32"/>
<path d="M13.9077 40.0331C17.4413 40.0331 20.3057 37.1686 20.3057 33.6351C20.3057 30.1016 17.4413 27.2371 13.9077 27.2371C10.3742 27.2371 7.50977 30.1016 7.50977 33.6351C7.50977 37.1686 10.3742 40.0331 13.9077 40.0331Z" fill="#E9EFEB"/>
<path d="M19.5741 33.6351C19.5496 35.9704 18.097 38.1552 15.8711 38.9529C14.762 39.3506 13.5573 39.3974 12.4206 39.087C11.2839 38.7766 10.2703 38.124 9.51715 37.2178C8.01663 35.4074 7.84361 32.7475 9.03914 30.7387C10.2347 28.7298 12.6697 27.6027 14.9874 28.071C16.2734 28.3332 17.4304 29.0288 18.2652 30.0415C19.1 31.0542 19.562 32.3227 19.5741 33.6351C19.5838 34.5784 21.0501 34.5804 21.0404 33.6351C21.0269 32.1707 20.5688 30.745 19.7269 29.5467C18.8849 28.3485 17.6988 27.4343 16.3257 26.9253C13.5671 25.9047 10.306 26.7972 8.44088 29.0651C6.54446 31.3721 6.23849 34.6879 7.77518 37.2715C9.31187 39.8552 12.3696 41.1905 15.3149 40.6264C18.6317 39.993 21.0081 36.9705 21.0433 33.6351C21.0501 32.6918 19.5838 32.6908 19.5741 33.6351Z" fill="#205C32"/>
<path d="M32.6504 7.18784V12.2466C32.6504 13.1899 34.1167 13.1909 34.1167 12.2466V7.18784C34.1167 6.24452 32.6504 6.24354 32.6504 7.18784Z" fill="#205C32"/>
<path d="M32.6504 21.3562V26.3837C32.6504 27.327 34.1167 27.329 34.1167 26.3837V21.3562C34.1167 20.4129 32.6504 20.411 32.6504 21.3562Z" fill="#205C32"/>
<path d="M27.0692 19.1343H36.9423C37.8866 19.1343 37.8876 17.668 36.9423 17.668H27.0692C26.1259 17.668 26.1249 19.1343 27.0692 19.1343Z" fill="#205C32"/>
<path d="M8.71177 19.1343H19.0864C20.0297 19.1343 20.0316 17.668 19.0864 17.668H8.71177C7.76844 17.668 7.76746 19.1343 8.71177 19.1343Z" fill="#205C32"/>
<path d="M21.7239 19.1343H24.3104C25.2547 19.1343 25.2557 17.668 24.3104 17.668H21.7239C20.7805 17.668 20.7786 19.1343 21.7239 19.1343Z" fill="#205C32"/>
<path d="M3.48752 19.1343H6.07506C7.01839 19.1343 7.02034 17.668 6.07506 17.668H3.48752C2.5442 17.668 2.54224 19.1343 3.48752 19.1343Z" fill="#205C32"/>
<path d="M0.744968 22.7903H27.07C28.0143 22.7903 28.0153 21.324 27.07 21.324H0.744968C-0.198355 21.324 -0.199332 22.7903 0.744968 22.7903Z" fill="#205C32"/>
<path d="M3.57969 44.0869H23.7795C24.7238 44.0869 24.7248 42.6206 23.7795 42.6206H3.57969C2.63539 42.6206 2.63441 44.0869 3.57969 44.0869Z" fill="#205C32"/>
<path d="M40.4172 35.1298H43.9823C44.9256 35.1298 44.9266 33.6635 43.9823 33.6635H40.4172C39.4739 33.6635 39.4719 35.1298 40.4172 35.1298Z" fill="#205C32"/>
<path d="M40.4172 38.7867H43.9823C44.9256 38.7867 44.9266 37.3204 43.9823 37.3204H40.4172C39.4739 37.3204 39.4719 38.7867 40.4172 38.7867Z" fill="#205C32"/>
<path d="M40.4172 42.4427H43.9823C44.9256 42.4427 44.9266 40.9764 43.9823 40.9764H40.4172C39.4739 40.9764 39.4719 42.4427 40.4172 42.4427Z" fill="#205C32"/>
<path d="M10.6161 5.01184H19.1588C19.287 5.01217 19.413 4.97874 19.5242 4.9149C19.6354 4.85107 19.7278 4.75908 19.7922 4.64819L21.6202 1.12906C22.0591 0.293265 20.7942 -0.448685 20.3582 0.391019L18.5302 3.91015L19.1588 3.54553H10.6161C9.67274 3.54553 9.67176 5.01184 10.6161 5.01184Z" fill="#205C32"/>
<path d="M8.671 30.2665L10.2634 31.854L10.0483 31.3359V35.9734L10.2634 35.4543L8.7101 37.0037C8.04244 37.6714 9.07863 38.7085 9.74727 38.0409C10.2263 37.5609 10.717 37.0917 11.1862 36.6019C11.5987 36.1699 11.5098 35.6567 11.5098 35.0995V32.4542C11.5098 31.9401 11.6417 31.2049 11.2712 30.7924C10.7825 30.247 10.2263 29.7484 9.70719 29.2284C9.03953 28.5597 8.00236 29.5959 8.671 30.2646V30.2665Z" fill="#205C32"/>
</g>
<defs>
<clipPath id="clip0_4781_35376">
<rect width="48" height="48" fill="white"/>
</clipPath>
</defs>
</svg>
