<svg width="48" height="48" viewBox="0 0 48 48" fill="none" xmlns="http://www.w3.org/2000/svg">
<g clip-path="url(#clip0_4781_31550)">
<path d="M43.7268 47.241H4.26367L17.7987 23.8909H30.1928L43.7268 47.241Z" fill="#E9EFEB"/>
<path d="M43.7272 46.5103H5.87453C5.37179 46.5103 4.83397 46.4548 4.33415 46.5103C4.31077 46.5103 4.28641 46.5103 4.26303 46.5103L4.90022 47.6093L9.47945 39.7038L16.7721 27.1227L18.4284 24.2592L17.798 24.6216H30.1931L29.5618 24.2602L34.141 32.1656L41.4366 44.7468L43.0929 47.6093C43.5635 48.4229 44.8272 47.6882 44.3546 46.8718L42.3661 43.4422L37.9038 35.7452L33.3119 27.8222C32.4973 26.4163 31.7276 24.9704 30.8615 23.5957C30.502 23.0238 29.7956 23.1611 29.2052 23.1611H20.4891C19.6122 23.1611 18.7217 23.1192 17.8448 23.1611C17.2602 23.1884 17.081 23.6668 16.8306 24.1004L15.5552 26.3003L11.277 33.6856L6.58577 41.7791L3.76808 46.6379L3.63363 46.8718C3.57105 46.9832 3.53847 47.109 3.53907 47.2368C3.53967 47.3646 3.57344 47.4901 3.63707 47.601C3.70069 47.7118 3.792 47.8043 3.90207 47.8693C4.01213 47.9343 4.13718 47.9696 4.26498 47.9718H38.8527C40.4486 47.9718 42.0601 48.0361 43.6541 47.9718H43.7252C44.6674 47.9718 44.6693 46.5103 43.7272 46.5103Z" fill="#205C32"/>
<path d="M36.9594 47.241H11.0312L21.1825 23.8909H26.8091L36.9594 47.241Z" fill="white"/>
<path d="M36.9601 46.5103H11.032L11.6624 47.6093L15.0948 39.7175L20.5626 27.1412L21.8136 24.2602L21.1833 24.6226H26.8099L26.1785 24.2602L29.611 32.152L35.0778 44.7293L36.3298 47.6074C36.4876 47.9727 37.0118 48.0478 37.3294 47.8695C37.7055 47.6561 37.7474 47.2293 37.5915 46.8698L34.159 38.978L28.6922 26.4036L27.4402 23.5246C27.3428 23.2966 27.0427 23.1631 26.8099 23.1631H21.1833C20.9494 23.1631 20.6513 23.2966 20.5519 23.5246L17.1194 31.4164L11.6526 43.9937L10.4006 46.8718C10.1873 47.3589 10.4279 47.9718 11.032 47.9718H36.9601C37.9003 47.9718 37.9023 46.5103 36.9601 46.5103Z" fill="#205C32"/>
<path d="M23.2656 23.8909V27.3078C23.2656 28.248 24.7271 28.2499 24.7271 27.3078V23.8909C24.7271 22.9507 23.2656 22.9487 23.2656 23.8909Z" fill="#205C32"/>
<path d="M23.2656 30.5346V33.9525C23.2656 34.8927 24.7271 34.8937 24.7271 33.9525V30.5346C24.7271 29.5944 23.2656 29.5935 23.2656 30.5346Z" fill="#205C32"/>
<path d="M23.2656 37.1794V40.5963C23.2656 41.5365 24.7271 41.5384 24.7271 40.5963V37.1794C24.7271 36.2392 23.2656 36.2372 23.2656 37.1794Z" fill="#205C32"/>
<path d="M23.2656 43.8232V47.241C23.2656 48.1812 24.7271 48.1822 24.7271 47.241V43.8232C24.7271 42.883 23.2656 42.882 23.2656 43.8232Z" fill="#205C32"/>
<path d="M23.9959 0.730713C22.6868 0.73078 21.4034 1.09451 20.2889 1.78133C19.1744 2.46816 18.2726 3.45108 17.684 4.62047C17.0955 5.78987 16.8434 7.09976 16.9558 8.40407C17.0682 9.70838 17.5407 10.9558 18.3206 12.0073L20.202 15.2683L22.1136 18.5809C22.3041 18.9116 22.5783 19.1862 22.9086 19.3772C23.239 19.5681 23.6139 19.6687 23.9955 19.6687C24.377 19.6687 24.7519 19.5681 25.0823 19.3772C25.4126 19.1862 25.6869 18.9116 25.8773 18.5809L27.7889 15.2683L29.6605 12.0248C30.445 10.9741 30.9216 9.72593 31.0371 8.41983C31.1526 7.11372 30.9024 5.80124 30.3146 4.6292C29.7267 3.45716 28.8244 2.47177 27.7085 1.78328C26.5926 1.09479 25.3071 0.730348 23.9959 0.730713ZM23.9959 10.4874C23.401 10.4874 22.8195 10.311 22.3249 9.98043C21.8302 9.6499 21.4447 9.18011 21.2171 8.63047C20.9895 8.08083 20.93 7.47604 21.0461 6.89258C21.1623 6.30912 21.4488 5.77321 21.8695 5.35262C22.2903 4.93203 22.8263 4.64565 23.4098 4.52971C23.9933 4.41377 24.598 4.47347 25.1476 4.70126C25.6972 4.92905 26.1668 5.31471 26.4972 5.80944C26.8276 6.30418 27.0038 6.88578 27.0036 7.48068C27.0034 8.2782 26.6864 9.04296 26.1223 9.6068C25.5583 10.1706 24.7935 10.4874 23.9959 10.4874Z" fill="#E9EFEB"/>
<path d="M23.9961 8.78421e-06C21.7074 0.0214434 19.4714 1.02303 18.0109 2.80405C17.2287 3.75238 16.6788 4.87033 16.4051 6.0688C16.1314 7.26727 16.1415 8.5131 16.4345 9.70699C16.6956 10.7524 17.2218 11.5981 17.7654 12.5071C18.1191 13.0995 18.4552 13.7026 18.7991 14.2998L20.358 16.9987C21.079 18.2477 21.7221 19.9099 23.2585 20.3025C24.2893 20.5646 25.439 20.245 26.1483 19.4412C26.5322 19.0057 26.7972 18.4484 27.0856 17.9486C27.6163 17.0295 28.1469 16.1104 28.6776 15.1913L29.8214 13.2096C29.9588 12.9719 30.1137 12.7371 30.2365 12.4906C30.3242 12.3152 30.1946 12.4643 30.1819 12.5364C30.2014 12.4253 30.4109 12.2324 30.4742 12.132C30.5921 11.9576 30.7032 11.7784 30.8055 11.5942C31.3923 10.5412 31.7271 9.36657 31.7835 8.16244C31.8399 6.95832 31.6164 5.7575 31.1306 4.65428C30.6448 3.55106 29.9099 2.57546 28.9835 1.80409C28.0572 1.03272 26.9647 0.486562 25.7917 0.20851C25.2025 0.0740413 24.6004 0.00412897 23.9961 8.78421e-06C23.0549 -0.00875994 23.0539 1.45269 23.9961 1.46146C25.0205 1.4593 26.0301 1.70566 26.9384 2.17943C27.8466 2.65319 28.6264 3.34022 29.2108 4.18156C29.7952 5.02291 30.1668 5.99347 30.2937 7.00997C30.4206 8.02648 30.299 9.0586 29.9393 10.0178C29.6636 10.7719 29.2291 11.3146 28.8559 11.9664L27.8572 13.6977L26.5614 15.9386L25.4897 17.7995C25.249 18.2156 25.0386 18.6335 24.5621 18.8294C23.204 19.3896 22.5931 17.9398 22.0582 17.0143C21.0274 15.2284 20.056 13.384 18.957 11.641C18.5916 11.0564 18.2292 10.5176 18.008 9.86093C17.7803 9.19572 17.6638 8.49753 17.6631 7.79443C17.6618 6.68506 17.9528 5.59493 18.5069 4.63379C19.0674 3.67376 19.8685 2.87633 20.831 2.32006C21.7935 1.76379 22.8844 1.46787 23.9961 1.46146C24.9343 1.45269 24.9373 -0.00875994 23.9961 8.78421e-06Z" fill="#205C32"/>
<path d="M23.997 9.75667C22.7538 9.72939 21.72 8.74242 21.72 7.4807C21.72 7.18168 21.7789 6.8856 21.8934 6.60935C22.0078 6.33309 22.1755 6.08209 22.3869 5.87065C22.5984 5.65922 22.8494 5.4915 23.1256 5.37707C23.4019 5.26265 23.698 5.20375 23.997 5.20375C24.296 5.20375 24.5921 5.26265 24.8683 5.37707C25.1446 5.4915 25.3956 5.65922 25.607 5.87065C25.8185 6.08209 25.9862 6.33309 26.1006 6.60935C26.215 6.8856 26.2739 7.18168 26.2739 7.4807C26.2739 8.74729 25.2392 9.72939 23.997 9.75667C23.0578 9.77713 23.0539 11.2386 23.997 11.2181C24.7613 11.2083 25.505 10.9682 26.1307 10.5291C26.7565 10.0901 27.2352 9.47246 27.5045 8.75703C27.7636 8.03901 27.7975 7.25901 27.6017 6.5212C27.4058 5.78339 26.9895 5.1229 26.4084 4.62794C25.1954 3.6283 23.4562 3.45195 22.0922 4.26355C21.4326 4.6623 20.9104 5.25299 20.5956 5.95659C20.2808 6.66019 20.1884 7.44314 20.3307 8.20071C20.6561 9.95445 22.2442 11.1801 23.997 11.221C24.9372 11.2386 24.9372 9.77713 23.997 9.75667Z" fill="#205C32"/>
<path d="M26.2737 7.48069C26.2464 8.7239 25.2633 9.75666 23.9967 9.75666C23.6938 9.76293 23.3927 9.70868 23.111 9.59709C22.8294 9.4855 22.5728 9.31882 22.3563 9.10681C22.1399 8.8948 21.9679 8.64173 21.8506 8.36242C21.7332 8.08311 21.6727 7.78318 21.6727 7.4802C21.6727 7.17723 21.7332 6.8773 21.8506 6.59799C21.9679 6.31868 22.1399 6.0656 22.3563 5.85359C22.5728 5.64158 22.8294 5.4749 23.111 5.36331C23.3927 5.25173 23.6938 5.19748 23.9967 5.20375C25.2585 5.20375 26.2464 6.23748 26.2737 7.48069C26.2942 8.41992 27.7556 8.42284 27.7351 7.48069C27.7253 6.71622 27.485 5.97251 27.0457 5.34675C26.6065 4.721 25.9887 4.24229 25.2731 3.9732C24.5554 3.71358 23.7755 3.67913 23.0377 3.87447C22.2999 4.0698 21.6392 4.48562 21.144 5.06637C20.1434 6.28132 19.968 8.02045 20.7815 9.38448C21.1803 10.0441 21.771 10.5663 22.4746 10.8811C23.1782 11.1959 23.9611 11.2883 24.7187 11.146C26.4773 10.8196 27.6981 9.23346 27.739 7.48069C27.7556 6.53951 26.2942 6.54049 26.2737 7.48069Z" fill="#205C32"/>
<path d="M27.0036 7.4807C27.0036 8.07556 26.8272 8.65706 26.4967 9.15167C26.1663 9.64628 25.6965 10.0318 25.1469 10.2594C24.5974 10.4871 23.9926 10.5466 23.4092 10.4306C22.8258 10.3145 22.2898 10.0281 21.8692 9.60744C21.4486 9.18681 21.1621 8.65089 21.0461 8.06746C20.93 7.48403 20.9896 6.87929 21.2172 6.32971C21.4449 5.78013 21.8304 5.31039 22.325 4.97991C22.8196 4.64942 23.4011 4.47302 23.996 4.47302C24.3909 4.47302 24.782 4.55082 25.1469 4.70197C25.5118 4.85312 25.8434 5.07466 26.1227 5.35395C26.402 5.63324 26.6235 5.9648 26.7747 6.32971C26.9258 6.69462 27.0036 7.08572 27.0036 7.4807Z" fill="#E9EFEB"/>
<path d="M26.2737 7.48069C26.2464 8.7239 25.2633 9.75666 23.9967 9.75666C23.6938 9.76293 23.3927 9.70868 23.111 9.59709C22.8294 9.4855 22.5728 9.31882 22.3563 9.10681C22.1399 8.8948 21.9679 8.64173 21.8506 8.36242C21.7332 8.08311 21.6727 7.78318 21.6727 7.4802C21.6727 7.17723 21.7332 6.8773 21.8506 6.59799C21.9679 6.31868 22.1399 6.0656 22.3563 5.85359C22.5728 5.64158 22.8294 5.4749 23.111 5.36331C23.3927 5.25173 23.6938 5.19748 23.9967 5.20375C25.2585 5.20375 26.2464 6.23748 26.2737 7.48069C26.2942 8.41992 27.7556 8.42284 27.7351 7.48069C27.7253 6.71622 27.485 5.97251 27.0457 5.34675C26.6065 4.721 25.9887 4.24229 25.2731 3.9732C24.5554 3.71358 23.7755 3.67913 23.0377 3.87447C22.2999 4.0698 21.6392 4.48562 21.144 5.06637C20.1434 6.28132 19.968 8.02045 20.7815 9.38448C21.1803 10.0441 21.771 10.5663 22.4746 10.8811C23.1782 11.1959 23.9611 11.2883 24.7187 11.146C26.4773 10.8196 27.6981 9.23346 27.739 7.48069C27.7556 6.53951 26.2942 6.54049 26.2737 7.48069Z" fill="#205C32"/>
</g>
<defs>
<clipPath id="clip0_4781_31550">
<rect width="48" height="48" fill="white"/>
</clipPath>
</defs>
</svg>
