<svg width="48" height="48" viewBox="0 0 48 48" fill="none" xmlns="http://www.w3.org/2000/svg">
<g clip-path="url(#clip0_4781_31869)">
<path d="M42.0664 16.5625V15.5613C42.0672 15.3003 42.1712 15.0503 42.3557 14.8658C42.5402 14.6813 42.7902 14.5773 43.0512 14.5765H44.5953C44.8563 14.5773 45.1063 14.6813 45.2908 14.8658C45.4753 15.0503 45.5793 15.3003 45.5801 15.5613V16.5625" fill="#E9EFEB"/>
<path d="M42.5518 16.5626C42.5518 16.2158 42.4712 15.7652 42.5702 15.4292C42.7178 14.9271 43.4268 15.0621 43.823 15.0621C44.2193 15.0621 44.8622 14.9339 45.0506 15.37C45.1924 15.6972 45.0943 16.2129 45.0943 16.5626C45.0943 17.187 46.0655 17.188 46.0655 16.5626C46.0655 15.9371 46.1626 15.2466 45.7935 14.7173C45.3167 14.0375 44.5533 14.0929 43.823 14.0929C43.0927 14.0929 42.3303 14.0365 41.8525 14.7173C41.4806 15.2486 41.5806 15.9497 41.5806 16.5626C41.5806 17.1754 42.5518 17.188 42.5518 16.5626Z" fill="#205C32"/>
<path d="M32.57 8.04056L40.417 3.512C43.7394 2.51849 46.3412 3.59746 46.7073 4.93962C46.9841 5.96128 46.0158 7.32966 44.6377 8.34647L38.5757 11.5698L33.8947 27.9155L30.8248 29.3723L30.9812 15.9439C28.4338 17.1006 26.404 18.1242 24.9949 18.8574C22.6291 20.0937 21.3715 20.8522 19.3135 21.2407C18.099 21.465 16.8589 21.5169 15.6299 21.3951L8.95312 15.7905L11.5578 14.256L17.5441 16.7111L26.1515 11.7436L17.7014 6.81203L21.0752 4.81628L32.57 8.04056Z" fill="#E9EFEB"/>
<path d="M32.9364 8.66987L39.8657 4.6706C40.4416 4.33846 40.9097 4.10538 41.5662 3.98009C42.1047 3.87794 42.653 3.83657 43.2007 3.85676C43.9932 3.88492 44.8585 4.05099 45.514 4.52395C45.9685 4.85123 46.1375 5.18046 45.9404 5.73985C45.5927 6.7217 44.6506 7.51418 43.7649 7.98519L40.2279 9.86635L38.6284 10.7171C38.2982 10.8919 37.9972 11.0201 37.867 11.3969C37.3873 12.7818 37.0542 14.2376 36.6511 15.6458L34.533 23.0393L33.1909 27.7261L33.5259 27.291L30.456 28.7478L31.5525 29.3771L31.6865 17.626L31.7059 15.9459C31.7127 15.3496 31.0922 15.0971 30.6095 15.3165C28.0631 16.4751 25.5788 17.7445 23.0994 19.0351C22.002 19.6072 20.8968 20.1316 19.6868 20.4191C18.3567 20.722 16.9862 20.8056 15.6292 20.6667L16.1439 20.8794L10.3101 15.9847L9.46716 15.2777L9.32342 16.4198L11.933 14.8844L11.3716 14.9582L15.2932 16.5664C15.9283 16.8277 16.5557 17.1181 17.2054 17.3511C17.6357 17.5065 17.9425 17.3269 18.333 17.1016L20.8978 15.6205L26.5257 12.3729C26.6347 12.3075 26.725 12.215 26.7876 12.1044C26.8502 11.9938 26.8832 11.8688 26.8832 11.7417C26.8832 11.6145 26.8502 11.4896 26.7876 11.379C26.725 11.2683 26.6347 11.1758 26.5257 11.1104L19.1196 6.79551L18.0688 6.18756V7.44037L21.4455 5.44559L20.8842 5.51843L30.9329 8.33481L32.376 8.73979C33.2792 8.99327 33.6658 7.58799 32.7645 7.33451L21.7204 4.2394C21.5194 4.18404 21.2892 4.08789 21.0775 4.08789C20.7385 4.08789 20.4248 4.35594 20.1471 4.52006L19.2624 5.04255L17.3336 6.18756C17.2255 6.25306 17.136 6.34535 17.074 6.4555C17.0119 6.56566 16.9793 6.68996 16.9793 6.81639C16.9793 6.94283 17.0119 7.06713 17.074 7.17728C17.136 7.28744 17.2255 7.37972 17.3336 7.44522L24.7359 11.7592L25.7867 12.3729V11.1104L17.1802 16.0828L17.7405 16.009L13.9918 14.4707L12.0126 13.6588C11.796 13.5704 11.6173 13.4849 11.3677 13.5529C11.1181 13.6209 10.8627 13.8219 10.6374 13.954L8.58436 15.1612C8.20852 15.3826 8.07159 15.9983 8.43675 16.3052L13.8879 20.8755L14.9436 21.7622C15.0009 21.8098 15.0562 21.8593 15.1164 21.9069C15.5311 22.2118 16.143 22.1711 16.6451 22.1817C19.1885 22.239 21.4689 21.5194 23.7006 20.3627C26.2256 19.0526 28.7507 17.7532 31.3485 16.5752L30.2531 15.9459L30.1181 27.697L30.0996 29.3771C30.0928 29.9666 30.7134 30.2347 31.1951 30.0055L33.117 29.0926C33.6123 28.8575 34.4116 28.6565 34.6068 28.0874C34.9118 27.1978 35.1283 26.2665 35.3838 25.3633L38.4585 14.6212L39.2772 11.763L38.9441 12.1981L41.9741 10.587C42.9511 10.0722 43.9718 9.58665 44.9206 9.02046C46.2259 8.23575 47.8176 6.4556 47.4214 4.79782C47.1126 3.50616 45.683 2.80595 44.4953 2.55733C43.6322 2.38246 42.7461 2.35227 41.8731 2.46799C41.3746 2.52466 40.8815 2.6221 40.3989 2.75934C39.8589 2.92055 39.3655 3.27794 38.879 3.55861L32.2012 7.4122C31.3903 7.88031 32.1226 9.13991 32.9364 8.66987Z" fill="#205C32"/>
<path d="M26.522 12.3729L32.9366 8.66987C33.7485 8.20177 33.0162 6.94216 32.2014 7.40735L25.7868 11.1143C24.9749 11.5834 25.7082 12.842 26.522 12.3768V12.3729Z" fill="#205C32"/>
<path d="M46.3425 16.6869H41.306C40.6624 16.6869 40.1406 17.2086 40.1406 17.8523V25.1399C40.1406 25.7835 40.6624 26.3053 41.306 26.3053H46.3425C46.9861 26.3053 47.5079 25.7835 47.5079 25.1399V17.8523C47.5079 17.2086 46.9861 16.6869 46.3425 16.6869Z" fill="#E9EFEB"/>
<path d="M46.342 25.8197H41.8872C41.5619 25.8197 41.1355 25.8858 40.8694 25.6604C40.6033 25.4351 40.6257 25.1049 40.6257 24.7864V18.2495C40.6257 17.9639 40.5859 17.6512 40.785 17.4152C41.0394 17.1142 41.4415 17.1724 41.793 17.1724H43.5343C44.4569 17.1724 45.4155 17.0977 46.3362 17.1724C47.2568 17.2472 47.0218 18.4787 47.0218 19.1206V24.834C47.0218 25.3011 46.9334 25.7896 46.342 25.8217C45.7204 25.8556 45.7165 26.8268 46.342 26.7928C47.2704 26.7423 47.9551 26.0703 47.993 25.135C48.0056 24.834 47.993 24.53 47.993 24.2289V18.4563C47.993 18.1368 48.024 17.7862 47.9483 17.4735C47.5987 16.0167 46.0904 16.2013 44.9493 16.2013C43.7596 16.2013 42.568 16.1809 41.3774 16.2013C40.6412 16.2139 39.9585 16.6257 39.7312 17.356C39.6273 17.691 39.6545 18.0543 39.6545 18.401C39.6545 20.6346 39.5661 22.8907 39.6545 25.1244C39.6602 25.5619 39.8355 25.9802 40.1434 26.291C40.4514 26.6019 40.868 26.7811 41.3055 26.7909C41.7668 26.8103 42.2339 26.7909 42.6952 26.7909H46.3391C46.9674 26.7909 46.9684 25.8197 46.342 25.8197Z" fill="#205C32"/>
<path d="M41.582 18.3553V24.5524C41.582 25.1778 42.5532 25.1788 42.5532 24.5524V18.3553C42.5532 17.7309 41.582 17.7299 41.582 18.3553Z" fill="#205C32"/>
<path d="M43.3379 18.3553V24.5524C43.3379 25.1778 44.3091 25.1788 44.3091 24.5524V18.3553C44.3091 17.7309 43.3379 17.7299 43.3379 18.3553Z" fill="#205C32"/>
<path d="M45.0957 18.3553V24.5524C45.0957 25.1778 46.0669 25.1788 46.0669 24.5524V18.3553C46.0669 17.7309 45.0957 17.7299 45.0957 18.3553Z" fill="#205C32"/>
<path d="M42.076 28.1622C42.3833 28.1622 42.6325 27.913 42.6325 27.6057C42.6325 27.2984 42.3833 27.0492 42.076 27.0492C41.7687 27.0492 41.5195 27.2984 41.5195 27.6057C41.5195 27.913 41.7687 28.1622 42.076 28.1622Z" fill="#205C32"/>
<path d="M45.5799 28.1622C45.8873 28.1622 46.1364 27.913 46.1364 27.6057C46.1364 27.2984 45.8873 27.0492 45.5799 27.0492C45.2726 27.0492 45.0234 27.2984 45.0234 27.6057C45.0234 27.913 45.2726 28.1622 45.5799 28.1622Z" fill="#205C32"/>
<path d="M28.9306 33.9086L39.1386 32.4518C41.2334 31.8449 43.2903 33.2074 43.5914 35.0254C43.8478 36.5735 42.796 38.2614 41.043 38.7712L24.7643 42.6627C23.864 42.9549 22.9115 43.0506 21.9711 42.9432C21.0307 42.8358 20.1243 42.5279 19.3131 42.0402L15.0351 39.9289C14.5469 39.6191 13.9948 39.4241 13.4204 39.3585C12.8459 39.2929 12.2641 39.3584 11.7186 39.5501L9.29066 40.5475L5.53516 29.9297L13.4123 27.4241C15.1641 26.9294 17.0401 27.1436 18.6352 28.0204L21.1603 29.9501L27.5807 32.312C28.1002 32.7461 28.4602 33.3411 28.6038 34.0027C28.7474 34.6644 28.6663 35.355 28.3734 35.9654C28.0805 36.5759 27.5925 37.0712 26.9865 37.3732C26.3806 37.6752 25.6912 37.7667 25.0275 37.633L16.6861 34.2466" fill="#E9EFEB"/>
<path d="M29.1249 34.6107L38.114 33.3259C38.5151 33.2686 38.925 33.2288 39.3231 33.153C40.5352 32.919 41.8016 33.1588 42.528 34.2679C43.2544 35.377 42.8475 36.7541 41.8637 37.5466C41.4617 37.869 41.0081 38.0322 40.5206 38.1458L31.0274 40.4164L26.1017 41.5954C24.9926 41.8605 23.8078 42.2664 22.6715 42.2577C20.7738 42.2422 19.0306 41.0923 17.3718 40.2707C16.7299 39.9531 16.0734 39.6559 15.4421 39.318C14.2602 38.6858 12.9695 38.3847 11.6545 38.8071C10.7863 39.0859 9.94335 39.4986 9.0994 39.8444L9.99579 40.3532L6.70839 31.065L6.23834 29.7355L5.73042 30.6319L9.76077 29.3499C11.0699 28.9333 12.3742 28.4623 13.6998 28.101C14.7559 27.8175 15.8684 27.8202 16.9231 28.1088C17.3635 28.2193 17.7878 28.3861 18.1857 28.605C18.7441 28.9274 19.2413 29.3985 19.7522 29.7869C20.0435 30.0122 20.3349 30.2609 20.6417 30.4668C20.9088 30.6454 21.1973 30.7387 21.4993 30.8504L23.463 31.5719L25.4267 32.2945L26.3192 32.6227L26.8553 32.817C26.8553 32.817 27.2797 32.9879 27.1748 32.9209C27.942 33.4181 28.0867 34.6845 27.8022 35.4644C27.47 36.3724 26.5591 36.9619 25.6034 36.96C24.8877 36.96 24.102 36.4744 23.4494 36.2093L21.3196 35.3449L16.8823 33.5454C16.5152 33.3968 16.085 33.7075 15.986 34.0542C15.8675 34.4689 16.1326 34.803 16.4949 34.9506L20.9321 36.7512L23.0619 37.6155C23.7815 37.9069 24.5371 38.3361 25.3179 38.4041C27.8604 38.6236 29.8921 36.1937 29.2832 33.7318C29.1391 33.1677 28.8688 32.6437 28.4927 32.1993C27.9789 31.5846 27.2573 31.4224 26.528 31.1514L22.2403 29.5762C21.8712 29.4402 21.542 29.3305 21.2244 29.0906C20.9253 28.8672 20.6311 28.6361 20.3349 28.4108C19.7881 27.9922 19.2578 27.4989 18.6334 27.2027C17.4727 26.6425 16.1903 26.3818 14.9031 26.4442C13.3706 26.5306 11.9168 27.1327 10.4678 27.594L5.34195 29.2266C4.98651 29.3402 4.6971 29.7393 4.83306 30.123L8.11561 39.4112L8.58469 40.7407C8.70414 41.0777 9.09552 41.407 9.48107 41.2496C10.998 40.6271 12.6859 39.5608 14.3321 40.3678C14.9041 40.6485 15.4683 40.9505 16.0413 41.236L18.5955 42.4986C19.42 42.9055 20.2086 43.3376 21.1205 43.5377C22.4471 43.8291 23.7087 43.698 25.0052 43.3561C25.3451 43.2668 25.685 43.1929 26.0298 43.1114L30.8633 41.9557L40.8663 39.5637C42.8475 39.0898 44.5461 37.364 44.3509 35.208C44.2042 33.66 43.1204 32.4091 41.6938 31.8565C40.9325 31.573 40.1076 31.5057 39.3105 31.6623C39.1163 31.6992 38.922 31.7506 38.7278 31.7788L29.0258 33.1666L28.7403 33.2074C28.3518 33.2627 28.1343 33.759 28.2314 34.1038C28.348 34.5214 28.7345 34.668 29.1268 34.6117L29.1249 34.6107Z" fill="#205C32"/>
<path d="M4.64273 27.6824L0.779124 29.0407C0.171922 29.2542 -0.147259 29.9194 0.0662132 30.5267L4.94385 44.4006C5.15732 45.0078 5.82261 45.327 6.42981 45.1135L10.2934 43.7552C10.9006 43.5417 11.2198 42.8765 11.0063 42.2693L6.12869 28.3953C5.91522 27.7881 5.24993 27.4689 4.64273 27.6824Z" fill="#205C32"/>
</g>
<defs>
<clipPath id="clip0_4781_31869">
<rect width="48" height="48" fill="white"/>
</clipPath>
</defs>
</svg>
