<svg width="48" height="48" viewBox="0 0 48 48" fill="none" xmlns="http://www.w3.org/2000/svg">
<g clip-path="url(#clip0_4781_32189)">
<path d="M46.6138 28.2771C48.0358 20.3089 45.3208 12.0236 39.3024 6.5724C33.5532 1.36832 25.4562 -0.692924 17.9188 1.13374C10.5391 2.92291 4.40342 8.34812 1.61055 15.3894C-1.23521 22.5644 -0.259385 30.9786 4.13904 37.3181C8.50285 43.6066 15.7672 47.4667 23.4306 47.4926C24.7347 47.4904 26.0366 47.3852 27.3242 47.1782C27.7088 47.1186 27.9251 46.636 27.828 46.2909C27.7136 45.8813 27.3291 45.7275 26.9416 45.7881C19.4552 46.9562 11.7918 44.1421 6.82039 38.4362C2.05568 32.9649 0.302075 25.2842 2.17297 18.2785C3.98906 11.4823 9.11334 5.78598 15.7115 3.31997C19.0964 2.06491 22.7354 1.65059 26.3158 2.11262C29.8962 2.57466 33.3109 3.89923 36.2663 5.97249C42.1433 10.1229 45.6496 17.068 45.565 24.2517C45.5516 25.473 45.4371 26.691 45.2227 27.8935C45.0612 28.801 46.4504 29.1904 46.6138 28.278V28.2771Z" fill="#205C32"/>
<path d="M37.6809 44.7594L41.0314 46.4351C41.2678 46.1852 41.3995 45.8542 41.3995 45.5102C41.3995 45.1662 41.2678 44.8353 41.0314 44.5853L39.0067 42.9798V36.2442L47.2748 38.3391V36.3125L39.2817 32.612V28.9125C39.1842 28.4849 38.9442 28.1031 38.601 27.83C38.3326 27.6216 38.0132 27.4888 37.6761 27.4454H37.3877C37.0506 27.4888 36.7313 27.6216 36.4628 27.83C36.12 28.1034 35.8801 28.4851 35.7822 28.9125V32.612L27.7891 36.3125V38.3372L36.0629 36.2442V42.9817L34.0391 44.5873C33.8028 44.8372 33.6711 45.1681 33.6711 45.5121C33.6711 45.8561 33.8028 46.1871 34.0391 46.437L37.3887 44.7613L37.6809 44.7594Z" fill="#E9EFEB"/>
<path d="M37.316 45.3824L40.6674 47.0581C40.9443 47.1956 41.3192 47.1908 41.5413 46.9446C41.8458 46.619 42.0391 46.2052 42.0934 45.7627C42.1476 45.3203 42.06 44.872 41.8432 44.4825C41.6279 44.1066 41.2971 43.8816 40.9626 43.6172L39.5205 42.4703L39.731 42.9808V36.2442L38.8186 36.9393L46.0609 38.7727L47.0877 39.0323C47.1946 39.0601 47.3065 39.0633 47.4148 39.0416C47.5231 39.0198 47.6251 38.9737 47.713 38.9068C47.8009 38.8398 47.8724 38.7537 47.9221 38.655C47.9719 38.5564 47.9985 38.4477 48 38.3372V36.3125C48 36.0769 47.8674 35.7933 47.6434 35.6895L40.6491 32.4524L39.6493 31.99L40.0069 32.612V30.2883C40.0069 29.4663 40.1136 28.6674 39.6522 27.9377C38.8081 26.6013 36.9929 26.3245 35.8354 27.4205C35.0605 28.155 35.0615 28.9587 35.0615 29.9288V32.612L35.4191 31.99L28.4239 35.227L27.425 35.6895C27.201 35.7933 27.0684 36.074 27.0684 36.3125V38.3372C27.07 38.4473 27.0966 38.5555 27.1461 38.6538C27.1956 38.7521 27.2668 38.838 27.3542 38.9049C27.4416 38.9718 27.5431 39.018 27.6509 39.04C27.7588 39.0621 27.8702 39.0595 27.9769 39.0323L35.223 37.1979L36.2498 36.9374L35.3412 36.2442V42.9817L35.5518 42.4712L34.1097 43.6182C33.7742 43.8845 33.4473 44.1095 33.229 44.4834C32.7656 45.2843 32.9233 46.2736 33.5309 46.9456C33.7549 47.1936 34.127 47.1975 34.4048 47.059L37.7553 45.3833L37.391 45.4795H37.6794C38.6071 45.4795 38.6091 44.0373 37.6794 44.0373C36.9477 44.0373 36.2863 44.5046 35.645 44.8257L33.6732 45.8121L34.5471 45.9246C34.4536 45.8036 34.3989 45.6571 34.3904 45.5045C34.3962 45.4018 34.4237 45.3015 34.4712 45.2103C34.5202 45.0959 34.5308 45.1141 34.5471 45.0939C35.1172 44.5027 35.8931 44.1066 36.4988 43.5461C36.8833 43.1904 36.7872 42.6424 36.7872 42.1645V36.2442C36.7855 36.1337 36.7587 36.025 36.7089 35.9263C36.6591 35.8276 36.5875 35.7416 36.4995 35.6746C36.4115 35.6077 36.3095 35.5616 36.2011 35.5399C36.0927 35.5181 35.9808 35.5213 35.8739 35.5491L28.6278 37.3835L27.601 37.6431L28.5143 38.3391V36.3125L28.1567 36.9345L35.1518 33.6975L36.1488 33.235C36.3728 33.1312 36.5055 32.8505 36.5055 32.612V29.4904C36.5055 29.3548 36.5055 29.2183 36.5055 29.0827C36.5055 28.9164 36.5565 28.8952 36.4911 29.0558C36.569 28.8635 36.6103 28.7097 36.7535 28.5453C36.862 28.4216 36.9962 28.3232 37.1468 28.2569C37.2304 28.2194 37.5255 28.1607 37.4631 28.1607C37.3602 28.1694 37.6102 28.1607 37.6553 28.1684C37.4573 28.1569 37.7621 28.1934 37.8274 28.2165C37.9743 28.2675 38.1095 28.3474 38.225 28.4514C38.3406 28.5554 38.4342 28.6815 38.5004 28.8222C38.5302 28.8847 38.5418 28.9654 38.5744 29.026C38.6244 29.1221 38.5744 28.8568 38.5687 28.9414C38.5629 29.026 38.5687 29.1337 38.5687 29.2298V32.6091C38.5687 32.8447 38.7013 33.1283 38.9254 33.2321L45.9205 36.4692L46.9165 36.9345L46.5589 36.3125V38.3372L47.4722 37.6411L40.2252 35.8068L39.1984 35.5472C39.0914 35.5194 38.9795 35.5162 38.8711 35.5379C38.7627 35.5597 38.6607 35.6058 38.5728 35.6727C38.4848 35.7397 38.4132 35.8257 38.3634 35.9244C38.3135 36.0231 38.2867 36.1318 38.2851 36.2423V39.6072C38.2851 40.7205 38.2101 41.8636 38.2851 42.9721C38.3197 43.4701 38.7917 43.7162 39.1503 43.9979L40.1617 44.8007C40.5222 45.0891 40.9097 45.49 40.5232 45.9179L41.3971 45.8054L38.0437 44.1373C37.216 43.723 36.4853 44.967 37.316 45.3824Z" fill="#205C32"/>
<path d="M22.6423 23.8104C22.6423 24.3355 23.0678 24.7612 23.5926 24.7612C24.1175 24.7612 24.543 24.3355 24.543 23.8104V16.3681C24.543 15.843 24.1175 15.4173 23.5926 15.4173C23.0678 15.4173 22.6423 15.843 22.6423 16.3681V23.8104Z" fill="#205C32"/>
<path d="M24.3034 23.2564C23.9321 22.885 23.3302 22.8849 22.9591 23.256C22.588 23.6271 22.5881 24.229 22.9594 24.6003L27.7195 29.3604C28.0908 29.7317 28.6927 29.7319 29.0638 29.3608C29.435 28.9896 29.4348 28.3877 29.0635 28.0164L24.3034 23.2564Z" fill="#205C32"/>
<path d="M24.5146 4.9148C24.5166 4.39499 24.097 3.97198 23.5774 3.96998C23.0579 3.96799 22.6351 4.38776 22.6331 4.90758L22.6166 9.21848C22.6146 9.73829 23.0341 10.1613 23.5537 10.1633C24.0732 10.1653 24.496 9.74552 24.498 9.2257L24.5146 4.9148Z" fill="#205C32"/>
<path d="M8.74102 24.9292C9.26084 24.9312 9.68385 24.5116 9.68584 23.9921C9.68784 23.4725 9.26806 23.0497 8.74825 23.0477L4.43734 23.0312C3.91753 23.0292 3.49452 23.4487 3.49252 23.9683C3.49053 24.4878 3.91031 24.9106 4.43012 24.9126L8.74102 24.9292Z" fill="#205C32"/>
<path d="M42.5633 24.9289C43.0831 24.9309 43.5061 24.5114 43.5081 23.9918C43.5101 23.4723 43.0903 23.0495 42.5705 23.0475L38.2596 23.0309C37.7398 23.0289 37.3168 23.4485 37.3148 23.968C37.3128 24.4876 37.7326 24.9104 38.2524 24.9124L42.5633 24.9289Z" fill="#205C32"/>
<path d="M37.7607 11.1952C38.1297 10.8291 38.1321 10.2333 37.7662 9.8645C37.4002 9.49571 36.8044 9.49357 36.4354 9.85973L33.3755 12.8963C33.0065 13.2624 33.004 13.8582 33.37 14.227C33.736 14.5958 34.3318 14.5979 34.7007 14.2318L37.7607 11.1952Z" fill="#205C32"/>
<path d="M12.4441 14.1342C12.8131 14.5004 13.4089 14.4983 13.7749 14.1295C14.1408 13.7607 14.1384 13.1649 13.7694 12.7988L10.7094 9.76219C10.3405 9.39604 9.74467 9.39817 9.37871 9.76696C9.01274 10.1357 9.01518 10.7315 9.38416 11.0977L12.4441 14.1342Z" fill="#205C32"/>
<path d="M24.4944 38.7302C24.4924 38.2104 24.0697 37.7907 23.5501 37.7927C23.0306 37.7946 22.611 38.2177 22.613 38.7375L22.6295 43.0484C22.6315 43.5682 23.0543 43.988 23.5739 43.986C24.0934 43.984 24.513 43.561 24.511 43.0412L24.4944 38.7302Z" fill="#205C32"/>
<path d="M9.38187 36.8562C9.0129 37.2223 9.01046 37.8181 9.37642 38.1869C9.74239 38.5557 10.3382 38.5578 10.7072 38.1917L13.7671 35.1551C14.1361 34.7889 14.1385 34.1932 13.7726 33.8244C13.4066 33.4556 12.8108 33.4535 12.4418 33.8196L9.38187 36.8562Z" fill="#205C32"/>
</g>
<defs>
<clipPath id="clip0_4781_32189">
<rect width="48" height="48" fill="white"/>
</clipPath>
</defs>
</svg>
