<svg width="48" height="48" viewBox="0 0 48 48" fill="none" xmlns="http://www.w3.org/2000/svg">
<g clip-path="url(#clip0_4781_32506)">
<path d="M15.1308 5.18923C17.7628 4.05952 20.5972 3.47695 23.4614 3.47695C26.3257 3.47695 29.16 4.05952 31.7921 5.18923C32.1627 5.35075 32.5848 5.29625 32.8088 4.92267C32.996 4.61054 32.9078 4.06553 32.5422 3.90599C29.677 2.6599 26.5859 2.01685 23.4614 2.01685C20.337 2.01685 17.2459 2.6599 14.3807 3.90599C14.0091 4.06652 13.9318 4.59964 14.1141 4.92267C14.3311 5.30517 14.7642 5.34778 15.1308 5.18923Z" fill="#205C32"/>
<path d="M31.7923 43.7151C31.5059 43.7151 31.2096 43.8984 30.948 43.9985C30.5946 44.1306 30.2372 44.2551 29.8759 44.3721C29.2053 44.5868 28.5249 44.7681 27.8346 44.9161C24.9801 45.5187 22.032 45.5252 19.1749 44.9349C18.4853 44.7902 17.8039 44.6115 17.1307 44.3988C16.7687 44.2852 16.4106 44.162 16.0565 44.0292C15.7811 43.9252 15.4293 43.7151 15.13 43.7151C14.1738 43.7151 14.1718 45.2015 15.13 45.2015C14.9953 45.2015 15.3778 45.3541 15.4174 45.3689C15.5799 45.4323 15.7434 45.4928 15.9069 45.5522C16.2636 45.6844 16.6233 45.8033 16.986 45.909C17.6631 46.1144 18.3482 46.2852 19.0412 46.4213C21.9299 46.9995 24.904 47.0053 27.7949 46.4381C28.4886 46.306 29.1746 46.1382 29.8531 45.9347C30.2157 45.8264 30.5761 45.7088 30.9342 45.582C31.0973 45.5238 31.2605 45.4634 31.4237 45.4006C31.4802 45.3788 31.8894 45.2025 31.7923 45.2025C32.7485 45.2025 32.7505 43.7161 31.7923 43.7161V43.7151Z" fill="#205C32"/>
<path d="M2.00529 17.8462C0.651799 22.3248 0.713049 27.112 2.18068 31.5545C2.47796 32.4573 3.91677 32.0708 3.61355 31.1582C2.22097 26.9743 2.1597 22.4617 3.43815 18.2416C3.7166 17.324 2.28175 16.9316 2.00529 17.8452V17.8462Z" fill="#205C32"/>
<path d="M43.4856 18.2426C44.7625 22.4633 44.6988 26.9762 43.3033 31.1592C43.0011 32.0688 44.4359 32.4593 44.7362 31.5555C46.2058 27.1138 46.2681 22.3266 44.9145 17.8482C44.6381 16.9356 43.2032 17.324 43.4817 18.2446L43.4856 18.2426Z" fill="#205C32"/>
<path d="M7.99353 16.4401C8.52169 16.4153 10.3351 16.2964 11.7263 14.7981C13.1176 13.2999 13.1057 11.4914 13.0928 10.9593C13.0403 8.62572 11.5618 7.1443 11.2398 6.83612C11.2275 7.07164 11.1686 7.30238 11.0666 7.51499C10.9645 7.7276 10.8213 7.91787 10.6452 8.07477C10.3924 8.29022 10.0827 8.42788 9.7534 8.47114C9.75425 7.07356 9.48507 5.68898 8.96067 4.39351C8.57011 3.42718 8.0414 2.52263 7.39106 1.70813C7.15704 2.93824 6.70105 4.11549 6.04539 5.18228C5.35175 6.29806 4.84242 6.60821 4.05563 8.00838C3.49874 8.99929 3.13705 9.64537 2.9904 10.557C2.92301 10.9722 2.5643 13.5119 4.40939 15.2074C5.81154 16.4976 7.57537 16.4609 7.99353 16.4401Z" fill="#EDEDED"/>
<path d="M7.9924 17.1833C10.7541 17.0446 13.1987 15.2193 13.7139 12.42C13.9177 11.3199 13.8463 10.1866 13.5063 9.12079C13.1662 8.05498 12.568 7.08975 11.7648 6.31096C11.2822 5.84622 10.5351 6.20097 10.4955 6.83615C10.4855 7.00262 10.5182 6.79651 10.4717 6.97487C10.4416 7.11169 10.3851 7.24129 10.3052 7.35638C10.1189 7.61204 9.85334 7.70915 9.55309 7.75275L10.4945 8.46918C10.4793 5.81905 9.57051 3.25153 7.91511 1.18198C7.57225 0.748946 6.78051 0.998657 6.67349 1.50997C6.37621 2.95473 5.82923 4.31823 4.93046 5.49742C4.01188 6.70138 3.13393 7.89643 2.56713 9.31542C1.68026 11.5361 2.25103 14.4206 4.13278 15.9476C5.22717 16.8134 6.59865 17.2525 7.9924 17.1833C8.94467 17.1417 8.95061 15.6553 7.9924 15.6969C7.0364 15.7547 6.08766 15.499 5.29017 14.9686C4.3052 14.2888 3.76416 13.1413 3.67696 11.9671C3.65366 11.58 3.66062 11.1917 3.69776 10.8058C3.71065 10.6541 3.67101 10.9504 3.69776 10.7998C3.71758 10.6859 3.73542 10.5729 3.76118 10.4599C3.83224 10.1484 3.93586 9.84512 4.07035 9.55522C4.65697 8.29279 5.47448 7.25431 6.29 6.14548C7.20957 4.89395 7.79124 3.41848 8.10635 1.90535L6.86473 2.23334C8.25687 4.01633 9.01211 6.21401 9.01007 8.47611C9.01007 9.00328 9.48075 9.26885 9.95045 9.19255C11.1187 9.01418 11.9115 7.98264 11.9818 6.84011L10.7135 7.36629C11.9263 8.53458 12.5536 10.2399 12.2989 11.9156C11.963 14.1432 10.0793 15.5958 7.99141 15.7009C7.04013 15.7455 7.03517 17.2319 7.9924 17.1833Z" fill="#205C32"/>
<path d="M5.09969 14.6891C4.9897 13.7924 5.17302 13.1968 5.34742 12.8302C5.72695 12.0315 6.2115 11.7977 6.71093 10.9296C7.04947 10.3315 7.26098 9.66999 7.33223 8.98642C7.83862 9.11341 8.28897 9.40389 8.61348 9.81284C9.28533 10.6789 9.06039 11.6956 9.0267 11.8373C9.26112 11.8763 9.48565 11.9608 9.68764 12.086C10.523 12.6072 10.8767 13.8261 10.6786 15.1846C10.522 15.3253 9.20803 16.4728 7.41448 16.1349C6.49246 15.9512 5.66928 15.4371 5.09969 14.6891Z" fill="#205C32"/>
<path d="M6.99609 31.7101V46.4431C6.99609 47.3993 8.48247 47.4013 8.48247 46.4431V31.7101C8.48247 30.7539 6.99609 30.7529 6.99609 31.7101Z" fill="#205C32"/>
<path d="M6.03147 46.0467L8.40967 42.8203H7.12147L9.45013 46.0467C9.68696 46.3747 10.0942 46.5253 10.4668 46.3133C10.7908 46.1289 10.9623 45.6196 10.7334 45.2966L8.40967 42.0692C8.06483 41.5905 7.47226 41.5995 7.12147 42.0692L4.74327 45.2956C4.50347 45.6216 4.69175 46.122 5.00983 46.3123C5.3844 46.5372 5.78968 46.3668 6.02651 46.0457L6.03147 46.0467Z" fill="#205C32"/>
<path d="M9.44961 31.946L7.07141 35.1724H8.3596L6.03095 31.946C5.79412 31.618 5.38685 31.4673 5.01427 31.6794C4.69024 31.8637 4.51386 32.373 4.74771 32.6961L7.07141 35.9225C7.41625 36.4021 8.00882 36.3932 8.3596 35.9225L10.7378 32.6961C10.9786 32.3711 10.7903 31.8706 10.4712 31.6794C10.0967 31.4545 9.6914 31.6249 9.45457 31.946H9.44961Z" fill="#205C32"/>
<path d="M14.3094 42.3278L3.32115 35.5192L1.78424 34.5679C0.968717 34.0626 0.221566 35.3478 1.03412 35.8512L12.0224 42.6598L13.5573 43.611C14.3728 44.1164 15.12 42.8312 14.3084 42.3278H14.3094Z" fill="#205C32"/>
<path d="M2.58736 33.8158L4.07373 37.5367L4.79115 36.5954L0.827487 36.8718C-0.12082 36.9382 -0.128747 38.4246 0.827487 38.3582L4.79115 38.0817C5.22022 38.052 5.70082 37.6229 5.50759 37.1413L4.02121 33.4205C3.87257 33.0499 3.52575 32.7843 3.10759 32.9012C2.75383 33.0003 2.43773 33.4393 2.58835 33.8158H2.58736Z" fill="#205C32"/>
<path d="M12.8916 44.4484L11.4053 40.7275L10.6878 41.6688L14.6515 41.3924C15.5998 41.326 15.6077 39.8396 14.6515 39.906L10.6878 40.1825C10.2588 40.2122 9.77916 40.6413 9.97139 41.1228L11.4578 44.8437C11.6064 45.2153 11.9532 45.4799 12.3724 45.363C12.7252 45.2639 13.0413 44.8249 12.8906 44.4484H12.8916Z" fill="#205C32"/>
<path d="M13.8054 35.0842L2.37814 41.1278L0.781778 41.972C-0.0634741 42.419 0.682686 43.7022 1.5319 43.2553L12.9592 37.2107L14.5555 36.3654C15.4018 35.9185 14.6546 34.6353 13.8054 35.0822V35.0842Z" fill="#205C32"/>
<path d="M0.543653 40.8939L4.50732 41.4885L4.06339 40.3985L2.29758 43.9658C1.87445 44.82 3.15571 45.574 3.58577 44.7159L5.35158 41.1486C5.54085 40.7681 5.41698 40.1329 4.90765 40.0586L0.943983 39.464C0.547616 39.4046 0.15125 39.5631 0.0293669 39.9833C-0.0697247 40.3341 0.152241 40.8385 0.548607 40.8979L0.543653 40.8939Z" fill="#205C32"/>
<path d="M14.9372 37.3732L10.9736 36.7786L11.4175 37.8687L13.1833 34.3014C13.6064 33.4472 12.3252 32.6931 11.9001 33.5512L10.1342 37.1185C9.94597 37.499 10.0688 38.1332 10.5782 38.2085L14.5418 38.8031C14.9382 38.8625 15.3346 38.704 15.4565 38.2838C15.5556 37.9341 15.3336 37.4287 14.9372 37.3692V37.3732Z" fill="#205C32"/>
<path d="M43.3186 39.037L39.2291 31.5793C39.1948 31.5174 39.1446 31.4657 39.0836 31.4298C39.0226 31.3938 38.9531 31.3748 38.8823 31.3748C38.8115 31.3748 38.742 31.3938 38.681 31.4298C38.62 31.4657 38.5697 31.5174 38.5354 31.5793C37.1303 34.1418 35.7255 36.7043 34.3211 39.2669L34.4321 39.0617C34.4291 39.0679 34.4258 39.0738 34.4221 39.0796C34.3865 39.141 34.3528 39.2034 34.3231 39.2669C33.9108 40.0604 33.7127 40.9478 33.7482 41.8414C33.7837 42.735 34.0517 43.6038 34.5256 44.3622C34.9996 45.1205 35.6631 45.7422 36.4507 46.1657C37.2383 46.5893 38.1228 46.8001 39.0168 46.7773C39.9107 46.7546 40.7833 46.4991 41.5484 46.0361C42.3135 45.573 42.9445 44.9185 43.3793 44.137C43.8141 43.3555 44.0375 42.4742 44.0276 41.5799C44.0176 40.6857 43.7746 39.8096 43.3226 39.038L43.3186 39.037ZM41.8174 41.1793C41.7691 42.1764 41.4137 43.1341 40.7997 43.9212C40.6233 44.266 40.2111 44.3612 39.9653 44.1947C39.8662 44.1167 39.7951 44.0086 39.7628 43.8867C39.7304 43.7648 39.7386 43.6357 39.786 43.5189C40.4288 42.8263 40.786 41.9162 40.7858 40.9712C40.7711 40.1735 40.499 39.4018 40.0099 38.7714C39.9679 38.6424 39.9744 38.5025 40.0283 38.378C40.0821 38.2535 40.1795 38.1529 40.3022 38.0951C40.425 38.0373 40.5646 38.0263 40.6949 38.0642C40.8251 38.102 40.9371 38.1861 41.0098 38.3007C41.5765 39.1507 41.8593 40.1585 41.8174 41.1793Z" fill="#205C32"/>
<path d="M39.7833 13.1007C40.943 13.1007 41.8831 12.1606 41.8831 11.001C41.8831 9.84131 40.943 8.90121 39.7833 8.90121C38.6237 8.90121 37.6836 9.84131 37.6836 11.001C37.6836 12.1606 38.6237 13.1007 39.7833 13.1007Z" fill="#EDEDED"/>
<path d="M41.1406 11.0009C41.1408 11.2666 41.0631 11.5265 40.9171 11.7484C40.7711 11.9703 40.5632 12.1445 40.3192 12.2494C40.0751 12.3543 39.8057 12.3853 39.5442 12.3386C39.2827 12.2918 39.0406 12.1694 38.848 11.9864C38.6554 11.8035 38.5208 11.568 38.4607 11.3093C38.4006 11.0505 38.4177 10.7798 38.51 10.5307C38.6022 10.2816 38.7655 10.0651 38.9797 9.90786C39.1938 9.75066 39.4494 9.65974 39.7147 9.64636C40.5005 9.60276 41.1158 10.2409 41.1406 11.0009C41.1713 11.9552 42.6577 11.9592 42.627 11.0009C42.5764 9.4561 41.3645 8.15701 39.783 8.15701C39.0381 8.17092 38.3284 8.47661 37.8065 9.00834C37.2846 9.54008 36.9922 10.2554 36.9922 11.0004C36.9922 11.7455 37.2846 12.4608 37.8065 12.9926C38.3284 13.5243 39.0381 13.83 39.783 13.8439C41.3685 13.8439 42.5764 12.5458 42.627 11.0009C42.6577 10.0437 41.1713 10.0447 41.1406 11.0009Z" fill="#205C32"/>
<path d="M37.8633 9.84256C36.476 7.47625 33.7094 7.07394 32.4668 8.06585C31.2876 9.00722 31.023 11.5747 32.7264 13.4792C33.0259 13.6597 33.3748 13.7408 33.7233 13.7111C33.9692 13.6878 34.2064 13.6085 34.4169 13.4792C34.9203 13.1595 35.43 12.8292 35.9459 12.4883C36.4618 12.1474 36.9669 11.8026 37.461 11.4538L37.8633 9.84256Z" fill="#205C32"/>
<path d="M40.5796 9.07659C42.9459 7.68931 43.3483 4.92267 42.3564 3.68006C41.4199 2.50186 38.8436 2.2363 36.943 3.94067C36.7625 4.23983 36.6813 4.58843 36.7111 4.93654C36.7344 5.18243 36.8137 5.41971 36.943 5.63019C37.2634 6.13357 37.5953 6.64323 37.9388 7.15917C38.2824 7.67511 38.6272 8.18014 38.9734 8.67428L40.5796 9.07659Z" fill="#205C32"/>
<path d="M38.9879 12.5765C36.6215 13.9638 36.2192 16.7304 37.2111 17.973C38.1525 19.1512 40.72 19.4168 42.6245 17.7124C42.8053 17.413 42.8865 17.064 42.8564 16.7156C42.8331 16.4697 42.7538 16.2324 42.6245 16.0219C42.3048 15.5185 41.9745 15.0089 41.6336 14.4929C41.2927 13.977 40.9479 13.472 40.5991 12.9778L38.9879 12.5765Z" fill="#205C32"/>
<path d="M41.6523 11.7966C43.0396 14.163 45.8073 14.5712 47.0489 13.5744C48.2281 12.632 48.4936 10.0645 46.7893 8.15999C46.5348 8.00385 46.2421 7.9212 45.9435 7.9212C45.645 7.9212 45.3522 8.00385 45.0978 8.15999C44.5944 8.47972 44.085 8.81003 43.5698 9.1509C43.0545 9.49178 42.5491 9.83662 42.0537 10.1854L41.6523 11.7966Z" fill="#205C32"/>
<path d="M13.7738 21.5592C14.8044 20.2779 16.1391 19.0105 17.8485 18.8104C19.1258 18.6608 20.2663 19.2167 21.3167 19.8816C22.4572 20.6069 23.5304 21.4373 24.7849 21.9734C26.1067 22.5515 27.5704 22.7239 28.9903 22.4688C30.887 22.128 32.5507 21.0152 33.9687 19.7587C34.6861 19.1235 33.6318 18.0741 32.9173 18.7083C31.6797 19.8053 30.2478 20.7387 28.595 21.035C27.3335 21.2619 26.0493 20.9805 24.9207 20.4008C22.487 19.1483 20.4774 16.9326 17.4977 17.3666C15.5327 17.655 13.9363 19.0046 12.7284 20.5058C12.4747 20.821 12.4311 21.248 12.7284 21.5572C12.9861 21.8198 13.5291 21.8684 13.7798 21.5572L13.7738 21.5592Z" fill="#205C32"/>
<path d="M14.142 25.6784C15.1725 24.3972 16.5073 23.1308 18.2166 22.9306C19.4939 22.78 20.6344 23.3359 21.6848 24.0018C22.8254 24.7261 23.8995 25.5575 25.153 26.0936C26.4747 26.6721 27.9385 26.8446 29.3585 26.5891C31.2561 26.2492 32.9188 25.1354 34.3368 23.8799C35.0543 23.2437 33.9999 22.1953 33.2855 22.8285C32.0478 23.9255 30.6159 24.8589 28.9641 25.1562C27.7017 25.3831 26.4174 25.1017 25.2898 24.521C22.8551 23.2685 20.8465 21.0528 17.8668 21.4878C15.9008 21.7762 14.3045 23.1258 13.0975 24.6271C12.8439 24.9422 12.7953 25.3692 13.0975 25.6774C13.3542 25.941 13.8972 25.9896 14.1479 25.6774L14.142 25.6784Z" fill="#205C32"/>
<path d="M14.5179 29.8948C15.5485 28.6135 16.8833 27.3471 18.5926 27.146C19.8689 26.9963 21.0104 27.5522 22.0608 28.2181C23.2023 28.9425 24.2755 29.7729 25.529 30.3099C26.8506 30.8886 28.3145 31.0611 29.7345 30.8054C31.6311 30.4645 33.2948 29.3517 34.7118 28.0962C35.4293 27.4601 34.3749 26.4117 33.6615 27.0449C32.4228 28.1418 30.9919 29.0753 29.3391 29.3725C28.0777 29.5995 26.7934 29.318 25.6648 28.7374C23.2311 27.4848 21.2215 25.2692 18.2418 25.7042C16.2768 25.9925 14.6795 27.3422 13.4725 28.8424C13.2189 29.1575 13.1703 29.5846 13.4725 29.8938C13.7302 30.1573 14.2722 30.2059 14.5239 29.8938L14.5179 29.8948Z" fill="#205C32"/>
</g>
<defs>
<clipPath id="clip0_4781_32506">
<rect width="48" height="48" fill="white"/>
</clipPath>
</defs>
</svg>
