<svg width="48" height="48" viewBox="0 0 48 48" fill="none" xmlns="http://www.w3.org/2000/svg">
<g clip-path="url(#clip0_4781_32837)">
<path d="M35.8125 24.5828L32.9766 36.7572H38.1089L37.5684 40.7207L38.9527 41.1258L41.4171 38.2228L46.2114 32.3138L40.3024 32.044L43.004 24.5828H35.8125Z" fill="white"/>
<path d="M7.40204 29.0901L7.09766 32.5846L7.86783 34.8637L11.1489 37.2436L14.026 37.4461L15.8588 35.167L17.3277 34.1899V28.7348L7.40204 29.0901Z" fill="white"/>
<path d="M12.2328 28.334H11.0337C7.39834 28.334 5.10515 26.5889 4.10858 23.0663C3.6864 21.5818 3.67485 20.0106 4.07516 18.5201C4.47547 17.0296 5.27264 15.6756 6.38174 14.6024C7.49083 13.5292 8.8703 12.777 10.3732 12.426C11.876 12.0749 13.446 12.1381 14.9158 12.6089C16.3855 13.0797 17.7 13.9404 18.7192 15.0993C19.7385 16.2582 20.4242 17.6719 20.7033 19.1897C20.9825 20.7076 20.8446 22.2728 20.3045 23.7185C19.7643 25.1642 18.842 26.4363 17.6359 27.3992C16.8473 28.035 16.023 28.4467 14.9571 28.3502C14.0559 28.2723 13.1416 28.334 12.2328 28.334Z" fill="white"/>
<path d="M13.3853 1.06342C13.3876 0.477741 12.9148 0.0011296 12.3295 -0.00111813C11.7441 -0.00336585 11.2677 0.469602 11.2655 1.05528L11.2468 5.91244C11.2446 6.49813 11.7173 6.97474 12.3027 6.97699C12.8881 6.97923 13.3644 6.50627 13.3667 5.92058L13.3853 1.06342Z" fill="#205C32"/>
<path d="M23.8537 5.3129C24.2695 4.90035 24.2722 4.22907 23.8599 3.81355C23.4475 3.39803 22.7763 3.39563 22.3605 3.80818L18.9128 7.22952C18.4971 7.64207 18.4943 8.31335 18.9067 8.72887C19.319 9.14439 19.9903 9.14679 20.406 8.73424L23.8537 5.3129Z" fill="#205C32"/>
<path d="M2.29077 3.8015C1.87822 3.38576 1.20694 3.38302 0.791425 3.79536C0.375907 4.20769 0.3735 4.87898 0.78605 5.29471L4.20739 8.74243C4.61994 9.15816 5.29122 9.16091 5.70674 8.74857C6.12226 8.33623 6.12467 7.66494 5.71212 7.24921L2.29077 3.8015Z" fill="#205C32"/>
<path d="M47.3844 31.7689C47.158 31.4439 46.5655 31.2479 46.1192 31.2273C44.5669 31.1655 43.0103 31.2035 41.3107 31.2035C41.4884 30.7452 41.6043 30.4149 41.744 30.0942C42.4687 28.4293 43.2118 26.772 43.9246 25.1005C44.3947 23.9978 44.0892 23.5331 42.8847 23.505C41.9098 23.4811 40.9349 23.505 39.765 23.505C39.765 20.6886 39.7769 18.0401 39.765 15.3905C39.7498 12.4809 39.8798 9.55731 39.6393 6.66617C39.2905 2.47841 35.0291 -0.300067 30.9735 0.803742C27.7401 1.68441 25.774 4.36215 25.774 7.98338C25.7624 18.3889 25.7603 28.7944 25.7675 39.1998C25.7675 39.709 25.7675 40.2202 25.7231 40.7261C25.4804 43.549 23.4321 45.7458 20.7186 46.1108C17.4548 46.5495 14.7402 45.1056 13.8065 42.286C13.4945 41.3468 13.5454 40.2885 13.4176 39.2865C13.3385 38.6701 13.6018 38.3571 14.1325 38.0072C14.7392 37.6064 15.1562 36.924 15.6761 36.3824C15.9535 36.0942 16.2329 35.7606 16.5817 35.5981C17.6065 35.1215 18.2477 34.2571 18.0246 33.1803C17.8589 32.3831 17.7949 31.6552 18.0896 30.8926C18.1585 30.6836 18.1539 30.4573 18.0766 30.2513C17.8134 29.5894 18.0939 29.2439 18.6182 28.8355C19.7151 27.9888 20.6289 26.9286 21.3044 25.7188C21.98 24.509 22.4032 23.1748 22.5486 21.7968C22.694 20.4188 22.5585 19.0257 22.1503 17.7015C21.7421 16.3774 21.0697 15.1497 20.1737 14.0928C16.3629 9.60064 9.54941 9.20743 5.28366 13.2327C4.26386 14.1849 3.44921 15.3352 2.88965 16.6133C2.33008 17.8914 2.03737 19.2703 2.02946 20.6655C2.02155 22.0607 2.2986 23.4428 2.84364 24.7271C3.38868 26.0115 4.19023 27.171 5.19917 28.1347C5.37357 28.3026 6.73085 29.0565 6.63011 29.818C6.6052 30.0162 6.46763 30.325 6.52179 30.8178C6.54474 30.9951 6.58279 31.1702 6.63553 31.341C6.76123 31.806 6.76123 32.2961 6.63553 32.7611C6.36147 34.0231 6.87709 35.0738 8.08055 35.5938C8.35678 35.7118 8.72074 35.8765 8.81932 36.1137C9.35335 37.3919 10.325 38.1264 11.6628 38.5358C11.6628 39.0135 11.6628 39.4837 11.6628 39.9549C11.6834 45.5367 16.6023 49.2002 21.9773 47.6371C25.423 46.6351 27.5169 43.7082 27.5212 39.8C27.5342 29.3945 27.5364 18.989 27.5277 8.58349C27.5161 8.07426 27.5317 7.56479 27.5743 7.05722C27.8137 4.85285 29.0042 3.35258 31.0753 2.61598C34.5709 1.37677 37.9603 3.93969 37.9971 7.87289C38.0394 12.7842 38.0091 17.6967 38.0036 22.6048C37.9849 22.9045 37.9488 23.2029 37.8953 23.4985C37.383 23.4985 36.9464 23.5277 36.5164 23.492C35.665 23.4194 35.2793 23.8408 35.0735 24.6261C34.0596 28.4911 33.0078 32.3452 31.9841 36.208C31.6776 37.3681 31.9766 37.7483 33.1757 37.7613C34.5037 37.7754 35.8329 37.7613 37.2779 37.7613C36.602 39.9191 35.9401 41.9144 35.3768 43.9357C35.2685 44.3354 35.5361 44.8424 35.6314 45.3006C36.0939 45.1392 36.7146 45.1175 36.9952 44.7958C40.3683 40.8839 43.7068 36.9417 47.0107 32.9691C47.2761 32.6615 47.5404 31.9855 47.3844 31.7689ZM4.10836 23.0662C3.68618 21.5818 3.67463 20.0106 4.07494 18.5201C4.47525 17.0296 5.27242 15.6756 6.38152 14.6024C7.49062 13.5292 8.87009 12.777 10.373 12.4259C11.8758 12.0749 13.4458 12.1381 14.9155 12.6089C16.3853 13.0797 17.6998 13.9404 18.719 15.0993C19.7382 16.2582 20.424 17.6719 20.7031 19.1897C20.9823 20.7076 20.8444 22.2728 20.3042 23.7185C19.7641 25.1642 18.8418 26.4362 17.6357 27.3992C16.8471 28.035 16.0228 28.4466 14.9569 28.3502C14.0556 28.269 13.1414 28.334 12.2326 28.334H11.0334C7.39812 28.334 5.10493 26.5889 4.10836 23.0662ZM16.7648 30.6283C16.7648 30.8006 16.6963 30.9659 16.5744 31.0878C16.4525 31.2097 16.2872 31.2782 16.1149 31.2782L8.52143 31.249C8.34905 31.249 8.18374 31.1805 8.06185 31.0586C7.93997 30.9367 7.87149 30.7714 7.87149 30.599C7.87149 30.4266 7.93997 30.2613 8.06185 30.1394C8.18374 30.0176 8.34905 29.9491 8.52143 29.9491L16.1149 29.9783C16.2872 29.9783 16.4525 30.0468 16.5744 30.1687C16.6963 30.2906 16.7648 30.4559 16.7648 30.6283ZM8.51709 34.1607C8.34472 34.1607 8.17941 34.0922 8.05752 33.9703C7.93563 33.8484 7.86716 33.6831 7.86716 33.5107C7.86716 33.3384 7.93563 33.173 8.05752 33.0512C8.17941 32.9293 8.34472 32.8608 8.51709 32.8608L16.1105 32.89C16.2829 32.8908 16.4479 32.9599 16.5693 33.0823C16.6907 33.2047 16.7585 33.3703 16.7578 33.5427C16.757 33.7151 16.6879 33.8801 16.5655 34.0015C16.4431 34.1228 16.2775 34.1906 16.1051 34.1899L8.51709 34.1607ZM12.3875 36.7604H12.3311H12.2965C11.9771 36.7448 11.667 36.6474 11.396 36.4777C11.125 36.3079 10.902 36.0715 10.7485 35.7909H14.0264C13.8702 36.0778 13.6417 36.3187 13.3634 36.4898C13.0852 36.6608 12.767 36.756 12.4405 36.7658H12.3875V36.7604ZM38.5268 40.3275L38.3687 40.2192C38.6536 39.2865 38.9569 38.3603 39.2179 37.4212C39.4855 36.4593 39.1854 36.0476 38.1943 36.0314C36.8164 36.0097 35.4375 36.026 33.9762 36.026C34.0055 35.7194 33.9946 35.4768 34.0553 35.2526C34.8623 32.2379 35.7083 29.2341 36.473 26.2087C36.6648 25.4504 36.9973 25.2338 37.7426 25.2598C39.075 25.3172 40.4117 25.276 41.9303 25.276C41.0497 27.2963 40.2394 29.1475 39.4389 31.0009C38.7608 32.5629 39.0208 32.9713 40.6911 32.9756C41.9553 32.9756 43.2183 32.9756 44.7532 32.9756L38.5268 40.3275Z" fill="#205C32"/>
</g>
<defs>
<clipPath id="clip0_4781_32837">
<rect width="48" height="48" fill="white"/>
</clipPath>
</defs>
</svg>
