<svg width="48" height="48" viewBox="0 0 48 48" fill="none" xmlns="http://www.w3.org/2000/svg">
<g clip-path="url(#clip0_4781_33155)">
<path d="M40.6602 37.6107L36.9043 43.4765L38.7822 47.0257H42.4264L44.3982 44.61V42.3177L40.6602 37.6107Z" fill="#E9EFEB"/>
<path d="M20.7344 8.39224H27.2255L27.0779 14.5976H20.8567C20.8145 12.5281 20.7737 10.4596 20.7344 8.39224Z" fill="#E9EFEB"/>
<path d="M44.3606 41.5447C43.5452 40.0587 42.7308 38.573 41.9175 37.0876H39.4058L36.9416 41.5806L36.8573 41.7367L36.9385 41.588C36.9089 41.6365 36.8836 41.686 36.8562 41.7367C36.5122 42.3986 36.3469 43.1387 36.3764 43.8841C36.406 44.6295 36.6295 45.3542 37.0248 45.9868C37.4201 46.6194 37.9736 47.1379 38.6306 47.4912C39.2876 47.8444 40.0254 48.0202 40.7711 48.0011C41.5168 47.9821 42.2446 47.7688 42.8827 47.3824C43.5208 46.9961 44.047 46.4499 44.4095 45.798C44.772 45.146 44.9581 44.4108 44.9495 43.6649C44.941 42.919 44.738 42.1882 44.3606 41.5447ZM40.5541 46.5175C40.0866 46.4997 39.6312 46.3641 39.2302 46.1231C38.8293 45.8821 38.4957 45.5437 38.2607 45.1392C38.0256 44.7347 37.8966 44.2774 37.8858 43.8097C37.8749 43.342 37.9825 42.8792 38.1985 42.4642L38.2597 42.3524C38.9971 41.0063 39.7352 39.6601 40.474 38.314C40.4917 38.2794 40.5186 38.2504 40.5517 38.2302C40.5848 38.2099 40.6228 38.1992 40.6617 38.1992C40.7005 38.1992 40.7385 38.2099 40.7717 38.2302C40.8048 38.2504 40.8317 38.2794 40.8494 38.314L43.0563 42.3408C43.3081 42.7704 43.4396 43.2597 43.4373 43.7576C43.4349 44.2554 43.2986 44.7435 43.0428 45.1706C42.7869 45.5976 42.4208 45.948 41.983 46.185C41.5451 46.422 41.0516 46.5368 40.5541 46.5175Z" fill="#205C32"/>
<path d="M8.94745 16.0654H3.98212C3.2833 16.0654 2.7168 16.6319 2.7168 17.3307V33.5015C2.7168 34.2003 3.2833 34.7668 3.98212 34.7668H8.94745C9.64627 34.7668 10.2128 34.2003 10.2128 33.5015V17.3307C10.2128 16.6319 9.64627 16.0654 8.94745 16.0654Z" fill="#E9EFEB"/>
<path d="M8.9475 33.976C7.35847 33.976 5.76838 33.976 4.17934 33.976C3.73753 33.976 3.50872 33.7715 3.50767 33.3307C3.50767 32.8541 3.50767 32.3764 3.50767 31.8998V18.0783C3.50767 17.8136 3.44862 17.4657 3.52665 17.2063C3.69747 16.6422 4.82571 16.8562 5.25381 16.8562H8.30429C8.75559 16.8562 9.37244 16.7508 9.422 17.3634C9.45046 17.7177 9.422 18.0867 9.422 18.4431V30.0356C9.422 31.166 9.5074 32.3353 9.422 33.4636C9.40091 33.7451 9.25118 33.9592 8.9475 33.976C7.93524 34.0309 7.92891 35.6136 8.9475 35.5577C10.1822 35.4902 10.991 34.5665 11.0036 33.3539C11.0036 32.8467 11.0036 32.3395 11.0036 31.8334V19.312C11.0036 17.9107 11.3094 15.9705 9.61812 15.3927C8.87158 15.1375 7.91099 15.2746 7.13914 15.2746C6.14481 15.2746 5.15048 15.2672 4.1572 15.2746C2.93405 15.2893 1.97241 16.0875 1.92601 17.3497C1.91231 17.7314 1.92601 18.1173 1.92601 18.5001V32.9743C1.92601 33.5648 1.92601 34.1279 2.27925 34.6466C2.94249 35.6231 4.00009 35.5577 5.02816 35.5577H8.9475C9.96503 35.5577 9.96714 33.976 8.9475 33.976Z" fill="#205C32"/>
<path d="M30.6247 0.796112H17.4274C16.7286 0.796112 16.1621 1.36262 16.1621 2.06143V7.02677C16.1621 7.72559 16.7286 8.29209 17.4274 8.29209H30.6247C31.3236 8.29209 31.8901 7.72559 31.8901 7.02677V2.06143C31.8901 1.36262 31.3236 0.796112 30.6247 0.796112Z" fill="#E9EFEB"/>
<path d="M16.9535 7.02674V2.77948C16.9535 2.3345 16.8206 1.65861 17.429 1.58691C17.6921 1.57215 17.9557 1.57215 18.2188 1.58691H29.9873C30.232 1.58691 30.6094 1.52364 30.8383 1.63858C31.26 1.84946 31.0998 2.69301 31.0998 3.06523V6.75575C31.0998 6.93501 31.124 7.13218 31.0196 7.28297C30.8298 7.56134 30.4397 7.49386 30.1466 7.49386H20.4668C19.4746 7.49386 18.4402 7.57927 17.4512 7.49386C17.1749 7.47066 16.9693 7.3146 16.9535 7.01936C16.8986 6.0071 15.317 6.00078 15.3718 7.01936C15.4372 8.20876 16.3208 9.05442 17.507 9.07551C17.9467 9.08394 18.3875 9.07551 18.8282 9.07551H29.5466C29.8998 9.07551 30.2573 9.09027 30.6105 9.07551C31.8062 9.02806 32.6477 8.13284 32.6804 6.94977C32.7236 5.36811 32.6972 3.77275 32.6804 2.19005C32.6677 0.998535 31.8505 0.0558703 30.6242 0.00525744C30.3153 -0.00739578 30.0042 0.00525744 29.6953 0.00525744H18.9664C18.4929 0.00525744 18.0174 0.00525744 17.5471 0.00525744C16.5348 0.0189651 15.6344 0.617884 15.4171 1.64807C15.2822 2.29022 15.3697 3.01883 15.3697 3.66942V7.02674C15.3718 8.04427 16.9535 8.04638 16.9535 7.02674Z" fill="#205C32"/>
<path d="M10.5488 30.2855H15.9264C17.5081 33.3887 20.7378 35.2951 24.1595 35.1538C25.7282 35.0797 27.249 34.5897 28.566 33.7343C29.883 32.8788 30.9489 31.6885 31.6544 30.2855C31.8895 30.256 33.5366 30.0809 34.823 31.2893C35.8521 32.2552 36.2623 33.7388 35.9048 35.1538V37.0845H45.3325V30.0514C45.1965 28.9527 44.6777 26.0024 42.242 23.5592C38.0865 19.4016 32.1626 20.5204 31.6544 20.6247C30.769 20.2625 30.0258 19.6213 29.5377 18.7985C29.0496 17.9757 28.8432 17.0161 28.9498 16.0654V14.5976H18.9063V16.3901C18.9843 17.275 18.7794 18.1618 18.3209 18.9226C17.8625 19.6835 17.1743 20.2791 16.3556 20.6237H10.5488" fill="#E9EFEB"/>
<path d="M10.5491 31.0763H15.9267L15.2466 30.6841C16.5119 33.1156 18.78 34.9682 21.4446 35.6515C22.7748 35.9894 24.1622 36.0359 25.5121 35.7879C26.8619 35.5398 28.1422 35.0031 29.2653 34.2143C30.5558 33.2982 31.6097 32.0881 32.3401 30.6841L31.6547 31.0763C33.2627 30.8823 34.7769 31.8049 35.1617 33.4182C35.3336 34.1394 35.1143 34.8185 35.1143 35.5366V37.0845C35.1173 37.2933 35.2016 37.4927 35.3492 37.6404C35.4969 37.788 35.6963 37.8723 35.9051 37.8753H45.3328C45.5417 37.8726 45.7413 37.7884 45.889 37.6407C46.0367 37.4929 46.1209 37.2934 46.1236 37.0845V32.9479C46.1236 31.8366 46.2238 30.6767 46.0593 29.5737C45.8149 27.9305 45.2333 26.3556 44.3511 24.9479C42.2096 21.559 38.4927 19.7643 34.5544 19.6273C33.5119 19.5829 32.4678 19.6619 31.4438 19.8624H31.8656C32.0701 19.9467 31.7548 19.8055 31.7222 19.7886C31.5956 19.7232 31.4723 19.6515 31.352 19.5777C31.0931 19.4092 30.8568 19.2082 30.6487 18.9798C30.1189 18.397 29.7958 17.6558 29.7293 16.871C29.6671 16.1329 29.7419 15.3462 29.7419 14.6008C29.7389 14.392 29.6546 14.1925 29.507 14.0449C29.3593 13.8972 29.1599 13.8129 28.9511 13.8099H18.9065C18.6977 13.8129 18.4983 13.8972 18.3507 14.0449C18.203 14.1925 18.1187 14.392 18.1157 14.6008C18.1157 15.7016 18.3034 16.9711 17.8922 18.0224C17.5432 18.9123 16.824 19.5735 15.9562 19.9446L16.3559 19.8392H10.5491C9.53156 19.8392 9.52946 21.4208 10.5491 21.4208H14.7247C15.2593 21.4208 15.8055 21.4535 16.3401 21.4208C17.3555 21.3586 18.3941 20.2525 18.9076 19.4786C19.8882 18.0024 19.6974 16.2858 19.6974 14.6029L18.9065 15.3937H28.9522L28.1613 14.6029C28.1613 15.1912 28.1613 15.7786 28.1392 16.3659C28.0946 17.745 28.5945 19.0863 29.531 20.0996C30.0888 20.7028 31.0726 21.5221 31.9489 21.3766L32.1597 21.3397L32.3 21.3186C32.4624 21.2922 32.3179 21.3186 32.3422 21.3122C32.6532 21.2743 32.9653 21.2448 33.2785 21.2279C35.2619 21.1224 37.3128 21.4082 39.1085 22.2897C40.2761 22.8684 41.3165 23.6743 42.1688 24.6602C43.021 25.646 43.668 26.7921 44.0717 28.0311C44.2353 28.527 44.3659 29.0332 44.4629 29.5463C44.4819 29.6454 44.4987 29.7467 44.5156 29.8468C44.5219 29.9103 44.5317 29.9733 44.5451 30.0356C44.5631 30.2465 44.5451 30.8538 44.5451 31.1955V37.0898L45.336 36.2989H35.9072L36.698 37.0898V35.4554C36.698 35.119 36.7455 35.0536 36.7919 34.6624C36.8616 34.0526 36.8129 33.435 36.6485 32.8435C36.0696 30.7863 34.1484 29.4293 32.029 29.4694C31.7032 29.4757 31.3468 29.4873 31.0979 29.7266C30.9071 29.9091 30.8048 30.2106 30.6698 30.4373C30.5109 30.7052 30.337 30.964 30.1489 31.2123C29.5136 32.0374 28.7262 32.7332 27.8292 33.2622C26.0556 34.313 23.9417 34.6296 21.9381 34.1447C19.6183 33.5722 17.7119 31.9958 16.6121 29.8859C16.5427 29.7663 16.443 29.6672 16.323 29.5985C16.203 29.5298 16.0671 29.494 15.9288 29.4947H10.5512C9.53367 29.4947 9.53157 31.0763 10.5512 31.0763H10.5491Z" fill="#205C32"/>
<path d="M20.0664 8.29208V14.5976C20.0664 15.6151 21.6481 15.6172 21.6481 14.5976V8.29208C21.6481 7.27455 20.0664 7.27349 20.0664 8.29208Z" fill="#205C32"/>
<path d="M26.5586 8.29208V14.5976C26.5586 15.6151 28.1402 15.6172 28.1402 14.5976V8.29208C28.1402 7.27455 26.5586 7.27349 26.5586 8.29208Z" fill="#205C32"/>
</g>
<defs>
<clipPath id="clip0_4781_33155">
<rect width="48" height="48" fill="white"/>
</clipPath>
</defs>
</svg>
