<svg width="48" height="48" viewBox="0 0 48 48" fill="none" xmlns="http://www.w3.org/2000/svg">
<path d="M17.9992 39C17.9992 39.3978 17.8412 39.7794 17.5599 40.0607C17.2786 40.342 16.897 40.5 16.4992 40.5H7.49921C6.70953 40.4995 5.93388 40.2912 5.25017 39.8961C4.56647 39.5009 3.99879 38.9328 3.60415 38.2488C3.20952 37.5648 3.00183 36.789 3.00195 35.9993C3.00207 35.2096 3.21 34.4339 3.60484 33.75L10.0342 22.6406L7.39984 23.3437C7.20901 23.3947 7.01002 23.4076 6.81421 23.3817C6.6184 23.3557 6.42962 23.2915 6.25865 23.1926C5.91334 22.9929 5.66153 22.6641 5.55859 22.2787C5.45565 21.8933 5.51003 21.4829 5.70975 21.1375C5.90948 20.7922 6.2382 20.5404 6.62359 20.4375L12.768 18.7931C12.9583 18.7421 13.1568 18.7291 13.3522 18.7548C13.5476 18.7805 13.736 18.8445 13.9066 18.943C14.0772 19.0416 14.2268 19.1728 14.3467 19.3292C14.4666 19.4855 14.5545 19.664 14.6055 19.8544L16.2536 25.9987C16.3056 26.19 16.3193 26.3896 16.2938 26.5861C16.2682 26.7826 16.204 26.9721 16.1048 27.1437C16.0056 27.3152 15.8734 27.4654 15.7158 27.5856C15.5582 27.7057 15.3784 27.7935 15.1867 27.8437C15.0593 27.8768 14.9283 27.8939 14.7967 27.8944C14.4667 27.8941 14.1461 27.7849 13.8844 27.5839C13.6227 27.3829 13.4346 27.1012 13.3492 26.7825L12.6367 24.1294L6.20734 35.25C6.07599 35.4775 6.00668 35.7355 6.00637 35.9982C6.00605 36.2609 6.07473 36.5191 6.20554 36.7469C6.33635 36.9747 6.52469 37.1642 6.75172 37.2964C6.97876 37.4285 7.23652 37.4987 7.49921 37.5H16.4992C16.897 37.5 17.2786 37.658 17.5599 37.9393C17.8412 38.2206 17.9992 38.6022 17.9992 39ZM44.3861 33.75L40.0473 26.25C39.8398 25.9235 39.5141 25.6898 39.1383 25.5978C38.7626 25.5057 38.3658 25.5624 38.0308 25.7561C37.6959 25.9497 37.4487 26.2652 37.3409 26.6368C37.2331 27.0083 37.273 27.4072 37.4523 27.75L41.7911 35.25C41.9224 35.4775 41.9917 35.7355 41.9921 35.9982C41.9924 36.2609 41.9237 36.5191 41.7929 36.7469C41.6621 36.9747 41.4737 37.1642 41.2467 37.2964C41.0197 37.4285 40.7619 37.4987 40.4992 37.5H27.6198L29.5586 35.5612C29.8401 35.28 29.9983 34.8985 29.9985 34.5007C29.9986 34.1028 29.8407 33.7211 29.5595 33.4397C29.2783 33.1582 28.8968 33 28.4989 32.9998C28.1011 32.9996 27.7194 33.1575 27.438 33.4387L22.938 37.9387C22.7985 38.0781 22.6879 38.2435 22.6124 38.4256C22.5369 38.6077 22.498 38.8029 22.498 39C22.498 39.1971 22.5369 39.3923 22.6124 39.5744C22.6879 39.7565 22.7985 39.9219 22.938 40.0612L27.438 44.5612C27.5773 44.7005 27.7428 44.8109 27.9248 44.8862C28.1068 44.9615 28.3019 45.0003 28.4989 45.0002C28.6959 45.0001 28.891 44.9612 29.073 44.8857C29.255 44.8102 29.4203 44.6997 29.5595 44.5603C29.6988 44.4209 29.8092 44.2555 29.8845 44.0735C29.9598 43.8914 29.9985 43.6963 29.9985 43.4993C29.9984 43.3023 29.9595 43.1073 29.884 42.9253C29.8085 42.7433 29.698 42.578 29.5586 42.4387L27.6198 40.5H40.4992C41.2889 40.4995 42.0646 40.2912 42.7483 39.8961C43.432 39.5009 43.9996 38.9328 44.3943 38.2488C44.7889 37.5648 44.9966 36.789 44.9965 35.9993C44.9964 35.2096 44.7884 34.4339 44.3936 33.75H44.3861ZM23.9992 5.99999C24.2628 5.99735 24.5223 6.06556 24.7506 6.19749C24.9788 6.32942 25.1674 6.52024 25.2967 6.74999L31.7261 17.8594L29.0861 17.1506C28.7065 17.0615 28.3072 17.1237 27.9727 17.324C27.6383 17.5243 27.3949 17.8469 27.2942 18.2236C27.1935 18.6002 27.2434 19.0012 27.4334 19.3417C27.6233 19.6822 27.9383 19.9353 28.3117 20.0475L34.458 21.6956C34.5847 21.729 34.7151 21.746 34.8461 21.7462C35.1761 21.7459 35.4967 21.6368 35.7584 21.4358C36.0201 21.2348 36.2082 20.9531 36.2936 20.6344L37.9417 14.4862C37.9983 14.2943 38.0159 14.093 37.9935 13.8941C37.9711 13.6952 37.9091 13.5029 37.8112 13.3283C37.7133 13.1538 37.5815 13.0006 37.4235 12.8778C37.2654 12.755 37.0845 12.665 36.8912 12.6132C36.6979 12.5615 36.4962 12.5489 36.2979 12.5762C36.0997 12.6036 35.9089 12.6703 35.7369 12.7725C35.5648 12.8747 35.4149 13.0103 35.2961 13.1713C35.1772 13.3323 35.0918 13.5155 35.0448 13.71L34.3323 16.3669L27.8936 5.24999C27.4983 4.56719 26.9304 4.00033 26.2468 3.60625C25.5633 3.21217 24.7882 3.00473 23.9992 3.00473C23.2102 3.00473 22.4351 3.21217 21.7516 3.60625C21.0681 4.00033 20.5002 4.56719 20.1048 5.24999L15.7623 12.75C15.5758 13.0936 15.5307 13.4965 15.6368 13.8728C15.7429 14.2491 15.9917 14.5691 16.3303 14.7647C16.6688 14.9602 17.0704 15.0159 17.4494 14.9197C17.8283 14.8236 18.1548 14.5833 18.3592 14.25L22.7017 6.74999C22.831 6.52024 23.0196 6.32942 23.2479 6.19749C23.4761 6.06556 23.7356 5.99735 23.9992 5.99999Z" fill="#205C32"/>
</svg>
