<svg width="48" height="48" viewBox="0 0 48 48" fill="none" xmlns="http://www.w3.org/2000/svg">
<g clip-path="url(#clip0_4781_33776)">
<path d="M30.3915 23.5773C30.3938 22.9682 29.9023 22.4726 29.2936 22.4703C28.6849 22.468 28.1895 22.9598 28.1872 23.5688L28.117 41.8477C28.1146 42.4567 28.6062 42.9523 29.2149 42.9547C29.8236 42.957 30.319 42.4652 30.3213 41.8562L30.3915 23.5773Z" fill="#205C32"/>
<path d="M25.0087 23.578C25.011 22.969 24.5195 22.4734 23.9108 22.471C23.3021 22.4687 22.8067 22.9605 22.8044 23.5695L22.7342 41.8485C22.7318 42.4575 23.2234 42.9531 23.8321 42.9554C24.4408 42.9578 24.9362 42.4659 24.9385 41.8569L25.0087 23.578Z" fill="#205C32"/>
<path d="M19.6259 23.5832C19.6282 22.9742 19.1367 22.4786 18.5279 22.4762C17.9192 22.4739 17.4239 22.9657 17.4215 23.5747L17.3514 41.8537C17.349 42.4627 17.8406 42.9583 18.4493 42.9606C19.058 42.963 19.5534 42.4712 19.5557 41.8621L19.6259 23.5832Z" fill="#205C32"/>
<path d="M8.95861 21.0815C8.94491 20.9998 8.90895 20.9235 8.85469 20.8609C8.80042 20.7983 8.72996 20.7519 8.65103 20.7268C8.57211 20.7016 8.48778 20.6987 8.40731 20.7184C8.32684 20.7381 8.25335 20.7795 8.19492 20.8382C7.02009 22.0356 5.9489 23.1147 4.90586 24.2174C4.29761 24.8639 3.77158 24.9259 3.15094 24.2444C2.56747 23.6035 1.92093 23.02 1.31831 22.3949C0.191916 21.2235 0.191917 19.8628 1.35886 18.6891C2.66998 17.3689 4.00362 16.0702 5.40485 14.6904C5.48918 14.6068 5.53708 14.4932 5.53813 14.3745C5.53919 14.2557 5.49331 14.1413 5.41048 14.0562C5.11987 13.7611 4.84729 13.493 4.59272 13.2036C3.64656 12.1538 3.62515 10.7987 4.60962 9.78947C6.45164 7.90088 8.31507 6.03483 10.1999 4.19131C11.2463 3.16629 12.6115 3.17755 13.6917 4.17103C13.9393 4.4095 14.1736 4.66144 14.3934 4.92571C14.4718 5.01471 14.5821 5.06924 14.7004 5.07746C14.8187 5.08569 14.9354 5.04695 15.0254 4.96964L15.6111 4.46051C15.6558 4.42144 15.7078 4.3916 15.7642 4.37271C15.8205 4.35381 15.88 4.34624 15.9392 4.35043C15.9985 4.35462 16.0563 4.37048 16.1094 4.39711C16.1625 4.42373 16.2098 4.46059 16.2486 4.50557L16.6823 5.02483C16.7514 5.10802 16.7883 5.21332 16.7863 5.32148C16.7842 5.42964 16.7433 5.53345 16.671 5.61394C16.5426 5.75473 16.4052 5.90454 16.2621 6.0476C11.8016 10.5126 7.34036 14.975 2.87836 19.4347C1.83532 20.4778 1.84546 20.6332 2.87836 21.6932C3.08083 21.9059 3.27148 22.1297 3.44944 22.3634C3.48876 22.4139 3.53843 22.4556 3.59512 22.4854C3.65181 22.5153 3.71421 22.5328 3.77818 22.5366C3.84214 22.5404 3.90619 22.5306 3.96604 22.5077C4.02589 22.4848 4.08018 22.4494 4.12527 22.4039C10.5175 16.0038 16.7836 9.7354 23.1027 3.41635C23.1432 3.52899 23.1354 3.44901 23.0948 3.40396C21.3151 1.45643 21.225 1.35956 18.9125 3.36454C18.8644 3.40596 18.808 3.43672 18.7471 3.45481C18.6862 3.47291 18.6221 3.47791 18.5592 3.46951C18.4962 3.46111 18.4357 3.43948 18.3817 3.40605C18.3277 3.37263 18.2813 3.32815 18.2457 3.27555L17.8334 2.65941C17.7756 2.57237 17.7498 2.46791 17.7605 2.36393C17.7711 2.25995 17.8177 2.16292 17.892 2.08946C18.3865 1.60737 18.9542 1.02953 19.5816 0.526031C20.4827 -0.198238 21.8152 -0.0889778 22.7017 0.728782C23.3629 1.33929 23.9869 1.99147 24.6166 2.63351C25.4343 3.46366 25.4354 3.66753 24.5884 4.51571C21.0756 8.03455 17.5597 11.5515 14.0409 15.0666L13.9282 15.1792C13.868 15.2429 13.8276 15.3227 13.812 15.409C13.7964 15.4952 13.8064 15.5841 13.8406 15.6648C13.8747 15.7455 13.9317 15.8145 14.0045 15.8633C14.0773 15.9121 14.1628 15.9386 14.2504 15.9396H37.2794C38.8001 15.9396 38.9488 16.1299 38.7269 17.646C38.559 18.7961 38.4148 19.9495 38.256 21.1694C38.2405 21.2837 38.1818 21.3877 38.0919 21.46C38.002 21.5323 37.8878 21.5674 37.7728 21.558L37.0868 21.4994C37.027 21.4941 36.9689 21.4769 36.9159 21.4488C36.8628 21.4206 36.8159 21.3822 36.7779 21.3357C36.74 21.2893 36.7116 21.2356 36.6947 21.1781C36.6777 21.1205 36.6724 21.0601 36.6791 21.0004C36.7917 20.0092 36.91 19.0529 37.0283 18.0493C37.0354 17.986 37.0291 17.9219 37.0097 17.8613C36.9903 17.8006 36.9582 17.7448 36.9156 17.6974C36.8731 17.65 36.8209 17.6122 36.7627 17.5865C36.7044 17.5607 36.6414 17.5476 36.5777 17.548H35.9965C28.1523 17.548 20.3085 17.548 12.4651 17.548C11.0008 17.548 10.2123 18.4109 10.4072 19.8797C11.4322 27.7156 12.4658 35.5511 13.5081 43.3863C13.596 44.0475 13.7165 44.7053 13.7672 45.3699C13.8257 46.1313 14.2177 46.3926 14.9499 46.3915C20.7245 46.3795 26.4988 46.3795 32.2726 46.3915C33.0082 46.3915 33.3517 46.1077 33.4486 45.3597C34.2971 38.8492 35.1573 32.3375 36.0291 25.8248C36.0607 25.5905 36.1024 25.3584 36.1474 25.1061C36.1677 24.9961 36.2282 24.8976 36.3171 24.8298C36.406 24.7619 36.5169 24.7295 36.6284 24.7389L37.2986 24.7986C37.3584 24.8043 37.4165 24.822 37.4694 24.8505C37.5223 24.879 37.5689 24.9178 37.6066 24.9646C37.6443 25.0114 37.6722 25.0653 37.6888 25.1231C37.7053 25.1808 37.7102 25.2413 37.703 25.301C37.4608 27.2361 37.2344 29.0958 36.9888 30.9543C36.3483 35.8143 35.7021 40.674 35.0503 45.5332C34.825 47.2352 33.9791 47.9955 32.2501 47.9966C26.4762 48.0011 20.702 48.0011 14.9274 47.9966C13.2626 47.9966 12.393 47.216 12.179 45.5884C11.1074 37.4236 10.0343 29.2565 8.95974 21.0872L8.95861 21.0815ZM7.09444 12.7868L13.2423 6.64571C13.323 6.56452 13.3698 6.45565 13.3731 6.34121C13.3765 6.22677 13.3361 6.11534 13.2603 6.02957C13.213 5.97776 13.1646 5.92482 13.1139 5.87413C12.0449 4.77928 11.8748 4.77928 10.7935 5.85836L6.33638 10.3144C5.21562 11.434 5.21787 11.5748 6.37467 12.7034C6.40734 12.7361 6.44113 12.7676 6.47492 12.7992C6.56017 12.8767 6.67191 12.9187 6.78715 12.9164C6.90238 12.9141 7.01235 12.8677 7.09444 12.7868Z" fill="#205C32"/>
<path d="M33.1733 12.7552C33.0077 12.6043 32.5323 12.3835 32.4614 12.0704C32.1167 10.5441 31.861 8.99647 31.6155 7.45219C31.5028 6.72454 31.8768 6.35621 32.6123 6.23231C33.768 6.03744 34.9034 5.70966 36.0636 5.56436C36.4274 5.5193 36.9872 5.77274 37.2057 6.07236C38.2138 7.44656 39.115 8.89847 40.0724 10.3053C40.7325 11.2763 40.55 11.7967 39.4191 11.951C37.4254 12.2247 35.4272 12.4669 33.1733 12.7552Z" fill="#205C32"/>
<path d="M26.92 14.3435C25.0131 14.8278 23.3922 13.5009 21.6361 12.6539C21.0313 12.3644 20.9907 11.844 21.3906 11.309C22.1329 10.3155 22.8414 9.29273 23.6434 8.35332C23.8686 8.092 24.3845 8.08186 24.7698 7.96133C24.7957 7.95345 24.8328 7.98837 24.8644 7.98837C28.4181 7.96359 29.094 10.7221 29.9331 13.2824C30.1449 13.9244 29.7394 14.3063 29.0805 14.3333C28.4497 14.3626 27.8121 14.3435 26.92 14.3435Z" fill="#205C32"/>
<path d="M47.7074 3.88491L47.6928 3.94912C47.6554 4.12415 47.5578 4.28055 47.4171 4.39107C47.2763 4.5016 47.1012 4.55925 46.9223 4.55399C44.6211 4.48866 43.5826 4.73083 41.8614 5.74458C41.7052 5.83619 41.5216 5.86981 41.343 5.83953C41.1644 5.80924 41.0022 5.717 40.8849 5.579C40.8612 5.55197 40.8387 5.52381 40.8161 5.49565V5.49002C40.7496 5.40596 40.7017 5.30877 40.6755 5.20485C40.6492 5.10093 40.6453 4.99263 40.6639 4.88708C40.6825 4.78153 40.7233 4.68111 40.7835 4.59245C40.8437 4.50378 40.922 4.42887 41.0133 4.37264C42.8741 3.21921 44.843 2.71234 47.0462 2.9669C47.1519 2.97936 47.2538 3.01366 47.3455 3.06763C47.4372 3.1216 47.5167 3.19406 47.5788 3.2804C47.641 3.36673 47.6846 3.46506 47.7067 3.56913C47.7288 3.6732 47.7291 3.78074 47.7074 3.88491Z" fill="#205C32"/>
<path d="M37.3888 3.82296H37.3573C37.2425 3.82355 37.1291 3.79846 37.0253 3.74954C36.9215 3.70062 36.83 3.6291 36.7574 3.54022C36.6848 3.45134 36.6331 3.34735 36.6059 3.23587C36.5787 3.1244 36.5768 3.00825 36.6003 2.89594C36.9123 1.47782 37.9441 0.417882 39.4163 0.027025C39.5311 -0.00427953 39.6516 -0.00872814 39.7684 0.014024C39.8851 0.0367761 39.9951 0.0861177 40.0898 0.158224C40.1844 0.230331 40.2612 0.323266 40.3142 0.429825C40.3671 0.536384 40.3948 0.653706 40.3951 0.772695C40.3966 0.938879 40.345 1.10119 40.2477 1.23595C40.1505 1.3707 40.0127 1.47084 39.8545 1.52175C39.4411 1.63894 39.0651 1.86127 38.7633 2.16706C38.4615 2.47285 38.244 2.85166 38.1322 3.26652C38.0844 3.42674 37.9863 3.56733 37.8524 3.66753C37.7185 3.76773 37.556 3.82222 37.3888 3.82296Z" fill="#205C32"/>
<path d="M34.1673 0H33.9376C33.5805 0 33.291 0.289469 33.291 0.646548V0.804243C33.291 1.16132 33.5805 1.45079 33.9376 1.45079H34.1673C34.5244 1.45079 34.8139 1.16132 34.8139 0.804243V0.646548C34.8139 0.289469 34.5244 0 34.1673 0Z" fill="#205C32"/>
<path d="M44.6331 7.97147H44.2738C43.964 7.97147 43.7129 8.22261 43.7129 8.53241V8.9334C43.7129 9.2432 43.964 9.49435 44.2738 9.49435H44.6331C44.9429 9.49435 45.1941 9.2432 45.1941 8.9334V8.53241C45.1941 8.22261 44.9429 7.97147 44.6331 7.97147Z" fill="#205C32"/>
</g>
<defs>
<clipPath id="clip0_4781_33776">
<rect width="48" height="48" fill="white"/>
</clipPath>
</defs>
</svg>
