<svg width="18" height="16" viewBox="0 0 18 16" fill="none" xmlns="http://www.w3.org/2000/svg">
<path d="M17.3089 5.89165C17.3081 6.0779 17.249 6.25923 17.1399 6.41018C17.0308 6.56114 16.8772 6.67413 16.7006 6.73332L15.1339 7.24998C14.642 7.41446 14.1953 7.69144 13.8293 8.05889C13.4633 8.42635 13.1881 8.87414 13.0256 9.36665L12.4839 10.925C12.4222 11.0991 12.3088 11.2503 12.1589 11.3583C12.0456 11.4399 11.9146 11.4935 11.7765 11.5147C11.6385 11.5358 11.4974 11.524 11.3649 11.4801C11.2323 11.4361 11.1121 11.3614 11.014 11.262C10.9159 11.1627 10.8427 11.0414 10.8006 10.9083L10.2756 9.34165C10.1054 8.8481 9.81964 8.40239 9.44224 8.04165C9.07651 7.66635 8.62864 7.38108 8.13391 7.20832L6.56724 6.68332C6.38983 6.62747 6.23484 6.51655 6.12474 6.36665C6.01674 6.21445 5.95872 6.03244 5.95872 5.84582C5.95872 5.65919 6.01674 5.47718 6.12474 5.32498C6.23549 5.17068 6.39344 5.05661 6.57474 4.99998L8.13307 4.47498C8.63461 4.30628 9.08879 4.02063 9.45807 3.64165C9.83307 3.27248 10.1189 2.82165 10.2914 2.32498L10.8081 0.783317C10.8569 0.607177 10.9623 0.451986 11.1081 0.34165C11.2547 0.224017 11.4368 0.159407 11.6247 0.158317C11.8109 0.153827 11.994 0.206149 12.1497 0.308317C12.3081 0.407658 12.4284 0.557342 12.4914 0.733317L13.0164 2.32498C13.1889 2.82165 13.4747 3.27248 13.8497 3.64165C14.2166 4.01955 14.6678 4.30513 15.1664 4.47498L16.7247 5.02498C16.9002 5.07986 17.0525 5.1912 17.1581 5.34165C17.2664 5.50332 17.3206 5.69582 17.3089 5.89165ZM9.08391 11.6666C9.0835 11.8366 9.03117 12.0023 8.93391 12.1417C8.8332 12.2771 8.69371 12.3789 8.53391 12.4333L7.40891 12.8083C7.09411 12.9203 6.80907 13.1027 6.57557 13.3417C6.33841 13.5766 6.15626 13.8612 6.04224 14.175L5.65057 15.2917C5.59611 15.4514 5.4944 15.5909 5.35891 15.6917C5.21858 15.7903 5.05125 15.8432 4.87974 15.8432C4.70823 15.8432 4.5409 15.7903 4.40057 15.6917C4.26508 15.5909 4.16337 15.4514 4.10891 15.2917L3.74224 14.175C3.62901 13.8606 3.44644 13.5758 3.20807 13.3417C2.97313 13.1045 2.68852 12.9223 2.37474 12.8083L1.24974 12.4417C1.08884 12.385 0.949223 12.2802 0.84974 12.1417C0.749519 12.0033 0.694246 11.8375 0.691406 11.6666C0.694409 11.4948 0.750473 11.3281 0.851919 11.1893C0.953365 11.0506 1.09523 10.9466 1.25807 10.8917L2.37474 10.525C2.6875 10.409 2.97153 10.2269 3.2074 9.99098C3.44328 9.75511 3.62543 9.47108 3.74141 9.15832L4.11641 8.05832C4.16635 7.90065 4.26208 7.76141 4.39141 7.65832C4.52661 7.55532 4.69008 7.49613 4.85988 7.48868C5.02968 7.48123 5.1977 7.52589 5.34141 7.61665C5.48391 7.71498 5.59391 7.85415 5.65807 8.01665L6.03307 9.15832C6.14905 9.47108 6.3312 9.75511 6.56708 9.99098C6.80295 10.2269 7.08698 10.409 7.39974 10.525L8.51641 10.9167C8.67614 10.9669 8.81419 11.0697 8.90807 11.2083C9.01398 11.3384 9.07532 11.4991 9.08307 11.6666" fill="#1A1A1A"/>
</svg>
