<svg width="335" height="286" viewBox="0 0 335 286" fill="none" xmlns="http://www.w3.org/2000/svg">
<path opacity="0.25" d="M23.9126 146.248C17.2941 169.669 47.7437 194.167 80.6752 220.668C118.343 250.975 138.441 267.145 167.951 266.999C196.537 266.877 195.513 233.455 228.602 207.661C263.804 180.231 312.529 176.488 311.996 146.248C311.59 123.573 295.328 107.802 271.525 84.6754C241.817 55.8554 205.298 20.424 167.951 25.4869C130.877 30.5255 137.141 69.4988 68.5717 112.758C42.289 129.334 27.9066 132.116 23.9126 146.248Z" fill="#67AF79"/>
<path d="M143.388 191.327C144.965 192.994 146.987 194.174 149.215 194.727L167.916 199.371C170.217 199.942 170.977 202.833 169.254 204.462L155.254 217.705C153.587 219.282 152.406 221.305 151.853 223.533L147.212 242.232C146.64 244.534 143.75 245.294 142.12 243.571L128.878 229.572C127.301 227.904 125.278 226.724 123.05 226.171L104.35 221.529C102.048 220.957 101.288 218.067 103.011 216.437L117.009 203.195C118.676 201.617 119.856 199.596 120.409 197.368L125.053 178.666C125.625 176.365 128.515 175.605 130.145 177.328L143.388 191.327Z" stroke="#205C32" stroke-width="9.00136"/>
<g clip-path="url(#clip0_4781_29879)">
<path d="M242.688 165.645C244.167 167.207 246.062 168.314 248.15 168.832L257.727 171.21C260.604 171.925 261.554 175.538 259.4 177.575L252.231 184.356C250.667 185.835 249.561 187.731 249.042 189.82L246.666 199.394C245.951 202.272 242.338 203.222 240.301 201.068L233.52 193.899C232.041 192.336 230.145 191.23 228.057 190.711L218.481 188.334C215.604 187.62 214.654 184.007 216.808 181.97L223.976 175.188C225.539 173.71 226.645 171.814 227.163 169.726L229.542 160.149C230.256 157.272 233.869 156.322 235.906 158.475L242.688 165.645Z" stroke="#205C32" stroke-width="7.50113"/>
</g>
<path d="M99.4982 171.309C101.045 169.653 99.4518 167.007 97.265 167.6L67.5226 175.666C66.0806 176.057 65.413 177.719 66.1838 178.998L74.8856 193.449C75.6564 194.729 77.4375 194.916 78.4576 193.824L99.4982 171.309Z" fill="#205C32"/>
<path d="M248.108 124.983C246.153 126.128 246.925 129.119 249.19 129.174L279.997 129.929C281.491 129.965 282.605 128.563 282.231 127.117L278.014 110.784C277.64 109.338 275.986 108.65 274.697 109.405L248.108 124.983Z" fill="#205C32"/>
<path d="M112.607 74.0731C114.865 74.2555 115.947 71.3624 114.123 70.0184L89.3132 51.7386C88.1103 50.8523 86.3937 51.3628 85.8705 52.7622L79.9633 68.5622C79.4401 69.9616 80.4008 71.473 81.8901 71.5933L112.607 74.0731Z" fill="#205C32"/>
<g clip-path="url(#clip1_4781_29879)">
<path d="M190.637 76.631L191.993 71.171L190.637 76.631L232.714 87.0796C234.153 87.4368 234.628 89.2433 233.551 90.2619L202.051 120.057C200.227 121.782 198.936 123.994 198.332 126.431L187.887 168.506C187.53 169.945 185.723 170.42 184.705 169.343L154.911 137.844C153.185 136.02 150.973 134.73 148.537 134.125L106.461 123.68C105.022 123.323 104.547 121.516 105.624 120.498L137.119 90.7027C138.942 88.9777 140.233 86.7662 140.838 84.3303L135.378 82.9744L140.838 84.3303L151.287 42.2525C151.644 40.8138 153.45 40.3389 154.469 41.4157L184.265 72.9121C185.99 74.7355 188.201 76.0261 190.637 76.631Z" stroke="#205C32" stroke-width="11.2517"/>
</g>
<defs>
<clipPath id="clip0_4781_29879">
<rect width="65.7298" height="65.7298" fill="white" transform="translate(208.432 143.999) rotate(5.32627)"/>
</clipPath>
<clipPath id="clip1_4781_29879">
<rect width="151.117" height="151.117" fill="white" transform="translate(101.369 23.1344) rotate(5.32627)"/>
</clipPath>
</defs>
</svg>
