<svg width="20" height="20" viewBox="0 0 20 20" fill="none" xmlns="http://www.w3.org/2000/svg">
<path fill-rule="evenodd" clip-rule="evenodd" d="M16.1643 0.765095L16.4193 0.797095C17.0933 0.890095 17.9853 1.01509 18.4903 1.52109C18.9043 1.93409 19.0633 2.60609 19.1583 3.20609L19.2143 3.5921C19.3403 4.5021 19.3733 5.69409 19.1583 7.01809C18.7343 9.63109 17.3433 12.7491 13.8503 15.1631C13.8313 15.3511 13.8303 15.5411 13.8343 15.7311L13.8443 16.0151C13.8603 16.4521 13.8763 16.8891 13.7543 17.3131C13.5643 17.9731 12.8873 18.4081 12.2543 18.7201L11.9443 18.8671L11.5443 19.0431C10.7963 19.3611 9.78632 19.6871 9.15332 19.0531C8.77332 18.6741 8.61732 18.1181 8.49032 17.5651L8.44332 17.3581C8.39036 17.0967 8.3236 16.8384 8.24332 16.5841C8.19332 16.4381 8.13932 16.2891 8.08132 16.1391C8.01748 16.2175 7.94972 16.2926 7.87832 16.3641C7.53332 16.7091 7.01832 16.9501 6.59432 17.1191C6.13132 17.3021 5.60732 17.4621 5.12232 17.5941L4.87332 17.6601L4.39632 17.7791L3.96432 17.8791L3.44732 17.9891L3.12432 18.0521C2.96323 18.0819 2.7973 18.0721 2.64084 18.0235C2.48439 17.9749 2.3421 17.889 2.22626 17.7732C2.11041 17.6573 2.02449 17.515 1.97589 17.3586C1.9273 17.2021 1.91749 17.0362 1.94732 16.8751L2.03332 16.4441L2.18732 15.7461L2.31132 15.2361L2.40532 14.8761C2.53732 14.3921 2.69732 13.8681 2.88132 13.4061C3.04932 12.9811 3.29032 12.4661 3.63532 12.1211L3.71532 12.0441L3.65132 12.0181C3.48041 11.9531 3.30731 11.8941 3.13232 11.8411L2.85532 11.7561C2.16132 11.5461 1.41932 11.3201 0.958316 10.8581C0.398316 10.2991 0.587316 9.4481 0.857316 8.7401L0.967316 8.46609L1.14432 8.06609L1.29132 7.75609C1.60332 7.12409 2.03832 6.44709 2.69832 6.25709C3.04832 6.15709 3.41232 6.15109 3.77832 6.1611L3.99832 6.1681C4.28432 6.1781 4.56932 6.18909 4.84832 6.16209C7.26232 2.66809 10.3803 1.2771 12.9933 0.853095C14.0415 0.68117 15.1082 0.651569 16.1643 0.765095ZM6.35232 13.4401C6.19493 13.3236 6.00683 13.2558 5.81131 13.2452C5.61579 13.2345 5.42144 13.2814 5.25232 13.3801L5.14232 13.4541L5.04932 13.5371L4.92432 13.6951C4.66432 14.0711 4.51632 14.5911 4.40132 15.0771L4.29332 15.5451L4.24232 15.7581L4.43332 15.7121L4.85132 15.6161C5.42932 15.4811 6.07032 15.3061 6.46432 14.9511C6.63563 14.7799 6.73897 14.5523 6.75516 14.3106C6.77134 14.069 6.69927 13.8296 6.55232 13.6371L6.47032 13.5431L6.44632 13.5201L6.35232 13.4401ZM13.5353 6.46609C13.3496 6.28034 13.1292 6.13298 12.8865 6.03242C12.6439 5.93187 12.3838 5.88009 12.1212 5.88004C11.8585 5.88 11.5984 5.93168 11.3558 6.03215C11.1131 6.13262 10.8926 6.27991 10.7068 6.46559C10.5211 6.65128 10.3737 6.87174 10.2731 7.11438C10.1726 7.35702 10.1208 7.61709 10.1208 7.87974C10.1207 8.14239 10.1724 8.40248 10.2729 8.64515C10.3733 8.88783 10.5206 9.10834 10.7063 9.2941C11.0813 9.66924 11.59 9.88005 12.1205 9.88015C12.6509 9.88024 13.1597 9.66961 13.5348 9.2946C13.91 8.91958 14.1208 8.4109 14.1209 7.88045C14.121 7.35 13.9103 6.84124 13.5353 6.46609Z" fill="white"/>
</svg>
