<svg width="33" height="32" viewBox="0 0 33 32" fill="none" xmlns="http://www.w3.org/2000/svg">
<circle cx="16.1992" cy="16.0005" r="16" fill="#1A1A1A"/>
<g clip-path="url(#clip0_2717_23933)">
<path fill-rule="evenodd" clip-rule="evenodd" d="M22.6801 9.69213C22.886 9.60545 23.1114 9.57556 23.3328 9.60556C23.5542 9.63556 23.7636 9.72435 23.939 9.8627C24.1144 10.001 24.2496 10.1839 24.3304 10.3922C24.4112 10.6005 24.4347 10.8267 24.3984 11.0471L22.5084 22.5113C22.3251 23.6171 21.1118 24.2513 20.0976 23.7005C19.2493 23.2396 17.9893 22.5296 16.8559 21.7888C16.2893 21.418 14.5534 20.2305 14.7668 19.3855C14.9501 18.663 17.8668 15.948 19.5334 14.3338C20.1876 13.6996 19.8893 13.3338 19.1168 13.9171C17.1984 15.3655 14.1184 17.568 13.1001 18.188C12.2018 18.7346 11.7334 18.828 11.1734 18.7346C10.1518 18.5646 9.20426 18.3013 8.43092 17.9805C7.38592 17.5471 7.43676 16.1105 8.43009 15.6921L22.6801 9.69213Z" fill="white"/>
</g>
<defs>
<clipPath id="clip0_2717_23933">
<rect width="20" height="20" fill="white" transform="translate(6.19922 6.00049)"/>
</clipPath>
</defs>
</svg>
