<svg width="21" height="20" viewBox="0 0 21 20" fill="none" xmlns="http://www.w3.org/2000/svg">
<g clip-path="url(#clip0_2736_69090)">
<path fill-rule="evenodd" clip-rule="evenodd" d="M16.9809 3.69164C17.1868 3.60496 17.4122 3.57507 17.6336 3.60507C17.855 3.63507 18.0643 3.72386 18.2398 3.86221C18.4152 4.00056 18.5504 4.1834 18.6312 4.39171C18.712 4.60001 18.7355 4.82617 18.6992 5.04664L16.8092 16.5108C16.6259 17.6166 15.4125 18.2508 14.3984 17.7C13.55 17.2391 12.29 16.5291 11.1567 15.7883C10.59 15.4175 8.8542 14.23 9.06754 13.385C9.25087 12.6625 12.1675 9.94747 13.8342 8.3333C14.4884 7.69914 14.19 7.3333 13.4175 7.91664C11.4992 9.36497 8.4192 11.5675 7.40087 12.1875C6.50254 12.7341 6.0342 12.8275 5.4742 12.7341C4.45254 12.5641 3.50504 12.3008 2.7317 11.98C1.6867 11.5466 1.73754 10.11 2.73087 9.69164L16.9809 3.69164Z" fill="white"/>
</g>
<defs>
<clipPath id="clip0_2736_69090">
<rect width="20" height="20" fill="white" transform="translate(0.5)"/>
</clipPath>
</defs>
</svg>
