<svg width="25" height="15" viewBox="0 0 25 15" fill="none" xmlns="http://www.w3.org/2000/svg">
<path d="M1.5 3.825V4.23368L1.9005 4.315C2.63519 4.46418 3.29571 4.86277 3.77015 5.44323C4.24458 6.02369 4.50376 6.75032 4.50376 7.5C4.50376 8.24968 4.24458 8.97631 3.77015 9.55677C3.29571 10.1372 2.63519 10.5358 1.9005 10.685L1.5 10.7663V11.175V12.75C1.5 13.0815 1.6317 13.3995 1.86612 13.6339C2.10054 13.8683 2.41848 14 2.75 14H22.25C22.5815 14 22.8995 13.8683 23.1339 13.6339C23.3683 13.3995 23.5 13.0815 23.5 12.75V11.175V10.7663L23.0995 10.685C22.3648 10.5358 21.7043 10.1372 21.2299 9.55677C20.7554 8.97631 20.4962 8.24968 20.4962 7.5C20.4962 6.75032 20.7554 6.02369 21.2299 5.44323C21.7043 4.86277 22.3648 4.46418 23.0995 4.315L23.5 4.23368V3.825V2.25C23.5 1.91848 23.3683 1.60054 23.1339 1.36612C22.8995 1.1317 22.5815 1 22.25 1H2.75C2.41848 1 2.10054 1.1317 1.86612 1.36612C1.6317 1.60054 1.5 1.91848 1.5 2.25V3.825ZM1 2.25C1 1.78587 1.18437 1.34075 1.51256 1.01256C1.84075 0.684375 2.28587 0.5 2.75 0.5H22.25C22.7141 0.5 23.1592 0.684374 23.4874 1.01256C23.8156 1.34075 24 1.78587 24 2.25V4.5C24 4.5663 23.9737 4.62989 23.9268 4.67678C23.8799 4.72366 23.8163 4.75 23.75 4.75C23.0207 4.75 22.3212 5.03973 21.8055 5.55546C21.2897 6.07118 21 6.77065 21 7.5C21 8.22935 21.2897 8.92882 21.8055 9.44454C22.3212 9.96027 23.0207 10.25 23.75 10.25C23.8163 10.25 23.8799 10.2763 23.9268 10.3232C23.9737 10.3701 24 10.4337 24 10.5V12.75C24 13.2141 23.8156 13.6592 23.4874 13.9874C23.1592 14.3156 22.7141 14.5 22.25 14.5H2.75C2.28587 14.5 1.84075 14.3156 1.51256 13.9874C1.18437 13.6592 1 13.2141 1 12.75V10.5C1 10.4337 1.02634 10.3701 1.07322 10.3232C1.12011 10.2763 1.18369 10.25 1.25 10.25C1.97935 10.25 2.67882 9.96027 3.19454 9.44454C3.71027 8.92882 4 8.22935 4 7.5C4 6.77065 3.71027 6.07118 3.19454 5.55546C2.67882 5.03973 1.97935 4.75 1.25 4.75C1.1837 4.75 1.12011 4.72366 1.07322 4.67678C1.02634 4.62989 1 4.5663 1 4.5V2.25Z" fill="#B3B3B3" stroke="#B3B3B3"/>
</svg>
