<svg width="25" height="15" viewBox="0 0 25 15" fill="none" xmlns="http://www.w3.org/2000/svg">
<path d="M1.51256 1.01256C1.84075 0.684375 2.28587 0.5 2.75 0.5H22.25C22.7141 0.5 23.1592 0.684374 23.4874 1.01256C23.8156 1.34075 24 1.78587 24 2.25V4.5C24 4.5663 23.9737 4.62989 23.9268 4.67678C23.8799 4.72366 23.8163 4.75 23.75 4.75C23.0207 4.75 22.3212 5.03973 21.8055 5.55546C21.2897 6.07118 21 6.77065 21 7.5C21 8.22935 21.2897 8.92882 21.8055 9.44454C22.3212 9.96027 23.0207 10.25 23.75 10.25C23.8163 10.25 23.8799 10.2763 23.9268 10.3232C23.9737 10.3701 24 10.4337 24 10.5V12.75C24 13.2141 23.8156 13.6592 23.4874 13.9874C23.1592 14.3156 22.7141 14.5 22.25 14.5H2.75C2.28587 14.5 1.84075 14.3156 1.51256 13.9874C1.18437 13.6592 1 13.2141 1 12.75V10.5C1 10.4337 1.02634 10.3701 1.07322 10.3232C1.12011 10.2763 1.18369 10.25 1.25 10.25C1.97935 10.25 2.67882 9.96027 3.19454 9.44454C3.71027 8.92882 4 8.22935 4 7.5C4 6.77065 3.71027 6.07118 3.19454 5.55546C2.67882 5.03973 1.97935 4.75 1.25 4.75C1.1837 4.75 1.12011 4.72366 1.07322 4.67678C1.02634 4.62989 1 4.5663 1 4.5V2.25C1 1.78587 1.18437 1.34075 1.51256 1.01256Z" fill="#205C32" stroke="#205C32"/>
</svg>
