<?xml version="1.0" encoding="UTF-8"?>
<svg id="Layer_1" data-name="Layer 1" xmlns="http://www.w3.org/2000/svg" viewBox="0 0 479 670.54">
  <defs>
    <style>
      .cls-1 {
        fill: none;
        stroke: #000;
        stroke-miterlimit: 10;
        stroke-width: 5px;
      }
    </style>
  </defs>
  <path class="cls-1" d="M464.91,668.04h-191.63c-2.57-17.1-17.53-29.56-34.22-29.04-15.69.49-29.27,12.32-32,28.3-64.44.15-128.89.3-193.33.44-.88-.09-4.84-.61-7.78-4.07-2.36-2.78-2.68-5.84-2.74-6.89-.23-214.64-.47-429.28-.7-643.93.13-1.04.66-4.32,3.44-7.04,3.69-3.6,8.42-3.35,9.19-3.3h192c2.82,17.27,18.23,29.43,34.7,28.3,14.92-1.03,27.65-12.75,30.11-28.3h193.85c.88.05,4.58.38,7.56,3.45,2.55,2.63,3.03,5.68,3.15,6.67v14.02c0,143.03-.14,249.56-.18,284.06-.1,86.73-.19,203.84-.22,347.7-.33,1.19-1.23,3.79-3.63,6.07-2.97,2.83-6.37,3.41-7.56,3.56Z"/>
</svg>