<svg width="64" height="40" viewBox="0 0 64 40" fill="none" xmlns="http://www.w3.org/2000/svg">
<path d="M6 0C4.4087 0 2.88258 0.632141 1.75736 1.75736C0.632141 2.88258 0 4.4087 0 6L0 12C0 12.5304 0.210714 13.0391 0.585786 13.4142C0.960859 13.7893 1.46957 14 2 14C3.5913 14 5.11742 14.6321 6.24264 15.7574C7.36786 16.8826 8 18.4087 8 20C8 21.5913 7.36786 23.1174 6.24264 24.2426C5.11742 25.3679 3.5913 26 2 26C1.46957 26 0.960859 26.2107 0.585786 26.5858C0.210714 26.9609 0 27.4696 0 28L0 34C0 35.5913 0.632141 37.1174 1.75736 38.2426C2.88258 39.3679 4.4087 40 6 40H58C59.5913 40 61.1174 39.3679 62.2426 38.2426C63.3679 37.1174 64 35.5913 64 34V28C64 27.4696 63.7893 26.9609 63.4142 26.5858C63.0391 26.2107 62.5304 26 62 26C60.4087 26 58.8826 25.3679 57.7574 24.2426C56.6321 23.1174 56 21.5913 56 20C56 18.4087 56.6321 16.8826 57.7574 15.7574C58.8826 14.6321 60.4087 14 62 14C62.5304 14 63.0391 13.7893 63.4142 13.4142C63.7893 13.0391 64 12.5304 64 12V6C64 4.4087 63.3679 2.88258 62.2426 1.75736C61.1174 0.632141 59.5913 0 58 0H6Z" fill="#205C32"/>
</svg>
