<svg width="64" height="64" viewBox="0 0 64 64" fill="none" xmlns="http://www.w3.org/2000/svg">
<path d="M47.9999 18.6667C47.9999 19.3653 47.9545 20.0533 47.8665 20.7307C51.3615 22.6937 53.9923 25.8971 55.2384 29.707C56.4845 33.5169 56.2551 37.6558 54.5956 41.3047C52.9361 44.9536 49.9674 47.8466 46.277 49.4114C42.5865 50.9762 38.443 51.0987 34.6665 49.7547V58.6667H29.3332V49.0667C26.2591 50.6371 22.7295 51.0729 19.3657 50.2974C16.0019 49.5218 13.0194 47.5846 10.9433 44.8266C8.86708 42.0687 7.83024 38.6668 8.01522 35.2197C8.2002 31.7726 9.59515 28.5012 11.9545 25.9813C12.9971 28.834 14.6362 31.4313 16.7625 33.6L20.5705 29.8667C17.6374 26.8771 15.9959 22.8549 15.9999 18.6667C15.9999 14.4232 17.6856 10.3535 20.6862 7.35295C23.6868 4.35237 27.7564 2.66666 31.9999 2.66666C36.2433 2.66666 40.313 4.35237 43.3136 7.35295C46.3142 10.3535 47.9999 14.4232 47.9999 18.6667Z" fill="#B3B3B3"/>
</svg>
