<svg width="22" height="20" viewBox="0 0 22 20" fill="none" xmlns="http://www.w3.org/2000/svg">
<path d="M21.0702 17.4357L21.0758 17.4325L19.3274 14.4045H20.0154V14.4013C20.159 14.4013 20.2754 14.2852 20.2754 14.1417C20.2754 14.0973 20.2612 14.0574 20.2418 14.0209L20.2463 14.0183L18.6294 11.2177H19.0228V11.2156C19.072 11.2156 19.1191 11.1961 19.1539 11.1613C19.1887 11.1266 19.2083 11.0795 19.2083 11.0303C19.2076 11 19.1994 10.9704 19.1843 10.9441L19.1874 10.9422L16.835 6.86726L16.8326 6.8687C16.8069 6.81483 16.7666 6.76927 16.7163 6.73726C16.6659 6.70526 16.6076 6.68809 16.5479 6.68774C16.4222 6.68774 16.3156 6.76238 16.2635 6.86822L16.2623 6.8675L13.9098 10.9422L13.9103 10.9425C13.8945 10.9691 13.8858 10.9993 13.8851 11.0303C13.8851 11.1325 13.9682 11.2156 14.0706 11.2156V11.2177H14.4693L12.8524 14.0183L12.8531 14.0185C12.8311 14.0559 12.8189 14.0983 12.8178 14.1417C12.8178 14.2852 12.9342 14.4013 13.0778 14.4013V14.4045H13.7723L13.2683 15.2776L11.2526 11.7861H12.2236V11.7817C12.4262 11.7817 12.5903 11.6173 12.5903 11.415C12.5903 11.3526 12.5733 11.2945 12.5457 11.2429L12.5493 11.2408L10.2676 7.2887H10.8227V7.28582C10.8571 7.28585 10.8912 7.27909 10.923 7.26593C10.9548 7.25277 10.9837 7.23346 11.008 7.20912C11.0323 7.18477 11.0516 7.15586 11.0648 7.12405C11.0779 7.09224 11.0846 7.05816 11.0846 7.02374C11.0846 6.9791 11.0704 6.93902 11.0507 6.9023L11.0553 6.89966L7.73512 1.14998L7.73392 1.1507C7.69727 1.07465 7.63995 1.01045 7.56852 0.965455C7.49708 0.920464 7.41442 0.896498 7.33 0.896301C7.14808 0.896301 6.99208 1.00478 6.92104 1.1603L3.60736 6.89966L3.60808 6.90014C3.58581 6.93769 3.57358 6.98034 3.57256 7.02398C3.5725 7.05837 3.57922 7.09244 3.59233 7.12424C3.60545 7.15603 3.62471 7.18493 3.64901 7.20927C3.67331 7.23361 3.70217 7.25293 3.73394 7.2661C3.76571 7.27928 3.79976 7.28606 3.83416 7.28606V7.28894H4.39696L2.14216 11.1942C2.09331 11.2575 2.06666 11.3351 2.06632 11.415C2.06632 11.6176 2.23072 11.7817 2.43304 11.7817V11.7861H3.4132L0.979599 16.0017C0.921999 16.077 0.886719 16.1701 0.886719 16.2724C0.886719 16.5201 1.08784 16.7212 1.33576 16.7212V16.7262H6.08272V18.7494C6.08272 18.945 6.24136 19.1039 6.43696 19.1039H8.20888C8.40448 19.1039 8.56336 18.9453 8.56336 18.7494V16.7262H12.4322L12.0244 17.4325L12.0251 17.433C12.0002 17.4784 11.9819 17.5281 11.9819 17.5837C11.9819 17.7594 12.1242 17.9017 12.2999 17.9017V17.9053H15.6638V18.8512C15.6638 18.9899 15.7763 19.1022 15.9148 19.1022H17.1705C17.3092 19.1022 17.4215 18.9899 17.4215 18.8512V17.9053H20.7935V17.9017C20.9692 17.9017 21.1118 17.7594 21.1118 17.5837C21.1105 17.5317 21.0963 17.4808 21.0702 17.4357Z" fill="#205C32"/>
</svg>
