<svg width="14" height="20" viewBox="0 0 14 20" fill="none" xmlns="http://www.w3.org/2000/svg">
<path d="M4 20L2.65 15.45C1.85 14.8167 1.20833 14.025 0.725 13.075C0.241667 12.125 0 11.1 0 10C0 8.9 0.241667 7.875 0.725 6.925C1.20833 5.975 1.85 5.18333 2.65 4.55L4 0H10L11.35 4.55C12.15 5.18333 12.7917 5.975 13.275 6.925C13.7583 7.875 14 8.9 14 10C14 11.1 13.7583 12.125 13.275 13.075C12.7917 14.025 12.15 14.8167 11.35 15.45L10 20H4ZM7 15C8.38333 15 9.56267 14.5123 10.538 13.537C11.5133 12.5617 12.0007 11.3827 12 10C12 8.61667 11.5123 7.43767 10.537 6.463C9.56167 5.48833 8.38267 5.00067 7 5C5.61667 5 4.43767 5.48767 3.463 6.463C2.48833 7.43833 2.00067 8.61733 2 10C2 11.3833 2.48767 12.5627 3.463 13.538C4.43833 14.5133 5.61733 15.0007 7 15Z" fill="#205C32"/>
</svg>
