<svg width="335" height="270" viewBox="0 0 335 270" fill="none" xmlns="http://www.w3.org/2000/svg">
<path opacity="0.25" d="M280.736 201.965C279.017 188.025 285.347 177.167 288.777 170.39C304.694 138.936 316.135 78.6172 295.937 59.2125C283.972 47.7339 258.038 39.865 220.949 58.7702C204.202 67.3311 180.731 75.5067 156.68 68.9933C133.575 62.7439 131.105 48.647 108.028 41.8839C80.9266 33.9081 41.3385 40.664 23.2021 67.6593C10.2065 87.0282 10.8366 113.082 17.8463 131.259C27.3048 155.793 45.7706 158.219 51.6777 185.985C53.0095 192.277 55.9738 204.797 51.6777 219.072C45.4842 239.569 30.0686 245.155 32.5818 253.551C35.4959 263.296 59.4894 266.649 79.4445 263.782C85.0348 262.926 90.5108 261.447 95.7695 259.373C151.375 239.083 154.711 253.737 161.85 252.217C191.206 245.961 190.075 250.741 234.79 252.217C259.077 253.023 290.96 248.122 294.283 235.024C296.588 225.836 282.97 220.028 280.736 201.965Z" fill="#67AF79"/>
<path opacity="0.25" d="M0.975309 180.537C1.7341 173.07 5.64917 160.857 13.8102 159.024C23.2225 156.917 33.991 169.518 37.5831 180.537C43.0561 197.15 35.1615 218.622 25.4747 220.164C14.9081 221.859 -1.01855 200.144 0.975309 180.537Z" fill="#67AF79"/>
<path opacity="0.25" d="M165.027 57.7773C157.56 57.0104 145.347 53.1357 143.514 44.9424C141.416 35.5301 154.008 24.802 165.027 21.1695C181.648 15.6964 203.112 23.5911 204.662 33.2779C206.349 43.8445 184.635 59.7711 165.027 57.7773Z" fill="#67AF79"/>
<path d="M256.163 214.071C255.233 210.628 252.669 207.255 250.016 204.725C238.074 193.315 231.229 179.632 230.644 163.055C230.349 154.571 230.569 146.062 230.5 137.572C230.167 105.588 209.972 81.5217 178.507 75.7316C177.74 75.5869 160.543 75.5491 159.789 75.675C132.441 80.0805 111.422 101.479 108.493 129.019C107.381 139.586 107.947 150.361 107.783 161.022C107.544 178.405 100.938 192.912 88.1852 204.637C82.038 210.301 80.1021 216.412 82.5723 222.888C85.0424 229.364 90.6553 232.776 98.9144 232.776C111.485 232.776 124.056 232.776 136.822 232.776C141.687 248.805 152.975 258.403 167.3 259.045C183.321 259.781 193.988 251.7 201.744 232.776C214.767 232.776 227.904 232.851 241.022 232.776C251.405 232.7 258.778 223.87 256.163 214.071ZM170.6 245.891C166.364 246.228 162.138 245.133 158.597 242.781C155.055 240.43 152.403 236.958 151.065 232.92H187.011C185.804 239.554 178.488 245.338 170.6 245.891ZM238.765 219.584C215.513 219.66 192.257 219.679 168.997 219.641C145.854 219.641 122.73 219.641 99.6121 219.565C98.0533 219.565 96.4694 218.596 94.942 218.061C95.7465 216.746 96.2996 215.185 97.3933 214.159C112.981 199.529 120.848 181.51 120.995 160.103C121.052 149.845 120.593 139.498 121.743 129.334C124.49 105.167 146.256 87.3999 171.14 88.1363C194.905 88.8474 215.503 108.276 216.967 131.99C217.646 143.054 217.036 154.187 217.627 165.271C218.633 184.648 226.754 200.792 240.821 214.071C241.958 215.153 242.43 216.909 243.222 218.338C241.732 218.785 240.249 219.565 238.765 219.584Z" fill="#205C32"/>
<path d="M150.79 78.7651C150.042 68.0849 158.596 58.9277 169.036 58.9277C179.476 58.9277 188.062 68.0849 187.264 78.7651H150.79Z" fill="#205C32"/>
<circle cx="221.988" cy="103.325" r="26.6386" fill="#318349"/>
<path d="M221.536 113.945C216.144 113.945 212.721 109.425 212.721 103.193C212.721 96.961 216.144 92.4405 221.536 92.4405C226.928 92.4405 230.448 96.961 230.448 103.193C230.448 109.425 226.928 113.945 221.536 113.945ZM221.536 110.458C224.507 110.458 226.735 107.81 226.735 103.193C226.735 98.5754 224.507 96.0246 221.536 96.0246C218.565 96.0246 216.305 98.5754 216.305 103.193C216.305 107.81 218.565 110.458 221.536 110.458Z" fill="white"/>
<path d="M61.4299 79.9764H80.6484L79.9251 88.3975H48.5142L49.2892 79.7698L67.1644 61.2746H48.9275L49.6508 52.8536H79.8735L79.0985 61.3262L61.4299 79.9764Z" fill="#205C32"/>
<path d="M93.1537 106.793H103.964L103.557 111.53H85.8886L86.3245 106.677L96.3794 96.2734H86.1211L86.5279 91.5366H103.528L103.092 96.3025L93.1537 106.793Z" fill="#205C32"/>
</svg>
