<svg width="21" height="20" viewBox="0 0 21 20" fill="none" xmlns="http://www.w3.org/2000/svg">
<path d="M10.5013 1.66699C15.1038 1.66699 18.8346 5.39783 18.8346 10.0003C18.8346 14.6028 15.1038 18.3337 10.5013 18.3337C9.02863 18.336 7.58186 17.9463 6.30965 17.2045L2.17131 18.3337L3.29798 14.1937C2.55556 12.9211 2.16552 11.4737 2.16798 10.0003C2.16798 5.39783 5.89881 1.66699 10.5013 1.66699ZM7.66131 6.08366L7.49465 6.09033C7.38675 6.0969 7.2813 6.12524 7.18465 6.17366C7.09425 6.22485 7.01173 6.28885 6.93965 6.36366C6.83965 6.45783 6.78298 6.53949 6.72215 6.61866C6.41392 7.01941 6.24796 7.51142 6.25048 8.01699C6.25215 8.42533 6.35881 8.82283 6.52548 9.19449C6.86631 9.94616 7.42715 10.742 8.16715 11.4795C8.34548 11.657 8.52048 11.8353 8.70881 12.0012C9.6283 12.8107 10.724 13.3945 11.9088 13.7062L12.3821 13.7787C12.5363 13.787 12.6905 13.7753 12.8455 13.7678C13.0882 13.7553 13.3252 13.6896 13.5396 13.5753C13.6488 13.5191 13.7553 13.4579 13.8588 13.392C13.8588 13.392 13.8946 13.3687 13.963 13.317C14.0755 13.2337 14.1446 13.1745 14.238 13.077C14.3071 13.0053 14.3671 12.9212 14.413 12.8253C14.478 12.6895 14.543 12.4303 14.5696 12.2145C14.5896 12.0495 14.5838 11.9595 14.5813 11.9037C14.578 11.8145 14.5038 11.722 14.423 11.6828L13.938 11.4653C13.938 11.4653 13.213 11.1495 12.7696 10.9478C12.7233 10.9276 12.6735 10.916 12.623 10.9137C12.566 10.9078 12.5084 10.9142 12.454 10.9325C12.3997 10.9507 12.3499 10.9804 12.308 11.0195C12.3038 11.0178 12.248 11.0653 11.6455 11.7953C11.6109 11.8418 11.5633 11.8769 11.5086 11.8962C11.454 11.9155 11.3949 11.9181 11.3388 11.9037C11.2845 11.8891 11.2313 11.8707 11.1796 11.8487C11.0763 11.8053 11.0405 11.7887 10.9696 11.7587C10.4914 11.5499 10.0486 11.268 9.65715 10.9228C9.55215 10.8312 9.45465 10.7312 9.35465 10.6345C9.0268 10.3205 8.74108 9.96533 8.50465 9.57783L8.45548 9.49866C8.42017 9.44546 8.39161 9.38808 8.37048 9.32783C8.33881 9.20533 8.42131 9.10699 8.42131 9.10699C8.42131 9.10699 8.62381 8.88532 8.71798 8.76533C8.80965 8.64866 8.88715 8.53533 8.93715 8.45449C9.03548 8.29616 9.06631 8.13366 9.01465 8.00783C8.78131 7.43783 8.53965 6.87033 8.29131 6.30699C8.24215 6.19533 8.09631 6.11533 7.96381 6.09949C7.91881 6.09449 7.87381 6.08949 7.82881 6.08616C7.7169 6.0806 7.60476 6.08171 7.49298 6.08949L7.66131 6.08366Z" fill="white"/>
</svg>
