<svg width="33" height="32" viewBox="0 0 33 32" fill="none" xmlns="http://www.w3.org/2000/svg">
<circle cx="16.5996" cy="16.0005" r="16" fill="#1A1A1A"/>
<path d="M16.6009 7.66748C21.2034 7.66748 24.9343 11.3983 24.9343 16.0008C24.9343 20.6033 21.2034 24.3341 16.6009 24.3341C15.1282 24.3365 13.6815 23.9468 12.4093 23.205L8.27092 24.3341L9.39759 20.1941C8.65517 18.9215 8.26513 17.4741 8.26759 16.0008C8.26759 11.3983 11.9984 7.66748 16.6009 7.66748ZM13.7609 12.0841L13.5943 12.0908C13.4864 12.0974 13.3809 12.1257 13.2843 12.1741C13.1939 12.2253 13.1113 12.2893 13.0393 12.3641C12.9393 12.4583 12.8826 12.54 12.8218 12.6191C12.5135 13.0199 12.3476 13.5119 12.3501 14.0175C12.3518 14.4258 12.4584 14.8233 12.6251 15.195C12.9659 15.9466 13.5268 16.7425 14.2668 17.48C14.4451 17.6575 14.6201 17.8358 14.8084 18.0016C15.7279 18.8112 16.8236 19.395 18.0084 19.7066L18.4818 19.7791C18.6359 19.7875 18.7901 19.7758 18.9451 19.7683C19.1878 19.7558 19.4248 19.6901 19.6393 19.5758C19.7484 19.5196 19.8549 19.4584 19.9584 19.3925C19.9584 19.3925 19.9943 19.3691 20.0626 19.3175C20.1751 19.2341 20.2443 19.175 20.3376 19.0775C20.4068 19.0058 20.4668 18.9216 20.5126 18.8258C20.5776 18.69 20.6426 18.4308 20.6693 18.215C20.6893 18.05 20.6834 17.96 20.6809 17.9041C20.6776 17.815 20.6034 17.7225 20.5226 17.6833L20.0376 17.4658C20.0376 17.4658 19.3126 17.15 18.8693 16.9483C18.8229 16.9281 18.7732 16.9165 18.7226 16.9141C18.6656 16.9083 18.608 16.9147 18.5536 16.933C18.4993 16.9512 18.4495 16.9809 18.4076 17.02C18.4034 17.0183 18.3476 17.0658 17.7451 17.7958C17.7105 17.8423 17.6629 17.8774 17.6083 17.8967C17.5536 17.916 17.4945 17.9186 17.4384 17.9041C17.3841 17.8896 17.3309 17.8712 17.2793 17.8491C17.1759 17.8058 17.1401 17.7891 17.0693 17.7591C16.591 17.5504 16.1482 17.2684 15.7568 16.9233C15.6518 16.8316 15.5543 16.7316 15.4543 16.635C15.1264 16.321 14.8407 15.9658 14.6043 15.5783L14.5551 15.4991C14.5198 15.446 14.4912 15.3886 14.4701 15.3283C14.4384 15.2058 14.5209 15.1075 14.5209 15.1075C14.5209 15.1075 14.7234 14.8858 14.8176 14.7658C14.9093 14.6491 14.9868 14.5358 15.0368 14.455C15.1351 14.2966 15.1659 14.1341 15.1143 14.0083C14.8809 13.4383 14.6393 12.8708 14.3909 12.3075C14.3418 12.1958 14.1959 12.1158 14.0634 12.1C14.0184 12.095 13.9734 12.09 13.9284 12.0866C13.8165 12.0811 13.7044 12.0822 13.5926 12.09L13.7609 12.0841Z" fill="white"/>
</svg>
